<svg xmlns="http://www.w3.org/2000/svg" width="636" height="293" fill="none" viewBox="0 0 636 293">
    <rect width="189" height="284" fill="#F8CA06" rx="94.5" transform="matrix(1 0 0 -1 208.824 284)"/>
    <ellipse fill="#F8CA06" rx="105.5" ry="105" transform="matrix(1 0 0 -1 530.324 173)"/>
    <path fill="#F8CA06" d="M147.824 133.5l75.138-23.5 5.862 8.5-69.276 56.5-11.724-41.5z" opacity=".2"/>
    <ellipse cx="182.324" cy="290" fill="#181C19" opacity=".1" rx="23.5" ry="3"/>
    <path fill="#fff" d="M183.324 287c10.77 0 19.5-8.73 19.5-19.5s-8.73-19.5-19.5-19.5c-10.769 0-19.5 8.73-19.5 19.5s8.731 19.5 19.5 19.5z"/>
    <rect width="3.177" height="12.508" x="183.736" y="260.749" fill="#181C19" rx="1.588" transform="rotate(30 183.736 260.749)"/>
    <circle cx="188.345" cy="265.474" r="1.787" fill="#181C19" transform="rotate(30 188.345 265.474)"/>
    <path stroke="#181C19" stroke-linecap="round" stroke-linejoin="round" stroke-miterlimit="10" stroke-width="5" d="M147.97 135.578l-5.915-23.629M176.225 248.463l-18.44-73.726M49.428 267.3h113.844M183.428 287.458c11.133 0 20.158-9.025 20.158-20.158 0-11.133-9.025-20.158-20.158-20.158-11.133 0-20.158 9.025-20.158 20.158 0 11.133 9.025 20.158 20.158 20.158zM22.658 287.458c11.133 0 20.158-9.025 20.158-20.158 0-11.133-9.025-20.158-20.158-20.158-11.133 0-20.158 9.025-20.158 20.158 0 11.133 9.025 20.158 20.158 20.158z"/>
    <path stroke="#181C19" stroke-linecap="round" stroke-linejoin="round" stroke-miterlimit="10" stroke-width="5" d="M49.426 267.3c0-14.772-11.996-26.768-26.768-26.768-8.03 0-15.234 3.536-20.158 9.154M138.154 102.597c.727-.396 1.553-.628 2.445-.628 2.049 0 3.834 1.223 4.627 2.974.297.661.462 1.355.462 2.115 0 1.256-.462 2.413-1.222 3.305-.628.727-1.487 1.289-2.446 1.553-.429.132-.892.198-1.388.198-2.61 0-4.758-1.949-5.023-4.494-.033-.198-.033-.363-.033-.562 0-1.916 1.058-3.569 2.578-4.461z"/>
    <path stroke="#181C19" stroke-linecap="round" stroke-linejoin="round" stroke-miterlimit="10" stroke-width="1.4" d="M176.225 248.497s-16.028-19.861-15.433-41.573c.396-14.87 3.338-34.996 2.478-52.576-.859-17.581-21.215-42.399-21.215-42.399"/>
    <path stroke="#F8CA06" stroke-linecap="round" stroke-linejoin="round" stroke-miterlimit="10" stroke-width="5" d="M157.783 174.737l-9.814-39.16"/>
    <mask id="prefix__a" width="190" height="284" x="208" y="0" maskUnits="userSpaceOnUse">
        <rect width="189" height="284" fill="#F8CA06" rx="94.5" transform="matrix(1 0 0 -1 208.824 284)"/>
    </mask>
    <g mask="url(#prefix__a)">
        <path fill="#FFDC45" d="M147.824 133.5l75.138-23.5 5.862 8.5-69.276 56.5-11.724-41.5z"/>
        <path stroke="#181C19" stroke-linecap="round" stroke-linejoin="round" stroke-miterlimit="10" stroke-width="1.4" d="M293.498 90.14c.898 2.538 1.21 5.7 1.21 5.7.703 4.022 6.521 4.842 6.521 4.842 4.568.703 5.388 3.983 5.544 7.067.82-.468 10.231-1.21 14.135-9.917l-.039-.04c-3.592-2.576-7.341-2.615-7.301-2.576.702-.196.937-.625.312-1.64-.156-.274-.391-.625-.703-1.016-.078-.078-.156-.195-.234-.273-.156-.156-.274-.312-.43-.468l-.156-.157c-.625-.624-1.327-1.171-2.069-1.64l-.039-.039c-.547-.351-1.094-.663-1.679-.937-5.701-2.85-10.23-3.163-10.23-3.163-1.758 3.32-4.842 4.257-4.842 4.257zM313.406 95.293c-1.444.469-4.802-.39-4.802-.39"/>
        <path fill="#fff" stroke="#181C19" stroke-linecap="round" stroke-linejoin="round" stroke-miterlimit="10" stroke-width="1.4" d="M301.463 74.794c1.835 2.616 3.436 5.584 4.646 8.122.39.82.742 1.6 1.054 2.343.039.117.078.234.156.35 0 .04.039.079.039.118.82 1.952 1.211 3.28 1.094 3.28.585.312 1.21.703 1.757 1.054 0 0 .039 0 .039.04.742.507 1.445 1.053 2.069 1.64l.157.155c.117.117.234.235.312.352.117.156.234.273.351.43 1.133 1.522.781 2.381.039 2.693-.078.04-.156.079-.234.079 0 0 1.718.117 7.848 2.381h.039c5.623-9.8 0-30.807-19.366-23.037z"/>
        <path fill="#181C19" stroke="#181C19" stroke-linecap="round" stroke-linejoin="round" stroke-miterlimit="10" stroke-width="1.4" d="M298.143 85.766s4.608.43 10.23 3.163c.313-.04-2.577-8.083-6.989-14.096-2.811-4.06-6.286-7.223-9.8-6.794-6.638.898-.118 13.744 6.559 17.727z"/>
        <path fill="#F8CA06" stroke="#181C19" stroke-linecap="round" stroke-linejoin="round" stroke-miterlimit="10" stroke-width="1.4" d="M233.758 155.19c7.575 4.1 7.106 6.287 7.106 6.287.586 6.481 5.584 10.464 5.584 10.464 7.848 6.911 15.579 12.182 22.92 16.243 32.721 18.04 58.335 11.48 58.335 11.48s-10.074-24.638-34.243-35.962c-17.103-8.004-19.016-25.692-19.016-25.692-19.172-1.211-31.627-15.697-35.727-21.28-1.796-2.421-3.866-4.608-6.287-6.443-4.958-3.748-10.62-5.544 0 17.532 7.38 16.087 10.152 24.521 16.048 29.128-6.481-4.529-11.87-4.998-11.87-4.998-11.284-1.366-2.85 3.241-2.85 3.241z"/>
        <path fill="#181C19" stroke="#181C19" stroke-linecap="round" stroke-linejoin="round" stroke-miterlimit="10" stroke-width="1.4" d="M266.865 206.418c52.479 39.71 112.649 4.139 112.649 4.139-7.107-100.661-58.648-112.726-58.648-112.726h-.039l.039.04c-3.904 8.706-13.314 9.448-14.134 9.917 0 0-5.506 30.729-30.456 30.3-.586 0-1.211-.039-1.797-.078 0 0 1.875 17.687 19.016 25.692 24.17 11.323 34.243 35.961 34.243 35.961s-25.614 6.599-58.335-11.479c-1.483 7.77-2.538 18.234-2.538 18.234z"/>
        <path stroke="#181C19" stroke-linecap="round" stroke-linejoin="round" stroke-miterlimit="10" stroke-width="1.4" d="M248.517 156.908c6.833 5.35 17.805 5.584 44.825 6.716"/>
        <path fill="#fff" stroke="#181C19" stroke-linecap="round" stroke-linejoin="round" stroke-miterlimit="10" stroke-width="1.4" d="M258.784 382.087c-.039 3.475 3.787 4.452 13.393 4.452 9.605 0 15.072 1.64 18.664-8.161 3.592-9.801 25.38-113.82 29.987-113.82 8.2 0 19.68 55.095 23.858 68.605 3.592 11.635 11.479 30.729 3.397 45.645-2.499 4.568-3.671 6.052.156 7.34 3.865 1.25 19.054 1.172 20.538-.546 1.484-1.718 11.558-111.985 11.597-139.005.039-27.254-.859-36.039-.859-36.039s-60.131 35.571-112.648-4.139c-3.163 24.482 4.099 90.079 4.099 90.079s4.256 44.357 3.046 59.585c-1.21 15.228-4.412 18.547-7.145 20.108-2.734 1.523-8.005 2.46-8.083 5.896zM243.814 129.849l3.788-3.67c.468-.469.976-.937 1.483-1.367 1.953-1.757 2.343-4.764.781-6.989l-12.221-17.844c-.703-1.016-1.679-1.718-2.772-2.07-1.914-.585-3.983 0-5.389 1.406l-3.982 3.514c-.469.469-.977.937-1.484 1.367-1.953 1.757-2.343 4.763-.781 6.989l12.417 18c.702 1.015 1.679 1.718 2.772 2.07 1.913.624 4.022 0 5.388-1.406z"/>
        <path fill="#181C19" d="M229.951 98.964l.352.507c.585.859.468 1.992-.235 2.733l-2.85 2.382c-.859.859-2.265.703-2.967-.273l-.118-.117"/>
        <path stroke="#181C19" stroke-linecap="round" stroke-linejoin="round" stroke-miterlimit="10" stroke-width="1.4" d="M229.951 98.964l.352.507c.585.859.468 1.992-.235 2.733l-2.85 2.382c-.859.859-2.265.703-2.967-.273l-.118-.117"/>
        <path fill="#181C19" fill-rule="evenodd" d="M241.436 111.965c-.174-.243-.522-.313-.8-.139l-2.469 2.609c-.244.174-.313.521-.139.8l1.912 2.817c.174.243.522.313.8.139l2.47-2.609c.243-.174.313-.521.139-.8l-1.913-2.817zm-.487 1.044l1.391 2.086-1.808 1.844-1.357-2.052 1.774-1.878zM238.272 107.236c-.174-.244-.522-.313-.8-.139l-2.469 2.608c-.244.174-.313.522-.139.8l1.912 2.817c.174.243.522.313.8.139l2.47-2.608c.243-.174.313-.522.139-.8l-1.913-2.817zm-.487 1.043l1.391 2.087-1.808 1.843-1.357-2.052 1.774-1.878zM234.059 111.444c-.174-.243-.522-.313-.8-.139l-2.469 2.608c-.244.174-.313.522-.139.8l1.913 2.817c.173.244.521.313.799.139l2.47-2.608c.243-.174.313-.522.139-.8l-1.913-2.817zm-.487 1.078l1.391 2.087-1.808 1.843-1.357-2.052 1.774-1.878z" clip-rule="evenodd"/>
        <path fill="#181C19" d="M237.577 118.852c.104 0 .174-.035.278-.07.209-.139.278-.452.139-.66l-.765-1.183c-.07-.139-.209-.209-.383-.209-.139 0-.313.035-.382.14l-.974 1.043c-.174.209-.174.522.035.695.208.174.521.174.695-.034l.557-.592.417.661c.07.139.244.209.383.209zM236.357 122.016c.139 0 .278-.069.348-.139l.973-1.043c.174-.209.174-.522-.034-.696-.209-.174-.487-.174-.696.035l-.556.591-.418-.661c-.139-.208-.452-.278-.661-.139-.208.139-.278.452-.139.661l.765 1.182c.07.14.209.209.383.209h.035z"/>
    </g>
    <ellipse fill="#181C19" opacity=".1" rx="19.651" ry="2.124" transform="matrix(-1 0 0 1 471.912 285.879)"/>
    <path fill="#181C19" fill-rule="evenodd" d="M478.755 183.614c-.926-1.064-2.081-1.828-3.334-1.437-1.474.459-2.639 1.706-3.565 3.345-.932 1.651-1.678 3.799-2.27 6.239-1.186 4.884-1.787 11.075-1.962 17.139-.115 3.997-.046 7.955.169 11.471-.5-.824-.972-1.602-1.379-2.296l-.015-.024c-1.913-2.981-4.22-6.278-6.523-9.117-2.286-2.817-4.623-5.255-6.598-6.441-.975-.585-2.004-.953-2.95-.736-1.018.232-1.674 1.066-2.032 2.255-.356 1.179-.468 2.838-.331 5.029.138 2.202.532 4.993 1.226 8.463 1.239 6.198 2.996 11.59 4.9 16.112l-.267-.274c-1.994-2.043-4.688-3.87-7.399-5.197-2.701-1.322-5.495-2.184-7.696-2.224-1.1-.02-2.129.163-2.922.676-.83.535-1.323 1.381-1.404 2.488-.077 1.07.23 2.367.917 3.896.692 1.538 1.793 3.365 3.372 5.514 6.284 8.552 13.427 15.361 17.642 19.346l.288.273c.628.593 1.181 1.116 1.649 1.567-.278-.134-.583-.285-.917-.452-4.933-2.466-8.974-4.183-12.206-5.262-3.218-1.075-5.691-1.538-7.464-1.444-.891.047-1.656.237-2.255.606-.616.38-1.022.93-1.201 1.606-.339 1.283.167 2.894 1.12 4.597 1.94 3.467 6.129 7.998 11.803 12.641 5.689 4.655 12.922 9.464 21.005 13.471.346.172.766.031.938-.316.172-.346.03-.766-.316-.938-7.987-3.959-15.131-8.711-20.741-13.301-5.625-4.603-9.655-9.002-11.468-12.241-.923-1.651-1.178-2.836-.987-3.555.086-.325.267-.578.582-.772.332-.205.843-.36 1.594-.4 1.509-.08 3.782.317 6.946 1.374 3.15 1.051 7.127 2.738 12.024 5.186 1.323.662 2.272 1.104 2.875 1.32.153.054.298.1.43.13.12.028.282.056.448.04.161-.015.513-.099.676-.473.134-.307.029-.586-.012-.684-.097-.233-.292-.478-.479-.693-.207-.236-.477-.517-.798-.836-.581-.579-1.359-1.314-2.28-2.185l-.292-.276c-4.211-3.981-11.272-10.716-17.476-19.158-1.543-2.101-2.585-3.84-3.223-5.259-.642-1.428-.851-2.479-.797-3.221.051-.705.336-1.135.766-1.413.467-.301 1.179-.47 2.137-.452 1.913.035 4.496.804 7.106 2.081 2.601 1.273 5.153 3.013 7.013 4.918 1.097 1.124 2.108 2.184 3.037 3.183 2.935 5.975 5.943 9.953 7.777 11.722.43.415.825.738 1.163.934.164.096.361.189.569.226.21.037.561.032.832-.253.243-.255.26-.575.25-.757-.012-.202-.067-.413-.138-.616-.145-.412-.408-.934-.782-1.558-1.238-2.06-3.888-5.53-8.505-10.5-2.465-5.058-4.885-11.59-6.461-19.471-.687-3.435-1.069-6.159-1.202-8.277-.133-2.13-.01-3.594.274-4.537.282-.933.671-1.218 1.004-1.295.404-.092 1.031.04 1.917.573 1.747 1.049 3.953 3.314 6.232 6.122 2.258 2.785 4.533 6.032 6.425 8.979.442.754.945 1.583 1.471 2.45.439.724.895 1.474 1.345 2.231.063.675.132 1.326.206 1.947.267 2.233.608 4.119 1.013 5.461.2.667.429 1.241.696 1.663.242.383.652.852 1.273.852.614 0 1.184-.192 1.545-.693.334-.464.379-1.049.325-1.585-.109-1.075-.675-2.478-1.4-3.942-.645-1.302-1.458-2.735-2.293-4.146-.364-4.067-.517-9.044-.372-14.093.174-6.016.77-12.098 1.923-16.849.577-2.377 1.286-4.387 2.129-5.881.85-1.505 1.782-2.391 2.763-2.697.399-.124 1.008.04 1.861 1.02.82.942 1.682 2.447 2.525 4.397 1.681 3.886 3.21 9.362 4.189 15.134.979 5.773 1.399 11.794.889 16.772-.021.2-.043.398-.066.594-2.08 2.829-3.849 5.553-4.868 7.505-.296.568-.536 1.083-.703 1.525-.158.421-.279.85-.271 1.217.004.187.042.44.208.664.187.253.459.367.719.385.233.017.457-.042.643-.112.194-.073.399-.179.612-.309 1.567-.953 2.714-2.529 3.531-4.467.711-1.688 1.187-3.685 1.472-5.871.26-.35.525-.703.794-1.055 2.493-3.27 5.31-6.536 7.784-8.777 1.241-1.125 2.363-1.961 3.289-2.42.969-.48 1.494-.439 1.757-.263.195.13.46.483.679 1.21.213.703.352 1.654.385 2.826.064 2.341-.301 5.471-1.269 9.058-.69 2.555-1.683 5.332-3.038 8.21-2.574 1.913-5.049 4.55-7.119 7.154-2.45 3.082-4.382 6.184-5.271 8.108-.222.481-.392.914-.484 1.27-.046.175-.08.361-.082.54-.002.157.019.438.219.677.244.291.584.33.823.292.213-.034.406-.133.56-.227.317-.195.699-.524 1.14-.966 5.152-5.152 8.82-10.689 11.327-15.927.349-.251.698-.486 1.048-.704 2.897-1.809 5.558-2.299 7.719-.814.473.325.951 1.052 1.012 2.443.06 1.393-.309 3.388-1.471 6.091-2.324 5.406-7.746 13.479-18.769 24.926-.254.263-.261.678-.018.951.244.273.657.312.948.09 3.528-2.7 7.825-5.002 11.504-6.373 1.842-.686 3.5-1.128 4.812-1.28.656-.076 1.201-.076 1.627-.01.43.067.686.193.827.322.196.178.422.635-.167 1.88-.571 1.209-1.805 2.889-3.935 5.119-4.247 4.445-11.896 10.911-24.367 19.932-.313.227-.384.664-.157.978.227.313.664.383.977.156 12.491-9.036 20.223-15.56 24.559-20.099 2.162-2.263 3.52-4.073 4.189-5.487.651-1.378.765-2.674-.156-3.514-.417-.38-.97-.579-1.556-.67-.591-.092-1.27-.082-2.002.002-1.465.17-3.239.651-5.14 1.359-2.172.81-4.546 1.929-6.86 3.26 8.398-9.252 12.867-16.096 14.97-20.989 1.21-2.816 1.656-5.028 1.583-6.705-.072-1.68-.674-2.887-1.617-3.536-2.631-1.808-5.662-1.246-8.511.341.946-2.24 1.679-4.404 2.227-6.435.996-3.689 1.386-6.957 1.317-9.462-.034-1.25-.184-2.333-.443-3.192-.252-.834-.642-1.569-1.243-1.97-.933-.622-2.101-.348-3.155.174-1.098.543-2.331 1.479-3.608 2.636-2.372 2.15-5.012 5.17-7.388 8.226.294-4.781-.149-10.26-1.036-15.493-.992-5.848-2.547-11.439-4.284-15.456-.865-2.002-1.796-3.658-2.754-4.76zm16.557 50.36c-2.31 4.166-5.39 8.444-9.403 12.487.859-1.808 2.687-4.735 5.028-7.68 1.336-1.681 2.824-3.348 4.375-4.807zm-9.908 13.87v-.001.001zm-.732-23.207c-.233.965-.518 1.855-.856 2.657-.727 1.727-1.684 3-2.876 3.758l.036-.099c.139-.37.351-.83.633-1.37.693-1.327 1.764-3.055 3.063-4.946zm-3.878 7.021v-.005.005zm-10.995-5.084c.224.417.437.828.634 1.226.724 1.462 1.181 2.663 1.262 3.462.04.4-.028.57-.069.626-.013.018-.071.099-.344.11-.027-.025-.08-.082-.154-.199-.167-.265-.352-.699-.539-1.318-.293-.974-.561-2.302-.79-3.907zm1.506 5.442l-.001-.001.001.001zm-11.25 10.2c2.14 2.541 3.51 4.433 4.275 5.706l.028.047c-1.104-1.126-2.632-3.058-4.303-5.753zm4.997 7.24v-.002.002z" clip-rule="evenodd"/>
    <path fill="#fff" fill-rule="evenodd" d="M442.046 137.692c.755-1.869 2.306-3.644 4.259-5.06 2.456-1.781 5.642-3.067 8.972-3.296 3.341-.229 6.837.608 9.852 3.087 3.01 2.476 5.479 6.536 6.879 12.643.086.376-.15.752-.526.838-.377.087-.753-.149-.839-.526-1.351-5.893-3.694-9.646-6.403-11.873-2.703-2.223-5.833-2.98-8.867-2.772-3.045.209-5.983 1.391-8.246 3.032-2.28 1.654-3.781 3.701-4.112 5.579-.05.281-.266.505-.546.563-.28.059-.568-.059-.726-.297-2.788-4.181-7.427-5.022-11.509-3.661-4.108 1.369-7.478 4.913-7.71 9.31-.02.386-.349.682-.736.662-.386-.02-.682-.35-.662-.736.269-5.103 4.148-9.059 8.665-10.565 4.158-1.386 9.001-.741 12.255 3.072zM318.677 23.404c-5.295 2.29-9.183 8.082-10.477 12.854-.101.373-.486.593-.859.492-.373-.101-.593-.486-.492-.859 1.372-5.061 5.484-11.269 11.273-13.772 2.92-1.262 6.258-1.575 9.837-.322 3.353 1.173 6.869 3.703 10.442 8.012 1.794-2.809 5.834-4.634 10.001-3.86 4.733.879 9.511 5.04 11.803 14.46.091.376-.14.754-.515.846-.376.091-.754-.14-.846-.515-2.208-9.08-6.68-12.669-10.697-13.415-4.108-.763-7.874 1.374-8.976 4.019-.096.229-.305.39-.551.424-.246.034-.491-.065-.645-.26-3.696-4.682-7.241-7.257-10.479-8.39-3.223-1.128-6.198-.847-8.819.287z" clip-rule="evenodd"/>
</svg>
