<?xml version="1.0" encoding="utf-8"?>
<!-- Generator: Adobe Illustrator 23.0.3, SVG Export Plug-In . SVG Version: 6.00 Build 0)  -->
<svg version="1.1" id="Слой_1" xmlns="http://www.w3.org/2000/svg" xmlns:xlink="http://www.w3.org/1999/xlink" x="0px" y="0px"
	 viewBox="0 0 375 388" style="enable-background:new 0 0 375 388;" xml:space="preserve">
<style type="text/css">
	.st0{fill:#F8CA06;}
	.st1{opacity:0.2;enable-background:new    ;}
	.st2{opacity:0.1;enable-background:new    ;}
	.st3{fill:#181C19;}
	.st4{fill:#FFFFFF;}
	.st5{fill:#FFDC45;}
	.st6{opacity:0.15;fill:#FFDC45;}
	.st7{fill-rule:evenodd;clip-rule:evenodd;fill:#181C19;}
	.st8{fill-rule:evenodd;clip-rule:evenodd;fill:#FFFFFF;}
</style>
<g>
	<path class="st0" d="M200.5,284L200.5,284c52.2,0,94.5-42.3,94.5-94.5v-95C295,42.3,252.7,0,200.5,0l0,0C148.3,0,106,42.3,106,94.5
		v95C106,241.7,148.3,284,200.5,284z"/>
</g>
<g>
	<ellipse class="st0" cx="427.5" cy="173" rx="105.5" ry="105"/>
</g>
<g class="st1">
	<path class="st0" d="M45,133.5l75.1-23.5l5.9,8.5L56.7,175L45,133.5z"/>
</g>
<g class="st2">
	<ellipse class="st3" cx="79.5" cy="290" rx="23.5" ry="3"/>
</g>
<g>
	<path class="st4" d="M80.5,287c10.8,0,19.5-8.7,19.5-19.5S91.3,248,80.5,248S61,256.7,61,267.5S69.7,287,80.5,287z"/>
</g>
<g>
	<path class="st3" d="M82.3,261.5L82.3,261.5c0.8,0.4,1,1.4,0.6,2.2l-4.7,8.1c-0.4,0.8-1.4,1-2.2,0.6h0c-0.8-0.4-1-1.4-0.6-2.2
		l4.7-8.1C80.6,261.4,81.5,261.1,82.3,261.5z"/>
</g>
<g>
	<circle class="st3" cx="85.5" cy="265.5" r="1.8"/>
</g>
<g>
	<path class="st3" d="M45.1,138.1c-1.1,0-2.1-0.8-2.4-1.9l-5.9-23.6c-0.3-1.3,0.5-2.7,1.8-3c1.3-0.3,2.7,0.5,3,1.8l5.9,23.6
		c0.3,1.3-0.5,2.7-1.8,3C45.5,138.1,45.3,138.1,45.1,138.1z"/>
</g>
<g>
	<path class="st3" d="M73.4,251c-1.1,0-2.1-0.8-2.4-1.9l-18.4-73.7c-0.3-1.3,0.5-2.7,1.8-3c1.3-0.3,2.7,0.5,3,1.8l18.4,73.7
		c0.3,1.3-0.5,2.7-1.8,3C73.8,250.9,73.6,251,73.4,251z"/>
</g>
<g>
	<path class="st3" d="M0,264.8h60.5c1.4,0,2.5,1.1,2.5,2.5s-1.1,2.5-2.5,2.5H0"/>
</g>
<g>
	<path class="st3" d="M80.6,290c-12.5,0-22.7-10.2-22.7-22.7s10.2-22.7,22.7-22.7c12.5,0,22.7,10.2,22.7,22.7S93.1,290,80.6,290z
		 M80.6,249.6c-9.7,0-17.7,7.9-17.7,17.7S70.9,285,80.6,285s17.7-7.9,17.7-17.7S90.3,249.6,80.6,249.6z"/>
</g>
<g>
	<path class="st3" d="M37.8,114.6c-3.9,0-7.1-2.9-7.5-6.7c-0.1-0.4-0.1-0.7-0.1-0.9c0-2.7,1.5-5.2,3.8-6.6c0,0,0,0,0.1,0
		c1.1-0.6,2.4-0.9,3.6-0.9c3,0,5.7,1.7,6.9,4.4c0.5,1,0.7,2.1,0.7,3.1c0,1.8-0.6,3.5-1.8,4.9c-1,1.1-2.3,2-3.7,2.3
		C39.3,114.5,38.6,114.6,37.8,114.6z M36.6,104.8c-0.8,0.5-1.3,1.4-1.3,2.3c0,0.1,0,0.1,0,0.2c0,0.1,0,0.1,0,0.1
		c0.1,1.3,1.2,2.3,2.5,2.3c0.2,0,0.5,0,0.7-0.1c0.5-0.1,1-0.4,1.3-0.8c0.4-0.5,0.6-1.1,0.6-1.7c0-0.4-0.1-0.7-0.2-1.1
		C39.5,104.7,37.9,104.1,36.6,104.8z"/>
</g>
<g>
	<path class="st3" d="M73.4,249.2c-0.2,0-0.4-0.1-0.5-0.3c-0.2-0.2-16.2-20.3-15.6-42c0.1-5.5,0.6-11.8,1.2-18.4
		c0.9-10.8,1.8-23.1,1.3-34.1c-0.8-17.1-20.9-41.7-21.1-42c-0.2-0.3-0.2-0.7,0.1-1c0.3-0.2,0.7-0.2,1,0.1c0.1,0.1,5.2,6.3,10.3,14.7
		c7,11.3,10.7,20.7,11,28.1c0.5,11.1-0.4,23.4-1.3,34.3c-0.5,6.6-1,12.8-1.2,18.3c-0.6,21.2,15.1,40.9,15.3,41.1
		c0.2,0.3,0.2,0.7-0.1,1C73.7,249.1,73.6,249.2,73.4,249.2z"/>
</g>
<g>
	<path class="st0" d="M55,177.2c-1.1,0-2.1-0.8-2.4-1.9l-9.8-39.2c-0.3-1.3,0.5-2.7,1.8-3c1.3-0.3,2.7,0.5,3,1.8l9.8,39.2
		c0.3,1.3-0.5,2.7-1.8,3C55.4,177.2,55.2,177.2,55,177.2z"/>
</g>
<g>
	<path class="st0" d="M295,94.5v95c0,20-6.2,38.5-16.8,53.7c-0.2,0.3-0.5,0.7-0.7,1c-0.2,0.3-0.5,0.6-0.7,1
		c-12,16.4-29.1,28.8-49,34.8c-0.2,0.1-0.4,0.1-0.7,0.2c-0.2,0.1-0.5,0.1-0.7,0.2c-4.7,1.3-9.6,2.3-14.5,2.9c-0.2,0-0.5,0.1-0.8,0.1
		c-0.2,0-0.5,0.1-0.7,0.1c-3.3,0.3-6.6,0.5-10,0.5c-11.8,0-23.1-2.2-33.5-6.1c-0.2-0.1-0.5-0.2-0.7-0.3c-0.2-0.1-0.5-0.2-0.7-0.3
		c-34.9-13.9-59.6-48-59.6-87.8v-54.7l20-16.3l-5.9-8.5l-14.1,4.4V94.5c0-26.1,10.6-49.7,27.7-66.8C150.8,10.6,174.4,0,200.5,0
		C252.7,0,295,42.3,295,94.5z"/>
</g>
<g>
	<polygon class="st5" points="126,118.5 106,134.8 106,114.4 120.1,110 	"/>
	<polygon class="st6" points="106,114.4 106,134.8 56.7,175 45,133.5 	"/>
</g>
<g>
	<path class="st3" d="M203.9,108.5c-0.1,0-0.2,0-0.3-0.1c-0.2-0.1-0.3-0.3-0.4-0.6c-0.1-3-0.9-5.8-5-6.4c-0.2,0-6.3-0.9-7.1-5.4
		c0-0.1-0.3-3.2-1.2-5.6c-0.1-0.2-0.1-0.4,0-0.5s0.2-0.3,0.4-0.4l0,0c0,0,2.8-0.9,4.4-3.9c0.1-0.2,0.4-0.4,0.7-0.4
		c0.2,0,4.7,0.4,10.5,3.2c0.6,0.3,1.1,0.6,1.7,1c0,0,0.1,0,0.1,0.1c0.8,0.5,1.5,1.1,2.1,1.7l0.1,0.1c0.1,0.1,0.2,0.2,0.3,0.3
		c0.1,0.1,0.1,0.1,0.2,0.2c0.1,0.1,0.1,0.1,0.2,0.2c0,0,0,0.1,0.1,0.1c0.4,0.5,0.7,0.9,0.8,1.2c0.2,0.4,0.5,0.9,0.5,1.4
		c1.7,0.3,4.3,1.1,6.3,2.6c0,0,0.1,0,0.1,0.1c0.2,0.2,0.3,0.6,0.2,0.8c-3.4,7.6-10.8,9.4-13.6,10c-0.3,0.1-0.7,0.2-0.8,0.2
		C204.2,108.4,204.1,108.5,203.9,108.5z M191.5,90.5c0.8,2.4,1,5.1,1,5.2c0.6,3.4,5.9,4.2,5.9,4.2c4.7,0.7,5.8,4,6.1,6.8
		c0.1,0,0.1,0,0.2,0c2.5-0.6,9.2-2.2,12.4-8.7c-3-2-6.1-2.1-6.4-2.2c-0.3,0-0.5-0.1-0.7-0.3c-0.2-0.3-0.1-0.6,0.1-0.8
		c0.1-0.1,0.2-0.1,0.4-0.2l0,0c0.1,0,0.2-0.1,0.2-0.1c0,0-0.1-0.2-0.3-0.5c-0.2-0.3-0.4-0.6-0.7-0.9c0,0-0.1-0.1-0.1-0.1
		c0,0,0-0.1-0.1-0.1c-0.1-0.1-0.2-0.2-0.3-0.3c-0.1-0.1-0.1-0.1-0.2-0.2l-0.2-0.2c-0.6-0.6-1.2-1.1-1.9-1.5c0,0-0.1-0.1-0.1-0.1
		c-0.5-0.3-1-0.6-1.5-0.8c-4.5-2.3-8.3-2.9-9.5-3.1C194.5,89,192.6,90.1,191.5,90.5z"/>
</g>
<g>
	<path class="st3" d="M209.4,96.1c-1.6,0-3.5-0.5-3.8-0.6c-0.4-0.1-0.6-0.5-0.5-0.9c0.1-0.4,0.5-0.6,0.9-0.5
		c1.2,0.3,3.5,0.7,4.4,0.4c0.4-0.1,0.8,0.1,0.9,0.5c0.1,0.4-0.1,0.8-0.5,0.9C210.4,96.1,209.9,96.1,209.4,96.1z"/>
</g>
<g>
	<path class="st4" d="M198.6,74.8c1.8,2.6,3.4,5.6,4.6,8.1c0.4,0.8,0.7,1.6,1.1,2.3c0,0.1,0.1,0.2,0.2,0.4c0,0,0,0.1,0,0.1
		c0.8,2,1.2,3.3,1.1,3.3c0.6,0.3,1.2,0.7,1.8,1.1c0,0,0,0,0,0c0.7,0.5,1.4,1.1,2.1,1.6c0,0,0.1,0.1,0.2,0.2c0.1,0.1,0.2,0.2,0.3,0.4
		c0.1,0.2,0.2,0.3,0.4,0.4c1.1,1.5,0.8,2.4,0,2.7c-0.1,0-0.2,0.1-0.2,0.1c0,0,1.7,0.1,7.8,2.4c0,0,0,0,0,0
		C223.6,88,218,67,198.6,74.8z"/>
	<path class="st3" d="M218,98.5c-0.1,0-0.2,0-0.3,0c-5.9-2.2-7.6-2.3-7.7-2.3c-0.4,0-0.7-0.4-0.6-0.7c0-0.3,0.3-0.6,0.6-0.7
		c0,0,0.1,0,0.1,0c0.2-0.1,0.2-0.2,0.2-0.2c0-0.1,0.1-0.5-0.6-1.4c0-0.1-0.1-0.1-0.1-0.2c-0.1-0.1-0.1-0.2-0.2-0.3
		c-0.1-0.1-0.2-0.2-0.2-0.3l-0.2-0.2c-0.5-0.5-1.2-1-2-1.6c0,0-0.1,0-0.1-0.1c-0.5-0.3-1.1-0.7-1.6-1c-0.3-0.1-0.4-0.4-0.4-0.7
		c-0.1-0.3-0.4-1.4-1-2.9c0,0,0,0,0-0.1c0,0,0,0,0,0c-0.1-0.2-0.1-0.3-0.2-0.4c-0.3-0.7-0.6-1.5-1-2.3c-1-2.1-2.6-5.2-4.6-8
		c-0.1-0.2-0.2-0.4-0.1-0.6c0.1-0.2,0.2-0.4,0.4-0.5c7.5-3,14-2.1,18.2,2.7c4.7,5.4,5.6,15.1,2.1,21.3
		C218.5,98.4,218.3,98.5,218,98.5z M211.6,95c1.1,0.3,3,0.8,6.1,1.9c2.9-5.7,2-14.4-2.2-19.2c-2.6-3-7.4-5.8-15.8-2.7
		c1.8,2.7,3.3,5.5,4.2,7.5c0.4,0.8,0.8,1.6,1.1,2.4c0,0.1,0.1,0.2,0.1,0.2c0,0.1,0.1,0.1,0.1,0.2c0,0,0,0.1,0,0.1
		c0.7,1.6,1,2.5,1.1,3.1c0.5,0.3,1.1,0.6,1.5,0.9l0,0c0,0,0.1,0.1,0.1,0.1c0.8,0.5,1.5,1.1,2.1,1.7l0.2,0.2c0.2,0.2,0.3,0.3,0.4,0.5
		c0,0,0.1,0.1,0.1,0.1c0.1,0.1,0.1,0.2,0.2,0.3c0.7,1,1,1.9,0.8,2.6C211.7,94.9,211.6,95,211.6,95z M210.1,94.7L210.1,94.7
		L210.1,94.7z"/>
</g>
<g>
	<path class="st3" d="M195.3,85.8c0,0,4.6,0.4,10.2,3.2c0.3,0-2.6-8.1-7-14.1c-2.8-4.1-6.3-7.2-9.8-6.8
		C182.1,68.9,188.6,81.8,195.3,85.8z"/>
	<path class="st3" d="M205.5,89.6c-0.1,0-0.2,0-0.3-0.1c-5.4-2.6-9.9-3.1-10-3.1c-0.1,0-0.2,0-0.3-0.1c-5.5-3.3-10.5-11.7-9.6-16.1
		c0.3-1.7,1.5-2.7,3.3-2.9c3.4-0.4,7,2,10.5,7.1c3.9,5.4,7.5,13.8,7.1,14.8C206.1,89.4,205.9,89.6,205.5,89.6
		C205.6,89.6,205.6,89.6,205.5,89.6z M195.5,85.1c0.8,0.1,4.4,0.6,9,2.6c-0.9-2.5-3.3-8-6.5-12.4c-2.2-3.2-5.6-6.9-9.2-6.5
		c-1.2,0.2-1.9,0.7-2.1,1.8C186,74.3,190.7,82.1,195.5,85.1z"/>
</g>
<g>
	<path class="st0" d="M130.9,155.2c7.6,4.1,7.1,6.3,7.1,6.3c0.6,6.5,5.6,10.5,5.6,10.5c7.8,6.9,15.6,12.2,22.9,16.2
		c32.7,18,58.3,11.5,58.3,11.5s-10.1-24.6-34.2-36c-17.1-8-19-25.7-19-25.7c-19.2-1.2-31.6-15.7-35.7-21.3c-1.8-2.4-3.9-4.6-6.3-6.4
		c-5-3.7-10.6-5.5,0,17.5c7.4,16.1,10.2,24.5,16,29.1c-6.5-4.5-11.9-5-11.9-5C122.5,150.6,130.9,155.2,130.9,155.2z"/>
	<path class="st3" d="M212.7,201.5c-10.7,0-27.5-2.2-46.5-12.7c-8-4.4-15.8-9.9-23-16.3c-0.2-0.1-5.2-4.2-5.8-10.9
		c0-0.1,0-0.1,0-0.2c0,0,0,0,0,0c0,0-0.1-1.9-6.8-5.5c0,0,0,0,0,0c-1.4-0.8-3.8-2.3-3.3-3.7c0.4-1.2,2.3-1.4,6.6-0.9
		c0.2,0,3.3,0.3,7.7,2.5c-2.9-3.8-5.3-9.2-8.7-16.8c-1.2-2.6-2.5-5.6-4-8.8c-7.3-15.9-6.6-19.2-5.2-20.3c1.2-1,3.2-0.3,6.2,2
		c2.3,1.8,4.5,4,6.4,6.6c4.3,5.9,16.5,19.8,35.2,21c0.3,0,0.6,0.3,0.7,0.6c0,0.2,2.1,17.4,18.6,25.1c24.1,11.3,34.5,36.1,34.6,36.3
		c0.1,0.2,0.1,0.4,0,0.6s-0.3,0.3-0.5,0.4C224.9,200.4,220.4,201.5,212.7,201.5z M138.7,161.5c0.6,6,5.3,9.9,5.3,9.9
		c7.2,6.3,14.9,11.8,22.8,16.2c28.9,15.9,52.4,12.5,57,11.6c-1.9-4.2-12.3-24.9-33.6-34.8c-15.5-7.3-18.8-22.5-19.3-25.7
		c-19-1.5-31.3-15.5-35.7-21.5c-1.8-2.5-3.9-4.6-6.1-6.3c-2.7-2-4.1-2.3-4.5-2c-0.5,0.4-1.6,3,5.6,18.7c1.5,3.2,2.8,6.2,4,8.8
		c4.6,10.3,7.3,16.5,11.9,20.1c0.3,0.2,0.4,0.7,0.1,1c-0.2,0.3-0.7,0.4-1,0.2c-6.3-4.4-11.5-4.9-11.5-4.9c-3.7-0.4-4.8-0.2-5.1-0.1
		c0.3,0.4,1.4,1.3,2.6,2C138.3,158.4,138.8,160.7,138.7,161.5z"/>
</g>
<g>
	<path class="st3" d="M164,206.4c52.5,39.7,112.6,4.1,112.6,4.1C269.6,109.9,218,97.8,218,97.8s0,0,0,0l0,0
		c-3.9,8.7-13.3,9.4-14.1,9.9c0,0-5.5,30.7-30.5,30.3c-0.6,0-1.2,0-1.8-0.1c0,0,1.9,17.7,19,25.7c24.2,11.3,34.2,36,34.2,36
		s-25.6,6.6-58.3-11.5C165.1,196,164,206.4,164,206.4z"/>
	<path class="st3" d="M220.5,225.9c-17.3,0-37.6-4.3-56.9-18.9c-0.2-0.1-0.3-0.4-0.3-0.6c0-0.1,1.1-10.6,2.5-18.3
		c0-0.2,0.2-0.4,0.4-0.5c0.2-0.1,0.4-0.1,0.6,0c28.9,15.9,52.4,12.5,57,11.6c-1.9-4.2-12.3-24.9-33.6-34.8
		c-17.3-8.1-19.4-26.1-19.4-26.3c0-0.2,0-0.4,0.2-0.6c0.1-0.1,0.3-0.2,0.6-0.2c0.6,0,1.2,0.1,1.8,0.1c0.2,0,0.3,0,0.5,0
		c23.7,0,29.2-29.4,29.3-29.7c0-0.2,0.2-0.4,0.3-0.5c0.2-0.1,0.5-0.2,1.2-0.3c2.6-0.6,9.4-2.2,12.6-9.1c0-0.1,0-0.1,0-0.2
		c0.1-0.3,0.5-0.5,0.8-0.4c0.5,0.1,13.3,3.2,27,18.8c12.6,14.3,28.5,42.3,32.2,94.5c0,0.3-0.1,0.5-0.3,0.7
		c-0.2,0.1-15.4,9-36.9,12.9C234.3,225.1,227.7,225.9,220.5,225.9z M164.8,206.1c26.8,20.1,55.6,20.1,75.1,16.6
		c19.4-3.5,33.6-11.2,36-12.5c-2.1-28.6-9.3-67.8-31.8-93.3c-11.9-13.4-23.1-17.5-25.7-18.2c-3.5,7.2-10.7,8.9-13.4,9.5
		c-0.2,0-0.4,0.1-0.5,0.1c-0.8,3.7-7.3,30.5-30.5,30.5c-0.2,0-0.3,0-0.5,0c0,0,0,0,0,0c-0.3,0-0.6,0-1,0c0.6,3.5,4,17.5,18.5,24.3
		c24.1,11.3,34.5,36.1,34.6,36.3c0.1,0.2,0.1,0.4,0,0.6s-0.3,0.3-0.5,0.4c-0.3,0.1-25.8,6.3-58-11.1
		C165.9,195.9,165,204.2,164.8,206.1z"/>
</g>
<g>
	<path class="st3" d="M190.5,164.3C190.5,164.3,190.5,164.3,190.5,164.3l-3.3-0.1c-24.9-1-35.2-1.5-41.9-6.7c-0.3-0.2-0.4-0.7-0.1-1
		s0.7-0.4,1-0.1c6.4,5,16.5,5.4,41.1,6.4l3.3,0.1c0.4,0,0.7,0.3,0.7,0.7C191.2,164,190.9,164.3,190.5,164.3z"/>
</g>
<g>
	<path class="st4" d="M276.7,210.6c0,0-60.1,35.6-112.7-4.1c-2.1,16.1,0.3,49.9,2.2,71.2c0.2,0.1,0.5,0.2,0.7,0.3
		c10.4,4,21.7,6.1,33.5,6.1c3.4,0,6.7-0.2,10-0.5c0.2,0,0.5,0,0.7-0.1c3-11.3,5.5-18.8,6.8-18.8c2.8,0,6,6.5,9.2,15.6
		c0.2-0.1,0.4-0.1,0.7-0.2c19.9-6,37-18.4,49-34.8c0.2-0.3,0.5-0.6,0.7-1C277.5,218.8,276.7,210.6,276.7,210.6z"/>
	<path class="st3" d="M277.4,210.5c0-0.2-0.2-0.5-0.4-0.6c-0.2-0.1-0.5-0.1-0.7,0c-0.1,0.1-15.2,8.9-36.4,12.7
		c-19.5,3.5-48.5,3.5-75.4-16.8c-0.2-0.1-0.5-0.2-0.7-0.1c-0.2,0.1-0.4,0.3-0.4,0.6c-2.1,16,0.3,49.6,2.2,71
		c0.2,0.1,0.5,0.2,0.7,0.3c0.2,0.1,0.5,0.2,0.7,0.3c-1.9-20.8-4.2-53.7-2.4-70.2c27.1,20,56,19.9,75.6,16.4
		c18.4-3.4,32.2-10.4,35.9-12.4c0.2,3,0.8,12.6,0.8,33.5c0.2-0.3,0.5-0.6,0.7-1c0.2-0.3,0.5-0.7,0.7-1
		C278.2,218.9,277.4,210.6,277.4,210.5z M218,263.9c-0.9,0-2.2,0-7.5,19.6c0.2,0,0.5,0,0.7-0.1c0.2,0,0.5,0,0.8-0.1
		c2.7-10,5-17.2,6.1-18c2.5,0.1,5.4,6.5,8.4,15.1c0.2-0.1,0.5-0.1,0.7-0.2c0.2-0.1,0.4-0.1,0.7-0.2
		C224.4,270.1,221.1,263.9,218,263.9z"/>
</g>
<g>
	<path class="st4" d="M141,129.8l3.8-3.7c0.5-0.5,1-0.9,1.5-1.4c2-1.8,2.3-4.8,0.8-7L134.8,100c-0.7-1-1.7-1.7-2.8-2.1
		c-1.9-0.6-4,0-5.4,1.4l-4,3.5c-0.5,0.5-1,0.9-1.5,1.4c-2,1.8-2.3,4.8-0.8,7l12.4,18c0.7,1,1.7,1.7,2.8,2.1
		C137.5,131.9,139.6,131.3,141,129.8z"/>
	<path class="st3" d="M137.1,132.2c-0.6,0-1.2-0.1-1.8-0.3c-1.3-0.4-2.4-1.2-3.1-2.3l-12.4-18c-1.7-2.5-1.4-5.9,0.9-7.9
		c0.5-0.4,1-0.9,1.5-1.3l4-3.5c1.6-1.6,3.9-2.2,6.1-1.6c1.3,0.4,2.4,1.2,3.1,2.3l12.2,17.8c1.7,2.5,1.4,5.9-0.9,7.9
		c-0.5,0.4-1,0.9-1.5,1.3l-3.8,3.7C140.3,131.5,138.7,132.2,137.1,132.2z M130.5,98.4c-1.2,0-2.4,0.5-3.4,1.4l-4,3.5
		c-0.4,0.5-1,0.9-1.5,1.4c-1.7,1.5-2,4.1-0.7,6.1l12.4,18c0.6,0.9,1.4,1.5,2.4,1.8c1.6,0.5,3.4,0,4.7-1.2c0,0,0,0,0,0l3.8-3.7
		c0.5-0.5,1-1,1.5-1.4c1.7-1.5,2-4.1,0.7-6.1l-12.2-17.9c-0.6-0.9-1.4-1.5-2.4-1.8C131.4,98.4,131,98.4,130.5,98.4z"/>
</g>
<g>
	<path class="st3" d="M127.1,99l0.4,0.5c0.6,0.9,0.5,2-0.2,2.7l-2.9,2.4c-0.9,0.9-2.3,0.7-3-0.3l-0.1-0.1L127.1,99z"/>
</g>
<g>
	<path class="st3" d="M123,105.8c-0.1,0-0.1,0-0.2,0c-0.8-0.1-1.5-0.5-1.9-1.1l-0.1-0.1c-0.3-0.3-0.3-0.7,0-1c0.3-0.3,0.7-0.3,1,0
		l0.1,0.1c0,0,0.1,0.1,0.1,0.1c0.2,0.3,0.6,0.5,0.9,0.5c0.4,0,0.7-0.1,1-0.4l2.9-2.4c0.4-0.5,0.5-1.2,0.1-1.8l-0.3-0.5
		c-0.2-0.3-0.1-0.8,0.2-1c0.3-0.2,0.8-0.1,1,0.2l0.4,0.5c0.8,1.1,0.6,2.6-0.3,3.6l-2.9,2.4C124.4,105.6,123.7,105.8,123,105.8z"/>
</g>
<g>
	<path class="st7" d="M138.6,112c-0.2-0.2-0.5-0.3-0.8-0.1l-2.5,2.6c-0.2,0.2-0.3,0.5-0.1,0.8l1.9,2.8c0.2,0.2,0.5,0.3,0.8,0.1
		l2.5-2.6c0.2-0.2,0.3-0.5,0.1-0.8L138.6,112z M138.1,113l1.4,2.1l-1.8,1.8l-1.4-2.1L138.1,113z"/>
</g>
<g>
	<path class="st7" d="M135.4,107.2c-0.2-0.2-0.5-0.3-0.8-0.1l-2.5,2.6c-0.2,0.2-0.3,0.5-0.1,0.8l1.9,2.8c0.2,0.2,0.5,0.3,0.8,0.1
		l2.5-2.6c0.2-0.2,0.3-0.5,0.1-0.8L135.4,107.2z M135,108.3l1.4,2.1l-1.8,1.8l-1.4-2.1L135,108.3z"/>
</g>
<g>
	<path class="st7" d="M131.2,111.4c-0.2-0.2-0.5-0.3-0.8-0.1l-2.5,2.6c-0.2,0.2-0.3,0.5-0.1,0.8l1.9,2.8c0.2,0.2,0.5,0.3,0.8,0.1
		l2.5-2.6c0.2-0.2,0.3-0.5,0.1-0.8L131.2,111.4z M130.7,112.5l1.4,2.1l-1.8,1.8l-1.4-2.1L130.7,112.5z"/>
</g>
<g>
	<path class="st3" d="M134.8,118.9c0.1,0,0.2,0,0.3-0.1c0.2-0.1,0.3-0.5,0.1-0.7l-0.8-1.2c-0.1-0.1-0.2-0.2-0.4-0.2
		c-0.1,0-0.3,0-0.4,0.1l-1,1c-0.2,0.2-0.2,0.5,0,0.7c0.2,0.2,0.5,0.2,0.7,0l0.6-0.6l0.4,0.7C134.4,118.8,134.6,118.9,134.8,118.9z"
		/>
</g>
<g>
	<path class="st3" d="M133.5,122c0.1,0,0.3-0.1,0.3-0.1l1-1c0.2-0.2,0.2-0.5,0-0.7c-0.2-0.2-0.5-0.2-0.7,0l-0.6,0.6l-0.4-0.7
		c-0.1-0.2-0.5-0.3-0.7-0.1c-0.2,0.1-0.3,0.5-0.1,0.7l0.8,1.2C133.2,121.9,133.3,122,133.5,122C133.5,122,133.5,122,133.5,122z"/>
</g>
<g class="st2">
	<ellipse class="st3" cx="369.1" cy="285.9" rx="19.7" ry="2.1"/>
</g>
<g>
	<path class="st7" d="M375.9,183.6c-0.9-1.1-2.1-1.8-3.3-1.4c-1.5,0.5-2.6,1.7-3.6,3.3c-0.9,1.7-1.7,3.8-2.3,6.2
		c-1.2,4.9-1.8,11.1-2,17.1c-0.1,4,0,8,0.2,11.5c-0.5-0.8-1-1.6-1.4-2.3c0,0,0,0,0,0c-1.9-3-4.2-6.3-6.5-9.1
		c-2.3-2.8-4.6-5.3-6.6-6.4c-1-0.6-2-1-3-0.7c-1,0.2-1.7,1.1-2,2.3c-0.4,1.2-0.5,2.8-0.3,5c0.1,2.2,0.5,5,1.2,8.5
		c1.2,6.2,3,11.6,4.9,16.1c-0.1-0.1-0.2-0.2-0.3-0.3c-2-2-4.7-3.9-7.4-5.2c-2.7-1.3-5.5-2.2-7.7-2.2c-1.1,0-2.1,0.2-2.9,0.7
		c-0.8,0.5-1.3,1.4-1.4,2.5c-0.1,1.1,0.2,2.4,0.9,3.9c0.7,1.5,1.8,3.4,3.4,5.5c6.3,8.6,13.4,15.4,17.6,19.3c0.1,0.1,0.2,0.2,0.3,0.3
		c0.6,0.6,1.2,1.1,1.6,1.6c-0.3-0.1-0.6-0.3-0.9-0.5c-4.9-2.5-9-4.2-12.2-5.3c-3.2-1.1-5.7-1.5-7.5-1.4c-0.9,0-1.7,0.2-2.3,0.6
		c-0.6,0.4-1,0.9-1.2,1.6c-0.3,1.3,0.2,2.9,1.1,4.6c1.9,3.5,6.1,8,11.8,12.6c5.7,4.7,12.9,9.5,21,13.5c0.3,0.2,0.8,0,0.9-0.3
		c0.2-0.3,0-0.8-0.3-0.9c-8-4-15.1-8.7-20.7-13.3c-5.6-4.6-9.7-9-11.5-12.2c-0.9-1.7-1.2-2.8-1-3.6c0.1-0.3,0.3-0.6,0.6-0.8
		c0.3-0.2,0.8-0.4,1.6-0.4c1.5-0.1,3.8,0.3,6.9,1.4c3.1,1.1,7.1,2.7,12,5.2c1.3,0.7,2.3,1.1,2.9,1.3c0.2,0.1,0.3,0.1,0.4,0.1
		c0.1,0,0.3,0.1,0.4,0c0.2,0,0.5-0.1,0.7-0.5c0.1-0.3,0-0.6,0-0.7c-0.1-0.2-0.3-0.5-0.5-0.7c-0.2-0.2-0.5-0.5-0.8-0.8
		c-0.6-0.6-1.4-1.3-2.3-2.2c-0.1-0.1-0.2-0.2-0.3-0.3c-4.2-4-11.3-10.7-17.5-19.2c-1.5-2.1-2.6-3.8-3.2-5.3
		c-0.6-1.4-0.9-2.5-0.8-3.2c0.1-0.7,0.3-1.1,0.8-1.4c0.5-0.3,1.2-0.5,2.1-0.5c1.9,0,4.5,0.8,7.1,2.1c2.6,1.3,5.2,3,7,4.9
		c1.1,1.1,2.1,2.2,3,3.2c2.9,6,5.9,10,7.8,11.7c0.4,0.4,0.8,0.7,1.2,0.9c0.2,0.1,0.4,0.2,0.6,0.2c0.2,0,0.6,0,0.8-0.3
		c0.2-0.3,0.3-0.6,0.2-0.8c0-0.2-0.1-0.4-0.1-0.6c-0.1-0.4-0.4-0.9-0.8-1.6c-1.2-2.1-3.9-5.5-8.5-10.5c-2.5-5.1-4.9-11.6-6.5-19.5
		c-0.7-3.4-1.1-6.2-1.2-8.3c-0.1-2.1,0-3.6,0.3-4.5c0.3-0.9,0.7-1.2,1-1.3c0.4-0.1,1,0,1.9,0.6c1.7,1,4,3.3,6.2,6.1
		c2.3,2.8,4.5,6,6.4,9c0.4,0.8,0.9,1.6,1.5,2.4c0.4,0.7,0.9,1.5,1.3,2.2c0.1,0.7,0.1,1.3,0.2,1.9c0.3,2.2,0.6,4.1,1,5.5
		c0.2,0.7,0.4,1.2,0.7,1.7c0.2,0.4,0.7,0.9,1.3,0.9c0.6,0,1.2-0.2,1.5-0.7c0.3-0.5,0.4-1,0.3-1.6c-0.1-1.1-0.7-2.5-1.4-3.9
		c-0.6-1.3-1.5-2.7-2.3-4.1c-0.4-4.1-0.5-9-0.4-14.1c0.2-6,0.8-12.1,1.9-16.8c0.6-2.4,1.3-4.4,2.1-5.9c0.9-1.5,1.8-2.4,2.8-2.7
		c0.4-0.1,1,0,1.9,1c0.8,0.9,1.7,2.4,2.5,4.4c1.7,3.9,3.2,9.4,4.2,15.1c1,5.8,1.4,11.8,0.9,16.8c0,0.2,0,0.4-0.1,0.6
		c-2.1,2.8-3.8,5.6-4.9,7.5c-0.3,0.6-0.5,1.1-0.7,1.5c-0.2,0.4-0.3,0.8-0.3,1.2c0,0.2,0,0.4,0.2,0.7c0.2,0.3,0.5,0.4,0.7,0.4
		c0.2,0,0.5,0,0.6-0.1c0.2-0.1,0.4-0.2,0.6-0.3c1.6-1,2.7-2.5,3.5-4.5c0.7-1.7,1.2-3.7,1.5-5.9c0.3-0.3,0.5-0.7,0.8-1.1
		c2.5-3.3,5.3-6.5,7.8-8.8c1.2-1.1,2.4-2,3.3-2.4c1-0.5,1.5-0.4,1.8-0.3c0.2,0.1,0.5,0.5,0.7,1.2c0.2,0.7,0.4,1.7,0.4,2.8
		c0.1,2.3-0.3,5.5-1.3,9.1c-0.7,2.6-1.7,5.3-3,8.2c-2.6,1.9-5,4.6-7.1,7.2c-2.5,3.1-4.4,6.2-5.3,8.1c-0.2,0.5-0.4,0.9-0.5,1.3
		c0,0.2-0.1,0.4-0.1,0.5c0,0.2,0,0.4,0.2,0.7c0.2,0.3,0.6,0.3,0.8,0.3c0.2,0,0.4-0.1,0.6-0.2c0.3-0.2,0.7-0.5,1.1-1
		c5.2-5.2,8.8-10.7,11.3-15.9c0.3-0.3,0.7-0.5,1-0.7c2.9-1.8,5.6-2.3,7.7-0.8c0.5,0.3,1,1.1,1,2.4c0.1,1.4-0.3,3.4-1.5,6.1
		c-2.3,5.4-7.7,13.5-18.8,24.9c-0.3,0.3-0.3,0.7,0,1c0.2,0.3,0.7,0.3,0.9,0.1c3.5-2.7,7.8-5,11.5-6.4c1.8-0.7,3.5-1.1,4.8-1.3
		c0.7-0.1,1.2-0.1,1.6,0c0.4,0.1,0.7,0.2,0.8,0.3c0.2,0.2,0.4,0.6-0.2,1.9c-0.6,1.2-1.8,2.9-3.9,5.1c-4.2,4.4-11.9,10.9-24.4,19.9
		c-0.3,0.2-0.4,0.7-0.2,1c0.2,0.3,0.7,0.4,1,0.2c12.5-9,20.2-15.6,24.6-20.1c2.2-2.3,3.5-4.1,4.2-5.5c0.7-1.4,0.8-2.7-0.2-3.5
		c-0.4-0.4-1-0.6-1.6-0.7c-0.6-0.1-1.3-0.1-2,0c-1.5,0.2-3.2,0.7-5.1,1.4c-2.2,0.8-4.5,1.9-6.9,3.3c8.4-9.3,12.9-16.1,15-21
		c1.2-2.8,1.7-5,1.6-6.7c-0.1-1.7-0.7-2.9-1.6-3.5c-2.6-1.8-5.7-1.2-8.5,0.3c0.9-2.2,1.7-4.4,2.2-6.4c1-3.7,1.4-7,1.3-9.5
		c0-1.2-0.2-2.3-0.4-3.2c-0.3-0.8-0.6-1.6-1.2-2c-0.9-0.6-2.1-0.3-3.2,0.2c-1.1,0.5-2.3,1.5-3.6,2.6c-2.4,2.1-5,5.2-7.4,8.2
		c0.3-4.8-0.1-10.3-1-15.5c-1-5.8-2.5-11.4-4.3-15.5C377.8,186.4,376.9,184.7,375.9,183.6z M392.5,234c-2.3,4.2-5.4,8.4-9.4,12.5
		c0.9-1.8,2.7-4.7,5-7.7C389.4,237.1,390.9,235.4,392.5,234z M382.6,247.8C382.6,247.9,382.6,247.9,382.6,247.8L382.6,247.8z
		 M381.8,224.6c-0.2,1-0.5,1.9-0.9,2.7c-0.7,1.7-1.7,3-2.9,3.8c0,0,0-0.1,0-0.1c0.1-0.4,0.4-0.8,0.6-1.4
		C379.5,228.3,380.5,226.5,381.8,224.6z M378,231.7C378,231.7,378,231.7,378,231.7C378,231.7,378,231.7,378,231.7z M367,226.6
		c0.2,0.4,0.4,0.8,0.6,1.2c0.7,1.5,1.2,2.7,1.3,3.5c0,0.4,0,0.6-0.1,0.6l0,0c0,0-0.1,0.1-0.3,0.1c0,0-0.1-0.1-0.2-0.2
		c-0.2-0.3-0.4-0.7-0.5-1.3C367.5,229.5,367.2,228.2,367,226.6z M368.5,232C368.5,232,368.5,232,368.5,232S368.5,232,368.5,232z
		 M357.2,242.2c2.1,2.5,3.5,4.4,4.3,5.7c0,0,0,0,0,0C360.4,246.8,358.9,244.9,357.2,242.2z M362.2,249.5
		C362.2,249.5,362.2,249.5,362.2,249.5L362.2,249.5z"/>
</g>
<g>
	<path class="st8" d="M339.2,137.7c0.8-1.9,2.3-3.6,4.3-5.1c2.5-1.8,5.6-3.1,9-3.3c3.3-0.2,6.8,0.6,9.9,3.1c3,2.5,5.5,6.5,6.9,12.6
		c0.1,0.4-0.1,0.8-0.5,0.8c-0.4,0.1-0.8-0.1-0.8-0.5c-1.4-5.9-3.7-9.6-6.4-11.9c-2.7-2.2-5.8-3-8.9-2.8c-3,0.2-6,1.4-8.2,3
		c-2.3,1.7-3.8,3.7-4.1,5.6c0,0.3-0.3,0.5-0.5,0.6c-0.3,0.1-0.6-0.1-0.7-0.3c-2.8-4.2-7.4-5-11.5-3.7c-4.1,1.4-7.5,4.9-7.7,9.3
		c0,0.4-0.4,0.7-0.7,0.7c-0.4,0-0.7-0.4-0.7-0.7c0.3-5.1,4.1-9.1,8.7-10.6C331.1,133.2,336,133.9,339.2,137.7z"/>
</g>
<g>
	<path class="st8" d="M215.9,23.4c-5.3,2.3-9.2,8.1-10.5,12.9c-0.1,0.4-0.5,0.6-0.9,0.5s-0.6-0.5-0.5-0.9
		c1.4-5.1,5.5-11.3,11.3-13.8c2.9-1.3,6.3-1.6,9.8-0.3c3.4,1.2,6.9,3.7,10.4,8c1.8-2.8,5.8-4.6,10-3.9c4.7,0.9,9.5,5,11.8,14.5
		c0.1,0.4-0.1,0.8-0.5,0.8c-0.4,0.1-0.8-0.1-0.8-0.5c-2.2-9.1-6.7-12.7-10.7-13.4c-4.1-0.8-7.9,1.4-9,4c-0.1,0.2-0.3,0.4-0.5,0.4
		c-0.2,0-0.5-0.1-0.6-0.3c-3.7-4.7-7.2-7.3-10.5-8.4C221.4,22,218.5,22.3,215.9,23.4z"/>
</g>
</svg>
