<svg xmlns="http://www.w3.org/2000/svg" width="520" height="289" fill="none" viewBox="0 0 520 289">
    <rect width="189" height="284" fill="#F8CA06" rx="94.5" transform="matrix(1 0 0 -1 93 284)"/>
    <ellipse fill="#F8CA06" rx="105.5" ry="105" transform="matrix(1 0 0 -1 414.5 173)"/>
    <ellipse cx="39.225" cy="285.962" fill="#181C19" opacity=".1" rx="18.849" ry="2.038"/>
    <path fill="#F8CA06" d="M68.46 203.85c-18.173 5.161-28.515 22.822-31.466 31.163-.019.054-.027.107-.027.163v.766c0 .259.208.476.467.497 28.432 2.292 32.962-20.105 31.647-32.18-.033-.302-.33-.491-.621-.409zM37.294 243.29v-2.807c0-.104-.032-.204-.092-.289-3.623-5.092-8.153-11.344-16.26-14.586-7.739-3.096-15.185-6.192-20.119-10.12-.33-.262-.824-.042-.823.38.022 6.421 1.981 15.413 9.824 21.512 5.756 4.476 11.93 2.986 26.848 6.397.315.072.622-.165.622-.487zM40.786 192.204c19.174-1.881 21.882-22.786 20.794-33.828-.036-.367-.449-.554-.759-.354-8.709 5.631-13.118 9.139-15.35 12.647-3.596 5.65-2.947 10.115-5.215 18.575-.012.042-.018.087-.018.131v2.337c0 .291.258.52.548.492zM38.917 202.522c-17.552 3.289-24.352-12.273-25.716-21.261-.055-.363.297-.647.644-.529 4.27 1.454 5.414 2.106 10.367 3.344 5.233 1.308 8.41 4.906 10.138 7.849 1.648 2.805 2.828 5.908 4.918 9.874.155.295-.023.662-.351.723z"/>
    <path fill="#181C19" fill-rule="evenodd" d="M39.136 179.135c.381-.065.743.19.809.571.549 3.183 1.318 10.256 1.318 13.2 0 3.499-.91 9.775-1.806 15.679l-.272 1.787c-.355 2.329-.695 4.557-.964 6.497-.338 2.446-.555 4.38-.555 5.468v.521c-.002 5.179-.008 20.408 1.302 30.455 1.146 8.786.611 19.776.213 27.961-.08 1.636-.153 3.16-.207 4.532-.016.387-.341.687-.728.672-.386-.015-.687-.341-.671-.727.055-1.397.13-2.94.21-4.59.397-8.193.922-19.02-.205-27.667-1.323-10.142-1.316-25.45-1.314-30.623v-.534c0-1.201.233-3.232.569-5.66.27-1.95.611-4.191.966-6.521l.271-1.781c.903-5.951 1.791-12.101 1.791-15.469 0-2.835-.756-9.823-1.298-12.962-.065-.381.19-.743.571-.809z" clip-rule="evenodd"/>
    <path fill="#181C19" fill-rule="evenodd" d="M60.236 239.409c.203.132.324.36.319.602-.116 5.442-4.738 17.065-21.776 21.591l-.36-1.353c15.248-4.05 19.958-13.88 20.645-19.121-1.834.818-3.392 1.399-4.758 1.908-.348.13-.684.255-1.008.378-1.847.701-3.328 1.338-4.803 2.415-5.31 3.877-8.246 8.7-9.239 11.413l-1.315-.481c1.087-2.969 4.192-8.02 9.728-12.063 1.634-1.192 3.26-1.882 5.132-2.593l1.028-.385c1.627-.607 3.469-1.294 5.728-2.357.22-.103.476-.086.68.046zM10.637 243.426c.191-.192.476-.256.73-.164 17.778 6.368 26.067 20.743 28.08 27.228.114.369-.093.762-.462.876-.369.115-.761-.092-.876-.461-1.861-5.997-9.517-19.407-25.87-25.821.446 1.561.691 3.02.927 4.428l.112.664c.347 2.029.744 3.998 1.76 6.206 1.837 3.992 4.259 7.631 8.599 10.716 1.874 1.333 3.62 1.92 5.974 2.586l.977.273c2.188.607 4.871 1.353 8.45 2.784.359.143.533.551.39.91-.144.359-.551.533-.91.39-3.503-1.402-6.117-2.128-8.3-2.734l-.988-.276c-2.387-.675-4.326-1.314-6.405-2.792-4.594-3.266-7.151-7.127-9.06-11.272-1.094-2.379-1.515-4.497-1.867-6.555l-.113-.668c-.306-1.826-.606-3.609-1.313-5.588-.09-.255-.027-.539.165-.73zM14.15 206.898c.138-.199.368-.314.61-.303 5.793.27 10.797 2.57 14.686 5.311 3.885 2.738 6.693 5.941 8.103 8.085.185.28.142.645-.085.875.107.109.18.254.197.418.04.385-.24.729-.624.769-11.76 1.222-17.46-3.289-18.967-5.539-.707-1.056-1.137-2.008-1.671-3.326-.125-.309-.256-.639-.398-.996-.463-1.165-1.043-2.624-1.915-4.617-.097-.221-.073-.478.065-.677zm22.199 13.815c-1.326-2-4-5.048-7.71-7.663-3.475-2.449-7.83-4.497-12.812-4.975.637 1.493 1.1 2.659 1.48 3.611.14.353.268.676.39.976.523 1.292.91 2.138 1.536 3.073 1.14 1.702 6.134 5.965 17.116 4.978zM56.074 191.078c.175.158.259.393.223.626-.556 3.612-2.118 9.1-5.015 13.87-2.896 4.765-7.197 8.922-13.257 9.611-.384.043-.73-.233-.774-.617-.044-.384.232-.731.616-.774 5.451-.62 9.434-4.366 12.218-8.947 2.506-4.124 3.981-8.837 4.64-12.27-10.862 3.369-14.819 13.164-15.43 17.753-.052.384-.404.653-.787.602-.384-.051-.653-.403-.602-.787.677-5.075 5.118-15.988 17.522-19.224.228-.06.471-.001.646.157z" clip-rule="evenodd"/>
    <ellipse fill="#181C19" opacity=".1" rx="19.651" ry="2.124" transform="matrix(-1 0 0 1 356.087 285.879)"/>
    <path fill="#181C19" fill-rule="evenodd" d="M362.931 183.614c-.926-1.064-2.081-1.828-3.334-1.437-1.475.459-2.64 1.706-3.565 3.345-.933 1.651-1.678 3.799-2.271 6.239-1.185 4.884-1.787 11.075-1.961 17.139-.116 3.997-.046 7.955.168 11.471-.5-.824-.971-1.602-1.378-2.296l-.015-.024c-1.913-2.981-4.22-6.278-6.523-9.117-2.286-2.817-4.623-5.255-6.598-6.441-.975-.585-2.004-.953-2.95-.736-1.018.232-1.674 1.066-2.032 2.255-.356 1.179-.468 2.838-.331 5.029.138 2.202.531 4.993 1.225 8.463 1.24 6.198 2.997 11.59 4.9 16.112l-.266-.274c-1.995-2.043-4.688-3.87-7.399-5.197-2.701-1.322-5.495-2.184-7.696-2.224-1.1-.02-2.129.163-2.922.676-.83.535-1.324 1.381-1.404 2.488-.077 1.07.229 2.367.917 3.896.692 1.538 1.793 3.365 3.372 5.514 6.284 8.552 13.427 15.361 17.642 19.346l.288.273c.628.593 1.181 1.116 1.649 1.567-.278-.134-.584-.285-.918-.452-4.932-2.466-8.973-4.183-12.206-5.262-3.217-1.075-5.69-1.538-7.464-1.444-.891.047-1.655.237-2.254.606-.617.38-1.022.93-1.201 1.606-.339 1.283.167 2.894 1.119 4.597 1.941 3.467 6.13 7.998 11.804 12.641 5.688 4.655 12.921 9.464 21.005 13.471.346.172.766.031.938-.316.171-.346.03-.766-.317-.938-7.986-3.959-15.13-8.711-20.74-13.301-5.625-4.603-9.655-9.002-11.468-12.241-.924-1.651-1.178-2.836-.988-3.555.086-.325.268-.578.583-.772.332-.205.843-.36 1.593-.4 1.509-.08 3.782.317 6.947 1.374 3.149 1.051 7.127 2.738 12.023 5.186 1.324.662 2.273 1.104 2.875 1.32.154.054.299.1.431.13.12.028.281.056.448.04.161-.015.513-.099.676-.473.133-.307.029-.586-.012-.684-.097-.233-.293-.478-.48-.693-.206-.236-.476-.517-.797-.836-.581-.579-1.359-1.314-2.28-2.185l-.293-.276c-4.21-3.981-11.272-10.716-17.475-19.158-1.544-2.101-2.585-3.84-3.223-5.259-.642-1.428-.851-2.479-.798-3.221.052-.705.336-1.135.767-1.413.467-.301 1.179-.47 2.137-.452 1.913.035 4.495.804 7.106 2.081 2.6 1.273 5.153 3.013 7.013 4.918 1.097 1.124 2.107 2.184 3.037 3.183 2.934 5.975 5.943 9.953 7.777 11.722.429.415.825.738 1.163.934.164.096.36.189.569.226.21.037.561.032.832-.253.243-.255.26-.575.25-.757-.012-.202-.067-.413-.138-.616-.145-.412-.408-.934-.783-1.558-1.238-2.06-3.887-5.53-8.504-10.5-2.465-5.058-4.885-11.59-6.462-19.471-.687-3.435-1.068-6.159-1.201-8.277-.133-2.13-.011-3.594.274-4.537.281-.933.671-1.218 1.004-1.295.404-.092 1.031.04 1.917.573 1.747 1.049 3.953 3.314 6.232 6.122 2.258 2.785 4.533 6.032 6.424 8.979.442.754.945 1.583 1.472 2.45.439.724.895 1.474 1.345 2.231.063.675.132 1.326.206 1.947.267 2.233.608 4.119 1.013 5.461.2.667.429 1.241.696 1.663.242.383.652.852 1.273.852.614 0 1.184-.192 1.545-.693.333-.464.379-1.049.325-1.585-.109-1.075-.675-2.478-1.4-3.942-.645-1.302-1.458-2.735-2.293-4.146-.364-4.067-.518-9.044-.372-14.093.173-6.016.77-12.098 1.923-16.849.577-2.377 1.285-4.387 2.129-5.881.85-1.505 1.782-2.391 2.762-2.697.4-.124 1.009.04 1.862 1.02.82.942 1.682 2.447 2.525 4.397 1.681 3.886 3.21 9.362 4.189 15.134.978 5.773 1.398 11.794.888 16.772-.02.2-.042.398-.065.594-2.081 2.829-3.849 5.553-4.868 7.505-.297.568-.536 1.083-.703 1.525-.158.421-.279.85-.272 1.217.004.187.043.44.209.664.187.253.458.367.719.385.233.017.457-.042.642-.112.194-.073.399-.179.613-.309 1.567-.953 2.714-2.529 3.53-4.467.712-1.688 1.188-3.685 1.473-5.871.26-.35.525-.703.794-1.055 2.493-3.27 5.31-6.536 7.784-8.777 1.241-1.125 2.362-1.961 3.289-2.42.969-.48 1.494-.439 1.757-.263.195.13.459.483.679 1.21.212.703.352 1.654.385 2.826.064 2.341-.301 5.471-1.269 9.058-.69 2.555-1.684 5.332-3.038 8.21-2.574 1.913-5.05 4.55-7.119 7.154-2.45 3.082-4.382 6.184-5.271 8.108-.222.481-.392.914-.484 1.27-.046.175-.081.361-.083.54-.001.157.02.438.219.677.245.291.585.33.823.292.214-.034.407-.133.561-.227.317-.195.698-.524 1.14-.966 5.152-5.152 8.82-10.689 11.327-15.927.349-.251.698-.486 1.047-.704 2.898-1.809 5.559-2.299 7.72-.814.473.325.951 1.052 1.011 2.443.061 1.393-.308 3.388-1.47 6.091-2.324 5.406-7.746 13.479-18.769 24.926-.254.263-.262.678-.018.951.244.273.657.312.948.09 3.528-2.7 7.825-5.002 11.504-6.373 1.841-.686 3.5-1.128 4.811-1.28.657-.076 1.202-.076 1.627-.01.431.067.687.193.828.322.195.178.421.635-.167 1.88-.572 1.209-1.805 2.889-3.935 5.119-4.247 4.445-11.897 10.911-24.367 19.932-.314.227-.384.664-.157.978.226.313.664.383.977.156 12.491-9.036 20.223-15.56 24.559-20.099 2.162-2.263 3.52-4.073 4.188-5.487.652-1.378.766-2.674-.155-3.514-.417-.38-.97-.579-1.556-.67-.591-.092-1.27-.082-2.002.002-1.465.17-3.24.651-5.14 1.359-2.172.81-4.546 1.929-6.861 3.26 8.398-9.252 12.868-16.096 14.971-20.989 1.21-2.816 1.656-5.028 1.583-6.705-.073-1.68-.674-2.887-1.617-3.536-2.631-1.808-5.663-1.246-8.511.341.945-2.24 1.679-4.404 2.227-6.435.996-3.689 1.386-6.957 1.317-9.462-.035-1.25-.184-2.333-.444-3.192-.252-.834-.641-1.569-1.243-1.97-.932-.622-2.1-.348-3.154.174-1.098.543-2.331 1.479-3.608 2.636-2.372 2.15-5.012 5.17-7.388 8.226.294-4.781-.149-10.26-1.036-15.493-.992-5.848-2.547-11.439-4.284-15.456-.866-2.002-1.796-3.658-2.754-4.76zm16.557 50.36c-2.31 4.166-5.39 8.444-9.404 12.487.86-1.808 2.688-4.735 5.029-7.68 1.336-1.681 2.823-3.348 4.375-4.807zm-9.909 13.87v-.001.001zm-.731-23.207c-.234.965-.518 1.855-.856 2.657-.727 1.727-1.684 3-2.877 3.758l.037-.099c.139-.37.351-.83.633-1.37.693-1.327 1.764-3.055 3.063-4.946zm-3.878 7.021l-.001-.005.001.005zm-10.996-5.084c.225.417.438.828.635 1.226.724 1.462 1.181 2.663 1.262 3.462.04.4-.029.57-.069.626-.013.018-.071.099-.344.11-.028-.025-.08-.082-.154-.199-.168-.265-.352-.699-.539-1.318-.293-.974-.561-2.302-.791-3.907zm1.507 5.442l-.002-.001.002.001zm-11.251 10.2c2.141 2.541 3.51 4.433 4.276 5.706l.027.047c-1.103-1.126-2.632-3.058-4.303-5.753zm4.998 7.24v-.002.002z" clip-rule="evenodd"/>
    <ellipse cx="119.233" cy="285.834" fill="#181C19" opacity=".1" rx="20.733" ry="2.241"/>
    <ellipse cx="256.826" cy="285.834" fill="#181C19" opacity=".1" rx="20.733" ry="2.241"/>
    <path fill="#fff" fill-rule="evenodd" d="M117.114 24.643c-1.632 1.542-2.646 3.282-2.866 4.825-.04.278-.242.505-.513.577-.271.073-.559-.024-.732-.245-3.066-3.926-6.117-6.104-8.913-7.04-2.783-.934-5.358-.651-7.538.424-4.396 2.17-7.278 7.624-6.8 13.124.034.386-.251.725-.636.758-.386.034-.725-.251-.758-.636-.522-6 2.596-12.045 7.575-14.501 2.507-1.237 5.464-1.549 8.602-.497 2.838.95 5.788 3.003 8.689 6.422.544-1.489 1.581-2.955 2.929-4.228 1.784-1.686 4.167-3.09 6.846-3.808 2.683-.72 5.674-.755 8.652.314 2.74.984 5.431 2.89 7.845 5.988 4.189-5.983 18.516-10.702 31.594 4.797.249.296.212.738-.084.987-.295.25-.737.212-.986-.084-13.25-15.704-27.12-9.424-29.843-4.13-.111.216-.328.36-.571.377-.244.018-.479-.093-.621-.291-2.429-3.4-5.131-5.365-7.807-6.326-2.678-.962-5.375-.935-7.816-.28-2.447.656-4.626 1.94-6.248 3.473zM326.222 137.692c.755-1.869 2.306-3.644 4.259-5.06 2.455-1.781 5.642-3.067 8.972-3.296 3.341-.229 6.837.608 9.852 3.087 3.01 2.476 5.479 6.536 6.878 12.643.087.376-.149.752-.526.838-.376.087-.752-.149-.838-.526-1.351-5.893-3.695-9.646-6.403-11.873-2.704-2.223-5.833-2.98-8.867-2.772-3.045.209-5.983 1.391-8.246 3.032-2.28 1.654-3.781 3.701-4.113 5.579-.049.281-.265.505-.545.563-.28.059-.568-.059-.726-.297-2.788-4.181-7.427-5.022-11.509-3.661-4.108 1.369-7.479 4.913-7.71 9.31-.02.386-.35.682-.736.662-.386-.02-.682-.35-.662-.736.269-5.103 4.148-9.059 8.665-10.565 4.158-1.386 9.001-.741 12.255 3.072zM222.154 51.704c-5.295 2.29-9.183 8.082-10.477 12.854-.102.373-.486.593-.859.492-.373-.101-.594-.486-.493-.859 1.373-5.061 5.485-11.27 11.273-13.772 2.921-1.262 6.259-1.575 9.837-.323 3.354 1.174 6.87 3.704 10.443 8.013 1.794-2.809 5.833-4.634 10.001-3.86 4.732.878 9.511 5.04 11.802 14.46.091.376-.139.754-.515.845-.375.092-.754-.139-.845-.514-2.209-9.08-6.68-12.669-10.698-13.415-4.107-.763-7.874 1.374-8.976 4.019-.095.229-.305.39-.551.424-.245.034-.491-.065-.644-.26-3.697-4.682-7.241-7.257-10.479-8.39-3.224-1.128-6.198-.847-8.819.286z" clip-rule="evenodd"/>
    <path fill="#fff" stroke="#181C19" stroke-linecap="round" stroke-linejoin="round" stroke-miterlimit="10" stroke-width="1.4" d="M141.18 265.26c-.725 11.62-10.394 20.815-22.181 20.815s-21.456-9.195-22.18-20.815h44.361zM278.947 265.26c-.724 11.62-10.393 20.815-22.18 20.815-11.787 0-21.457-9.195-22.181-20.815h44.361z"/>
    <path fill="#F8CA06" stroke="#181C19" stroke-linecap="round" stroke-linejoin="round" stroke-miterlimit="10" stroke-width="1.4" d="M162.079 99.574c-3.316 9.139-8.806 10.978-9.642 11.48-1.644-1.198-3.65-2.285-6.158-3.177-.056-.027-.139-.055-.195-.083h-.028c-.028 0-.056-.028-.083-.028-.028 0-.056 0-.056-.028-.725-.251-1.477-.446-2.229-.641h-.028c-.53-.139-1.059-.251-1.589-.334-.167-.028-.334-.056-.473-.084-.363-.056-.864-.167-1.394-.362-.055-.028-.111-.028-.195-.056-1.003-.362-2.145-.947-3.148-1.95-.892-.892-1.672-2.118-2.062-3.79 0 0-.335-3.455-1.449-5.963 0 0 4.235-1.282 5.74-4.737.056 0 4.653 0 10.616 2.48 1.728.696 3.4 1.672 4.654 2.953.919.92 1.337 1.617 1.393 2.09v.056c0 .418-.278.669-.669.836v.028c0 .028 0 .028.028.056 0 0-.028 0-.028.028h.056c.056.055.167.111.335.195.027 0 .055.027.083.055.028.028.084.028.112.056.055.028.111.028.167.056.028 0 .055.028.083.028.056.028.112.028.14.055.139.056.306.084.501.14.028 0 .056.028.112.028.055 0 .111.027.195.055.083.028.167.028.251.056.111.028.222.056.334.056.056 0 .111.028.167.028.139.027.307.055.474.083.167.028.334.056.529.084.14.028.251.028.39.056.864.027 1.867.139 3.066.195z"/>
    <path stroke="#181C19" stroke-linecap="round" stroke-linejoin="round" stroke-miterlimit="10" stroke-width="1.4" d="M150.266 98.18s3.316.613 4.82.084"/>
    <path fill="#fff" stroke="#181C19" stroke-linecap="round" stroke-linejoin="round" stroke-miterlimit="10" stroke-width="1.4" d="M162.079 99.573c-1.199-.055-2.202-.139-3.038-.25-.139-.028-.251-.028-.39-.056-.195-.028-.362-.056-.529-.084-.168-.028-.335-.055-.474-.083-.056 0-.112-.028-.167-.028-.112-.028-.223-.028-.335-.056-.083-.028-.167-.028-.25-.056-.056-.027-.14-.027-.195-.055-.028 0-.084-.028-.112-.028-.195-.056-.334-.084-.501-.14-.056-.027-.112-.027-.14-.055-.028 0-.056-.028-.083-.028-.056-.028-.112-.028-.168-.056-.055-.028-.083-.028-.111-.055-.028-.028-.056-.028-.084-.056-.195-.112-.306-.195-.362-.223.418-.167.669-.446.641-.92v-.055c-.028-.502-.446-1.199-1.421-2.174-1.254-1.198-2.898-2.173-4.654-2.954.056 0-.083-.445-.418-1.17-.139-.306-.306-.697-.501-1.115-.056-.111-.112-.25-.167-.39 0 0 0-.028-.028-.055-.056-.084-.084-.168-.14-.279l-.418-.836c-.501-.975-1.114-2.118-1.811-3.288-.111-.195-.223-.362-.334-.557-1.226-2.062-2.703-4.236-4.291-6.186 18.781-11.955 23.796 12.065 20.481 21.288z"/>
    <path fill="#181C19" stroke="#181C19" stroke-linecap="round" stroke-linejoin="round" stroke-miterlimit="10" stroke-width="1.4" d="M149.598 92.133c-5.908-2.396-10.617-2.48-10.617-2.48-7.078-3.483-14.657-16.022-7.969-17.471 3.511-.697 7.3 2.257 10.449 6.158 2.759 3.26 5.099 7.217 6.548 10.032.14.278.279.585.418.836.056.083.084.195.14.278 0 .028 0 .028.027.056.056.14.112.25.168.39.195.418.362.808.501 1.115.279.669.418 1.086.335 1.086zM291.428 148.086c-15.326 18.224-36.865 14.936-54.615 9.029-3.679-1.226-7.162-2.536-10.422-3.818-5.907-2.313-10.979-4.458-14.713-5.406-5.433-1.449-24.326-2.034-38.983 6.131 1.003-12.985-3.037-28.506-20.23-42.968.836-.502 6.325-2.341 9.641-11.48 0 0 9.725.529 22.627-3.763 13.598-4.542 70.22-10.7 98.391 35.529 3.706 6.102 6.409 11.675 8.304 16.746z"/>
    <path fill="#F8CA06" stroke="#181C19" stroke-linecap="round" stroke-linejoin="round" stroke-miterlimit="10" stroke-width="1.4" d="M291.431 265.259H83s1.811-29.007 31.655-44.166c20.063-10.199 32.546-23.128 38.593-30.512 1.923-2.369.251-5.908-2.787-5.908h-4.04v-15.576h8.248c1.059 0 2.09.418 2.814 1.17l7.635 7.607c-1.031 1.7-4.792 8.722 1.812 10.31 0 .028 0 .056.028.084 0 .056.027.083.027.139 0 .028 0 .056.028.056.056.139.084.279.168.418.195.474.501.919.863 1.282l.14.139s-5.295 3.985-9.753 10.7c-5.629 8.499-9.864 21.317 0 35.835 5.963 8.777 15.437 14.685 26.026 15.66.251.028.585.056.947.056 1.923.055 4.96 0 4.96 0s4.542-.195 7.357-1.589c5.043-1.811 10.003-5.294 14.211-11.424 4.57-6.66 6.938-14.602 6.938-22.683v-16.189c20.955 1.895 33.438 1.56 41.352.418.808 16.078 11.369 25.301 11.369 25.301 23.379 18.419 19.84 38.872 19.84 38.872z"/>
    <path fill="#fff" stroke="#181C19" stroke-linecap="round" stroke-linejoin="round" stroke-miterlimit="10" stroke-width="1.4" d="M172.697 154.021c-.752 9.753-4.347 18.113-7.356 23.491 0 0-.084.139-.251.362l-7.635-7.607c3.316-7.468 8.917-12.707 15.242-16.246zM146.392 169.097v15.577c-4.291 0-7.802-3.484-7.802-7.803s3.511-7.774 7.802-7.774zM175.54 187.126c0 2.424-1.95 4.374-4.375 4.374-1.142 0-2.201-.445-2.981-1.17l-.028-.028c-.056-.028-.084-.083-.139-.139-.363-.362-.641-.808-.864-1.282l-.167-.418c0-.028-.028-.056-.028-.056-.028-.055-.028-.083-.028-.139 0-.028 0-.056-.028-.084v-.055c-.056-.223-.223-1.394.167-2.564 0-.028.028-.056.028-.083.362-.892 1.003-1.617 1.811-2.118.585-.307 1.31-.53 2.257-.613 2.425 0 4.375 1.95 4.375 4.375z"/>
    <path fill="#fff" stroke="#181C19" stroke-linecap="round" stroke-linejoin="round" stroke-miterlimit="10" stroke-width="1.4" d="M260.194 201.086c-7.914 1.143-20.398 1.477-41.352-.418-4.598-.418-9.642-.947-15.103-1.588 0 0-21.484-5.908-6.548 35.611.919 2.592 2.117 5.044 3.427 7.44 1.226 2.23 2.229 6.075-2.926 8.834-2.814 1.393-7.356 1.588-7.356 1.588s-3.01.056-4.96 0c-.613-.195-.836-1.115-.307-1.56 2.174-1.895 5.183-5.434 2.202-8.639-2.759-2.87-20.955-20.954-28.869-41.351 4.459-6.716 9.753-10.701 9.753-10.701l.028.028c.78.725 1.839 1.171 2.982 1.171 2.424 0 4.374-1.951 4.374-4.375 0-2.425-1.95-4.375-4.374-4.375 5.294-.474 49.934 1.421 55.228-29.454 3.26 1.282 6.771 2.62 10.422 3.818 17.75 5.907 39.29 9.195 54.615-9.028 0 0 14.407 41.937-31.236 52.999z"/>
</svg>
