<svg xmlns="http://www.w3.org/2000/svg" width="202" height="183" fill="none" viewBox="0 0 202 183">
    <circle cx="111.864" cy="90.136" r="90.136" fill="#F8CA06"/>
    <mask id="prefix__a" width="181" height="181" x="21" y="0" maskUnits="userSpaceOnUse">
        <circle cx="111.864" cy="90.136" r="90.136" fill="#F8CA06"/>
    </mask>
    <g stroke="#181C19" stroke-linecap="round" stroke-linejoin="round" stroke-miterlimit="10" stroke-width="1.4" mask="url(#prefix__a)">
        <path fill="#F8CA06" d="M96.733 49.956c0 1.58.056 2.371 1.072 3.472.904.988 2.88 2.456 4.094 4.545.903 1.58 1.891 3.98-1.638 10.163.847 0 14.284 2.202 20.608-7.905-5.336-3.613-5.42-7.763-5.42-7.763.903-.113 1.27-.875.028-2.907-.847-1.44-2.117-2.682-3.529-3.699-4.827-3.556-9.005-4.573-9.005-4.573-2.117 2.767-6.21 2.993-6.21 2.993.451 2.484 0 5.674 0 5.674z"/>
        <path d="M115.533 52.383c-1.412.198-4.376-1.129-4.376-1.129"/>
        <path fill="#fff" d="M111.976 45.777c1.384 1.101 2.654 2.343 3.529 3.698 1.242 2.061.875 2.823-.028 2.936 0 0 .085 4.263 5.42 7.848 7.34-9.88 4.771-33.932-13.155-28.738 3.021 6.352 4.46 14.284 4.234 14.256z"/>
        <path fill="#181C19" d="M102.886 41.12s4.234 1.1 9.005 4.572c.311.057-1.129-7.876-4.263-14.2-1.976-4.205-4.714-7.678-8.017-7.847-6.295-.197-2.286 12.732 3.275 17.474zM56.703 133.628c.17.057.31.141.48.198 12.788 5.42 18.236 12.421 20.523 17.841h58.153c4.291-6.747 7.763-13.861 8.299-19.845 14.764-5.703 25.661 5.194 25.661 5.194 6.013-20.128-.508-43.05-16.853-57.588-4.009-3.557-9.598-6.465-10.897-7.058-11.997-5.505-21.228-12.139-21.228-12.139-6.324 10.107-19.761 7.905-20.608 7.905 0 0-17.361 30.572-36.247 30.205.057 0 5.73 20.947-7.283 35.287z"/>
        <path fill="#fff" d="M79.23 160.361l2.597 65.125h71.562l.367-65.887c-.395.31-.762.592-1.101.875-11.263 9.259-21.849 16.062-27.439 19.901-17.248 11.885-11.771-.931-7.509-5.561 2.597-2.823 11.405-12.534 18.18-23.148H77.762c2.061 4.997 1.468 8.695 1.468 8.695z"/>
        <path fill="#fff" d="M133.29 200.504l30.855-30.883c3.303-3.303 3.303-8.667 0-11.97l-42.005-42.005c-3.303-3.303-8.667-3.303-11.97 0l-30.883 30.883c-3.303 3.303-3.303 8.666 0 11.969l42.006 42.006c3.303 3.303 8.666 3.303 11.997 0z"/>
        <path d="M121.238 137.207v20.401h-12.375"/>
        <path fill="#F8CA06" d="M89.28 142.577l16.938-16.938c.763-.762.763-2.032 0-2.794l-3.133-3.134c-.762-.762-2.033-.762-2.795 0l-2.23 2.23c-1.016 1.016-2.4 1.609-3.84 1.638-3.81.112-6.887 3.189-7 7-.028 1.44-.621 2.823-1.638 3.84l-2.23 2.23c-.762.762-.762 2.032 0 2.795l3.134 3.133c.762.762 2.032.762 2.795 0z"/>
    </g>
    <path stroke="#181C19" stroke-dasharray="10 10" stroke-linecap="round" stroke-linejoin="round" stroke-width="1.4" d="M31.744 35.053s19.53-4.382 32.05 7.511c12.518 11.893 13.52 22.534 3.503 42.564"/>
    <path fill="#F8CA06" stroke="#181C19" stroke-linecap="round" stroke-linejoin="round" stroke-miterlimit="10" stroke-width="1.4" d="M129.391 176.767c5.562-3.84 11.945-7.005 23.237-16.264.339-.282.734-.593 1.101-.875 3.161-2.456 7.17-5.223 9.4-8.525 2.993-4.404 5.223-9.175 6.691-14.087 0 0-10.897-10.897-25.661-5.194-.565 5.984-4.009 13.127-8.3 19.845-6.775 10.643-11.351 16.687-13.977 19.51-4.262 4.658-9.682 17.446 7.509 5.59zM14.754 71.326c6.775 4.63 12.901 9.4 15.78 18.66 2.852 9.202 2.146 33.113 26.198 43.614 13.013-14.312 7.311-35.287 7.311-35.287-6.041-.113-12.252-3.416-18.095-11.941 0 0-12.28-20.692-31.194-19.958 0 .028-6.775.282 0 4.912z"/>
    <path fill="#fff" stroke="#181C19" stroke-linecap="round" stroke-linejoin="round" stroke-miterlimit="10" stroke-width="1.4" d="M25.19 47.66L.7 38.163l22.051-1.944 2.44 11.44z"/>
    <path fill="#fff" stroke="#181C19" stroke-linecap="round" stroke-linejoin="round" stroke-miterlimit="10" stroke-width="1.4" d="M22.751 36.219L.701 38.163l16.825-7.422 5.225 5.478z"/>
</svg>
