<svg xmlns="http://www.w3.org/2000/svg" width="521" height="289" fill="none" viewBox="0 0 521 289">
    <rect width="189" height="284" fill="#F8CA06" rx="94.5" transform="matrix(1.00057 0 0 -1.00057 93.755 284.163)"/>
    <ellipse fill="#F8CA06" rx="105.5" ry="105" transform="matrix(1.00057 0 0 -1.00057 415.439 173.099)"/>
    <mask id="prefix__a" width="219" height="285" x="64" y="0" maskUnits="userSpaceOnUse">
        <path fill="#F8CA06" d="M93.754 218.154c0 36.456 29.554 66.009 66.01 66.009h28.545c52.221 0 94.554-42.333 94.554-94.554V94.555C282.863 42.334 240.529 0 188.309 0h-23.018c-39.509 0-71.537 32.027-71.537 71.536v42.799c0 8.606-5.989 16.053-14.395 17.898-12.714 2.791-18.545 17.576-11.16 28.295l18.46 26.787c4.62 6.706 7.095 14.659 7.095 22.803v8.035z"/>
    </mask>
    <g stroke="#181C19" stroke-linecap="round" stroke-linejoin="round" stroke-miterlimit="10" stroke-width="1.4" mask="url(#prefix__a)">
        <path fill="#fff" d="M203.859 152.412c-3.324-1.7-5.862-3.299-7.055-4.619-.152-.177-.279-.33-.38-.482h.025c.609-.203.964-.583.888-1.243-.025-.635-.507-1.573-1.7-2.868-1.548-1.598-3.654-2.969-5.836-4.085.101 0-.254-1.117-.99-2.868-.025-.076-.076-.177-.101-.253-.762-1.802-1.904-4.264-3.35-6.877-.076-.127-.127-.254-.203-.355-.102-.178-.178-.33-.279-.508-1.37-2.487-2.995-5.101-4.771-7.486-.025-.025-.025-.051-.051-.051 3.223-1.852 6.116-2.969 8.704-3.451.076-.025.153-.025.203-.025.076-.025.153-.025.203-.051h.076c.077-.025.178-.025.254-.051.102-.025.229-.025.33-.05 6.166-.762 10.455 2.131 13.221 6.597V123.737c.507.888.964 1.776 1.396 2.665v.025c.025.025.025.076.05.101 1.878 4.34 2.614 9.516 2.487 14.186-.076 4.06-1.193 8.094-3.121 11.698z"/>
        <path fill="#F8CA06" d="M203.859 152.412c-5.05 9.465-9.693 13.906-10.378 14.591-1.015-5.329-9.618-7.613-9.643-7.613-3.553-1.269-13.703 0-13.779-10.379 0 0-.229-4.491-1.523-7.815 0 0 5.557-1.396 7.689-5.786 0 0 5.989.254 13.601 3.806 2.183 1.015 4.289 2.36 5.837 4.086 1.116 1.218 1.624 2.106 1.7 2.766.076.66-.304 1.04-.888 1.243h-.025c.101.152.228.305.38.482 1.167 1.32 3.705 2.919 7.029 4.619z"/>
        <path d="M190.131 146.956s4.415 1.015 6.293.355"/>
        <path fill="#fff" d="M188.735 135.994c-.761-1.802-1.903-4.264-3.349-6.877 1.446 2.613 2.588 5.075 3.349 6.877z"/>
        <path fill="#181C19" d="M189.7 138.988c-7.486-3.451-13.602-3.806-13.602-3.806-8.932-4.949-17.991-21.595-9.287-23.042 4.567-.685 9.287 3.35 13.17 8.552.025.025.051.076.076.101 1.827 2.36 3.451 4.949 4.847 7.436.101.177.177.329.279.507.076.127.127.254.203.355 1.446 2.639 2.588 5.076 3.349 6.877.051.076.077.178.102.254.685 1.7 1.015 2.766.863 2.766z"/>
        <path fill="#F8CA06" d="M146.815 248.662c-32.862-22.026-52.402-70.824-55.091-73.285-3.046-2.792-10.404-7.105-14.21-12.434-2.538-3.553-1.802-7.131-.204-9.415 1.193-1.675 1.269-3.933.203-5.684-1.928-3.197-1.98-5.405-1.548-6.801.33-1.04 1.726-1.218 2.284-.304 5.938 9.516 37.455 56.74 75.696 51.716.025 0 9.034 32.633-7.13 56.207z"/>
        <path fill="#181C19" d="M295.999 247.952s-14.464 36.262-91.607 46.945c0 0-2.791-23.599-43.9-39.079-4.796-1.801-9.363-4.237-13.677-7.156 16.164-23.599 7.156-56.232 7.156-56.232 12.662-1.675 26.061-9.06 39.51-25.452.685-.686 5.329-5.126 10.379-14.592 9.541 4.898 25.68 10.76 35.475 14.236 11.698 4.111 22.508 10.557 31.517 19.108 29.512 27.939 25.147 62.222 25.147 62.222z"/>
    </g>
    <rect width="70.04" height="45.026" x="32.72" y="88.168" fill="#181C19" rx="10" transform="rotate(-15 32.72 88.168)"/>
    <circle cx="89.761" cy="88.422" r="5.003" fill="#fff" transform="rotate(-15 89.761 88.422)"/>
    <circle cx="82.028" cy="90.493" r="5.003" fill="#F8CA06" transform="rotate(-15 82.028 90.493)"/>
    <rect width="48.125" height="30.937" x="187.811" y="36.02" fill="#fff" rx="7" transform="rotate(15 187.811 36.02)"/>
    <circle cx="221.666" cy="55.768" r="3.437" fill="#181C19" transform="rotate(15 221.666 55.768)"/>
    <circle cx="216.354" cy="54.344" r="3.437" fill="#F8CA06" transform="rotate(15 216.354 54.344)"/>
    <rect width="48.125" height="30.937" x="269.641" y="278.73" fill="#F8CA06" rx="7" transform="rotate(-165 269.641 278.73)"/>
    <circle cx="235.786" cy="258.982" r="3.437" fill="#181C19" transform="rotate(-165 235.786 258.982)"/>
    <circle cx="241.098" cy="260.406" r="3.437" fill="#fff" transform="rotate(-165 241.098 260.406)"/>
    <ellipse cx="329.115" cy="286.127" fill="#181C19" opacity=".1" rx="18.859" ry="2.039"/>
    <path fill="#fff" d="M358.367 203.967c-18.184 5.165-28.532 22.835-31.484 31.182-.019.053-.028.106-.028.162v.766c0 .259.209.477.467.498 28.45 2.293 32.982-20.117 31.666-32.199-.033-.301-.33-.491-.621-.409z"/>
    <path fill="#F8CA06" d="M327.182 243.43v-2.809c0-.104-.031-.204-.092-.289-3.624-5.095-8.157-11.35-16.268-14.595-7.744-3.097-15.194-6.195-20.131-10.125-.33-.263-.825-.042-.824.379.023 6.426 1.983 15.423 9.83 21.526 5.759 4.478 11.936 2.987 26.864 6.4.314.072.621-.165.621-.487z"/>
    <path fill="#fff" d="M330.677 192.314c19.185-1.881 21.895-22.799 20.806-33.847-.036-.367-.449-.555-.759-.354-8.715 5.634-13.126 9.144-15.36 12.654-3.597 5.653-2.948 10.12-5.218 18.586-.011.042-.017.087-.017.131v2.338c0 .291.258.521.548.492zM328.809 202.638c-17.563 3.291-24.367-12.279-25.731-21.273-.055-.364.297-.647.645-.529 4.273 1.454 5.416 2.107 10.373 3.346 5.235 1.309 8.414 4.908 10.143 7.853 1.649 2.807 2.83 5.911 4.921 9.88.155.295-.023.662-.351.723z"/>
    <path fill="#181C19" fill-rule="evenodd" d="M329.026 179.238c.381-.065.744.19.809.572.549 3.184 1.319 10.261 1.319 13.207 0 3.501-.911 9.781-1.807 15.688l-.273 1.788c-.355 2.331-.695 4.56-.963 6.501-.339 2.447-.556 4.383-.556 5.471v.521c-.002 5.182-.008 20.42 1.303 30.473 1.146 8.791.611 19.787.213 27.977-.079 1.637-.154 3.162-.208 4.535-.015.386-.341.687-.727.672-.387-.016-.688-.341-.672-.728.055-1.397.13-2.941.21-4.592.397-8.198.923-19.031-.205-27.683-1.323-10.148-1.317-25.465-1.315-30.641v-.534c0-1.202.233-3.234.569-5.663.27-1.952.612-4.194.967-6.525l.272-1.782c.903-5.954 1.791-12.108 1.791-15.478 0-2.837-.757-9.828-1.298-12.969-.066-.382.19-.744.571-.81z" clip-rule="evenodd"/>
    <path fill="#181C19" fill-rule="evenodd" d="M350.14 239.547c.203.132.324.36.319.602-.116 5.444-4.74 17.075-21.789 21.603l-.359-1.354c15.256-4.052 19.969-13.887 20.657-19.131-1.835.818-3.395 1.399-4.762 1.909-.348.13-.683.255-1.008.378-1.848.702-3.329 1.338-4.806 2.416-5.312 3.879-8.251 8.705-9.244 11.419l-1.315-.481c1.086-2.971 4.194-8.024 9.733-12.069 1.634-1.194 3.261-1.883 5.135-2.595.334-.127.676-.254 1.029-.386 1.627-.606 3.47-1.294 5.73-2.358.22-.103.477-.085.68.047zM300.512 243.565c.192-.191.477-.255.732-.164 17.788 6.372 26.081 20.756 28.094 27.244.115.37-.091.762-.461.877-.369.115-.762-.092-.876-.461-1.863-6.001-9.524-19.418-25.885-25.837.446 1.563.691 3.022.927 4.431l.112.665c.347 2.029.744 4 1.761 6.209 1.838 3.995 4.261 7.636 8.604 10.723 1.875 1.333 3.623 1.921 5.978 2.587l.977.273c2.189.607 4.874 1.353 8.455 2.785.359.144.533.552.39.911-.144.359-.552.534-.911.39-3.505-1.402-6.119-2.128-8.305-2.736l-.987-.275c-2.389-.676-4.33-1.315-6.409-2.794-4.597-3.268-7.156-7.131-9.065-11.278-1.095-2.381-1.516-4.5-1.868-6.559-.039-.224-.076-.446-.113-.668-.307-1.828-.607-3.612-1.314-5.592-.091-.255-.027-.539.164-.731zM304.028 207.017c.137-.2.368-.314.61-.303 5.796.27 10.803 2.571 14.694 5.313 3.887 2.74 6.697 5.945 8.108 8.09.185.281.142.646-.085.876.107.109.18.254.197.418.04.385-.24.729-.625.769-11.766 1.223-17.469-3.29-18.977-5.542-.708-1.056-1.138-2.009-1.672-3.328-.125-.309-.257-.639-.399-.996-.463-1.166-1.043-2.625-1.915-4.62-.098-.221-.073-.478.064-.677zm22.211 13.823c-1.327-2.001-4.001-5.051-7.714-7.668-3.477-2.45-7.834-4.499-12.82-4.978.638 1.494 1.102 2.661 1.481 3.613l.39.978c.523 1.291.911 2.138 1.538 3.073 1.141 1.704 6.137 5.97 17.125 4.982zM345.976 191.188c.175.158.258.393.223.626-.556 3.615-2.119 9.106-5.018 13.877-2.897 4.769-7.201 8.928-13.265 9.617-.384.044-.731-.232-.775-.617-.043-.384.233-.731.617-.775 5.455-.619 9.44-4.367 12.225-8.952 2.507-4.126 3.984-8.842 4.643-12.277-10.869 3.371-14.828 13.172-15.44 17.764-.051.384-.403.653-.787.602-.383-.051-.653-.404-.602-.787.678-5.078 5.121-15.998 17.533-19.236.228-.059.471 0 .646.158z" clip-rule="evenodd"/>
    <ellipse fill="#181C19" opacity=".1" rx="19.651" ry="2.124" transform="matrix(-1.00057 0 0 1.00057 37.81 286.043)"/>
    <path fill="#181C19" fill-rule="evenodd" d="M44.658 183.719c-.927-1.065-2.083-1.829-3.336-1.438-1.476.46-2.641 1.707-3.567 3.347-.933 1.652-1.68 3.802-2.272 6.243-1.186 4.887-1.788 11.081-1.963 17.149-.115 3.999-.045 7.96.169 11.477-.5-.824-.972-1.602-1.38-2.297l-.014-.024c-1.914-2.982-4.223-6.281-6.527-9.122-2.287-2.819-4.626-5.258-6.602-6.444-.976-.586-2.005-.954-2.952-.738-1.018.233-1.674 1.068-2.033 2.257-.356 1.179-.468 2.84-.331 5.032.138 2.203.532 4.996 1.226 8.468 1.24 6.202 2.999 11.597 4.903 16.121l-.267-.274c-1.995-2.044-4.69-3.873-7.403-5.2-2.702-1.322-5.498-2.185-7.7-2.225-1.1-.02-2.13.163-2.924.676-.83.536-1.324 1.382-1.405 2.49-.077 1.07.23 2.368.918 3.898.692 1.539 1.794 3.367 3.373 5.516 6.289 8.558 13.435 15.371 17.652 19.358l.29.273c.627.594 1.18 1.117 1.65 1.568-.28-.134-.585-.285-.92-.452-4.934-2.468-8.978-4.185-12.212-5.266-3.22-1.075-5.694-1.538-7.468-1.444-.892.047-1.657.237-2.256.606-.617.381-1.023.931-1.202 1.607-.34 1.284.167 2.896 1.12 4.6 1.942 3.468 6.134 8.002 11.81 12.648 5.692 4.658 12.93 9.47 21.017 13.479.347.172.767.03.939-.316.172-.347.03-.767-.316-.939-7.991-3.961-15.14-8.716-20.753-13.308-5.628-4.606-9.66-9.008-11.474-12.249-.925-1.651-1.179-2.837-.989-3.557.086-.325.268-.578.583-.772.333-.205.844-.36 1.595-.4 1.51-.08 3.784.317 6.95 1.374 3.151 1.052 7.131 2.74 12.03 5.19 1.325.662 2.274 1.104 2.877 1.32.154.055.299.1.43.131.12.027.282.055.45.039.16-.015.512-.099.675-.473.134-.307.03-.586-.011-.684-.098-.234-.293-.479-.48-.693-.206-.237-.477-.518-.798-.838-.582-.579-1.36-1.314-2.282-2.185l-.292-.277c-4.213-3.983-11.278-10.722-17.486-19.169-1.544-2.102-2.586-3.842-3.224-5.262-.643-1.428-.852-2.48-.798-3.222.05-.706.336-1.136.767-1.414.467-.302 1.18-.47 2.138-.453 1.914.035 4.498.805 7.11 2.083 2.602 1.273 5.156 3.014 7.017 4.921 1.097 1.124 2.109 2.185 3.039 3.184 2.936 5.978 5.946 9.959 7.78 11.729.43.415.826.738 1.164.935.165.096.361.189.57.226.21.036.561.032.832-.253.244-.256.26-.576.25-.758-.011-.202-.066-.413-.138-.616-.145-.413-.407-.935-.782-1.559-1.24-2.061-3.89-5.534-8.51-10.506-2.466-5.061-4.888-11.597-6.465-19.483-.687-3.436-1.07-6.162-1.202-8.281-.133-2.131-.01-3.597.274-4.54.282-.934.671-1.219 1.005-1.295.404-.093 1.031.04 1.918.572 1.748 1.05 3.955 3.316 6.235 6.127 2.26 2.786 4.535 6.035 6.428 8.984.443.754.946 1.583 1.472 2.451.44.724.896 1.475 1.346 2.232.063.676.132 1.327.207 1.949.267 2.233.608 4.121 1.013 5.464.2.666.43 1.241.696 1.664.243.383.653.852 1.274.852.615 0 1.185-.192 1.546-.694.334-.464.38-1.049.325-1.585-.108-1.076-.675-2.48-1.4-3.945-.645-1.303-1.46-2.736-2.295-4.148-.364-4.069-.517-9.049-.372-14.101.174-6.02.77-12.105 1.924-16.858.578-2.379 1.286-4.39 2.13-5.885.851-1.506 1.784-2.393 2.765-2.698.4-.125 1.009.039 1.862 1.02.82.943 1.683 2.448 2.527 4.399 1.681 3.889 3.211 9.368 4.19 15.143.98 5.777 1.4 11.801.89 16.782-.02.2-.042.398-.066.594-2.081 2.83-3.85 5.556-4.87 7.509-.297.568-.537 1.084-.703 1.526-.159.422-.28.851-.272 1.218.004.187.042.44.208.665.187.252.459.366.72.385.233.016.456-.042.642-.112.195-.074.4-.18.613-.31 1.569-.954 2.716-2.53 3.533-4.469.712-1.689 1.188-3.688 1.474-5.875.26-.35.524-.703.794-1.056 2.494-3.271 5.313-6.539 7.788-8.782 1.242-1.125 2.364-1.961 3.29-2.42.97-.481 1.496-.44 1.759-.264.195.13.46.483.68 1.211.212.703.352 1.655.384 2.828.065 2.342-.3 5.474-1.27 9.063-.69 2.556-1.684 5.335-3.039 8.215-2.576 1.914-5.052 4.552-7.123 7.158-2.452 3.084-4.384 6.187-5.274 8.113-.222.48-.392.914-.484 1.269-.046.176-.08.363-.083.542-.002.157.02.438.22.676.244.292.584.33.823.292.213-.034.407-.132.56-.226.318-.196.7-.525 1.142-.967 5.154-5.155 8.824-10.695 11.333-15.936.349-.251.698-.487 1.048-.705 2.899-1.81 5.562-2.3 7.724-.814.473.325.952 1.053 1.012 2.444.06 1.394-.309 3.39-1.472 6.095-2.325 5.41-7.75 13.486-18.779 24.94-.254.264-.262.679-.018.952.244.273.657.312.948.09 3.53-2.702 7.83-5.005 11.511-6.377 1.843-.686 3.502-1.129 4.814-1.28.657-.076 1.202-.076 1.628-.01.431.067.687.193.828.321.196.179.422.636-.167 1.882-.572 1.209-1.806 2.891-3.937 5.121-4.25 4.449-11.904 10.918-24.382 19.944-.313.227-.383.665-.157.978.227.314.665.384.978.157 12.499-9.041 20.235-15.569 24.573-20.111 2.163-2.264 3.522-4.076 4.191-5.49.652-1.378.766-2.676-.155-3.516-.417-.38-.97-.58-1.557-.67-.591-.092-1.271-.083-2.004.002-1.465.169-3.24.651-5.142 1.36-2.174.81-4.549 1.93-6.865 3.261 8.403-9.257 12.875-16.105 14.98-21.001 1.21-2.817 1.656-5.03 1.583-6.708-.072-1.681-.674-2.889-1.618-3.538-2.632-1.81-5.666-1.247-8.516.341.947-2.242 1.68-4.407 2.229-6.439.996-3.691 1.387-6.961 1.317-9.467-.034-1.251-.184-2.335-.443-3.194-.252-.835-.642-1.571-1.244-1.972-.933-.621-2.102-.348-3.157.174-1.098.544-2.332 1.48-3.61 2.638-2.373 2.151-5.014 5.173-7.392 8.231.295-4.784-.148-10.266-1.036-15.502-.992-5.852-2.548-11.445-4.287-15.465-.866-2.003-1.796-3.66-2.755-4.763zm16.566 50.39c-2.311 4.168-5.393 8.448-9.409 12.494.86-1.809 2.69-4.738 5.031-7.685 1.337-1.682 2.826-3.35 4.379-4.809zm-9.914 13.877v-.001.001zm-.732-23.22c-.234.966-.518 1.856-.856 2.659-.728 1.727-1.686 3.001-2.879 3.76l.037-.099c.139-.371.351-.831.633-1.372.694-1.327 1.765-3.056 3.065-4.948zm-3.88 7.025v-.005.005zm-11.002-5.087c.225.418.438.828.635 1.227.724 1.462 1.182 2.665 1.262 3.464.04.4-.028.57-.068.626-.013.018-.071.099-.344.11-.028-.025-.08-.082-.155-.199-.167-.265-.352-.699-.539-1.319-.293-.974-.561-2.303-.79-3.909zm1.508 5.445l-.002-.001.002.001zm-11.258 10.206c2.142 2.542 3.512 4.436 4.278 5.71l.028.046c-1.104-1.126-2.633-3.059-4.306-5.756zm5.001 7.244v-.002.002z" clip-rule="evenodd"/>
</svg>
