<svg xmlns="http://www.w3.org/2000/svg" width="519" height="289" fill="none" viewBox="0 0 519 289">
    <rect width="189" height="284" fill="#F8CA06" rx="94.5" transform="matrix(1 0 0 -1 92 284)"/>
    <ellipse fill="#F8CA06" rx="105.5" ry="105" transform="matrix(1 0 0 -1 413.5 173)"/>
    <ellipse fill="#181C19" opacity=".1" rx="19.651" ry="2.124" transform="matrix(-1 0 0 1 313.087 285.879)"/>
    <path fill="#181C19" fill-rule="evenodd" d="M319.931 183.614c-.926-1.065-2.081-1.828-3.334-1.438-1.475.46-2.64 1.706-3.565 3.346-.933 1.651-1.678 3.799-2.271 6.239-1.185 4.884-1.787 11.074-1.961 17.139-.116 3.997-.046 7.955.168 11.471-.5-.824-.971-1.602-1.378-2.296l-.015-.024c-1.913-2.981-4.22-6.278-6.523-9.117-2.286-2.817-4.623-5.255-6.598-6.441-.975-.585-2.004-.953-2.95-.737-1.018.233-1.674 1.067-2.032 2.255-.356 1.179-.468 2.839-.331 5.029.138 2.203.531 4.994 1.225 8.464 1.24 6.198 2.997 11.59 4.9 16.112l-.266-.274c-1.995-2.043-4.688-3.871-7.399-5.197-2.701-1.322-5.495-2.184-7.696-2.224-1.1-.02-2.129.163-2.922.676-.83.535-1.324 1.381-1.404 2.488-.077 1.07.229 2.366.917 3.896.692 1.538 1.793 3.365 3.372 5.513 6.284 8.553 13.427 15.362 17.642 19.347l.288.273c.628.593 1.181 1.116 1.649 1.567-.278-.135-.584-.285-.918-.452-4.932-2.466-8.973-4.183-12.206-5.263-3.217-1.074-5.69-1.537-7.464-1.443-.891.047-1.655.237-2.254.606-.617.38-1.022.93-1.201 1.606-.339 1.282.167 2.894 1.119 4.596 1.941 3.467 6.13 7.999 11.804 12.641 5.688 4.656 12.921 9.465 21.005 13.472.346.172.766.03.938-.316.171-.346.03-.766-.317-.938-7.986-3.959-15.13-8.711-20.74-13.301-5.625-4.603-9.655-9.002-11.468-12.241-.924-1.651-1.178-2.836-.988-3.555.086-.325.268-.578.583-.772.332-.205.843-.36 1.593-.4 1.509-.08 3.782.316 6.947 1.373 3.149 1.052 7.127 2.739 12.023 5.187 1.324.662 2.273 1.104 2.875 1.319.154.055.299.101.431.131.12.028.281.056.448.04.161-.016.513-.099.676-.473.133-.307.029-.586-.012-.684-.097-.234-.293-.478-.48-.693-.206-.236-.476-.517-.797-.837-.581-.578-1.359-1.313-2.28-2.184l-.293-.276c-4.21-3.982-11.272-10.716-17.475-19.159-1.544-2.1-2.585-3.84-3.223-5.258-.642-1.428-.851-2.479-.798-3.221.052-.705.336-1.135.767-1.413.467-.302 1.179-.47 2.137-.452 1.913.035 4.495.803 7.106 2.081 2.6 1.273 5.153 3.013 7.013 4.918 1.097 1.124 2.107 2.184 3.037 3.182 2.934 5.975 5.943 9.954 7.777 11.723.429.414.825.737 1.163.934.164.096.36.189.569.226.21.036.561.032.832-.253.243-.255.26-.575.25-.757-.012-.202-.067-.413-.138-.616-.145-.413-.408-.935-.783-1.558-1.238-2.06-3.887-5.531-8.504-10.5-2.465-5.058-4.885-11.591-6.462-19.472-.687-3.434-1.068-6.158-1.201-8.276-.133-2.13-.011-3.595.274-4.537.281-.934.671-1.219 1.004-1.295.404-.092 1.031.04 1.917.572 1.747 1.049 3.953 3.314 6.232 6.123 2.258 2.784 4.533 6.032 6.424 8.979.442.754.945 1.583 1.472 2.449.439.724.895 1.475 1.345 2.231.063.676.132 1.326.206 1.948.267 2.232.608 4.119 1.013 5.461.2.666.429 1.241.696 1.663.242.383.652.852 1.273.852.614 0 1.184-.192 1.545-.694.333-.464.379-1.048.325-1.584-.109-1.075-.675-2.478-1.4-3.942-.645-1.302-1.458-2.735-2.293-4.146-.364-4.067-.518-9.044-.372-14.093.173-6.017.77-12.099 1.923-16.849.577-2.377 1.285-4.387 2.129-5.881.85-1.506 1.782-2.391 2.762-2.697.4-.125 1.009.039 1.862 1.019.82.943 1.682 2.447 2.525 4.397 1.681 3.887 3.21 9.362 4.189 15.135.978 5.773 1.398 11.794.888 16.772-.02.2-.042.398-.065.594-2.081 2.828-3.849 5.552-4.868 7.504-.297.568-.536 1.084-.703 1.526-.158.421-.279.85-.272 1.216.004.187.043.441.209.665.187.253.458.367.719.385.233.016.457-.042.642-.112.194-.073.399-.18.613-.309 1.567-.954 2.714-2.529 3.53-4.467.712-1.688 1.188-3.686 1.473-5.871.26-.351.525-.703.794-1.056 2.493-3.27 5.31-6.535 7.784-8.777 1.241-1.124 2.362-1.96 3.289-2.419.969-.48 1.494-.439 1.757-.264.195.13.459.484.679 1.211.212.702.352 1.654.385 2.826.064 2.341-.301 5.471-1.269 9.058-.69 2.555-1.684 5.332-3.038 8.21-2.574 1.913-5.05 4.549-7.119 7.154-2.45 3.082-4.382 6.184-5.271 8.108-.222.481-.392.914-.484 1.269-.046.176-.081.362-.083.541-.001.157.02.438.219.676.245.292.585.33.823.292.214-.034.407-.132.561-.226.317-.196.698-.525 1.14-.967 5.152-5.151 8.82-10.688 11.327-15.926.349-.251.698-.487 1.047-.705 2.898-1.808 5.559-2.298 7.72-.813.473.325.951 1.052 1.011 2.442.061 1.394-.308 3.388-1.47 6.092-2.324 5.406-7.746 13.479-18.769 24.925-.254.264-.262.679-.018.952.244.273.657.312.948.09 3.528-2.701 7.825-5.002 11.504-6.373 1.841-.686 3.5-1.128 4.811-1.28.657-.076 1.202-.076 1.627-.01.431.067.687.193.828.321.195.179.421.636-.167 1.881-.572 1.209-1.805 2.889-3.935 5.118-4.247 4.446-11.897 10.911-24.367 19.933-.314.226-.384.664-.157.977.226.314.664.384.977.157 12.491-9.036 20.223-15.561 24.559-20.099 2.162-2.263 3.52-4.074 4.188-5.488.652-1.377.766-2.673-.155-3.513-.417-.38-.97-.58-1.556-.67-.591-.092-1.27-.082-2.002.002-1.465.169-3.24.651-5.14 1.359-2.172.81-4.546 1.929-6.861 3.26 8.398-9.252 12.868-16.096 14.971-20.989 1.21-2.816 1.656-5.028 1.583-6.705-.073-1.68-.674-2.887-1.617-3.536-2.631-1.808-5.663-1.246-8.511.341.945-2.241 1.679-4.405 2.227-6.436.996-3.688 1.386-6.956 1.317-9.461-.035-1.25-.184-2.333-.444-3.192-.252-.834-.641-1.57-1.243-1.971-.932-.621-2.1-.348-3.154.174-1.098.544-2.331 1.48-3.608 2.637-2.372 2.149-5.012 5.17-7.388 8.226.294-4.781-.149-10.26-1.036-15.493-.992-5.849-2.547-11.439-4.284-15.456-.866-2.002-1.796-3.659-2.754-4.76zm16.557 50.36c-2.31 4.166-5.39 8.444-9.404 12.487.86-1.808 2.688-4.735 5.029-7.68 1.336-1.681 2.823-3.349 4.375-4.807zm-9.909 13.87v-.002.002zm-.731-23.208c-.234.966-.518 1.856-.856 2.658-.727 1.726-1.684 2.999-2.877 3.758l.037-.099c.139-.37.351-.831.633-1.371.693-1.327 1.764-3.054 3.063-4.946zm-3.878 7.021l-.001-.004.001.004zm-10.996-5.083c.225.417.438.827.635 1.226.724 1.461 1.181 2.663 1.262 3.462.04.4-.029.57-.069.625v.001c-.013.018-.071.099-.344.11-.028-.026-.08-.082-.154-.199-.168-.265-.352-.699-.539-1.319-.293-.973-.561-2.301-.791-3.906zm1.507 5.442l-.002-.001.002.001zm-11.251 10.2c2.141 2.54 3.51 4.433 4.276 5.706l.027.047c-1.103-1.126-2.632-3.058-4.303-5.753zm4.998 7.239v-.001.001z" clip-rule="evenodd"/>
    <path fill="#fff" fill-rule="evenodd" d="M246.14 91.343c1.632 1.542 2.646 3.282 2.866 4.825.04.277.241.505.513.577.271.072.559-.024.732-.245 3.066-3.926 6.117-6.104 8.913-7.041 2.783-.933 5.358-.65 7.538.425 4.396 2.169 7.278 7.624 6.8 13.124-.034.385.251.725.636.758.385.034.725-.251.758-.637.522-6-2.596-12.044-7.575-14.5-2.507-1.238-5.464-1.55-8.602-.498-2.838.952-5.788 3.004-8.689 6.422-.544-1.488-1.581-2.954-2.929-4.227-1.784-1.687-4.167-3.09-6.846-3.808-2.683-.72-5.674-.756-8.652.314-2.74.984-5.431 2.89-7.845 5.987-4.189-5.982-18.516-10.702-31.594 4.798-.249.296-.212.737.084.987.295.249.737.212.986-.084 13.25-15.704 27.12-9.425 29.843-4.131.111.217.328.36.571.378.244.017.479-.093.621-.291 2.429-3.401 5.131-5.366 7.807-6.327 2.678-.962 5.375-.934 7.816-.28 2.447.657 4.626 1.942 6.248 3.474zM324.222 125.691c.755-1.869 2.306-3.643 4.259-5.06 2.455-1.78 5.642-3.067 8.972-3.295 3.341-.23 6.837.607 9.852 3.087 3.01 2.475 5.479 6.536 6.878 12.642.087.377-.149.752-.526.839-.376.086-.752-.149-.838-.526-1.351-5.894-3.695-9.646-6.403-11.874-2.704-2.223-5.833-2.98-8.867-2.772-3.045.209-5.983 1.392-8.246 3.033-2.28 1.653-3.781 3.7-4.113 5.578-.049.282-.265.505-.545.564-.28.058-.568-.059-.726-.297-2.788-4.182-7.427-5.023-11.509-3.662-4.108 1.369-7.479 4.914-7.71 9.31-.02.386-.35.683-.736.662-.386-.02-.682-.349-.662-.735.269-5.104 4.148-9.059 8.665-10.565 4.158-1.386 9.001-.742 12.255 3.071zM92.853 50.404c-5.295 2.29-9.183 8.081-10.477 12.853-.101.373-.486.594-.859.493-.373-.102-.594-.486-.492-.86 1.372-5.06 5.484-11.268 11.272-13.771 2.921-1.263 6.259-1.575 9.838-.323 3.353 1.174 6.869 3.703 10.442 8.013 1.794-2.81 5.834-4.635 10.001-3.86 4.733.878 9.511 5.04 11.802 14.46.092.375-.139.754-.514.845-.376.091-.755-.139-.846-.515-2.209-9.08-6.68-12.668-10.698-13.414-4.107-.763-7.874 1.373-8.976 4.018-.095.23-.305.39-.55.424-.246.034-.492-.065-.645-.26-3.696-4.681-7.241-7.256-10.479-8.39-3.224-1.127-6.198-.846-8.819.287z" clip-rule="evenodd"/>
    <ellipse fill="#181C19" opacity=".1" rx="29.5" ry="3" transform="matrix(-1 0 0 1 142.5 285)"/>
    <ellipse fill="#181C19" opacity=".1" rx="18.5" ry="2" transform="matrix(-1 0 0 1 18.5 285)"/>
    <path fill="#F8CA06" stroke="#181C19" stroke-linecap="round" stroke-linejoin="round" stroke-miterlimit="10" stroke-width="1.4" d="M76.184 145.029s-6.704 8.769-20.357 7.193c-13.653-1.576-16.74 7.482-16.74 7.482l-17.87-15.873 16.76-12.077 13.299-9.568 24.908 22.843z"/>
    <path fill="#fff" stroke="#181C19" stroke-linecap="round" stroke-linejoin="round" stroke-miterlimit="10" stroke-width="1.4" d="M85.42 174.733l-18.782 9.435-27.55-24.465s3.086-9.057 16.739-7.481c13.653 1.576 20.357-7.193 20.357-7.193l8.88 8.148c-8.924 15.229.355 21.556.355 21.556z"/>
    <path fill="#181C19" stroke="#181C19" stroke-linecap="round" stroke-linejoin="round" stroke-miterlimit="10" stroke-width="1.4" d="M100.384 167.229l-14.963 7.504s-9.28-6.327-.355-21.556l15.318 14.052zM37.978 131.776l-16.761 12.077 1.31-26.13 15.45 14.053z"/>
    <path fill="#fff" stroke="#181C19" stroke-linecap="round" stroke-linejoin="round" stroke-miterlimit="10" stroke-width="1.4" d="M140.166 137.57c-2.886-1.087-6.238-2.153-6.349-2.264.399-.266.599-.622.399-1.066-.133-.466-.666-1.043-1.776-1.753-1.42-.866-3.196-1.443-4.995-1.843-1.11-2.198-7.015-8.503-10.545-11.411 10.301-9.79 22.245-1.065 23.266 9.258.333 3.041.688 6.105 0 9.079z"/>
    <path stroke="#181C19" stroke-linecap="round" stroke-linejoin="round" stroke-miterlimit="10" stroke-width="1.4" d="M140.165 137.57c-1.82 7.792-5.95 12.721-6.305 13.365-1.709-3.619-5.306-5.417-6.438-5.994-2.286-1.177-7.326-.666-9.79-3.419-.777-.866-1.376-2.42-2.198-3.241-.843-.866-1.287-1.377-2.442-1.998 0 0 3.286-2.109 3.996-5.684 0 0 4.374-.954 10.545.134 1.776.31 3.552.888 4.995 1.82 1.044.666 1.576 1.221 1.754 1.665.178.466-.022.821-.422 1.066.067.133 3.264 1.021 6.305 2.286zM129.221 136.282s3.374-.111 4.617-.954"/>
    <path fill="#181C19" stroke="#181C19" stroke-linecap="round" stroke-linejoin="round" stroke-miterlimit="10" stroke-width="1.4" d="M127.379 130.599c-6.061-1.043-10.545-.133-10.545-.133-7.393-1.865-17.116-12.121-11.122-14.852 3.174-1.376 7.348.644 11.144 3.641.022.022.045.045.089.067 1.754 1.354 3.441 2.908 4.929 4.44.111.111.199.2.288.311.067.066.133.155.222.222 1.554 1.62 2.842 3.174 3.73 4.329.044.044.089.111.133.155.799 1.088 1.221 1.798 1.132 1.82z"/>
    <path fill="#fff" stroke="#181C19" stroke-linecap="round" stroke-linejoin="round" stroke-miterlimit="10" stroke-width="1.4" d="M198.218 247.948c-6.327 11.633-14.296 18.382-15.984 19.758-3.13 2.553-28.882 24.931-57.675 13.098-5.572-2.286-10.634-5.705-14.963-9.901-5.506-5.35-16.406-16.161-22.6-23.843-4.84-6.038-10.19-6.97-14.74-6.082-2.975.577-5.772 1.864-8.215 3.663-3.285 2.419-10.034 7.503-12.787 10.411-3.041 3.197-21 20.757-26.684 26.285-1.776 1.732-4.151 2.708-6.638 2.642-1.532-.045-3.174-.511-4.418-1.843-2.952-3.152-10.989-9.635-7.636-11.81.843-.555 1.931-.511 2.775.066 2.774 1.865 11.144 6.305 15.74-4.884 5.55-13.542 25.085-65.045 54.167-66.821 0 0 45.51 52.835 64.824 28.638 0 0 18.426 34.409 53.28 21.312.533-.222 1.066-.444 1.554-.689z"/>
    <path fill="#F8CA06" stroke="#181C19" stroke-linecap="round" stroke-linejoin="round" stroke-miterlimit="10" stroke-width="1.4" d="M143.405 227.303c-19.314 24.198-64.824-28.638-64.824-28.638l-20.047-19.27c-1.176-1.132-2.042-2.553-2.486-4.129-1.598-5.883 6.527-1.354 6.527-1.354 31.546 18.625 49.173 17.293 58.985 9.59 14.786 10.19 18.915 37.074 21.845 43.801z"/>
    <path fill="#181C19" stroke="#181C19" stroke-linecap="round" stroke-linejoin="round" stroke-miterlimit="10" stroke-width="1.4" d="M198.928 246.484c-.288.688-.71 1.487-.71 1.487s-.955.422-1.532.644h-.022c-34.854 13.098-53.28-21.312-53.28-21.312-2.931-6.727-7.06-33.611-21.845-43.801 13.298-10.434 12.299-32.567 12.299-32.567.377-.622 4.484-5.572 6.305-13.365 0 0 47.175 19.448 58.053 45.932 13.031 31.635 3.441 56.721.732 62.982z"/>
</svg>
