<svg xmlns="http://www.w3.org/2000/svg" width="501" height="289" fill="none" viewBox="0 0 501 289">
    <rect width="189" height="284" fill="#F8CA06" rx="94.5" transform="matrix(1 0 0 -1 74 284)"/>
    <ellipse fill="#F8CA06" rx="105.5" ry="105" transform="matrix(1 0 0 -1 395.5 173)"/>
    <ellipse cx="306.226" cy="286.037" fill="#181C19" opacity=".1" rx="18.849" ry="2.038"/>
    <path fill="#fff" d="M335.46 204.262c-18.173 5.161-28.515 22.821-31.466 31.163-.019.053-.027.106-.027.162v.766c0 .259.208.476.466.497 28.433 2.292 32.963-20.105 31.648-32.18-.033-.301-.33-.491-.621-.408zM304.294 243.701v-2.807c0-.104-.032-.204-.092-.289-3.622-5.092-8.153-11.344-16.259-14.586-7.74-3.096-15.186-6.192-20.119-10.12-.33-.262-.825-.042-.824.379.023 6.422 1.981 15.414 9.825 21.513 5.755 4.476 11.929 2.986 26.848 6.397.314.072.621-.165.621-.487zM307.786 192.615c19.174-1.88 21.882-22.786 20.794-33.827-.036-.368-.449-.555-.759-.355-8.709 5.631-13.118 9.139-15.35 12.647-3.596 5.65-2.947 10.115-5.215 18.575-.012.043-.018.087-.018.131v2.337c0 .291.258.52.548.492zM305.919 202.933c-17.552 3.289-24.352-12.272-25.716-21.261-.055-.363.297-.647.644-.529 4.271 1.454 5.414 2.106 10.367 3.345 5.233 1.308 8.409 4.905 10.138 7.848 1.648 2.805 2.828 5.908 4.918 9.874.155.295-.023.662-.351.723z"/>
    <path fill="#181C19" fill-rule="evenodd" d="M306.138 179.546c.381-.065.743.19.809.571.549 3.183 1.318 10.256 1.318 13.2 0 3.499-.911 9.776-1.806 15.679l-.272 1.788c-.356 2.328-.695 4.556-.964 6.496-.338 2.446-.555 4.38-.555 5.468v.521c-.002 5.179-.008 20.408 1.302 30.456 1.146 8.785.611 19.775.213 27.961-.079 1.636-.153 3.16-.208 4.531-.015.387-.34.687-.727.672-.386-.015-.687-.341-.671-.727.055-1.397.13-2.94.21-4.589.397-8.193.922-19.021-.205-27.667-1.323-10.143-1.316-25.451-1.314-30.624v-.534c0-1.201.233-3.232.569-5.66.269-1.95.611-4.191.966-6.521l.271-1.781c.903-5.951 1.791-12.101 1.791-15.469 0-2.835-.756-9.822-1.298-12.962-.065-.381.19-.743.571-.809z" clip-rule="evenodd"/>
    <path fill="#181C19" fill-rule="evenodd" d="M327.238 239.821c.203.132.324.359.319.601-.116 5.442-4.738 17.065-21.777 21.591l-.359-1.353c15.248-4.05 19.958-13.879 20.645-19.12-1.834.817-3.392 1.398-4.758 1.907-.348.13-.684.255-1.008.378-1.847.702-3.328 1.338-4.803 2.415-5.31 3.877-8.246 8.7-9.239 11.413l-1.315-.481c1.087-2.969 4.192-8.02 9.728-12.063 1.634-1.192 3.26-1.882 5.132-2.592.334-.127.676-.255 1.028-.386 1.627-.607 3.469-1.294 5.728-2.357.219-.103.476-.085.679.047zM277.639 243.837c.191-.192.476-.255.731-.164 17.778 6.368 26.066 20.743 28.078 27.228.115.37-.092.762-.461.876-.369.115-.761-.091-.876-.461-1.861-5.997-9.517-19.406-25.87-25.821.446 1.561.691 3.02.927 4.428l.112.665c.347 2.028.744 3.998 1.76 6.205 1.837 3.993 4.259 7.631 8.599 10.717 1.874 1.332 3.62 1.919 5.974 2.585l.977.273c2.188.607 4.871 1.353 8.45 2.784.359.144.533.551.39.91-.144.359-.551.533-.91.39-3.503-1.401-6.117-2.127-8.301-2.734-.338-.094-.667-.185-.987-.276-2.387-.675-4.326-1.314-6.405-2.791-4.594-3.266-7.151-7.128-9.059-11.273-1.095-2.379-1.516-4.497-1.868-6.555l-.113-.668c-.306-1.826-.606-3.609-1.313-5.588-.091-.255-.027-.539.165-.73zM281.153 207.309c.137-.199.367-.314.609-.302 5.793.269 10.797 2.569 14.686 5.31 3.885 2.738 6.693 5.941 8.103 8.085.185.28.141.645-.085.875.107.109.18.254.197.418.04.385-.24.729-.624.769-11.76 1.222-17.46-3.289-18.967-5.539-.707-1.056-1.137-2.008-1.671-3.326-.125-.309-.256-.639-.398-.996-.463-1.165-1.043-2.623-1.915-4.617-.097-.221-.073-.477.065-.677zm22.197 13.815c-1.325-1.999-3.998-5.047-7.709-7.663-3.475-2.449-7.829-4.497-12.812-4.975.637 1.493 1.101 2.659 1.479 3.611.141.353.269.677.391.977.522 1.291.91 2.137 1.536 3.072 1.141 1.702 6.134 5.965 17.115 4.978zM323.076 191.489c.175.158.259.394.223.627-.556 3.612-2.118 9.1-5.015 13.869-2.896 4.765-7.197 8.922-13.257 9.611-.384.043-.731-.233-.774-.617-.044-.384.232-.731.616-.774 5.451-.62 9.434-4.365 12.218-8.947 2.506-4.124 3.981-8.837 4.64-12.27-10.862 3.369-14.819 13.164-15.431 17.754-.051.383-.403.652-.786.601-.384-.051-.653-.403-.602-.786.677-5.076 5.118-15.989 17.522-19.225.228-.06.471 0 .646.157z" clip-rule="evenodd"/>
    <path fill="#fff" fill-rule="evenodd" d="M245.443 86.643c1.631 1.542 2.645 3.282 2.866 4.825.039.277.241.505.512.577.271.072.56-.024.732-.246 3.067-3.925 6.118-6.104 8.913-7.04 2.784-.933 5.358-.65 7.539.425 4.396 2.169 7.278 7.624 6.799 13.124-.033.385.252.724.637.758.385.033.725-.252.758-.637.522-6-2.596-12.045-7.575-14.5-2.507-1.238-5.464-1.55-8.603-.498-2.838.951-5.787 3.004-8.688 6.422-.544-1.488-1.581-2.954-2.929-4.228-1.784-1.686-4.168-3.089-6.846-3.808-2.684-.72-5.675-.755-8.652.315-2.74.983-5.431 2.89-7.845 5.987-4.189-5.982-18.517-10.702-31.594 4.798-.249.296-.212.737.083.986.296.25.738.212.987-.083 13.25-15.704 27.12-9.425 29.842-4.131.112.217.329.36.572.378.244.017.479-.093.621-.292 2.428-3.4 5.131-5.365 7.807-6.326 2.678-.962 5.375-.934 7.816-.28 2.446.657 4.626 1.941 6.248 3.474zM306.222 125.691c.755-1.869 2.306-3.643 4.259-5.06 2.455-1.78 5.642-3.067 8.972-3.295 3.341-.23 6.837.607 9.852 3.087 3.01 2.475 5.479 6.536 6.878 12.642.087.377-.149.752-.526.839-.376.086-.752-.149-.838-.526-1.351-5.894-3.695-9.646-6.403-11.874-2.704-2.223-5.833-2.98-8.867-2.772-3.045.209-5.983 1.392-8.246 3.033-2.28 1.653-3.781 3.7-4.113 5.578-.049.282-.265.505-.545.564-.28.058-.568-.059-.726-.297-2.788-4.182-7.427-5.023-11.509-3.662-4.108 1.369-7.479 4.914-7.71 9.31-.02.386-.35.683-.736.662-.386-.02-.682-.349-.662-.735.269-5.104 4.148-9.059 8.665-10.565 4.158-1.386 9.001-.742 12.255 3.071zM138.154 29.704c-5.295 2.289-9.183 8.081-10.477 12.853-.102.373-.486.594-.859.492-.373-.1-.594-.485-.493-.858 1.373-5.062 5.485-11.27 11.273-13.772 2.921-1.263 6.259-1.575 9.837-.323 3.354 1.173 6.87 3.703 10.443 8.012 1.794-2.808 5.833-4.634 10.001-3.86 4.732.879 9.511 5.04 11.802 14.46.091.376-.139.755-.515.846-.375.091-.754-.14-.845-.515-2.209-9.08-6.68-12.668-10.698-13.415-4.107-.762-7.874 1.374-8.976 4.019-.095.23-.305.39-.551.424-.245.034-.491-.065-.644-.26-3.697-4.681-7.241-7.257-10.479-8.39-3.224-1.128-6.198-.846-8.819.287z" clip-rule="evenodd"/>
    <ellipse cx="18.849" cy="286.037" fill="#181C19" opacity=".1" rx="18.849" ry="2.038"/>
    <ellipse cx="148.849" cy="286.037" fill="#181C19" opacity=".1" rx="18.849" ry="2.038"/>
    <path fill="#fff" d="M149.504 283.496c8.558 0 15.496-6.938 15.496-15.496 0-8.559-6.938-15.497-15.496-15.497s-15.496 6.938-15.496 15.497c0 8.558 6.938 15.496 15.496 15.496z"/>
    <rect width="2.535" height="9.982" x="149.697" y="262.678" fill="#181C19" rx="1.268" transform="rotate(30 149.697 262.678)"/>
    <circle cx="153.375" cy="266.449" r="1.426" fill="#181C19" transform="rotate(30 153.375 266.449)"/>
    <path fill="#fff" d="M34.947 272.01c2.215-8.266-2.69-16.763-10.958-18.978-8.266-2.215-16.763 2.69-18.978 10.957-2.215 8.267 2.69 16.764 10.957 18.979 8.267 2.215 16.764-2.691 18.979-10.958z"/>
    <rect width="2.535" height="9.982" x="14.889" y="266.435" fill="#181C19" rx="1.268" transform="rotate(-45 14.889 266.435)"/>
    <circle cx="19.483" cy="263.858" r="1.426" fill="#181C19" transform="rotate(-45 19.483 263.858)"/>
    <path stroke="#181C19" stroke-linecap="round" stroke-linejoin="round" stroke-miterlimit="10" stroke-width="1.4" d="M140.596 94.856c-3.471 7.741-11.825 8.408-12.573 8.809-1.628-2.243-2.455-4.031-6.272-5.152 0 0-5.072-1.442-5.472-5.445 0 0-.267-2.803-1.068-5.072 0 0 3.79-.854 5.312-3.764 0 0 4.03.294 9.102 2.83 1.468.72 2.856 1.681 3.87 2.883.401.453.668.827.854 1.147.534.881.321 1.255-.293 1.442-.027-.027 3.336 0 6.54 2.322zM129.705 92.213s2.99.775 4.271.347"/>
    <path fill="#fff" stroke="#181C19" stroke-linecap="round" stroke-linejoin="round" stroke-miterlimit="10" stroke-width="1.4" d="M123.352 74.356c17.216-6.913 22.208 11.745 17.216 20.474-5.018-2.403-6.7-2.27-6.7-2.27.828-.24 1.041-1.014-.453-2.722-1.015-1.121-2.403-2.082-3.871-2.883.267.027-2.349-7.127-6.192-12.599z"/>
    <path fill="#181C19" stroke="#181C19" stroke-linecap="round" stroke-linejoin="round" stroke-miterlimit="10" stroke-width="1.4" d="M114.571 68.35c3.096-.373 6.192 2.43 8.701 6.033 3.924 5.365 6.513 12.519 6.22 12.545-4.992-2.455-9.102-2.829-9.102-2.829-5.926-3.55-11.719-14.948-5.819-15.749zM186.613 163.055c-4.03 2.803-21.594 5.739-31.737 5.472-6.46-.16-15.348-1.601-22.502-6.886-4.084-3.043-7.634-7.341-9.796-13.4-6.593-18.311-12.012-23.756-12.012-23.756 28.001-4.138 17.457-20.847 17.457-20.847.748-.401 9.102-1.041 12.572-8.809 11.505 5.899 35.955 23.329 46.018 68.226z"/>
    <path fill="#fff" stroke="#181C19" stroke-linecap="round" stroke-linejoin="round" stroke-miterlimit="10" stroke-width="1.4" d="M237.595 235.819c-3.737 7.741-10.837-4.057-12.359-5.498-2.776-2.616-11.211-7.154-22.315-7.394-12.545-.24-37.956-4.725-46.765-11.665-8.808-6.94-17.617-23.222-19.485-22.421-1.869.8-15.322 11.397-41.214 46.365 0 0-11.45 14.066-11.878 24.503-.027.748 0 1.522.08 2.269.107 1.308-.027 4.591-4.084 4.805-5.071.267-15.001 0-14.68-1.869.533-3.203 3.63-.747 8.007-6.673 4.538-6.139 4.27-38.704 12.279-60.859 8.007-22.155 18.017-38.731 18.017-38.731 8.435 2.67 18.098 3.924 29.175 2.99 7.154 5.312 16.042 6.726 22.502 6.887 10.143.267 27.707-2.67 31.737-5.472.187.827.374 1.681.534 2.535 9.743 47.139 33.873 51.731 44.844 51.25 3.496-.16 6.512 2.376 6.966 5.846.507 4.03.561 9.155-1.361 13.132z"/>
    <path fill="#F8CA06" stroke="#181C19" stroke-linecap="round" stroke-linejoin="round" stroke-miterlimit="10" stroke-width="1.4" d="M132.374 161.641c-11.078.934-20.767-.32-29.175-2.99-3.043-.961-5.9-2.108-8.622-3.39-12.465-5.925-21.647-14.974-28.16-23.649-9.45-12.599-13.267-24.371-13.347-24.584L54.7 96.644s21.807 25.679 55.84 27.841c0 0 5.419 5.445 12.012 23.756 2.189 6.059 5.712 10.357 9.823 13.4z"/>
    <path stroke="#181C19" stroke-linecap="round" stroke-linejoin="round" stroke-miterlimit="10" stroke-width="1.4" d="M56.514 85.14L54.7 96.67l-1.628 10.383-.134.855c-.186 1.254-1.548 1.948-2.669 1.388l-3.71-1.842c-1.041-.507-1.628-1.655-1.442-2.803l1.629-10.357.827-5.311 1.121-7.074c.187-1.254 1.548-1.948 2.67-1.388l3.71 1.842c1.014.48 1.601 1.601 1.441 2.776z"/>
    <path fill="#F8CA06" stroke="#181C19" stroke-linecap="round" stroke-linejoin="round" stroke-miterlimit="10" stroke-width="1.4" d="M47.572 88.957l-.828 5.311c-.026 0-4.324-5.765.828-5.311zM94.577 155.261c-19.192 1.602-36.996-8.995-36.355-15.268.053-.427.053-.854.027-1.228.026-.16.026-.293.026-.454 0-1.548-.854-2.882-2.108-3.576-1.816-1.148-4.271-.748-5.339 1.041-.16.266-.294.56-.374.827-.24.507-.373 1.094-.373 1.708 0 1.015.373 1.949.987 2.67.294.507.534.827.534.827s-5.605-.32-4.004-7.287c1.602-6.967 18.792-2.883 18.792-2.883 6.54 8.622 15.722 17.671 28.187 23.623z"/>
    <path stroke="#181C19" stroke-linecap="round" stroke-linejoin="round" stroke-miterlimit="10" stroke-width="1.4" d="M58.275 138.739c-.08-2.002-.96-3.31-2.082-4.031M51.095 140.954c-.534-.961-1.201-2.642-.64-4.377"/>
    <path stroke="#181C19" stroke-linecap="round" stroke-linejoin="round" stroke-miterlimit="10" stroke-width="5" d="M53.069 142.235l-27.6 110.267M35.934 267.717H124M19.652 283.999c8.992 0 16.282-7.289 16.282-16.282s-7.29-16.282-16.282-16.282c-8.993 0-16.283 7.289-16.283 16.282s7.29 16.282 16.283 16.282zM149.511 283.999c8.992 0 16.282-7.289 16.282-16.282s-7.29-16.282-16.282-16.282c-8.993 0-16.282 7.289-16.282 16.282s7.289 16.282 16.282 16.282z"/>
    <path stroke="#181C19" stroke-linecap="round" stroke-linejoin="round" stroke-miterlimit="10" stroke-width="5" d="M167.999 250.549c-4.512-5.247-11.113-8.549-18.472-8.549-13.536 0-26.028 10-25.528 25.5M58.303 138.285c0 .16 0 .294-.027.454-.214 2.055-1.949 3.63-4.057 3.63-.4 0-.774-.053-1.121-.16-.774-.214-1.468-.668-1.976-1.255-.614-.72-.987-1.655-.987-2.669 0-.614.133-1.175.373-1.708.641-1.415 2.082-2.403 3.737-2.403.721 0 1.388.187 1.976.507 1.228.721 2.082 2.056 2.082 3.604z"/>
    <path stroke="#181C19" stroke-linecap="round" stroke-linejoin="round" stroke-miterlimit="10" stroke-width="1.4" d="M53.069 142.235S36.884 157 35.932 176.482c-.694 14.2 1.682 30.456 2.002 42.468.48 17.537-12.465 33.579-12.465 33.579"/>
</svg>
