<svg xmlns="http://www.w3.org/2000/svg" width="180" height="201" fill="none" viewBox="0 0 180 201">
    <circle cx="90" cy="110.7" r="90" fill="#F8CA06"/>
    <mask id="prefix__a" width="180" height="206" x="0" y="-5" maskUnits="userSpaceOnUse">
        <path fill="#F8CA06" d="M180 110.7c0 49.706-40.294 90-90 90s-90-40.294-90-90c0-27.372 8.22-76.89 27.5-93.396C43.232 3.835 63.666-4.3 86-4.3c24.529 0 46.766 9.813 63 25.727 16.662 16.334 31 64.096 31 89.273z"/>
    </mask>
    <g stroke="#181C19" stroke-linecap="round" stroke-linejoin="round" stroke-miterlimit="10" stroke-width="1.4" mask="url(#prefix__a)">
        <path d="M94.569 95.28c-3.078 10.061-10.542 10.475-11.982 10.279.371-1.593.938-4.474-.502-5.194-1.266-.546-5.412-1.222-6.635-2.62-.589-.676-1.113-1.57-1.353-2.771 0 0-.13-2.488-.85-4.321 0 0 3.076-.786 4.255-3.208 0 0 3.295.13 7.508 2.095.436.196.872.414 1.309.654.764.415 1.462.917 2.008 1.528.153.153.284.306.393.437l.022.021c.85.96.829 1.157.392 1.506 0 .044 1.746-.305 5.435 1.594zM86.871 94.341s1.593.437 2.27-.633"/>
        <path fill="#fff" d="M94.573 95.28c-4.125-.851-5.435-1.55-5.435-1.55.087-.415.066-.916-.393-1.506l-.022-.022c-.109-.13-.24-.283-.392-.436-.546-.567-1.244-1.07-2.008-1.528-.415-.262-.873-.502-1.31-.72.066 0-.152-.677-.61-1.724-.023-.044-.044-.11-.066-.153-.371-.873-.895-1.964-1.506-3.164-.066-.131-.131-.262-.218-.393-.066-.131-.153-.262-.219-.415-.785-1.44-1.724-2.968-2.75-4.343 9.712-6.57 17.853 6.591 14.928 15.954z"/>
        <path fill="#181C19" d="M84.97 89.452c-4.146-1.898-7.507-2.095-7.507-2.095-4.932-2.728-9.952-11.938-5.129-12.745 2.532-.371 5.129 1.855 7.268 4.736 1.07 1.375 2.008 2.902 2.815 4.343.066.13.153.262.218.414.066.131.153.262.219.393.633 1.2 1.156 2.292 1.505 3.165.022.044.044.109.066.153.437.982.633 1.636.546 1.636zM145.62 123.783c-6.242.851-11.785 7.267-14.753 11.37-.939 1.31-1.943 2.554-2.99 3.754-3.274 3.688-7.093 6.853-11.393 9.319-10.541 6.046-27.542 10.934-49.323.786-.611-3.317-2.03-6.373-4.06-8.926 0-4.387 1.157-10.782 1.157-10.782 3.863-1.309 6.286-3.601 7.202-4.452 1.877-1.768 9.45-10.017 11.153-19.271 1.44.197 8.882-.218 11.981-10.28 0 0 9.559 1.965 19.97 5.391 7.071 2.314 14.535 5.304 19.685 8.796 4.824 3.252 8.708 8.468 11.371 14.295z"/>
        <path d="M147.165 152.46c-3.318 5.718-7.181 12.069-12.811 17.372-4.627 4.343-10.454 7.988-18.158 9.93-6.635 1.681-7.683-1.68-2.379-4.648 2.575-1.463 5.369-2.794 8.271-5.74 4.583-4.692 7.988-11.24 8.446-19.031.24-3.885-1.527-9.145-2.662-11.436 1.069-1.201 2.051-2.445 2.99-3.754 2.968-4.103 8.511-10.498 14.753-11.371 4.561 10.018 5.543 21.825 1.55 28.678z"/>
        <path fill="#fff" d="M125.3 95.018c-3.012 1.767-6.591 3.666-10.738 5.652-10.432-3.426-19.969-5.39-19.969-5.39 2.924-9.363-5.216-22.523-14.928-15.954 1.026 1.375 1.964 2.903 2.75 4.343-.808-1.44-1.768-2.968-2.815-4.343-2.14-2.88-4.736-5.107-7.268-4.736-4.823.807.197 10.017 5.129 12.745 0 0 3.383.197 7.507 2.096.022 0 .022-.066 0-.175 0-.044-.021-.109-.043-.174-.022-.088-.044-.175-.087-.262-.022-.066-.044-.11-.066-.175-.022-.044-.044-.087-.044-.153-.021-.087-.065-.153-.087-.24-.022-.043-.022-.065-.044-.109.35.851.524 1.375.459 1.375.436.218.873.458 1.31.72-.415-.24-.874-.458-1.31-.654-4.212-1.965-7.508-2.096-7.508-2.096-1.178 2.423-4.256 3.209-4.256 3.209.72 1.833.852 4.32.852 4.32.24 1.201.763 2.096 1.353 2.773 1.222 1.396 5.368 2.073 6.634 2.618 1.44.721.873 3.601.502 5.195-1.702 9.253-9.253 17.503-11.152 19.271-.917.851-3.34 3.142-7.202 4.452-3.121 1.069-7.202 1.506-12.222.065-10.978-3.164-8.773-16.499-8.773-16.499s-.24-18.856 10.17-30.838c3.6-4.147 8.511-7.486 15.124-8.904 2.728-.59 5.762-.852 9.123-.72 19.73.763 28.153-3.929 29.921-13.64.961-5.282-1.244-10.63-4.954-14.492-17.634-18.311-45.613-5.042-45.613-5.042s-12.877 4.365-19.533-3.295c-6.744-7.813-1.659-16.958 3.645-23.069 8.075-9.297 34.613-17.525 63.662-7.857 29.026 9.69 37.494 28.721 38.454 30.664.153.305.59 1.178 1.157 2.531 8.839 21.04.546 45.33-19.14 56.788zM67.487 152.7c0 6.831-3.36 12.876-8.511 16.543-3.318 2.379-7.399 3.775-11.807 3.775-11.24 0-20.34-9.1-20.34-20.34 0-11.218 9.1-20.34 20.34-20.34 6.46 0 12.221 3.011 15.953 7.704 2.03 2.553 3.448 5.587 4.06 8.926.174 1.222.305 2.466.305 3.732z"/>
        <path d="M68.555 73.084c-6.635 1.44-11.524 4.758-15.125 8.905 0 0-2.684-17.373 6.853-18.027 9.56-.633 13.248 5.783 8.272 9.122z"/>
        <path fill="#fff" d="M129.163 203.005s-65.32 7.203-70.187-1.942c-5.413-10.126 0-31.82 0-31.82 5.15-3.688 8.511-9.734 8.511-16.543 0-1.266-.109-2.488-.327-3.688 21.759 10.17 38.76 5.259 49.323-.786 4.3-2.466 8.119-5.631 11.393-9.319 1.135 2.292 2.881 7.529 2.662 11.436-.458 7.813-3.863 14.361-8.446 19.031-2.902 2.946-5.674 4.299-8.271 5.74-5.304 2.99-4.256 6.351 2.379 4.648 7.704-1.964 13.531-5.587 18.158-9.93 1.309 8.665-5.195 33.173-5.195 33.173z"/>
    </g>
</svg>
