<svg xmlns="http://www.w3.org/2000/svg" width="555" height="907" fill="none" viewBox="0 0 555 907">
    <rect width="213" height="833" fill="#F8CA06" rx="106.5" transform="matrix(1 0 0 -1 73 833)"/>
    <ellipse fill="#F8CA06" rx="119" ry="118.5" transform="matrix(1 0 0 -1 436 773.5)"/>
    <ellipse cx="38.5" cy="904" fill="#181C19" opacity=".1" rx="18.5" ry="2"/>
    <path fill="#F8CA06" d="M67.184 823.41c-17.83 5.069-27.977 22.395-30.873 30.582-.02.053-.028.106-.028.163v.741c0 .259.209.476.467.497 27.89 2.244 32.341-19.722 31.054-31.575-.032-.301-.329-.491-.62-.408zM36.604 862.105v-2.74c0-.104-.032-.205-.092-.289-3.555-4.998-8.001-11.132-15.957-14.314-7.588-3.036-14.889-6.071-19.731-9.92-.33-.263-.825-.042-.824.379.026 6.302 1.952 15.116 9.643 21.096 5.647 4.391 11.705 2.93 26.34 6.275.314.072.621-.164.621-.487zM40.042 811.974c18.801-1.851 21.465-22.346 20.401-33.185-.036-.368-.449-.556-.759-.355-8.54 5.522-12.864 8.963-15.054 12.405-3.529 5.545-2.892 9.927-5.118 18.23-.012.043-.018.087-.018.131v2.282c0 .292.258.521.548.492zM38.187 822.105c-17.21 3.217-23.883-12.033-25.226-20.855-.055-.363.296-.648.644-.529 4.18 1.423 5.305 2.063 10.162 3.277 5.135 1.284 8.253 4.815 9.95 7.704 1.615 2.751 2.773 5.793 4.82 9.68.156.296-.022.662-.35.723z"/>
    <path stroke="#181C19" stroke-linecap="round" stroke-linejoin="round" stroke-width="1.4" d="M38.53 799.826c.535 3.103 1.284 10.003 1.284 12.839 0 6.74-3.53 24.393-3.53 28.887 0 4.493-.056 20.221 1.283 30.492 1.34 10.271.321 23.645 0 31.776"/>
    <path fill="#181C19" d="M58.75 858.884l.7.015c.005-.242-.116-.47-.319-.602s-.46-.149-.68-.046l.299.633zm-11.555 5.17l.413.565-.413-.565zm10.855-5.185c-.1 4.711-4.205 15.594-20.343 19.881l.36 1.353c16.728-4.444 21.269-15.857 21.383-21.204l-1.4-.03zm-19.506 16.946c.973-2.66 3.854-7.392 9.064-11.196l-.826-1.13c-5.436 3.969-8.486 8.929-9.553 11.845l1.315.481zm9.064-11.196c1.446-1.056 2.898-1.68 4.71-2.368 1.81-.687 3.97-1.435 6.73-2.733l-.596-1.267c-2.697 1.269-4.788 1.992-6.63 2.691-1.838.698-3.436 1.375-5.04 2.547l.826 1.13z"/>
    <path stroke="#181C19" stroke-linecap="round" stroke-linejoin="round" stroke-width="1.4" d="M38.063 889.018c-1.926-6.206-9.931-20.12-27.135-26.282 1.605 4.493 1.137 8.016 3.21 12.518 1.837 3.993 4.281 7.674 8.665 10.791 3.88 2.758 7.235 2.406 15.26 5.616M36.283 839.626c-2.675-4.065-10.785-12.325-21.826-12.839 2.247 5.136 2.543 6.713 3.852 8.667 1.308 1.953 6.627 6.314 17.974 5.135M37.888 829.676c.642-4.814 4.879-15.214 16.69-18.295-1.07 6.954-6.034 21.184-17.332 22.468"/>
    <ellipse fill="#181C19" opacity=".1" rx="20.788" ry="2.247" transform="matrix(-1 0 0 1 361.234 903.757)"/>
    <path stroke="#181C19" stroke-linecap="round" stroke-linejoin="round" stroke-width="1.4" d="M357.59 902.633c-33.999-16.855-53.676-47.2-12.087-26.406 11.236 5.618-5.603-5.056-18.814-23.035s6.727-12.848 14.881-4.495c28.019 28.707 3.658 19.103-3.645-17.416-5.843-29.215 8.802-11.424 16.855 1.123 3.183 5.431 9.72 15.096 5.72 15.096-4 0-5.72-49.5 4.667-52.738 6.993-2.18 17.762 44.479 5.906 51.688-6.468 3.933 15.443-27.53 20.5-24.159 3.371 2.248 1.918 23.365-15.17 40.452-7.304 7.304 11.575-25.844 22.199-18.54 2.997 2.06 3.146 12.248-20.226 36.519 15.17-11.612 43.436-16.293-9.376 21.911"/>
    <ellipse cx="266.5" cy="903.349" fill="#181C19" opacity=".1" rx="25.5" ry="3"/>
    <ellipse cx="131.5" cy="903.349" fill="#181C19" opacity=".1" rx="25.5" ry="3"/>
    <path fill="#fff" stroke="#181C19" stroke-linecap="round" stroke-linejoin="round" stroke-miterlimit="10" stroke-width="1.4" d="M210.002 855.048c1.851-7.191 2.35-18.085-5.482-29.192 0 0 9.184-1.353 18.084-2.634 13.03 12.032-12.602 31.826-12.602 31.826z"/>
    <path stroke="#181C19" stroke-linecap="round" stroke-linejoin="round" stroke-miterlimit="10" stroke-width="5" d="M246.599 842.232h-83.66M249.091 847.857s-6.337-11.25-5.838-27.626M246.599 842.232l-50.552 41.438M162.939 842.232l-8.544 6.978M188.5 880.395l-31.328-46.778"/>
    <path fill="#fff" stroke="#181C19" stroke-linecap="round" stroke-linejoin="round" stroke-miterlimit="10" stroke-width="5" d="M133.961 900.972c16.515 0 29.904-13.388 29.904-29.904 0-16.515-13.389-29.904-29.904-29.904-16.516 0-29.904 13.389-29.904 29.904 0 16.516 13.388 29.904 29.904 29.904z"/>
    <rect width="4.945" height="19.469" x="129.611" y="880.629" fill="#181C19" rx="2.472" transform="rotate(-120 129.611 880.629)"/>
    <circle cx="127.076" cy="870.674" r="2.781" fill="#181C19" transform="rotate(-120 127.076 870.674)"/>
    <path fill="#fff" stroke="#181C19" stroke-linecap="round" stroke-linejoin="round" stroke-miterlimit="10" stroke-width="5" d="M267.888 900.972c16.516 0 29.904-13.388 29.904-29.904 0-16.515-13.388-29.904-29.904-29.904-16.515 0-29.904 13.389-29.904 29.904 0 16.516 13.389 29.904 29.904 29.904z"/>
    <rect width="4.892" height="19.263" x="268.261" y="860.8" fill="#181C19" rx="2.446" transform="rotate(30 268.261 860.8)"/>
    <circle cx="275.359" cy="868.076" r="2.752" fill="#181C19" transform="rotate(30 275.359 868.076)"/>
    <path fill="#fff" stroke="#181C19" stroke-linecap="round" stroke-linejoin="round" stroke-miterlimit="10" stroke-width="1.4" d="M210.002 855.048c-1.353 5.269-3.347 8.544-3.347 8.544s-5.696 10.68-9.256 16.376c-3.56 5.696-1.424 8.544-1.424 8.544s.712 1.424 3.56 4.984c1.78 2.207 1.068 3.062.285 3.346-.498.143-.997.214-1.424.072-1.78-.356-7.761-1.567-10.181-2.777-2.848-1.424-2.136-12.104-2.136-12.104V865.23c0-3.988-.641-7.904-2.065-11.606-4.059-10.466-11.25-13.101-13.599-14.311-5.696-2.848-19.936-2.848-27.056-8.544-7.12-5.696-12.816-13.528-12.104-32.04 6.55 3.916 20.292 15.664 42.008 4.272 0 0 6.408 22.784 31.328 22.784 7.76 11.178 7.262 22.072 5.411 29.263z"/>
    <path fill="#F8CA06" stroke="#181C19" stroke-linecap="round" stroke-linejoin="round" stroke-miterlimit="10" stroke-width="1.4" d="M256.78 818.167c-1.139.356-2.278.569-3.489.64-5.98.641-5.197.712-14.596 2.065-1.78.285-8.828 1.282-16.091 2.35-8.9 1.281-18.085 2.634-18.085 2.634-24.92 0-31.328-22.784-31.328-22.784 21.36-13.457 35.814-10.751 39.303-9.327 6.194 12.175 17.657 14.667 23.353 15.023 5.554.356 13.244.926 17.017 1.282 1.994.142 3.987.712 5.767 1.78 4.984 2.848 1.068 5.482-1.851 6.337z"/>
    <path fill="#181C19" stroke="#181C19" stroke-linecap="round" stroke-linejoin="round" stroke-miterlimit="10" stroke-width="1.4" d="M208.792 781c.64 5.126 1.993 9.327 3.702 12.745-3.489-1.424-17.942-4.059-39.302 9.327-21.716 11.392-35.458-.356-42.008-4.272.712-18.512 20.648-39.872 49.84-38.448 12.104.57 19.081.427 23.211 0 3.417 7.262 8.045 8.259 8.757 8.544-6.052 5.34-4.2 12.104-4.2 12.104z"/>
    <path stroke="#181C19" stroke-linecap="round" stroke-linejoin="round" stroke-miterlimit="10" stroke-width="1.4" d="M227.304 753.944c-.712 2.136-.712 4.984-.712 4.984-.712 4.984-5.696 5.696-5.696 5.696-3.56 1.139-6.052 2.634-7.903 4.272-.712-.356-5.34-1.353-8.758-8.544 5.768-.57 5.625-1.638 5.625-1.638-.783-.213-.997-.925.356-2.563.926-1.139 2.207-2.065 3.56-2.777 4.699-2.492 8.473-2.848 8.473-2.848 1.495 2.706 5.055 3.418 5.055 3.418zM209.788 758.643c1.21.356 3.987-.427 3.987-.427"/>
    <path fill="#fff" stroke="#181C19" stroke-linecap="round" stroke-linejoin="round" stroke-miterlimit="10" stroke-width="1.4" d="M213.776 753.303c-1.353.783-2.634 1.709-3.56 2.777-1.353 1.638-1.139 2.35-.356 2.563 0 0 .142 1.068-5.625 1.638-3.417-7.263-1.21-27.27 15.094-18.939-3.488 5.197-5.767 11.961-5.553 11.961z"/>
    <path fill="#181C19" stroke="#181C19" stroke-linecap="round" stroke-linejoin="round" stroke-miterlimit="10" stroke-width="1.4" d="M222.32 750.384s-3.845.427-8.473 2.848c-.285 0 1.994-6.764 5.554-11.89 2.278-3.418 5.126-6.124 8.045-5.839 5.554.641.356 11.463-5.126 14.881z"/>
    <path stroke="#fff" stroke-linecap="round" stroke-linejoin="round" stroke-width="1.4" d="M216 698c-1.001-11.5 12-23 24.5-7 1-7 16-16 25.999-2 3-5.833 17.501-12 31 4M359 754.5c-.5-9.5-14.5-15-20.5-6-1.5-8.5-23.5-18-29 6M92 729.5c2.667-9.833 16-24 31-5 2.5-6 16.5-9 21 9.5"/>
</svg>
