<svg xmlns="http://www.w3.org/2000/svg" width="30" height="30" fill="none" viewBox="0 0 30 30">
    <path fill="#fff" d="M23 19h-1.5v-1.5c0-.6-.4-1-1-1s-1 .4-1 1V19H18c-.6 0-1 .4-1 1s.4 1 1 1h1.5v1.5c0 .6.4 1 1 1s1-.4 1-1V21H23c.6 0 1-.4 1-1s-.4-1-1-1z"/>
    <path fill="#fff" fill-rule="evenodd" d="M16 22.5c0 .5-.5 1-1 1H8.5c-1.1 0-2.2-.9-2.2-2.2v-.6c0-1.9.9-3.5 2.2-4.6.4-.3 1-.3 1.4.1.4.4.3 1-.1 1.4-.9.7-1.4 1.8-1.4 3v.459c0 .09.036.177.1.241s.15.1.241.1h5.863c.263 0 .535.01.768.132.35.184.628.52.628.968zM14.9 8.5c-1.7 0-3 1.3-3 3s1.3 3 3 3 3-1.3 3-3c0-1.6-1.3-3-3-3zm-5 3.1c0-2.8 2.2-5 5-5s5 2.2 5 5-2.2 5-5 5-5-2.3-5-5z" clip-rule="evenodd"/>
</svg>
