<svg xmlns="http://www.w3.org/2000/svg" width="30" height="30" fill="none" viewBox="0 0 30 30">
    <path fill="#181C19" d="M19 8.32h.7c.166 0 .3-.133.3-.3V5.403c0-.15-.11-.276-.26-.29-.474-.048-1.379-.112-2.4-.112-5.015 0-4.235 5.77-4.312 7.266-.008.139-.126.234-.264.234H10.3c-.166 0-.3.134-.3.3v2.9c0 .166.134.3.3.3h2.4c.166 0 .3.134.3.3v8.4c0 .166.134.3.3.3h3.4c.166 0 .3-.134.3-.3v-8.4c0-.166.134-.3.3-.3h1.94c.15 0 .276-.11.297-.258l.414-2.9c.026-.18-.114-.342-.297-.342h-2.333c-.174 0-.311-.147-.303-.32.099-2.197-.254-3.86 1.982-3.86z"/>
</svg>
