<svg xmlns="http://www.w3.org/2000/svg" width="30" height="30" fill="none" viewBox="0 0 30 30">
    <path fill="#181C19" d="M14.978 10.3c.801 0 1.57.216 2.227.625l.75.513c.262.179.613.147.838-.076l2.188-2.167c.14-.138.21-.332.193-.528-.018-.197-.122-.375-.285-.486l-1.271-.872c-.026-.018-.053-.034-.081-.047l-1.232-.609-.05-.022C17.195 6.212 16.077 6 14.933 6c-2.357 0-4.58.905-6.261 2.548C6.965 10.216 6.017 12.484 6 14.935c-.016 2.451.902 4.733 2.586 6.424C10.258 23.037 12.63 24 15.091 24c2.437 0 4.724-.946 6.273-2.596 1.227-1.306 1.98-3.052 2.179-5.047l.003-.057.023-1.792c0-.037-.002-.074-.008-.111l-.096-.613c-.05-.321-.328-.558-.653-.558h-7.636c-.365 0-.66.296-.66.66v2.642c0 .365.295.66.66.66h3.893c-.179.392-.46.804-.815 1.189-.776.838-1.932 1.32-3.173 1.32-1.267 0-2.48-.497-3.33-1.363-1.766-1.802-1.746-4.94.044-6.717.842-.837 2.003-1.316 3.183-1.316z"/>
</svg>
