<svg xmlns="http://www.w3.org/2000/svg" width="30" height="30" fill="none" viewBox="0 0 30 30">
    <path fill="#181C19" d="M12.461 23c-.864 0-1.755-.064-2.65-.193-1.578-.227-3.174-.983-3.626-1.21L5 21.005l1.283-.386c1.402-.423 2.255-.685 3.312-1.096-1.058-.469-1.873-1.313-2.265-2.404l-.299-.83.245.034c-.232-.215-.415-.432-.557-.63-.505-.703-.773-1.563-.716-2.299l.056-.725.474.168c-.2-.345-.345-.714-.43-1.101-.206-.944-.033-1.946.488-2.823l.412-.694.552.608c1.745 1.92 3.954 3.06 6.577 3.393-.107-.677-.027-1.33.239-1.915.309-.682.859-1.26 1.59-1.672.812-.457 1.797-.679 2.773-.624 1.036.059 1.976.414 2.723 1.03.364-.088.633-.18.996-.306.219-.075.467-.16.777-.258l1.142-.361-.745 1.95.153-.01 1.22-.05-.721.903-.067.087c-.058.08-.13.18-1.12 1.391-.248.304-.371.699-.348 1.113.087 1.574-.123 2.998-.627 4.232-.477 1.168-1.215 2.17-2.194 2.978-1.212 1-2.757 1.685-4.593 2.035-.9.172-1.868.258-2.869.258z"/>
</svg>
