<?xml version="1.0" encoding="utf-8"?>
<!-- Generator: Adobe Illustrator 23.0.3, SVG Export Plug-In . SVG Version: 6.00 Build 0)  -->
<svg version="1.1" id="Слой_1" xmlns="http://www.w3.org/2000/svg" xmlns:xlink="http://www.w3.org/1999/xlink" x="0px" y="0px"
	 viewBox="0 0 208 186" style="enable-background:new 0 0 208 186;" xml:space="preserve">
<style type="text/css">
	.st0{fill:#F8CA06;}
	.st1{fill:#FFFFFF;}
	.st2{fill:#181C19;}
</style>
<g>
	<path class="st0" d="M207.7,90c0,48.1-37.7,87.4-85.2,89.9c-0.2,0-0.5,0-0.7,0c-0.2,0-0.5,0-0.7,0c-1.1,0-2.2,0.1-3.3,0.1
		c-23.3,0-44.5-8.8-60.5-23.4c-0.2-0.2-0.4-0.4-0.6-0.6c-0.2-0.2-0.4-0.3-0.6-0.5C38.5,139.1,27.7,115.8,27.7,90
		c0-49.7,40.3-90,90-90C167.4,0,207.7,40.3,207.7,90z"/>
</g>
<g>
	<path class="st1" d="M146.7,47.2l4.4-0.5c0.3,0,0.6-0.2,0.7-0.5c0.6-1.7,2.8-7.5,2.8-8.9c0-1.7-3.2-2.2-3.5-3.7
		c-0.4-1.5-2.6-7.7-3-7.6c-0.4,0.1-15.3,5.3-15.8,6.4c-0.5,1.1,3.1,4.6,3.2,5.6c0.1,1-1.3,9.5-0.1,10.1
		C136.7,48.7,146.7,47.2,146.7,47.2z"/>
	<path class="st2" d="M137,48.9c-0.8,0-1.5-0.1-1.8-0.2c-1.1-0.6-1-3-0.4-8.6c0.1-0.9,0.2-1.9,0.2-2.1c-0.1-0.2-0.7-1.1-1.2-1.8
		c-1.5-2-2.4-3.2-1.9-4.1c0.7-1.5,16.1-6.8,16.3-6.8c0.2,0,0.4,0,0.5,0.1c1,0.6,3.2,7.9,3.3,8c0.1,0.4,0.8,0.8,1.4,1.2
		c1,0.6,2.2,1.3,2.2,2.7c0,1.1-0.9,4-2.8,9.1c-0.2,0.6-0.7,0.9-1.3,1l-4.4,0.5C144.5,48.3,139.7,48.9,137,48.9z M135.9,47.5
		c0.9,0.2,6.2-0.3,10.7-1c0,0,0,0,0,0l4.4-0.5c0.1,0,0.1,0,0.2-0.1c2.3-6,2.7-8,2.7-8.7c0-0.5-0.6-0.9-1.5-1.5c-0.9-0.5-1.8-1.1-2-2
		c-0.3-1.3-1.9-5.7-2.5-6.9c-2.5,0.8-13.6,4.9-14.9,5.9c0.1,0.4,1.2,1.9,1.8,2.7c0.9,1.2,1.4,1.9,1.5,2.5c0,0.3,0,1-0.2,2.4
		C136,42,135.5,46.6,135.9,47.5z M135.9,47.6L135.9,47.6L135.9,47.6z"/>
</g>
<g>
	<path class="st1" d="M7.3,71.8C5.4,72,4,71.9,4,71.9c-3.6-7.3-3-16.4-3-16.4c1.1-0.3,2-0.4,2.9-0.6C4,54.9,4.5,65.6,7.3,71.8z"/>
	<path class="st2" d="M4.5,72.6c-0.3,0-0.5,0-0.5,0c-0.3,0-0.5-0.2-0.6-0.4c-3.6-7.4-3.1-16.4-3.1-16.8c0-0.3,0.2-0.6,0.5-0.6
		c1-0.2,2-0.4,3-0.6c0,0,0.1,0,0.1,0c0.7,0,0.7,0.6,0.7,0.9c0.2,3.3,1,11.4,3.2,16.4C8,71.7,8,72,7.9,72.2c-0.1,0.2-0.3,0.3-0.5,0.3
		C6.1,72.6,5.1,72.6,4.5,72.6z M4.5,71.2c0.4,0,1,0,1.8,0c-1.9-4.9-2.7-12-2.9-15.4c-0.5,0.1-1.1,0.2-1.6,0.3
		C1.7,58,1.7,65.2,4.5,71.2z"/>
</g>
<g>
	<path class="st2" d="M33.8,52.5h-2.7V51c0-0.6,0.5-1.1,1.1-1.1h0.4c0.6,0,1.1,0.5,1.1,1.1v0.6C33.8,52,33.8,52.2,33.8,52.5z"/>
	<path class="st2" d="M33.8,53.2h-2.7c-0.4,0-0.7-0.3-0.7-0.7V51c0-1,0.8-1.8,1.8-1.8h0.4c1,0,1.8,0.8,1.8,1.8v0.7
		c0,0.2,0,0.4,0.1,0.6c0.1,0.2,0,0.4-0.1,0.6S34.1,53.2,33.8,53.2z M31.8,51.8H33c0,0,0,0,0,0l0-0.7c0-0.2-0.2-0.4-0.4-0.4h-0.4
		c-0.2,0-0.4,0.2-0.4,0.4V51.8z"/>
</g>
<g>
	<path class="st1" d="M35.9,60.3c-0.2,1-0.4,2.8-0.8,6.2c-0.2,2-1.6,0.5-2.8-1.1c-1.2-1.6-3.1-2.6-5.1-2.6c-2.8,0-6.5,0.7-8.1,3.9
		c-1.2,2.5-4.4,3.8-7.6,4.4C8.8,65,8.3,54.8,8.3,54.8c4.9,0.5,5.8,3.6,9.3,4.3c3.9,0.8,6.7-2.1,7.6-3.2c0.2-0.2,0.1-0.5-0.1-0.7
		c-1.3-0.8-5.5-3.3-6.2-3.8c-0.9-0.6-1.1-2.8,0.9-1.7c2,1.1,5.2,2.4,6.6,1.4c1.3-1,5,1.3,5,1.3h2.7c0.1,0.3,0.2,0.6,0.3,0.8
		C36.4,57.3,36.1,59.3,35.9,60.3z"/>
	<path class="st2" d="M11.6,71.9c-0.3,0-0.5-0.2-0.6-0.4c-2.8-6.2-3.3-16.3-3.4-16.7c0-0.2,0.1-0.4,0.2-0.5c0.1-0.1,0.3-0.2,0.6-0.2
		c2.9,0.3,4.5,1.5,6,2.5c1.1,0.8,2,1.5,3.4,1.8c3.3,0.7,5.8-1.7,6.7-2.8c-0.4-0.2-1-0.6-1.7-1c-1.8-1.1-3.8-2.3-4.3-2.6
		c-0.9-0.5-1.2-1.9-0.8-2.6c0.2-0.3,0.8-1.1,2.4-0.2c2.6,1.4,5,2,5.8,1.4c1.5-1.1,4.6,0.6,5.6,1.2h2.5c0.3,0,0.6,0.2,0.7,0.5
		c0.1,0.2,0.1,0.4,0.2,0.6c1.7,3.1,2.2,5.5,1.8,7.5c0,0,0,0,0,0c-0.2,0.8-0.4,2.4-0.7,5.3l-0.1,0.9c-0.1,0.9-0.4,1.4-1,1.6
		c-0.8,0.2-1.7-0.5-3.1-2.3c-1.1-1.5-2.7-2.3-4.5-2.3c-2.6,0-6,0.7-7.5,3.6c-1.1,2.3-3.9,4-8.1,4.8C11.7,71.9,11.6,71.9,11.6,71.9z
		 M9,55.6c0.2,2.5,0.9,9.8,3,14.8c2.5-0.6,5.4-1.7,6.5-3.9c1.7-3.5,5.7-4.3,8.7-4.3c2.2,0,4.3,1.1,5.6,2.9c0.8,1.1,1.3,1.5,1.5,1.7
		c0-0.1,0-0.2,0-0.3l0.1-0.9c0.3-2.9,0.5-4.5,0.7-5.5c0.4-1.6-0.2-3.8-1.6-6.5c-0.1-0.1-0.2-0.3-0.2-0.5h-2.2c-0.1,0-0.3,0-0.4-0.1
		c-1.6-1-3.6-1.8-4.2-1.4c-1.9,1.4-6.1-0.7-7.3-1.3c-0.3-0.1-0.4-0.2-0.5-0.2c0,0.2,0.1,0.5,0.3,0.7c0.5,0.3,2.6,1.6,4.3,2.6
		c0.8,0.5,1.5,0.9,2,1.2c0.3,0.2,0.5,0.5,0.5,0.8c0,0.3,0,0.6-0.2,0.9c-0.8,1-3.9,4.3-8.2,3.5c-1.7-0.3-2.9-1.2-4-2
		C12.3,56.9,11.1,56,9,55.6z M35.9,60.3L35.9,60.3L35.9,60.3z"/>
</g>
<g>
	<path class="st2" d="M30,56.1c-0.2,0-0.4-0.1-0.6-0.3c-0.2-0.3-0.2-0.7,0.1-1c0.9-0.7,0.8-2.3,0.8-2.3c0-0.4,0.3-0.7,0.6-0.7
		c0.4,0,0.7,0.3,0.7,0.6c0,0.1,0.2,2.4-1.4,3.5C30.3,56.1,30.2,56.1,30,56.1z"/>
</g>
<g>
	<path class="st0" d="M11.5,71.2c-1.5,0.3-3,0.5-4.3,0.6C4.5,65.6,4,54.9,4,54.9c1.7-0.2,3.1-0.3,4.3-0.2C8.2,54.8,8.7,65,11.5,71.2
		z"/>
	<path class="st2" d="M7.3,72.5c-0.3,0-0.5-0.2-0.6-0.4C3.8,65.9,3.3,55.4,3.3,55c0-0.4,0.2-0.7,0.6-0.7C5.6,54,7.1,54,8.3,54.1
		c0.3,0,0.6,0.3,0.6,0.7c0,0.4,0.6,10.3,3.2,16.2c0.1,0.2,0.1,0.4,0,0.6c-0.1,0.2-0.3,0.3-0.5,0.4C10.4,72.2,9,72.4,7.3,72.5
		C7.3,72.5,7.3,72.5,7.3,72.5z M4.7,55.6c0.2,2.3,0.8,10.4,3,15.5c1-0.1,2-0.2,2.8-0.4c-2.2-5.4-2.8-12.9-3-15.3
		C6.7,55.4,5.8,55.4,4.7,55.6z"/>
</g>
<g>
	<path class="st2" d="M103.1,65.4c0,0-0.1,0-0.1,0l-0.2,0c-3.8-0.7-10.8-2.6-15.4-7.6c-0.1-0.2-0.2-0.4-0.2-0.6
		c0-0.2,0.2-0.4,0.3-0.5c2.4-1.4,3.5-2.5,4-3.1c-0.4-0.4-0.5-0.9-0.4-1.6c0,0,0-0.1,0-0.1c0.1-0.4,0.3-0.8,0.5-1.3
		c0.6-1.3,1.5-2.5,2.7-3.6c3.7-3.5,7.1-4.7,7.3-4.8c0.3-0.1,0.6,0,0.7,0.2c1.7,1.8,4.3,1.4,4.4,1.4c0.2,0,0.4,0,0.6,0.2
		s0.2,0.3,0.2,0.6c-0.1,2,0.4,4.1,0.4,4.1c0.3,1.6-0.2,3-1.4,4.5c0,0,0,0,0,0c-2.3,2.7-3.5,6.1-3.1,9.5c0.1,0.5,0.2,1,0.3,1.4
		c0.1,0.2,0.1,0.5,0.2,0.7c0,0.2,0,0.5-0.2,0.6C103.4,65.3,103.2,65.4,103.1,65.4z M88.9,57.4c4,3.9,9.6,5.7,13.2,6.4
		c-0.1-0.3-0.2-0.7-0.2-1.1c-0.4-3.7,0.9-7.6,3.5-10.6c0.9-1.1,1.3-2.2,1.1-3.3c0,0-0.5-1.8-0.5-3.7c-1,0-2.9-0.2-4.4-1.6
		c-1,0.4-3.6,1.7-6.4,4.3c-1.1,1-1.9,2.1-2.4,3.2c-0.2,0.4-0.3,0.7-0.4,1c0,0,0,0,0,0c0,0.2,0,0.3,0,0.3c0,0,0,0,0.1,0
		c0.4,0,0.7,0.3,0.7,0.7c0,0.1,0,0.2,0,0.3C93,53.8,92.2,55.4,88.9,57.4z M105.9,52.5L105.9,52.5L105.9,52.5z"/>
</g>
<g>
	<path class="st2" d="M87.8,57.9c-0.2,0-0.4-0.1-0.5-0.2c0,0-0.1-0.1-0.1-0.1L87,57.4c-0.1-0.1-0.1-0.2-0.2-0.2
		c-0.2-0.3-0.2-0.6,0-0.9c1.4-1.8,3.1-2.9,4.2-3.4c-0.1-0.5,0-0.9,0-1.1c0.1-0.4,0.5-0.6,0.8-0.5c0.4,0.1,0.6,0.4,0.5,0.8
		c0,0.2,0,0.3,0,0.3c0.1,0,0.2,0,0.2,0.1c0.1,0,0.3,0.1,0.4,0.2c0.1,0.2,0.2,0.4,0.1,0.6c-0.2,0.5-1,2.2-5,4.5
		C88,57.9,87.9,57.9,87.8,57.9z"/>
</g>
<g>
	<path class="st2" d="M92.4,53.8C92.4,53.8,92.4,53.8,92.4,53.8c-0.4,0-0.7-0.3-0.7-0.7c0-0.4,0.3-0.7,0.7-0.7
		c0.7,0,2.3-0.7,3.2-1.3c0.3-0.2,0.8-0.1,1,0.2c0.2,0.3,0.1,0.8-0.2,1C96,52.5,93.8,53.8,92.4,53.8z"/>
</g>
<g>
	<path class="st1" d="M96.9,35.1c-0.6,1.9-1.1,3.9-1.5,5.7c0,0.1,0,0.2,0,0.2c-0.3,1.8-0.5,3.4-0.6,4.5c-0.1,1.1-0.1,1.8,0,1.8
		c-1,1-2,2.2-2.6,3.4c-0.2,0.5-0.4,0.9-0.4,1.3v0c-0.1,0.5,0,0.8,0.2,1c0.1,0.1,0.3,0.2,0.5,0.2c0,0,0,0,0,0
		c-0.1,0.2-0.7,1.8-4.7,4.1c0,0,0,0,0,0C81.4,50.9,80.6,33.5,96.9,35.1z"/>
	<path class="st2" d="M87.8,57.9c-0.2,0-0.4-0.1-0.5-0.2c-3.8-3.7-6-11.5-3.3-17.3c2.1-4.5,6.7-6.6,12.9-6c0.2,0,0.4,0.1,0.5,0.3
		c0.1,0.2,0.1,0.4,0.1,0.6c-0.6,1.6-1,3.5-1.4,5.6c0,0.1,0,0.2-0.1,0.3c-0.4,2.1-0.5,3.6-0.6,4.4c-0.1,1-0.1,1.4-0.1,1.5
		c0.1,0.2,0,0.5-0.2,0.7c-1.1,1.1-1.9,2.2-2.4,3.2c-0.2,0.4-0.3,0.7-0.4,1c0,0,0,0,0,0c0,0.2,0,0.2,0,0.3c0,0,0,0,0.1,0
		c0.4,0,0.7,0.3,0.7,0.7c0,0.1,0,0.2,0,0.3c-0.2,0.5-1.1,2.2-5,4.4C88,57.9,87.9,57.9,87.8,57.9z M94.9,35.7c-4.7,0-8,1.8-9.6,5.3
		c-2.3,5-0.5,11.9,2.6,15.3c2.1-1.3,3.1-2.3,3.5-2.8c-0.2-0.2-0.6-0.6-0.4-1.6c0,0,0-0.1,0-0.1c0.1-0.4,0.2-0.9,0.5-1.4
		c0.5-1.1,1.3-2.2,2.5-3.4c0-0.3,0-0.8,0.1-1.6c0.1-1.3,0.3-3,0.6-4.6c0-0.2,0-0.2,0.1-0.3c0.3-1.7,0.7-3.4,1.2-4.9
		C95.6,35.7,95.2,35.7,94.9,35.7z"/>
</g>
<g>
	<path class="st2" d="M101.8,42.6c0,0-3.4,1.3-7,4.7c-0.3,0.1,0.2-6.7,2.1-12.2c1.2-3.7,3.2-6.8,5.9-7.3
		C108,27,105.9,38.1,101.8,42.6z"/>
	<path class="st2" d="M94.8,47.9c-0.2,0-0.4-0.1-0.5-0.2c-0.7-0.8,0.4-8.3,2-12.9c1.6-4.6,3.8-7.3,6.4-7.7c1.5-0.2,2.6,0.4,3.3,1.6
		c1.7,3.2-0.3,10.7-3.7,14.4c-0.1,0.1-0.2,0.1-0.3,0.2c0,0-3.3,1.3-6.8,4.5c-0.1,0.1-0.2,0.1-0.3,0.2C94.9,47.9,94.8,47.9,94.8,47.9
		z M103.3,28.4c-0.1,0-0.3,0-0.4,0c-2.1,0.3-4,2.8-5.3,6.8c-1.4,3.9-2,8.3-2.1,10.4c2.8-2.3,5.3-3.5,5.9-3.7
		c2.9-3.2,4.7-10,3.4-12.6C104.4,28.7,104,28.4,103.3,28.4z M101.8,42.6L101.8,42.6L101.8,42.6z"/>
</g>
<g>
	<path class="st2" d="M128.4,115.8c-9.2,5.5-11.1,10.5-11.6,14.5c-30.5,22.6-57.2-0.8-57.2-0.8c-0.8-6-3.7-13.5-13.3-18.2
		c-5.8-15.2-2.1-28.1-2-28.3c3-1.3,5.8-4,7.7-6c4.7-5.2,10.3-10.2,20.8-13.7c6.7-2.2,14.8-5.9,15-6c5.5,6,14.5,7.3,15.3,7.5
		c5.7,12.4,18,14.3,26,11.3C129,76,138.4,95.9,128.4,115.8z"/>
	<path class="st2" d="M89.1,140.8c-17.4,0-29.8-10.6-30-10.8c-0.1-0.1-0.2-0.3-0.2-0.4c-1-8-5.3-13.9-12.9-17.7
		c-0.2-0.1-0.3-0.2-0.3-0.4c-5.7-14.8-2.4-27.4-2-28.8c0.1-0.2,0.2-0.4,0.4-0.5c3.1-1.4,6-4.3,7.4-5.9c4.5-5.1,10.2-10.2,21.1-13.9
		c6.7-2.2,14.8-6,14.9-6c0.3-0.1,0.6-0.1,0.8,0.2c4.3,4.7,11,6.5,14.6,7.2l0.2,0c0.2,0,0.4,0.2,0.5,0.4
		c5.9,12.7,18.2,13.5,25.1,10.9c0.3-0.1,0.7,0,0.9,0.4c0.1,0.2,9.5,20.5-0.6,40.5c-0.1,0.1-0.2,0.2-0.3,0.3
		c-9.2,5.4-10.8,10.3-11.3,14c0,0.2-0.1,0.4-0.3,0.5C107.2,138.3,97.5,140.8,89.1,140.8z M60.2,129.2c2.5,2,27.7,21.5,55.9,0.8
		c0.5-3.9,2.5-9.1,11.8-14.6c8.7-17.5,2.1-35.1,0.7-38.5c-7.4,2.5-19.9,1.3-26.1-11.6c-3.7-0.7-10.4-2.5-14.9-7.2
		c-1.8,0.8-8.7,3.9-14.6,5.9c-10.6,3.5-16.1,8.6-20.5,13.5c-1.8,2-4.5,4.6-7.6,6.1c-0.6,2.4-3.1,13.9,2,27.3
		C54.6,114.7,59.1,120.9,60.2,129.2z M128.4,115.8L128.4,115.8L128.4,115.8z"/>
</g>
<g>
	<path class="st0" d="M133.4,113.2c-1.8,0.9-3.5,1.8-5,2.6C138.4,95.9,129,76,129,76c2.1-0.8,3.9-1.9,5.2-3.3
		c6.1-6.5,5.9-12.5,5.8-15.4c-0.1-2.9-2.5-9.4,0.6-18.2c3.1-8.8,7.1-8.3,6.2,1.7c-0.9,10,2.1,20.9,2.1,20.9
		C153.9,74.4,151,104.8,133.4,113.2z"/>
	<path class="st2" d="M128.4,116.5c-0.2,0-0.3-0.1-0.5-0.2c-0.2-0.2-0.3-0.5-0.1-0.8c9.7-19.4,0.7-39,0.6-39.2
		c-0.1-0.2-0.1-0.4,0-0.6s0.2-0.3,0.4-0.4c2.1-0.8,3.8-1.9,5-3.2c5.9-6.4,5.7-12.1,5.6-14.9c0-0.6-0.2-1.5-0.3-2.5
		c-0.6-3.6-1.5-9,0.9-16c1.6-4.6,3.6-7,5.4-6.7c1.9,0.4,2.7,3.5,2.2,8.7c-0.8,9.8,2.1,20.6,2.1,20.7c2.6,6.7,3,17.8,0.7,27.7
		c-2.7,12.1-8.6,20.8-16.7,24.6c-1.9,0.9-3.5,1.8-4.9,2.6C128.6,116.5,128.5,116.5,128.4,116.5z M129.9,76.4
		c1.5,3.6,7.6,20.5,0.1,37.8c1-0.5,2-1,3.1-1.6c0,0,0,0,0,0c17.1-8.2,20.1-38.1,15.2-50.6c-0.1-0.2-3-11.3-2.2-21.3
		c0.5-5.6-0.6-7.1-1.1-7.2c-0.6-0.1-2.2,1.3-3.8,5.7c-2.3,6.6-1.5,11.9-0.9,15.3c0.2,1,0.3,1.9,0.3,2.7c0.1,3,0.3,9.1-5.9,15.9
		C133.5,74.4,131.9,75.5,129.9,76.4z"/>
</g>
<g>
	<path class="st1" d="M116.5,134.4c0.1-1.2,0.1-2.5,0.2-4c-30.5,22.6-57.2-0.8-57.2-0.8c0.4,3.2,0.2,6,0,7.8c-0.2,2.2-1.5,10-3,18.7
		c0.2,0.2,0.4,0.4,0.6,0.6c16,14.5,37.2,23.4,60.5,23.4c1.1,0,2.2,0,3.3-0.1c0.2,0,0.5,0,0.7,0C119.9,169.2,115.9,144.3,116.5,134.4
		z"/>
	<path class="st2" d="M117.2,134.4c0-0.4,0-0.7,0-1.1c0-0.9,0.1-1.8,0.2-2.8c0-0.3-0.1-0.5-0.3-0.7c-0.2-0.1-0.5-0.1-0.8,0
		c-29.7,22-56.1-0.6-56.3-0.8c-0.2-0.2-0.5-0.2-0.8-0.1c-0.3,0.1-0.4,0.4-0.4,0.7c0.3,2.4,0.3,4.9,0,7.6c-0.3,2.9-1.5,10.2-2.9,18.2
		c0.2,0.2,0.4,0.4,0.6,0.5c0.2,0.2,0.4,0.4,0.6,0.6c1.7-9.4,2.9-17.8,3.1-19.2c0.2-2.2,0.3-4.3,0.2-6.3c5.7,4.2,29.2,19.2,55.5,0.7
		c0,0.5,0,1-0.1,1.4c0,0.4,0,0.7,0,1.1c-0.6,10.1,3.3,34.8,5.2,45.6c0.2,0,0.5,0,0.7,0c0.2,0,0.5,0,0.7,0
		C120.6,169.2,116.7,144.3,117.2,134.4z"/>
</g>
<g>
	<path class="st0" d="M46.3,111.3c-1.3-0.7-2.7-1.2-4.2-1.8C23,103,18.8,75.8,23.6,62.1c4.8-13.7,6.6,0.1,6.6,0.1
		C32,83,38.5,85.5,44.3,83C44.2,83.2,40.5,96.1,46.3,111.3z"/>
	<path class="st2" d="M46.3,112c-0.1,0-0.2,0-0.3-0.1c-1.3-0.6-2.7-1.2-4.2-1.7c-6.9-2.4-12.5-7.7-16.2-15.3
		c-4.9-10.1-6-23.7-2.7-33.1c1.6-4.7,3.1-6.7,4.7-6.5c2.3,0.2,3.1,5.2,3.3,6.8c1,11.2,3.4,18,7.1,20.2c1.7,1,3.7,1,6,0
		c0.2-0.1,0.5-0.1,0.7,0.1c0.2,0.2,0.3,0.5,0.2,0.7c-0.4,1.4-3.5,13.5,2,27.9c0.1,0.3,0,0.6-0.2,0.8C46.6,112,46.5,112,46.3,112z
		 M27.4,56.7c-0.2,0-1.3,0.3-3.2,5.6c-2.6,7.4-2.9,20.6,2.7,32c3.5,7.3,8.8,12.3,15.4,14.5c1,0.3,1.9,0.7,2.8,1.1
		c-4.1-12-2.5-22.2-1.8-25.9c-2.2,0.7-4.3,0.5-6-0.6c-4.1-2.5-6.8-9.6-7.8-21.3C29.1,59.7,28.2,56.8,27.4,56.7
		C27.4,56.7,27.4,56.7,27.4,56.7z"/>
</g>
<g>
	<path class="st2" d="M161.1,74.7c-0.3,0-0.5-0.1-0.7-0.2c-1.8-1,0-6.6,1.2-9.9c0.1-0.4,0.5-0.5,0.9-0.4c0.4,0.1,0.5,0.5,0.4,0.9
		c-1.4,3.8-2.3,7.6-1.8,8.2c0,0,1.2-0.1,5.5-5.5c0.1-0.2,0.9-1.2,1.9-0.9c0.9,0.3,1.2,1.3,1.2,3.6c0,0.2,0,0.7,0.3,0.8
		c0.1,0.1,0.9,0.3,3.3-1.6c0,0,1.1-0.9,2.5-0.7c1,0.1,1.9,0.8,2.6,1.9c0.2,0.3,1.1,0.5,3.5-1.1c0.2-0.1,0.4-0.3,0.6-0.4
		c0.3-0.3,1.5-0.9,3.2,0.3c0.1,0.1,0.2,0.1,0.2,0.2c0.1,0,0.1,0.1,0.2,0.1c0.3,0.2,0.4,0.7,0.2,1c-0.2,0.3-0.7,0.4-1,0.2
		c-0.1-0.1-0.2-0.1-0.3-0.2c-0.1,0-0.1-0.1-0.2-0.1c-0.9-0.6-1.4-0.4-1.5-0.3c-0.2,0.2-0.4,0.3-0.6,0.5c-1.8,1.2-3.3,1.7-4.3,1.4
		c-0.8-0.2-1.1-0.7-1.1-0.8c-0.5-0.7-1-1.1-1.6-1.2c-0.8-0.1-1.4,0.4-1.4,0.4c-2.2,1.7-3.8,2.3-4.8,1.7c-0.9-0.5-1.1-1.5-1.1-2.1
		c0-1.4-0.2-1.9-0.3-2.1c-0.1,0.1-0.2,0.2-0.3,0.4C163.9,73.5,162.2,74.7,161.1,74.7z"/>
</g>
<g>
	<path class="st2" d="M156.9,57.5c-0.1,0-0.2,0-0.2,0c-1.6-0.2-2.4-2.4-2.5-2.7c-0.1-0.4,0.1-0.8,0.4-0.9c0.4-0.1,0.8,0.1,0.9,0.4
		c0.2,0.7,0.8,1.7,1.3,1.8c0.3,0,0.8-0.3,1.3-1c0.9-1.3,1.9-2.1,3-2.1c0.7,0,1.6,0.1,2.6,1.3c0,0,0.1,0,0.2,0c0.1,0,0.4,0,0.6-0.2
		c0.4-0.3,0.7-0.3,1-0.2c0.6,0.1,0.9,0.7,1.1,1.2c0.1,0.1,0.1,0.2,0.2,0.3c0.9,0.1,5.2-0.1,6-0.4c0.6-0.2,1,0,1.2,0.1
		c0.6,0.5,0.6,1.4,0.6,1.6c0,0.4-0.4,0.7-0.8,0.6c-0.4,0-0.7-0.4-0.6-0.8c0-0.1,0-0.2,0-0.3c-1.4,0.4-6.3,0.6-7,0.3
		c-0.4-0.1-0.6-0.6-0.8-1c-0.1-0.1-0.1-0.3-0.2-0.4c-1,0.6-2.1,0.3-2.4-0.1c-0.6-0.6-1.1-0.9-1.6-0.9c-0.6,0-1.3,0.6-1.9,1.5
		C158.5,56.9,157.7,57.5,156.9,57.5z"/>
</g>
<g>
	<path class="st2" d="M168.4,44c-0.1,0-0.2,0-0.2,0c-0.7-0.1-1.1-0.6-1.3-0.9c-0.8-1.2-1.6-1.8-2.3-1.8c-0.8,0-1.4,0.8-1.4,0.8
		c-0.2,0.3-0.6,0.4-1,0.2c-0.3-0.2-0.4-0.7-0.2-1c0-0.1,1-1.4,2.6-1.4c0,0,0,0,0,0c1.2,0,2.4,0.8,3.4,2.5c0,0,0.1,0.1,0.1,0.1
		c0,0,0.1,0.1,0.2,0.1c0.2,0,1.8-0.2,5.7-5.7c0.2-0.3,0.7-0.4,1-0.2c0.3,0.2,0.4,0.7,0.2,1C172.3,41.9,170.1,44,168.4,44z"/>
</g>
<g>
	<path class="st1" d="M146.7,47.2l4.4-0.5c0.3,0,0.6-0.2,0.7-0.5c0.6-1.7,2.8-7.5,2.8-8.9c0-1.7-3.2-2.2-3.5-3.7
		c-0.4-1.5-2.6-7.7-3-7.6c-0.4,0.1-15.3,5.3-15.8,6.4c-0.5,1.1,3.1,4.6,3.2,5.6c0.1,1-1.3,9.5-0.1,10.1
		C136.7,48.7,146.7,47.2,146.7,47.2z"/>
	<path class="st2" d="M137,48.9c-0.8,0-1.5-0.1-1.8-0.2c-1.1-0.6-1-3-0.4-8.6c0.1-0.9,0.2-1.9,0.2-2.1c-0.1-0.2-0.7-1.1-1.2-1.8
		c-1.5-2-2.4-3.2-1.9-4.1c0.7-1.5,16.1-6.8,16.3-6.8c0.2,0,0.4,0,0.5,0.1c1,0.6,3.2,7.9,3.3,8c0.1,0.4,0.8,0.8,1.4,1.2
		c1,0.6,2.2,1.3,2.2,2.7c0,1.1-0.9,4-2.8,9.1c-0.2,0.6-0.7,0.9-1.3,1l-4.4,0.5C144.5,48.3,139.7,48.9,137,48.9z M135.9,47.5
		c0.9,0.2,6.2-0.3,10.7-1c0,0,0,0,0,0l4.4-0.5c0.1,0,0.1,0,0.2-0.1c2.3-6,2.7-8,2.7-8.6c0-0.5-0.6-0.9-1.5-1.5c-0.9-0.5-1.8-1.1-2-2
		c-0.3-1.3-1.9-5.7-2.5-6.9c-2.5,0.8-13.6,4.9-14.9,5.9c0.1,0.4,1.2,1.9,1.8,2.7c0.9,1.2,1.4,1.9,1.5,2.5c0,0.3,0,1-0.2,2.4
		C136,42,135.5,46.6,135.9,47.5z"/>
</g>
<g>
	<path class="st1" d="M7.3,71.8C5.4,72,4,71.9,4,71.9c-3.6-7.3-3-16.4-3-16.4c1.1-0.3,2-0.4,2.9-0.6C4,54.9,4.5,65.6,7.3,71.8z"/>
	<path class="st2" d="M4.5,72.6c-0.3,0-0.5,0-0.5,0c-0.3,0-0.5-0.2-0.6-0.4c-3.6-7.4-3.1-16.4-3.1-16.8c0-0.3,0.2-0.6,0.5-0.6
		c1-0.2,2-0.4,3-0.6c0,0,0.1,0,0.1,0c0.7,0,0.7,0.6,0.7,0.9c0.2,3.3,1,11.4,3.2,16.4C8,71.7,8,72,7.9,72.2c-0.1,0.2-0.3,0.3-0.5,0.3
		C6.1,72.6,5.1,72.6,4.5,72.6z M4.5,71.2c0.4,0,1,0,1.8,0c-1.9-4.9-2.7-12-2.9-15.4c-0.5,0.1-1.1,0.2-1.6,0.3
		C1.7,58,1.7,65.2,4.5,71.2z"/>
</g>
<g>
	<path class="st2" d="M33.8,52.5h-2.7V51c0-0.6,0.5-1.1,1.1-1.1h0.4c0.6,0,1.1,0.5,1.1,1.1v0.6C33.7,52,33.8,52.2,33.8,52.5z"/>
	<path class="st2" d="M33.8,53.2h-2.7c-0.4,0-0.7-0.3-0.7-0.7V51c0-1,0.8-1.8,1.8-1.8h0.4c1,0,1.8,0.8,1.8,1.8v0.7
		c0,0.2,0,0.4,0.1,0.6c0.1,0.2,0,0.4-0.1,0.6S34.1,53.2,33.8,53.2z M31.8,51.8H33c0,0,0,0,0,0l0-0.7c0-0.2-0.2-0.4-0.4-0.4h-0.4
		c-0.2,0-0.4,0.2-0.4,0.4V51.8z"/>
</g>
<g>
	<path class="st1" d="M35.9,60.3c-0.2,1-0.4,2.8-0.8,6.2c-0.2,2-1.6,0.5-2.8-1.1c-1.2-1.6-3.1-2.6-5.1-2.6c-2.8,0-6.5,0.7-8.1,3.9
		c-1.2,2.5-4.4,3.8-7.6,4.4C8.8,65,8.3,54.8,8.3,54.8c4.9,0.5,5.8,3.6,9.3,4.3c3.9,0.8,6.7-2.1,7.6-3.2c0.2-0.2,0.1-0.5-0.1-0.7
		c-1.3-0.8-5.5-3.3-6.2-3.8c-0.9-0.6-1.1-2.8,0.9-1.7c2,1.1,5.2,2.4,6.6,1.4c1.3-1,5,1.3,5,1.3h2.7c0.1,0.3,0.2,0.6,0.3,0.8
		C36.4,57.3,36.1,59.3,35.9,60.3z"/>
	<path class="st2" d="M11.6,71.9c-0.3,0-0.5-0.2-0.6-0.4c-2.8-6.2-3.3-16.3-3.4-16.7c0-0.2,0.1-0.4,0.2-0.5s0.3-0.2,0.6-0.2
		c2.9,0.3,4.5,1.5,6,2.5c1.1,0.8,2,1.5,3.4,1.8c3.3,0.7,5.8-1.7,6.7-2.8c-0.4-0.2-1-0.6-1.7-1c-1.8-1.1-3.8-2.3-4.3-2.6
		c-0.9-0.5-1.2-1.9-0.8-2.6c0.2-0.3,0.8-1.1,2.4-0.2c2.6,1.4,5,2,5.8,1.4c1.5-1.1,4.6,0.6,5.6,1.2h2.5c0.3,0,0.6,0.2,0.7,0.5
		c0.1,0.2,0.1,0.4,0.2,0.6c1.7,3.1,2.2,5.5,1.8,7.5c0,0,0,0,0,0c-0.2,0.8-0.4,2.4-0.7,5.3l-0.1,0.9c-0.1,0.9-0.4,1.4-1,1.6
		c-0.8,0.2-1.7-0.5-3.1-2.3c-1.1-1.5-2.7-2.4-4.5-2.3c-2.6,0-6,0.7-7.5,3.6c-1.1,2.3-3.9,4-8.1,4.8C11.7,71.9,11.6,71.9,11.6,71.9z
		 M9,55.6c0.2,2.5,0.9,9.8,3,14.8c2.5-0.6,5.4-1.7,6.5-3.9c1.7-3.5,5.7-4.3,8.7-4.3c2.2,0,4.3,1.1,5.6,2.9c0.8,1.1,1.3,1.5,1.5,1.7
		c0-0.1,0-0.2,0-0.3l0.1-0.9c0.3-2.9,0.5-4.5,0.7-5.5c0.4-1.6-0.2-3.8-1.6-6.5c-0.1-0.1-0.2-0.3-0.2-0.5h-2.2c-0.1,0-0.3,0-0.4-0.1
		c-1.6-1-3.6-1.8-4.2-1.4c-1.9,1.4-6.1-0.7-7.3-1.3c-0.3-0.1-0.4-0.2-0.5-0.2c0,0.2,0.1,0.5,0.3,0.7c0.5,0.3,2.6,1.6,4.3,2.6
		c0.8,0.5,1.5,0.9,2,1.2c0.3,0.2,0.5,0.5,0.5,0.8c0,0.3,0,0.6-0.2,0.9c-0.8,1-3.9,4.3-8.2,3.5c-1.7-0.3-2.9-1.2-4-2
		C12.3,56.9,11.1,56,9,55.6z M35.9,60.3L35.9,60.3L35.9,60.3z"/>
</g>
<g>
	<path class="st2" d="M30,56.1c-0.2,0-0.4-0.1-0.6-0.3c-0.2-0.3-0.2-0.7,0.1-1c0.9-0.7,0.8-2.3,0.8-2.3c0-0.4,0.3-0.7,0.6-0.8
		c0.4,0,0.7,0.3,0.8,0.6c0,0.1,0.2,2.4-1.4,3.5C30.3,56.1,30.2,56.1,30,56.1z"/>
</g>
<g>
	<path class="st0" d="M11.5,71.2c-1.5,0.3-3,0.5-4.3,0.6C4.5,65.6,4,54.9,4,54.9c1.7-0.2,3.1-0.3,4.3-0.2C8.2,54.8,8.7,65,11.5,71.2
		z"/>
	<path class="st2" d="M7.3,72.5c-0.3,0-0.5-0.2-0.6-0.4C3.8,65.9,3.3,55.4,3.3,55c0-0.4,0.2-0.7,0.6-0.7C5.6,54,7.1,54,8.3,54.1
		c0.3,0,0.6,0.3,0.6,0.7c0,0.4,0.6,10.3,3.2,16.2c0.1,0.2,0.1,0.4,0,0.6c-0.1,0.2-0.3,0.3-0.5,0.4C10.4,72.2,9,72.4,7.3,72.5
		C7.3,72.5,7.3,72.5,7.3,72.5z M4.7,55.6c0.2,2.3,0.8,10.4,3,15.5c1-0.1,2-0.2,2.8-0.4c-2.2-5.4-2.8-12.9-3-15.3
		C6.7,55.4,5.8,55.4,4.7,55.6z"/>
</g>
<g>
	<path class="st2" d="M103.1,65.4c0,0-0.1,0-0.1,0l-0.2,0c-3.8-0.7-10.8-2.6-15.4-7.6c-0.1-0.2-0.2-0.4-0.2-0.6
		c0-0.2,0.2-0.4,0.3-0.5c2.4-1.4,3.5-2.5,4-3.1c-0.4-0.4-0.5-0.9-0.4-1.6c0,0,0-0.1,0-0.1c0.1-0.4,0.3-0.8,0.5-1.3
		c0.6-1.3,1.5-2.5,2.7-3.6c3.7-3.5,7.1-4.7,7.3-4.8c0.3-0.1,0.6,0,0.7,0.2c1.7,1.8,4.3,1.4,4.4,1.4c0.2,0,0.4,0,0.6,0.2
		s0.2,0.3,0.2,0.6c-0.1,2,0.4,4.1,0.4,4.1c0.3,1.6-0.2,3-1.4,4.5c0,0,0,0,0,0c-2.3,2.7-3.5,6.1-3.1,9.5c0.1,0.5,0.2,1,0.3,1.4
		c0.1,0.2,0.1,0.5,0.2,0.7c0,0.2,0,0.5-0.2,0.6C103.4,65.3,103.2,65.4,103.1,65.4z M88.9,57.4c4,3.9,9.6,5.7,13.2,6.4
		c-0.1-0.3-0.2-0.7-0.2-1.1c-0.4-3.7,0.9-7.6,3.5-10.6c0.9-1.1,1.3-2.2,1.1-3.3c0,0-0.5-1.8-0.5-3.7c-1,0-2.9-0.2-4.4-1.6
		c-1,0.4-3.6,1.7-6.4,4.3c-1.1,1-1.9,2.1-2.4,3.2c-0.2,0.4-0.3,0.7-0.4,1c0,0,0,0,0,0c0,0.2,0,0.3,0,0.3c0,0,0,0,0.1,0
		c0.4,0,0.7,0.3,0.7,0.7c0,0.1,0,0.2,0,0.3C93,53.8,92.2,55.4,88.9,57.4z M105.9,52.5L105.9,52.5L105.9,52.5z"/>
</g>
<g>
	<path class="st2" d="M87.8,57.9c-0.2,0-0.4-0.1-0.5-0.2c0,0-0.1-0.1-0.1-0.1L87,57.4c-0.1-0.1-0.1-0.2-0.2-0.2
		c-0.2-0.3-0.2-0.6,0-0.9c1.4-1.8,3.1-2.9,4.2-3.4c-0.1-0.5,0-0.9,0-1.1c0.1-0.4,0.5-0.6,0.8-0.5c0.4,0.1,0.6,0.4,0.5,0.8
		c0,0.2,0,0.3,0,0.3c0.1,0,0.2,0,0.2,0.1c0.1,0,0.3,0.1,0.4,0.2c0.1,0.2,0.2,0.4,0.1,0.6c-0.2,0.5-1,2.2-5,4.5
		C88,57.9,87.9,57.9,87.8,57.9z"/>
</g>
<g>
	<path class="st2" d="M92.4,53.8C92.4,53.8,92.4,53.8,92.4,53.8c-0.4,0-0.7-0.3-0.7-0.7c0-0.4,0.3-0.7,0.7-0.7
		c0.7,0,2.3-0.7,3.2-1.3c0.3-0.2,0.8-0.1,1,0.2c0.2,0.3,0.1,0.8-0.2,1C96,52.5,93.8,53.8,92.4,53.8z"/>
</g>
<g>
	<path class="st1" d="M96.9,35.1c-0.6,1.9-1.1,3.9-1.5,5.7c0,0.1,0,0.2,0,0.2c-0.3,1.8-0.5,3.4-0.6,4.5c-0.1,1.1-0.1,1.8,0,1.8
		c-1,1-2,2.2-2.6,3.4c-0.2,0.5-0.4,0.9-0.4,1.3v0c-0.1,0.5,0,0.8,0.2,1c0.1,0.1,0.3,0.2,0.5,0.2c0,0,0,0,0,0
		c-0.1,0.2-0.7,1.8-4.7,4.1c0,0,0,0,0,0C81.4,50.9,80.6,33.5,96.9,35.1z"/>
	<path class="st2" d="M87.8,57.9c-0.2,0-0.4-0.1-0.5-0.2c-3.8-3.7-6-11.5-3.3-17.3c2.1-4.5,6.7-6.6,12.9-6c0.2,0,0.4,0.1,0.5,0.3
		c0.1,0.2,0.1,0.4,0.1,0.6c-0.6,1.6-1,3.5-1.4,5.6c0,0.1,0,0.2-0.1,0.3c-0.4,2.1-0.5,3.6-0.6,4.4c-0.1,1-0.1,1.4-0.1,1.5
		c0.1,0.2,0,0.5-0.2,0.7c-1.1,1.1-1.9,2.2-2.4,3.2c-0.2,0.4-0.3,0.7-0.4,1c0,0,0,0,0,0c0,0.2,0,0.2,0,0.3c0,0,0,0,0.1,0
		c0.4,0,0.7,0.3,0.7,0.7c0,0.1,0,0.2,0,0.3c-0.2,0.5-1.1,2.2-5,4.4C88,57.9,87.9,57.9,87.8,57.9z M94.9,35.7c-4.7,0-8,1.8-9.6,5.3
		c-2.3,5-0.5,11.9,2.6,15.3c2.1-1.3,3.1-2.3,3.5-2.8c-0.2-0.2-0.6-0.6-0.4-1.6c0,0,0-0.1,0-0.1c0.1-0.4,0.2-0.9,0.5-1.4
		c0.5-1.1,1.3-2.2,2.5-3.4c0-0.3,0-0.8,0.1-1.6c0.1-1.3,0.3-3,0.6-4.6c0-0.2,0-0.2,0.1-0.3c0.3-1.7,0.7-3.4,1.2-4.9
		C95.6,35.7,95.2,35.7,94.9,35.7z"/>
</g>
<g>
	<path class="st2" d="M101.8,42.6c0,0-3.4,1.3-7,4.7c-0.3,0.1,0.2-6.7,2.1-12.2c1.2-3.7,3.2-6.8,5.9-7.3
		C108,27,105.9,38.1,101.8,42.6z"/>
	<path class="st2" d="M94.8,47.9c-0.2,0-0.4-0.1-0.5-0.2c-0.7-0.8,0.4-8.3,2-12.9c1.6-4.6,3.8-7.3,6.4-7.7c1.5-0.2,2.6,0.4,3.3,1.6
		c1.7,3.2-0.3,10.7-3.7,14.4c-0.1,0.1-0.2,0.1-0.3,0.2c0,0-3.3,1.3-6.8,4.5c-0.1,0.1-0.2,0.1-0.3,0.2C94.9,47.9,94.8,47.9,94.8,47.9
		z M103.3,28.4c-0.1,0-0.3,0-0.4,0c-2.1,0.3-4,2.8-5.3,6.8c-1.4,3.9-2,8.3-2.1,10.4c2.8-2.3,5.3-3.5,5.9-3.7
		c2.9-3.2,4.7-10,3.4-12.6C104.4,28.7,104,28.4,103.3,28.4z M101.8,42.6L101.8,42.6L101.8,42.6z"/>
</g>
<g>
	<path class="st2" d="M128.4,115.8c-9.2,5.5-11.1,10.5-11.6,14.5c-15.5,11.5-30,11.1-40.5,7.9c-11.7-3.5-16.1-17.5-26-24.6
		c-1.2-0.8-2.5-1.6-3.9-2.3c-5.8-15.2-2.1-28.1-2-28.3c3-1.3,5.8-4,7.7-6c4.7-5.2,10.3-10.2,20.8-13.7c6.7-2.2,14.8-5.9,15-6
		c5.5,6,14.5,7.3,15.3,7.5c5.7,12.4,18,14.3,26,11.3C129,76,138.4,95.9,128.4,115.8z"/>
	<path class="st2" d="M88.9,140.9c-4.9,0-9.2-0.8-12.9-1.9c-7.1-2.1-11.6-8-16-13.7c-3.1-4-6.2-8.1-10.2-11
		c-1.2-0.8-2.5-1.6-3.8-2.3c-0.2-0.1-0.3-0.2-0.3-0.4c-5.7-14.8-2.4-27.4-2-28.8c0.1-0.2,0.2-0.4,0.4-0.5c3.1-1.4,6-4.3,7.4-5.9
		c4.5-5.1,10.2-10.2,21.1-13.9c6.7-2.2,14.8-6,14.9-6c0.3-0.1,0.6-0.1,0.8,0.2c4.3,4.7,11,6.5,14.6,7.2l0.2,0c0.2,0,0.4,0.2,0.5,0.4
		c5.9,12.7,18.2,13.5,25.1,10.9c0.3-0.1,0.7,0,0.9,0.4c0.1,0.2,9.5,20.5-0.6,40.5c-0.1,0.1-0.2,0.2-0.3,0.3
		c-9.2,5.4-10.8,10.3-11.3,14c0,0.2-0.1,0.4-0.3,0.5C107,138.5,97.2,140.9,88.9,140.9z M46.8,110.8c1.4,0.7,2.6,1.5,3.8,2.3
		c4.2,3,7.4,7.2,10.5,11.3c4.4,5.8,8.6,11.3,15.3,13.3c9.5,2.9,24,3.8,39.7-7.6c0.5-3.9,2.5-9.1,11.8-14.6
		c8.7-17.5,2.1-35.1,0.7-38.5c-7.4,2.5-19.9,1.3-26.1-11.6c-3.7-0.7-10.4-2.5-14.9-7.2c-1.8,0.8-8.7,3.9-14.6,5.9
		c-10.6,3.5-16.1,8.6-20.5,13.5c-1.8,2-4.5,4.6-7.6,6.1C44.3,85.8,41.8,97.3,46.8,110.8z M128.4,115.8L128.4,115.8L128.4,115.8z"/>
</g>
<g>
	<path class="st0" d="M133.4,113.2c-1.8,0.9-3.5,1.8-5,2.6C138.4,95.9,129,76,129,76c2.1-0.8,3.9-1.9,5.2-3.3
		c6.1-6.5,5.9-12.5,5.8-15.4c-0.1-2.9-2.5-9.4,0.6-18.2c3.1-8.8,7.1-8.3,6.2,1.7c-0.9,10,2.1,20.9,2.1,20.9
		C153.9,74.4,151,104.8,133.4,113.2z"/>
	<path class="st2" d="M128.4,116.5c-0.2,0-0.3-0.1-0.5-0.2c-0.2-0.2-0.3-0.5-0.1-0.8c9.7-19.4,0.7-39,0.6-39.2
		c-0.1-0.2-0.1-0.4,0-0.6s0.2-0.3,0.4-0.4c2.1-0.8,3.8-1.9,5-3.2c5.9-6.4,5.7-12.1,5.6-14.9c0-0.6-0.2-1.5-0.3-2.5
		c-0.6-3.6-1.5-9,0.9-16c1.6-4.6,3.6-7,5.4-6.7c1.9,0.4,2.7,3.5,2.2,8.7c-0.8,9.8,2.1,20.6,2.1,20.7c2.6,6.7,3,17.8,0.7,27.7
		c-2.7,12.1-8.6,20.8-16.7,24.6c-1.9,0.9-3.5,1.7-4.9,2.6C128.6,116.5,128.5,116.5,128.4,116.5z M129.9,76.4
		c1.5,3.6,7.6,20.5,0.1,37.8c1-0.5,2-1,3.1-1.6c0,0,0,0,0,0c17.1-8.2,20.1-38.1,15.2-50.6c-0.1-0.2-3-11.3-2.2-21.3
		c0.5-5.6-0.6-7.1-1.1-7.2c-0.6-0.1-2.2,1.3-3.8,5.7c-2.3,6.6-1.5,11.9-0.9,15.3c0.2,1,0.3,1.9,0.3,2.7c0.1,3,0.3,9.1-5.9,15.9
		C133.5,74.4,131.9,75.5,129.9,76.4z"/>
</g>
<g>
	<path class="st0" d="M46.3,111.3c-1.3-0.7-2.7-1.2-4.2-1.8C23,103,18.8,75.8,23.6,62.1c4.8-13.7,6.6,0.1,6.6,0.1
		C32,83,38.5,85.5,44.3,83C44.2,83.2,40.5,96.1,46.3,111.3z"/>
	<path class="st2" d="M46.3,112c-0.1,0-0.2,0-0.3-0.1c-1.3-0.6-2.7-1.2-4.2-1.7c-6.9-2.4-12.5-7.7-16.2-15.3
		c-4.9-10.1-6-23.7-2.7-33.1c1.6-4.7,3.1-6.7,4.7-6.5c2.3,0.2,3.1,5.2,3.3,6.8c1,11.2,3.4,18,7.1,20.2c1.7,1,3.7,1,6,0
		c0.2-0.1,0.5-0.1,0.7,0.1c0.2,0.2,0.3,0.5,0.2,0.7c-0.4,1.4-3.5,13.5,2,27.9c0.1,0.3,0,0.6-0.2,0.8C46.6,112,46.5,112,46.3,112z
		 M27.4,56.7c-0.2,0-1.3,0.3-3.2,5.6c-2.6,7.4-2.9,20.6,2.7,32c3.5,7.3,8.8,12.3,15.4,14.5c1,0.3,1.9,0.7,2.8,1.1
		c-4.1-12-2.5-22.2-1.8-25.9c-2.2,0.7-4.3,0.5-6-0.6c-4.1-2.5-6.8-9.6-7.8-21.3C29.1,59.7,28.2,56.8,27.4,56.7
		C27.4,56.7,27.4,56.7,27.4,56.7z"/>
</g>
<g>
	<path class="st2" d="M161.1,74.7c-0.3,0-0.5-0.1-0.7-0.2c-1.8-1,0-6.6,1.2-9.9c0.1-0.4,0.5-0.5,0.9-0.4c0.4,0.1,0.5,0.5,0.4,0.9
		c-1.4,3.8-2.3,7.6-1.8,8.2c0,0,1.2-0.1,5.5-5.5c0.1-0.2,0.9-1.2,1.9-0.9c0.9,0.3,1.2,1.3,1.2,3.6c0,0.2,0,0.7,0.3,0.8
		c0.1,0.1,0.9,0.3,3.3-1.6c0,0,1.1-0.9,2.5-0.7c1,0.1,1.9,0.8,2.6,1.9c0.2,0.3,1.1,0.5,3.5-1.1c0.2-0.1,0.4-0.3,0.6-0.4
		c0.3-0.3,1.5-0.9,3.2,0.3c0.1,0.1,0.2,0.1,0.2,0.2c0.1,0,0.1,0.1,0.2,0.1c0.3,0.2,0.4,0.7,0.2,1c-0.2,0.3-0.7,0.4-1,0.2
		c-0.1-0.1-0.2-0.1-0.3-0.2c-0.1,0-0.1-0.1-0.2-0.1c-0.9-0.6-1.4-0.4-1.5-0.3c-0.2,0.2-0.4,0.3-0.6,0.5c-1.8,1.2-3.3,1.7-4.3,1.4
		c-0.8-0.2-1.1-0.7-1.1-0.8c-0.5-0.7-1-1.1-1.6-1.2c-0.8-0.1-1.4,0.4-1.4,0.4c-2.2,1.7-3.8,2.3-4.8,1.7c-0.9-0.5-1.1-1.5-1.1-2.1
		c0-1.4-0.2-1.9-0.3-2.1c-0.1,0.1-0.2,0.2-0.3,0.4C163.9,73.5,162.2,74.7,161.1,74.7z"/>
</g>
<g>
	<path class="st2" d="M156.9,57.5c-0.1,0-0.2,0-0.2,0c-1.6-0.2-2.4-2.4-2.5-2.7c-0.1-0.4,0.1-0.8,0.4-0.9c0.4-0.1,0.8,0.1,0.9,0.4
		c0.2,0.7,0.8,1.7,1.3,1.8c0.3,0,0.8-0.3,1.3-1c0.9-1.3,1.9-2.1,3-2.1c0.7,0,1.6,0.1,2.6,1.3c0,0,0.1,0,0.2,0c0.1,0,0.4,0,0.6-0.2
		c0.4-0.3,0.7-0.3,1-0.2c0.6,0.1,0.9,0.7,1.1,1.2c0.1,0.1,0.1,0.2,0.2,0.3c0.9,0.1,5.2-0.1,6-0.4c0.6-0.2,1,0,1.2,0.1
		c0.6,0.5,0.6,1.4,0.6,1.6c0,0.4-0.4,0.7-0.8,0.6c-0.4,0-0.7-0.4-0.6-0.8c0-0.1,0-0.2,0-0.3c-1.4,0.4-6.3,0.6-7,0.3
		c-0.4-0.1-0.6-0.6-0.8-1c-0.1-0.1-0.1-0.3-0.2-0.4c-1,0.6-2.1,0.3-2.4-0.1c-0.6-0.6-1.1-0.9-1.6-0.9c-0.6,0-1.3,0.6-1.9,1.5
		C158.5,56.9,157.7,57.5,156.9,57.5z"/>
</g>
<g>
	<path class="st2" d="M168.4,44c-0.1,0-0.2,0-0.2,0c-0.7-0.1-1.1-0.6-1.3-0.9c-0.8-1.2-1.6-1.8-2.3-1.8c0,0,0,0,0,0
		c-0.8,0-1.4,0.8-1.4,0.8c-0.2,0.3-0.7,0.4-1,0.2c-0.3-0.2-0.4-0.7-0.2-1c0-0.1,1-1.4,2.6-1.4c0,0,0,0,0,0c1.2,0,2.4,0.8,3.4,2.5
		c0,0,0.1,0.1,0.1,0.1c0,0,0.1,0.1,0.2,0.1c0.3,0,1.8-0.2,5.7-5.7c0.2-0.3,0.7-0.4,1-0.2c0.3,0.2,0.4,0.7,0.2,1
		C172.3,41.9,170.1,44,168.4,44z"/>
</g>
</svg>
