<?xml version="1.0" encoding="utf-8"?>
<!-- Generator: Adobe Illustrator 23.0.3, SVG Export Plug-In . SVG Version: 6.00 Build 0)  -->
<svg version="1.1" id="Слой_1" xmlns="http://www.w3.org/2000/svg" xmlns:xlink="http://www.w3.org/1999/xlink" x="0px" y="0px"
	 viewBox="0 0 180 207" style="enable-background:new 0 0 180 207;" xml:space="preserve">
<style type="text/css">
	.st0{fill:#F8CA06;}
	.st1{fill:#181C19;}
	.st2{fill:#FFFFFF;}
</style>
<g>
	<path class="st0" d="M180,111c0,34.2-19,63.9-47.1,79.1c-0.3,0.1-0.5,0.3-0.8,0.4c-0.3,0.2-0.5,0.3-0.8,0.4
		c-12.4,6.4-26.4,10-41.3,10c-11.4,0-22.2-2.1-32.3-6c-0.2-0.1-0.5-0.2-0.8-0.3h0c-0.2-0.1-0.5-0.2-0.8-0.3
		C23.3,181.1,0,148.8,0,111c0-30.3,15-57.1,37.9-73.4c0.2-0.1,0.4-0.3,0.6-0.4c0.2-0.1,0.4-0.3,0.6-0.4c14.5-10,32-15.8,51-15.8
		c20.2,0,38.8,6.6,53.8,17.9c0.4,0.3,0.7,0.5,1.1,0.8c0.4,0.3,0.7,0.5,1.1,0.8C166.7,57,180,82.4,180,111z"/>
</g>
<g>
	<path class="st1" d="M94.9,95C94.9,95,94.9,95,94.9,95c0,0-0.1,0-0.1-0.1c0,0,0,0,0,0c-0.2-0.1-0.4-0.2-0.6-0.3l0,0
		c-1.2-0.6-2.6-1.1-4-1.2c-0.1-0.4-0.4-0.8-0.8-1.3c-0.1-0.2-0.3-0.3-0.4-0.5c-0.6-0.6-1.3-1.2-2.2-1.7c-0.1-0.1-0.2-0.1-0.3-0.2
		c-0.1,0-0.1-0.1-0.2-0.1c-0.1,0-0.2-0.1-0.2-0.1c-0.1,0-0.2-0.1-0.3-0.1c-0.1-0.1-0.2-0.1-0.3-0.2C85.1,89.1,85,89,84.8,89
		c0,0,0,0,0,0c0,0,0,0,0,0c-0.3-0.1-0.6-0.3-0.9-0.4c-3.6-1.4-6.2-1.5-6.3-1.5c-0.2,0-0.5,0.1-0.6,0.3c0,0,0,0,0,0v0
		c0,0,0,0.1-0.1,0.1c-0.1,0.2-0.2,0.3-0.3,0.5c0,0,0,0,0,0c-1.2,1.7-3.5,2.3-3.5,2.3c-0.2,0.1-0.4,0.2-0.5,0.4
		c-0.1,0.2-0.1,0.4,0,0.6c0.7,1.7,0.8,4.1,0.8,4.1c0,0,0,0.1,0,0.1c0.2,0.9,0.5,1.7,1,2.5c0,0,0.1,0.1,0.1,0.2
		c0,0.1,0.1,0.1,0.1,0.2c0.1,0.1,0.2,0.2,0.3,0.3c0.1,0.1,0.2,0.2,0.3,0.2c0.1,0,0.1,0.1,0.1,0.1c0,0,0.1,0.1,0.2,0.1
		c0.1,0,0.1,0.1,0.2,0.1c0,0,0,0,0,0c0,0,0,0,0,0c0,0,0,0,0,0c0.1,0.1,0.2,0.1,0.2,0.1c1.1,0.6,2.7,1,4,1.4c0.7,0.2,1.3,0.4,1.6,0.5
		c0,0,0,0,0,0c0,0,0.1,0.1,0.1,0.1c0.3,0.4,0.6,1.4-0.1,4.3c0,0.1,0,0.1,0,0.2c0,0,0,0.1,0,0.1c0,0.1,0,0.2,0.1,0.3
		c0.1,0.1,0.3,0.3,0.5,0.3c0,0,0,0,0,0c0,0,0,0,0,0c0.1,0,0.2,0,0.5,0c0.1,0,0.1,0,0.2,0c2.2,0,8.8-1,11.8-10.2
		c0.1-0.2,0.1-0.4,0.2-0.6c0,0,0,0,0,0c0,0,0,0,0,0c0,0,0,0,0,0C95.3,95.4,95.2,95.1,94.9,95z M74.1,91.4c1-0.4,2.8-1.2,3.8-2.9
		c1,0.1,3.6,0.5,6.8,2c0.2,0.1,0.4,0.2,0.6,0.3l0,0c0,0,0,0,0,0c0.1,0,0.2,0.1,0.3,0.2c0,0,0,0,0,0c0.1,0,0.2,0.1,0.3,0.1
		c0,0,0.1,0,0.1,0.1c0.7,0.4,1.3,0.8,1.7,1.3c0.1,0.1,0.3,0.3,0.4,0.4c0.2,0.3,0.4,0.4,0.4,0.5v0c-0.1,0.1-0.1,0.1-0.2,0.2
		c0,0,0,0,0,0c0,0,0,0,0,0.1c0,0.1,0,0.1,0,0.2V94c0,0,0,0.1,0,0.1c0,0,0,0.1,0,0.1c0,0.1,0.1,0.2,0.2,0.2c0.1,0.1,0.4,0.2,0.6,0.2
		c0.1,0,0.2,0,0.2,0c1.1,0,2.6,0.5,4.2,1.2c0,0.1,0,0.1-0.1,0.2c-2.5,7.3-7.6,9-10.2,9.1h0c0.3-1.8,0.5-3.7-0.5-4.7
		c-0.1-0.1-0.2-0.2-0.3-0.2c-0.1-0.1-0.2-0.2-0.4-0.2c-0.4-0.2-1.1-0.4-1.9-0.6c-1.3-0.4-3.2-0.9-4.2-1.5c-0.1,0-0.1-0.1-0.2-0.2
		c0,0,0-0.1-0.1-0.1c0,0,0,0-0.1-0.1c-0.6-0.7-1-1.5-1.2-2.4C74.8,94.8,74.6,93,74.1,91.4z"/>
</g>
<g>
	<path class="st1" d="M87.6,95.4c-0.3,0-0.7-0.1-0.9-0.1c-0.4-0.1-0.6-0.5-0.5-0.9c0.1-0.4,0.5-0.6,0.9-0.5l0,0c0,0,1.1,0.3,1.5-0.3
		c0.2-0.3,0.6-0.4,1-0.2c0.3,0.2,0.4,0.6,0.2,1C89.2,95.2,88.3,95.4,87.6,95.4z"/>
</g>
<path class="st2" d="M94.6,95.6c-4.1-0.9-5.4-1.5-5.4-1.5c0.1-0.4,0.1-0.9-0.4-1.5c0,0,0,0,0,0c-0.1-0.1-0.2-0.3-0.4-0.4
	c-0.5-0.6-1.2-1.1-2-1.5c-0.4-0.3-0.9-0.5-1.3-0.7c0.1,0-0.2-0.7-0.6-1.7c0,0,0-0.1-0.1-0.2c-0.4-0.9-0.9-2-1.5-3.2
	c-0.1-0.1-0.1-0.3-0.2-0.4c-0.1-0.1-0.2-0.3-0.2-0.4c-0.8-1.4-1.7-3-2.7-4.3C89.4,73.1,97.5,86.2,94.6,95.6z"/>
<g>
	<path class="st1" d="M85,89.8c-4.1-1.9-7.5-2.1-7.5-2.1c-4.9-2.7-10-11.9-5.1-12.7c2.5-0.4,5.1,1.9,7.3,4.7c1.1,1.4,2,2.9,2.8,4.3
		c0.1,0.1,0.2,0.3,0.2,0.4c0.1,0.1,0.2,0.3,0.2,0.4c0.6,1.2,1.2,2.3,1.5,3.2c0,0,0,0.1,0.1,0.2C84.9,89.1,85.1,89.8,85,89.8z"/>
	<path class="st1" d="M85.7,89.4c0,0-0.1-0.4-0.3-0.8c0,0,0-0.1-0.1-0.2c0,0,0-0.1-0.1-0.1c0-0.1-0.1-0.2-0.1-0.3
		c0,0-0.1-0.3-0.3-0.7c0,0,0,0,0,0c-0.1-0.1-0.1-0.3-0.2-0.4c0-0.1-0.1-0.2-0.1-0.2c-0.3-0.6-0.6-1.2-0.8-1.7c0,0,0-0.1-0.1-0.2
		c-0.2-0.5-0.8-1.5-0.9-1.7c-0.2-0.4-0.5-0.8-0.7-1.2c-0.4-0.7-1.2-1.8-1.7-2.5v0c-0.2-0.3-0.4-0.5-0.4-0.6
		c-0.4-0.6-0.9-1.1-1.3-1.5c-0.4-0.4-0.7-0.7-1.1-1c-1.8-1.5-3.5-2.2-5.2-2c-0.8,0.1-1.4,0.4-1.8,0.9c-0.3,0.3-0.5,0.6-0.6,1
		c0,0.1-0.1,0.3-0.1,0.5c0,0,0,0.1,0,0.1c0,0.3,0,0.8,0,1.1c0,0,0,0.1,0,0.1c0,0.2,0.1,0.5,0.1,0.7c0,0.2,0.1,0.5,0.2,0.7
		c0.1,0.5,0.3,1,0.5,1.5c0.2,0.5,0.5,1,0.8,1.5c0.4,0.8,0.9,1.5,1.5,2.2c0.1,0.2,0.3,0.3,0.4,0.5c0.3,0.3,0.6,0.7,0.9,1
		c0.4,0.4,0.8,0.8,1.2,1.1c0.4,0.3,0.8,0.6,1.2,0.9c0,0,0,0,0.1,0c0.1,0.1,0.4,0.2,0.6,0.3c0.1,0,0.1,0.1,0.2,0.1c0,0,3.2,0.2,7.1,2
		c0.1,0,0.3,0.1,0.4,0.1c0.2,0,0.5-0.1,0.6-0.3c0,0,0,0,0,0s0,0,0,0C85.7,90,85.8,89.8,85.7,89.4z M71.1,76.8c0-0.1,0-0.2,0.1-0.2
		c0-0.1,0.1-0.3,0.2-0.4c0-0.1,0.1-0.1,0.1-0.2c0.2-0.2,0.6-0.4,1-0.5c1-0.1,2.1,0.2,3.3,1.1c0.2,0.1,0.3,0.2,0.4,0.3c0,0,0,0,0,0
		c0.2,0.2,0.4,0.4,0.6,0.6c0.1,0.1,0.2,0.2,0.3,0.3c0.1,0.1,0.2,0.2,0.3,0.3s0.2,0.2,0.3,0.4c0,0,0,0,0,0c0.3,0.3,0.5,0.6,0.8,1
		c0,0,0,0,0,0c0.1,0.2,0.3,0.4,0.4,0.5c0.1,0.1,0.2,0.3,0.3,0.4c0.1,0.1,0.2,0.3,0.3,0.5c0.2,0.3,0.5,0.7,0.7,1
		c0.2,0.4,0.5,0.7,0.7,1.1c0,0,0,0,0,0.1c0.1,0.2,0.2,0.4,0.3,0.6c0.1,0.2,0.2,0.3,0.3,0.5c0,0,0,0,0,0.1c0,0.1,0.1,0.1,0.1,0.2
		c0,0.1,0.1,0.1,0.1,0.2c0,0.1,0.1,0.2,0.1,0.2c0,0,0,0,0,0.1c0,0,0,0.1,0.1,0.1c0.7,1.2,1.2,2.3,1.5,3.2c0,0,0,0.1,0,0.1
		c0,0,0,0,0,0.1c0,0,0,0,0,0c0,0,0,0,0,0h0c-3.1-1.2-5.5-1.5-6.2-1.5c-0.8-0.5-1.7-1.2-2.5-2c-0.5-0.5-0.9-1-1.3-1.5
		c-1.1-1.4-2-3-2.5-4.4C71.1,78.2,71,77.5,71.1,76.8z"/>
</g>
<path class="st1" d="M145.6,124.1c-6.2,0.9-11.8,7.3-14.8,11.4c-0.9,1.3-1.9,2.6-3,3.8c-3.3,3.7-7.1,6.9-11.4,9.3
	c-10.5,6-27.5,10.9-49.3,0.8c-0.6-3.3-2-6.4-4.1-8.9c0-4.4,1.2-10.8,1.2-10.8c3.9-1.3,6.3-3.6,7.2-4.5c1.9-1.8,9.5-10,11.2-19.3
	c1.4,0.2,8.9-0.2,12-10.3c0,0,9.6,2,20,5.4c7.1,2.3,14.5,5.3,19.7,8.8C139.1,113,143,118.3,145.6,124.1z"/>
<g>
	<path class="st2" d="M125.3,95.3c-3,1.8-6.6,3.7-10.7,5.7c-10.4-3.4-20-5.4-20-5.4c2.9-9.4-5.2-22.5-14.9-16c1,1.4,2,2.9,2.7,4.3
		c-0.8-1.4-1.8-3-2.8-4.3c-2.1-2.9-4.7-5.1-7.3-4.7c-4.8,0.8,0.2,10,5.1,12.7c0,0,3.4,0.2,7.5,2.1c0,0,0-0.1,0-0.2c0,0,0-0.1,0-0.2
		c0-0.1,0-0.2-0.1-0.3c0-0.1,0-0.1-0.1-0.2c0,0,0-0.1,0-0.2c0-0.1-0.1-0.2-0.1-0.2c0,0,0-0.1,0-0.1c0.3,0.9,0.5,1.4,0.5,1.4
		c0.4,0.2,0.9,0.5,1.3,0.7c-0.4-0.2-0.9-0.5-1.3-0.7c-4.2-2-7.5-2.1-7.5-2.1c-1.2,2.4-4.3,3.2-4.3,3.2c0.7,1.8,0.9,4.3,0.9,4.3
		c0.2,1.2,0.8,2.1,1.4,2.8c1.2,1.4,5.4,2.1,6.6,2.6c1.4,0.7,0.9,3.6,0.5,5.2c-1.7,9.3-9.3,17.5-11.2,19.3c-0.9,0.9-3.3,3.1-7.2,4.5
		c-3.1,1.1-7.2,1.5-12.2,0.1c-11-3.2-8.8-16.5-8.8-16.5S43,94.3,53.5,82.4c3.6-4.1,8.5-7.5,15.1-8.9c2.7-0.6,5.8-0.9,9.1-0.7
		c19.7,0.8,28.2-3.9,29.9-13.6c1-5.3-1.2-10.6-5-14.5c-17.6-18.3-45.6-5-45.6-5s-12.9,4.4-19.5-3.3c-6.7-7.8-1.7-17,3.6-23.1
		c8.1-9.3,34.6-17.5,63.7-7.9c29,9.7,37.5,28.7,38.5,30.7c0.2,0.3,0.6,1.2,1.2,2.5C153.3,59.6,145,83.9,125.3,95.3z"/>
	<path class="st1" d="M82.1,100.7c-1.3-0.6-5.4-1.2-6.6-2.6c-0.6-0.7-1.1-1.6-1.3-2.8c0,0-0.1-2.5-0.9-4.3c0,0,0,0,0,0
		c0,0,0.1,0,0.1,0c0.2-0.1,0.5-0.2,0.9-0.3c0.2-0.1,0.4-0.2,0.6-0.3c0.1,0,0.2-0.1,0.3-0.2c0.3-0.2,0.5-0.4,0.8-0.6
		c0.2-0.2,0.4-0.4,0.6-0.6c0.2-0.2,0.4-0.5,0.5-0.7c-0.2-0.1-0.5-0.2-0.6-0.3v0c-1.2,1.7-3.5,2.3-3.5,2.3c-0.2,0-0.4,0.2-0.5,0.4
		c-0.1,0.2-0.1,0.4,0,0.6c0.7,1.7,0.8,4.2,0.8,4.2c0.2,0.9,0.5,1.7,1,2.4c0,0,0.1,0.1,0.1,0.2c0.2,0.2,0.4,0.6,0.7,0.8
		c0.1,0,0.1,0.1,0.1,0.1c0,0,0.1,0.1,0.2,0.1c0.1,0,0.1,0.1,0.2,0.1c0,0,0,0,0,0c0,0,0,0,0.1,0c0.1,0.1,0.2,0.1,0.2,0.1
		c1.2,0.7,2.7,1.1,4.1,1.5c0.7,0.2,1.3,0.4,1.6,0.5c0,0,0.1,0.1,0.1,0.1c0.3,0.3,0.7,1.3,0,4.1c0.1-0.2,0.4-0.4,0.7-0.3
		c0,0,0.1,0,0.1,0C83.1,103.6,83.4,101.3,82.1,100.7z M77.4,76.2c-1.8-1.5-3.5-2.2-5.2-2c-0.8,0.1-1.4,0.5-1.8,0.9
		c0.4-0.5,1-0.8,1.8-0.9C73.9,74,75.6,74.7,77.4,76.2z M69.7,77.3c0,0.2,0,0.3,0,0.5c0-0.3,0-0.8,0-1.1
		C69.7,76.9,69.7,77.1,69.7,77.3z M146,40.5c-0.3-0.8-0.6-1.5-0.9-2.2c-0.6-1.4-1-2.3-1.2-2.6l-0.1-0.2
		c-3.1-6.4-13.1-22.2-38.8-30.8C76-5,49,3.1,40.6,12.7c-7.9,9.1-9.2,17.6-3.6,24c0.3,0.3,0.6,0.6,0.9,0.9c7,6.7,18.9,2.8,19.5,2.6
		c0.3-0.1,27.7-12.8,44.8,4.9c3.8,4,5.6,9.2,4.8,13.9c-1.2,6.6-5.6,14-29.2,13.1c-2.5-0.1-4.9,0-7.1,0.3c-0.8,0.1-1.5,0.2-2.2,0.4
		c-6.2,1.3-11.4,4.4-15.5,9.1c-0.1,0.1-0.1,0.2-0.2,0.3c-10.1,11.8-10.1,29.6-10.1,31c-0.1,0.5-0.5,3.7,0.3,7.3
		c1.1,5.1,4.2,8.6,9,10c2.2,0.6,4.3,1,6.4,1c1.8,0,3.4-0.2,5.1-0.7c0.2-0.1,0.5-0.1,0.8-0.2c0.1,0,0.3-0.1,0.4-0.1
		c0.1,0,0.2-0.1,0.4-0.1c3.7-1.4,6.1-3.6,7.1-4.5c2.5-2.4,9.4-10.3,11.2-19.1c0,0,0,0,0,0c0-0.2,0.1-0.3,0.1-0.5c0,0,0-0.1,0-0.2
		c0.1-0.2,0.1-0.5,0.2-0.7c0,0,0,0,0,0c0.3-1.8,0.5-3.7-0.5-4.7c-0.1-0.1-0.2-0.2-0.3-0.2c-0.1-0.1-0.2-0.2-0.3-0.2
		c-0.4-0.2-1.1-0.4-1.9-0.6c-1.3-0.4-3.3-0.9-4.2-1.6c-0.1,0-0.1-0.1-0.2-0.2c0,0,0-0.1-0.1-0.1c0,0,0,0,0,0c-0.6-0.7-1-1.5-1.2-2.4
		c0-0.3-0.2-2.1-0.7-3.8c1-0.4,2.8-1.2,3.8-2.9c1,0.1,3.7,0.5,6.8,2c0.2,0.1,0.3,0.2,0.5,0.2l0,0c0,0,0,0,0,0c0,0,0.1,0,0.1,0.1
		c0.2,0.1,0.3,0.2,0.5,0.3c0.8,0.5,1.4,0.9,1.9,1.4c0.1,0.1,0.2,0.3,0.3,0.4c0.2,0.3,0.3,0.6,0.3,0.8v0c0,0,0,0,0,0c0,0,0,0.1,0,0.1
		c0,0,0,0.1,0,0.1c0,0,0,0.1,0,0.1c0,0,0,0.1,0,0.1c0,0.2,0.2,0.3,0.3,0.4c0,0,0.2,0.1,0.5,0.2c0.7,0.2,2,0.7,4.3,1.2h0
		c0.2,0,0.5,0.1,0.7,0.2c0,0,0,0,0,0c0,0,0,0,0,0h0c0,0,0,0,0.1,0c0.1,0,0.3,0.1,0.5,0.1c2.2,0.5,10.5,2.3,19.3,5.2
		c0.2,0,0.4,0,0.5,0c0.2-0.1,0.4-0.2,0.6-0.3c0.3-0.1,0.6-0.3,0.9-0.4c0,0,0,0,0,0c3.4-1.7,6.5-3.3,9.3-4.9
		C145,84.7,153.4,61.2,146,40.5z M71.1,76.8c0-0.1,0-0.2,0.1-0.2c0-0.1,0.1-0.3,0.2-0.4c0-0.1,0.1-0.1,0.1-0.2
		c0.2-0.2,0.5-0.4,1-0.5c1-0.1,2.1,0.2,3.3,1.1c0.2,0.1,0.3,0.2,0.4,0.3c0,0,0,0,0,0c0.2,0.2,0.4,0.4,0.6,0.6
		c0.1,0.1,0.2,0.2,0.3,0.3c0.1,0.1,0.2,0.2,0.3,0.3s0.2,0.2,0.3,0.4c0,0,0,0,0,0c0.3,0.3,0.5,0.6,0.8,1c0,0,0,0,0,0
		c0.1,0.2,0.3,0.3,0.4,0.5c0.1,0.2,0.2,0.3,0.3,0.5c0.1,0.1,0.2,0.3,0.3,0.5c0.2,0.3,0.5,0.7,0.7,1c0.2,0.4,0.5,0.7,0.7,1.1
		c0,0,0,0,0,0.1c0.1,0.2,0.2,0.4,0.3,0.6c0.1,0.2,0.2,0.3,0.3,0.5c0,0.1,0.1,0.2,0.2,0.3l0.1,0.1l0,0.1c0,0.1,0.1,0.2,0.1,0.2
		c0,0,0,0.1,0.1,0.1c0.6,1.2,1.1,2.3,1.5,3.2l0,0.1c0,0,0,0.1,0,0.1c-3.1-1.2-5.5-1.5-6.1-1.5c-0.8-0.5-1.7-1.2-2.5-1.9
		c-0.5-0.5-0.9-1-1.3-1.5c-1.1-1.4-2-3-2.5-4.4C71.1,78.2,71,77.5,71.1,76.8z M89.3,92c-0.1-0.1-0.3-0.3-0.4-0.5
		c-0.5-0.5-2.4-1.8-2.5-1.9c-0.2-0.1-0.4-0.2-0.7-0.4c0-0.1-0.2-0.5-0.3-0.8c0,0,0-0.1-0.1-0.2c0,0,0-0.1-0.1-0.1
		c-0.2-0.3-0.3-0.6-0.3-0.6c0-0.1-0.1-0.2-0.2-0.4c0,0,0,0,0,0c-0.1-0.1-0.1-0.3-0.2-0.4c0-0.1-0.1-0.2-0.1-0.2
		c-0.2-0.5-0.5-1.1-0.8-1.7c0,0,0-0.1-0.1-0.2c-0.2-0.4-0.5-1.1-0.6-1.1c-0.8-1.4-1.6-2.7-2.4-3.8c0.3-0.2,0.6-0.3,0.9-0.5
		c0.3-0.1,0.6-0.2,0.8-0.3c1.7-0.6,3.2-0.6,4.4-0.2c0.5,0.1,1,0.3,1.4,0.6c0.4,0.2,0.8,0.5,1.1,0.7c4,3,6,9.3,4.8,14.5
		c0,0.1,0,0.1,0,0.2c-2.3-0.5-3.6-0.9-4.2-1.2C89.9,93.1,89.7,92.6,89.3,92z M114.5,100.2c-8.6-2.8-16.6-4.6-19-5.2
		c1.4-5.7-0.9-12.8-5.3-16.1c-0.2-0.1-0.4-0.3-0.6-0.4c-0.6-0.4-1.3-0.7-1.9-0.9c-0.9-0.3-1.8-0.5-2.7-0.5c-0.2,0-0.4,0-0.6,0
		c-0.2,0-0.4,0-0.5,0.1c-0.2,0-0.4,0.1-0.6,0.1c0,0-0.1,0-0.1,0c-0.2,0-0.4,0.1-0.6,0.2c-0.2,0.1-0.4,0.1-0.6,0.2
		c-0.2,0.1-0.4,0.2-0.6,0.3c-0.2,0.1-0.4,0.2-0.7,0.3c-0.2,0.1-0.4,0.2-0.6,0.4c-0.4-0.6-0.9-1.1-1.3-1.5c-0.4-0.4-0.7-0.7-1.1-1
		c-1.8-1.5-3.5-2.2-5.2-2c-0.8,0.1-1.4,0.5-1.8,0.9c-0.3,0.3-0.5,0.6-0.6,1c0,0.1-0.1,0.3-0.1,0.5c0,0,0,0.1,0,0.1
		c0,0.2,0,0.4,0,0.6c0,0.2,0,0.3,0,0.5c0,0,0,0.1,0,0.1c0,0.2,0.1,0.5,0.1,0.7c0,0.2,0.1,0.5,0.2,0.7c0.1,0.5,0.3,1,0.5,1.5
		c0.2,0.5,0.5,1,0.8,1.5c0.4,0.8,0.9,1.5,1.5,2.2c0.1,0.2,0.3,0.3,0.4,0.5c0.3,0.3,0.6,0.7,0.9,1c0.4,0.4,0.8,0.8,1.2,1.1
		c0.4,0.3,0.8,0.6,1.2,0.9c0,0,0,0,0.1,0l0,0v0c-1.2,1.7-3.5,2.3-3.5,2.3c-0.2,0-0.4,0.2-0.5,0.4c-0.1,0.2-0.1,0.4,0,0.6
		c0.7,1.7,0.8,4.2,0.8,4.2c0.2,0.9,0.5,1.7,1,2.4c0,0,0.1,0.1,0.1,0.2c0.2,0.2,0.4,0.6,0.7,0.8c0.1,0,0.1,0.1,0.1,0.1
		c0,0,0.1,0.1,0.2,0.1c0.1,0,0.1,0.1,0.2,0.1c0,0,0,0,0,0c0,0,0,0,0.1,0c0.1,0.1,0.2,0.1,0.2,0.1c1.2,0.7,2.7,1.1,4.1,1.5
		c0.7,0.2,1.3,0.4,1.6,0.5c0,0,0.1,0.1,0.1,0.1c0.3,0.3,0.7,1.3,0,4.1c0,0-0.1,0.4-0.1,0.5c-2,10.1-10.8,18.6-10.9,18.7
		c-0.9,0.8-3.2,3-6.9,4.3c-0.1,0-0.1,0-0.2,0.1c-3.6,1.2-7.5,1.2-11.6,0c-10.2-3-8.3-15.8-8.3-15.8c0-0.2-0.1-18.7,10-30.4
		c3.9-4.5,8.9-7.4,14.8-8.7c2.3-0.5,4.7-0.7,7.3-0.7c0.5,0,1.1,0,1.6,0c19.3,0.8,28.7-3.6,30.6-14.2c0.9-5.1-1-10.8-5.1-15.1
		C85.4,25.7,57,38.8,56.8,38.9c-0.1,0-11.3,3.7-17.8-2.1c-0.3-0.3-0.7-0.6-1-1c-6.4-7.4-1.6-16.1,3.7-22.1
		C49.8,4.3,76.1-3.5,104.6,6c25.2,8.4,34.9,23.8,37.9,30.1l0.1,0.2c0.1,0.3,0.6,1.1,1.1,2.5c0,0,0,0,0,0.1c2.3,5.5,3.4,11.3,3.4,17
		c0,15.5-8.1,30.6-22.3,38.8C121.9,96.5,118.4,98.4,114.5,100.2z M69.7,76.7c0,0.2,0,0.4,0,0.6c0,0.2,0,0.3,0,0.5
		C69.7,77.5,69.7,77,69.7,76.7z M72.2,74.2c-0.8,0.1-1.4,0.5-1.8,0.9C70.9,74.7,71.5,74.3,72.2,74.2c1.6-0.2,3.4,0.5,5.2,2
		C75.6,74.6,73.9,74,72.2,74.2z M82.1,100.7c-1.3-0.6-5.4-1.2-6.6-2.6c-0.6-0.7-1.1-1.6-1.3-2.8c0,0-0.1-2.5-0.9-4.3c0,0,0,0,0,0
		c0,0,0.1,0,0.1,0c0.2-0.1,0.5-0.2,0.9-0.3c0.2-0.1,0.4-0.2,0.6-0.3c0.1,0,0.2-0.1,0.3-0.2c0.3-0.2,0.5-0.4,0.8-0.6
		c0.2-0.2,0.4-0.4,0.6-0.6c0.2-0.2,0.4-0.5,0.5-0.7c-0.2-0.1-0.5-0.2-0.6-0.3v0c-1.2,1.7-3.5,2.3-3.5,2.3c-0.2,0-0.4,0.2-0.5,0.4
		c-0.1,0.2-0.1,0.4,0,0.6c0.7,1.7,0.8,4.2,0.8,4.2c0.2,0.9,0.5,1.7,1,2.4c0,0,0.1,0.1,0.1,0.2c0.2,0.2,0.4,0.6,0.7,0.8
		c0.1,0,0.1,0.1,0.1,0.1c0,0,0.1,0.1,0.2,0.1c0.1,0,0.1,0.1,0.2,0.1c0,0,0,0,0,0c0,0,0,0,0.1,0c0.1,0.1,0.2,0.1,0.2,0.1
		c1.2,0.7,2.7,1.1,4.1,1.5c0.7,0.2,1.3,0.4,1.6,0.5c0,0,0.1,0.1,0.1,0.1c0.3,0.3,0.7,1.3,0,4.1c0.1-0.2,0.4-0.4,0.7-0.3
		c0,0,0.1,0,0.1,0C83.1,103.6,83.4,101.3,82.1,100.7z"/>
</g>
<path class="st2" d="M67.5,153c0,6.8-3.4,12.9-8.5,16.5c-3.3,2.4-7.4,3.8-11.8,3.8c-11.2,0-20.3-9.1-20.3-20.3
	c0-11.2,9.1-20.3,20.3-20.3c6.5,0,12.2,3,16,7.7c2,2.6,3.4,5.6,4.1,8.9C67.4,150.5,67.5,151.7,67.5,153z"/>
<g>
	<path class="st1" d="M71.2,68.4c-0.9-2.7-4.7-5.2-11-4.8c-2.1,0.2-3.8,1-5.1,2.6c-3.8,4.7-2.7,14.3-2.4,16c0,0.1,0,0.2,0,0.2
		c0,0.2,0.1,0.4,0.3,0.5c0.1,0,0.1,0.1,0.2,0.1c0.1,0,0.1,0,0.2,0c0.2,0,0.4-0.1,0.5-0.2c3.9-4.5,8.8-7.4,14.8-8.7
		c0.1,0,0.2-0.1,0.2-0.1c0.3-0.2,0.7-0.5,1-0.8c0.3-0.3,0.5-0.5,0.7-0.8C71.5,71.2,71.7,69.8,71.2,68.4z M56.2,67.1
		c1-1.3,2.4-2,4.1-2.1c0.4,0,0.8,0,1.2,0c4.8,0,7.7,2,8.3,3.9c0.5,1.4-0.1,2.8-1.6,3.9c-5.6,1.2-10.4,3.9-14.3,8
		C53.7,77.6,53.4,70.6,56.2,67.1z"/>
</g>
<g>
	<path class="st2" d="M134.5,171L134.5,171c0-0.3-0.1-0.6-0.1-0.9c-4.6,4.3-10.5,8-18.2,9.9c-6.6,1.7-7.7-1.7-2.4-4.7
		c2.6-1.4,5.4-2.8,8.3-5.7c4.6-4.7,8-11.2,8.4-19c0.2-3.5-1.2-8.2-2.3-10.7c-0.1-0.2-0.2-0.5-0.3-0.7c-0.2,0.2-0.3,0.3-0.5,0.5
		c0,0,0,0,0,0c0,0,0,0,0,0c-0.7,0.7-1.3,1.4-2,2.1c-0.4,0.4-0.8,0.7-1.1,1c0,0,0,0-0.1,0c-0.1,0.1-0.3,0.3-0.4,0.4
		c-0.1,0.1-0.2,0.1-0.2,0.2c-0.3,0.3-0.6,0.5-0.9,0.8c0,0,0,0,0,0c-0.5,0.4-1,0.8-1.4,1.1h0c-0.5,0.4-1,0.7-1.5,1.1
		c-0.5,0.4-1,0.7-1.5,1c-0.5,0.3-1,0.6-1.6,1h0c-0.4,0.2-0.8,0.4-1.2,0.6c-0.8,0.4-1.6,0.9-2.5,1.3c-0.9,0.4-1.8,0.8-2.7,1.2
		c-0.9,0.4-1.9,0.7-2.9,1.1c-1,0.3-2,0.6-3.1,0.9c-1.1,0.3-2.2,0.5-3.3,0.7c-0.5,0.1-1,0.2-1.5,0.2c0,0-0.1,0-0.1,0
		c-0.2,0-0.4,0.1-0.6,0.1c-0.4,0.1-0.9,0.1-1.3,0.2c-0.6,0.1-1.2,0.1-1.8,0.2c-0.1,0-0.2,0-0.4,0c-0.2,0-0.5,0-0.8,0
		c-0.2,0-0.3,0-0.5,0c-0.2,0-0.4,0-0.6,0c-0.1,0-0.2,0-0.4,0c-0.3,0-0.5,0-0.8,0c-0.1,0-0.2,0-0.4,0c-0.5,0-0.9,0-1.4,0
		c-0.4,0-0.8,0-1.1-0.1c-0.1,0-0.2,0-0.3,0c-0.1,0-0.2,0-0.2,0c-0.3,0-0.5,0-0.8-0.1c-0.6-0.1-1.2-0.1-1.8-0.2c-0.5,0-1-0.1-1.4-0.2
		c-0.3,0-0.6-0.1-0.9-0.1c-0.2,0-0.4-0.1-0.6-0.1c-0.1,0-0.2,0-0.4-0.1c-0.3,0-0.6-0.1-1-0.2l-0.1,0c-0.5-0.1-1-0.2-1.6-0.3
		c-0.5-0.1-1-0.2-1.6-0.4c-0.5-0.1-1-0.3-1.6-0.4c-0.5-0.1-1.1-0.3-1.6-0.5h0c-1.1-0.3-2.2-0.7-3.2-1.1c-0.5-0.2-1.1-0.4-1.7-0.6
		c-0.5-0.2-1.1-0.4-1.6-0.7c-0.3-0.1-0.6-0.3-1-0.4l0,0c-0.2-0.1-0.4-0.2-0.7-0.3c0,0-0.1,0-0.1,0c0,0,0,0,0,0
		c0.1,0.3,0.1,0.5,0.1,0.8c0,0.1,0,0.2,0,0.2c0.1,0.5,0.1,1.1,0.1,1.6c0,0.3,0,0.7,0,1c0,0.3,0,0.7,0,1c0,0.1,0,0.1,0,0.2
		c0,0.1,0,0.2,0,0.2c0,0.2,0,0.5-0.1,0.7c0,0.1,0,0.2,0,0.3c0,0.2,0,0.4-0.1,0.6c0,0.1,0,0.3-0.1,0.4c0,0,0,0.1,0,0.1
		c0,0.1,0,0.3-0.1,0.4c0,0.3-0.1,0.5-0.2,0.8c0,0.2-0.1,0.3-0.1,0.5c0,0.2-0.1,0.4-0.2,0.7c0,0.1-0.1,0.2-0.1,0.3
		c-0.1,0.3-0.2,0.7-0.3,1c-0.1,0.3-0.3,0.7-0.4,1c-0.1,0.3-0.3,0.6-0.4,0.9c0,0.1-0.1,0.2-0.1,0.2c0,0.1-0.1,0.1-0.1,0.2
		c-0.1,0.2-0.2,0.3-0.3,0.5c-0.2,0.3-0.3,0.6-0.5,0.9c0,0,0,0,0,0c0,0,0,0.1-0.1,0.1c-0.2,0.3-0.3,0.5-0.5,0.8
		c-0.4,0.6-0.8,1.1-1.3,1.6c-0.3,0.3-0.5,0.6-0.8,0.9c-0.2,0.2-0.4,0.4-0.6,0.6c-0.1,0.1-0.2,0.2-0.3,0.3c-0.1,0.1-0.2,0.2-0.3,0.3
		c-0.2,0.2-0.5,0.4-0.7,0.6c-0.2,0.2-0.5,0.4-0.7,0.5c0,0-0.1,0.4-0.2,1c-0.8,3.5-3.1,15.1-1.8,24.2h0c0.2,0.1,0.5,0.2,0.8,0.3
		c10,3.9,20.9,6,32.3,6c14.9,0,29-3.6,41.3-10c0.3-0.1,0.5-0.3,0.8-0.4C133.5,183.7,134.9,175.6,134.5,171z"/>
	<path class="st1" d="M146.3,123.8c-2.9-6.4-6.9-11.4-11.6-14.6c-4.2-2.9-10.4-5.7-18.2-8.4c0,0,0,0,0,0c-0.3-0.1-0.6-0.2-1-0.3
		c-0.2-0.1-0.4-0.1-0.6-0.2c-8.7-2.9-16.9-4.7-19.3-5.3c0,0,0,0,0,0C95.2,95,95,95,94.9,95c0,0,0,0,0,0c0,0-0.1,0-0.1,0c0,0,0,0,0,0
		h0c-0.4-0.1-0.7,0.1-0.8,0.5v0c0,0,0,0,0,0c-0.1,0.2-0.1,0.5-0.2,0.7c-2.5,7.3-7.7,9-10.2,9.1c-0.3,0-0.5,0-0.7,0c0,0-0.1,0-0.1,0
		c-0.3,0-0.6,0.1-0.7,0.3c0,0,0,0,0,0c0,0.1-0.1,0.1-0.1,0.2c0,0,0,0.1,0,0.1c-1.6,8.5-8.4,16.4-11,18.8c-0.9,0.8-3.2,3-6.9,4.3
		c-0.1,0-0.1,0-0.2,0.1c-0.1,0.1-0.3,0.3-0.3,0.5c0,0,0,0.2-0.1,0.4c0,0.2-0.1,0.5-0.1,0.8c-0.3,1.7-0.8,4.9-0.9,7.9
		c-4-4.2-9.4-6.6-15.3-6.6c-11.6,0-21,9.4-21,21c0,11.6,9.4,21,21,21c3.8,0,7.5-1,10.7-3c-0.9,4.1-2.9,14.7-1.7,23.4
		c0.2,0.1,0.5,0.2,0.8,0.3h0c0.2,0.1,0.5,0.2,0.8,0.3c-1.6-9.7,1.3-22.8,1.8-25c0-0.1,0.1-0.1,0.1-0.2c0.1-0.1,0.2-0.2,0.3-0.3
		c0.2-0.1,0.3-0.2,0.5-0.4c0.1-0.1,0.2-0.1,0.3-0.2c0.2-0.2,0.4-0.4,0.7-0.6c0.1-0.1,0.2-0.1,0.2-0.2c0.2-0.2,0.4-0.4,0.6-0.6
		c0.1-0.1,0.1-0.1,0.2-0.2c0.2-0.2,0.5-0.5,0.7-0.7c0.3-0.3,0.5-0.6,0.7-0.9c0-0.1,0.1-0.1,0.1-0.2c0.2-0.3,0.4-0.6,0.6-0.9
		c0.2-0.3,0.4-0.7,0.7-1c0.2-0.4,0.4-0.7,0.6-1.1c0.2-0.4,0.4-0.7,0.5-1.1c0.2-0.4,0.3-0.8,0.5-1.1s0.3-0.8,0.4-1.2
		c0.2-0.8,0.4-1.5,0.6-2.3l0-0.2c0.1-0.4,0.1-0.7,0.2-1.1c0.1-0.8,0.2-1.6,0.2-2.5c0-0.2,0-0.3,0-0.4c0-0.3,0-0.6,0-0.8
		c0-0.2,0-0.3,0-0.5c0-0.1,0-0.3,0-0.5c0-0.1,0-0.2,0-0.2c0,0,0,0,0,0c0,0,0.1,0,0.1,0c1.2,0.6,13.8,7,29.4,5
		c1.2-0.1,2.4-0.3,3.5-0.5c1.7-0.3,3.4-0.7,4.9-1.2c0.5-0.2,1-0.3,1.5-0.5c0.1,0,0.2-0.1,0.3-0.1c0.4-0.1,0.8-0.3,1.2-0.4
		c12.1-4.4,18.2-11.7,18.7-12.3c0,0,0,0,0,0c0.2,0.5,0.4,1,0.5,1.3c1.3,3.8,1.7,8.5,1.7,8.9v0c-0.4,7-3.3,13.6-8.2,18.6
		c-0.1,0.1-0.2,0.2-0.3,0.2c-1.3,1.2-5,3.7-6.5,4.6c0,0,0,0,0,0c-0.2,0.1-0.3,0.2-0.4,0.2c0,0,0,0,0,0c0,0-0.1,0.1-0.2,0.1
		c-0.1,0-0.1,0.1-0.2,0.1c-0.2,0.1-0.5,0.3-0.7,0.4c-0.1,0-0.1,0.1-0.2,0.1c-0.5,0.3-1,0.6-1.1,0.7c-0.3,0.3-1.4,1.3-1.6,1.6
		c-0.1,0.2-0.3,0.5-0.4,0.8c0,0.1-0.1,0.1-0.1,0.2c0,0,0,0,0,0.1c0,0.1,0,0.1,0,0.2c-0.5,1.8,1.3,2.3,2,2.4c0,0,0.1,0,0.1,0
		c0,0,0,0,0.1,0c0,0,0.1,0,0.1,0c1.4,0.2,3-0.1,3.2-0.1c0.2,0,1.2-0.3,1.2-0.3c0.5-0.1,1.1-0.3,1.9-0.5c0.1,0,0.2,0,0.2-0.1
		c0.5-0.2,1-0.3,1.3-0.4c0.8-0.2,1.8-0.6,2.8-1.1c0.1,0,0.2-0.1,0.3-0.1c0.2-0.1,0.4-0.2,0.5-0.2c0.4-0.2,2.2-1.1,2.2-1.1
		c0.2-0.1,0.5-0.3,0.9-0.5c0.1-0.1,0.2-0.1,0.2-0.1c0.1,0,0.1-0.1,0.2-0.1c0.2-0.1,0.4-0.2,0.6-0.3c0,0,0.1,0,0.1-0.1
		c0.1,0,0.1-0.1,0.2-0.1c0.1-0.1,0.2-0.1,0.3-0.2c0.2-0.1,0.4-0.2,0.6-0.4c1-0.7,2.4-1.6,3.1-2.2c0.2-0.2,0.7-0.6,1.2-1
		c0,0,0.1,0,0.1-0.1c0.3-0.2,0.5-0.4,0.6-0.5c0.3,4.7-1.1,12.7-2.5,19.4c0.3-0.1,0.5-0.3,0.8-0.4c0.3-0.1,0.5-0.3,0.8-0.4
		c1.4-7.1,2.7-15.2,2.2-19.7c2.7-2.6,5-5.4,7-8.3c2.1-3,3.9-6,5.7-9C151.8,146.3,151.1,134.5,146.3,123.8z M65.9,158.8
		c-0.3,1.1-0.8,2.2-1.3,3.2c-0.9,1.7-2,3.3-3.4,4.7c-0.3,0.3-0.5,0.6-0.8,0.8c-0.6,0.5-1.2,1-1.8,1.5c-3.3,2.4-7.3,3.7-11.4,3.7
		c-10.8,0-19.6-8.8-19.6-19.6c0-10.8,8.8-19.6,19.6-19.6c6,0,11.5,2.6,15.3,7.3v0c0,0.1,0.1,0.1,0.1,0.2c2,2.5,3.3,5.5,3.9,8.6
		c0.1,0.2,0.1,0.5,0.1,0.8c0,0.3,0.1,0.6,0.1,0.9c0.1,0.6,0.1,1.2,0.1,1.9C66.8,155,66.5,156.9,65.9,158.8z M107,152
		c-0.5,0.2-1,0.3-1.5,0.5c-0.8,0.2-1.5,0.4-2.3,0.6c-0.8,0.2-1.6,0.4-2.4,0.5c-3.2,0.6-6.8,0.9-10.5,0.8c-0.4,0-0.7,0-1.1,0
		c-0.4,0-0.9,0-1.3-0.1c-1.2-0.1-2.4-0.2-3.6-0.4c-1.2-0.2-2.5-0.4-3.7-0.7c-0.5-0.1-1-0.2-1.5-0.4c-1-0.3-2-0.5-3.1-0.9
		c-0.1,0-0.2,0-0.2-0.1c-0.9-0.3-1.8-0.6-2.8-1c-1.1-0.4-2.3-0.9-3.4-1.4c-0.4-0.2-0.8-0.3-1.2-0.5c-0.1-0.1-0.3-0.1-0.4-0.2
		c0,0,0,0,0,0c-0.6-3.2-2-6.2-4-8.8c0-3.6,0.8-8.5,1.1-9.9v0c3.7-1.4,6.1-3.6,7.1-4.5c0.1-0.1,9-8.6,11.2-19.1c0,0,0,0,0,0
		c2.1-0.1,8.8-1,11.9-10.2c2.3,0.5,10.5,2.4,19.3,5.2c8.5,2.8,15.1,5.7,19.5,8.7c4.2,2.8,8,7.5,10.7,13.2c-0.1,0-0.1,0-0.2,0
		c-0.1,0-0.3,0.1-0.5,0.1c-0.1,0-0.3,0.1-0.3,0.1c0,0-0.1,0-0.1,0c-0.2,0.1-0.4,0.1-0.6,0.2c-0.6,0.2-1.2,0.5-1.8,0.8
		c-2.5,1.3-4.8,3.2-6.8,5.3l-0.1,0.1c0,0-0.1,0.1-0.1,0.1c-0.4,0.4-0.7,0.8-1,1.1c0,0.1-0.1,0.1-0.2,0.2c-0.3,0.3-0.5,0.6-0.8,0.9
		c-0.7,0.9-1.4,1.7-1.9,2.5c-0.2,0.2-0.3,0.5-0.5,0.7c-0.9,1.1-1.7,2.1-2.1,2.6c-0.1,0.1-0.1,0.1-0.2,0.2c0,0,0,0.1-0.1,0.1
		c0,0,0,0-0.1,0c-3.3,3.7-7.1,6.8-11.2,9.2c-1.5,0.9-3.2,1.7-4.9,2.5c-0.7,0.3-1.3,0.6-2,0.8C108.5,151.5,107.7,151.8,107,152z
		 M146.6,152.4c-3.4,5.9-7.2,12-12.7,17.2c-2.2,2.1-4.6,3.9-7.2,5.4c-0.8,0.5-1.7,0.9-2.5,1.4c0,0,0,0,0,0c-0.9,0.4-1.7,0.8-2.6,1.2
		c-1.8,0.7-3.6,1.3-5.6,1.8c-0.6,0.2-1.2,0.3-1.7,0.3c-0.8,0.1-1.5,0.1-1.9,0.1c-0.3,0-0.5-0.1-0.7-0.2c-0.2-0.1-0.3-0.2-0.4-0.3
		c0,0,0-0.1-0.1-0.1c0-0.1,0-0.3,0-0.6c0,0,0,0,0,0c0-0.1,0.1-0.2,0.2-0.3v0c0.1-0.2,0.3-0.5,0.6-0.7c0.3-0.3,0.6-0.6,1-0.9
		c0.3-0.2,0.7-0.5,1.1-0.7l0.9-0.5c0.3-0.2,0.7-0.4,1-0.6c0.4-0.2,0.8-0.5,1.2-0.7c1.3-0.7,2.6-1.6,3.9-2.8c0.3-0.3,0.6-0.5,0.9-0.8
		c0.2-0.2,0.3-0.3,0.5-0.5c1-1,1.9-2,2.7-3.1c0.5-0.7,1.1-1.5,1.5-2.2c2.6-4.2,4.2-9.1,4.5-14.1c0-0.5,0-1,0-1.5c0-0.2,0-0.5,0-0.7
		c-0.1-1-0.2-1.9-0.5-2.9c-0.2-0.7-0.3-1.5-0.5-2.2c0-0.1-0.1-0.2-0.1-0.3c-0.2-0.5-0.3-1-0.5-1.4c-0.1-0.5-0.3-0.9-0.5-1.3
		c-0.2-0.4-0.3-0.8-0.5-1.1c0,0,0,0,0-0.1c0.2-0.2,0.3-0.4,0.5-0.6c0.2-0.3,0.5-0.6,0.7-0.9c0.5-0.6,1-1.3,1.5-2
		c0.3-0.5,0.7-1,1.1-1.5c0.2-0.3,0.4-0.5,0.6-0.8c0.7-0.8,1.4-1.7,2.2-2.5c0.3-0.3,0.6-0.6,0.8-0.8c0.3-0.3,0.6-0.6,0.9-0.8
		c0.2-0.1,0.3-0.3,0.5-0.4c0.1-0.1,0.3-0.3,0.5-0.4c0.1-0.1,0.3-0.3,0.5-0.4c0.2-0.1,0.3-0.2,0.5-0.4c0.2-0.1,0.4-0.3,0.6-0.4
		c0.1-0.1,0.3-0.2,0.4-0.3c0.2-0.1,0.3-0.2,0.5-0.3c0.5-0.3,1-0.6,1.5-0.9c0.2-0.1,0.4-0.2,0.5-0.2c0.1-0.1,0.3-0.1,0.4-0.2
		c0.2-0.1,0.4-0.1,0.5-0.2c0.6-0.2,1.2-0.4,1.7-0.5c2.5,5.6,3.8,11.6,3.8,16.9C149,145.9,148.2,149.7,146.6,152.4z"/>
</g>
</svg>
