<?xml version="1.0" encoding="utf-8"?>
<!-- Generator: Adobe Illustrator 23.0.3, SVG Export Plug-In . SVG Version: 6.00 Build 0)  -->
<svg version="1.1" id="Слой_1" xmlns="http://www.w3.org/2000/svg" xmlns:xlink="http://www.w3.org/1999/xlink" x="0px" y="0px"
	 viewBox="0 0 180 211" style="enable-background:new 0 0 180 211;" xml:space="preserve">
<style type="text/css">
	.st0{fill:#F8CA06;}
	.st1{fill:#FFFFFF;}
	.st2{fill:#181C19;}
</style>
<g>
	<circle class="st0" cx="90" cy="105" r="90"/>
</g>
<g>
	<path class="st1" d="M73.2,40.3H64c-2.5,0-4.6-2.1-4.6-4.6V8.1c0-2.5,2.1-4.6,4.6-4.6h9.2c2.5,0,4.6,2.1,4.6,4.6v27.6
		C77.8,38.2,75.8,40.3,73.2,40.3z"/>
	<path class="st2" d="M73.2,41H64c-2.9,0-5.3-2.4-5.3-5.3V8.1c0-2.9,2.4-5.3,5.3-5.3h9.2c2.9,0,5.3,2.4,5.3,5.3v27.6
		C78.5,38.6,76.1,41,73.2,41z M64,4.2c-2.2,0-3.9,1.8-3.9,3.9v27.6c0,2.2,1.8,3.9,3.9,3.9h9.2c2.2,0,3.9-1.8,3.9-3.9V8.1
		c0-2.2-1.8-3.9-3.9-3.9H64z"/>
</g>
<path class="st2" d="M71.6,6.2h-5.9c-0.8,0-1.4-0.6-1.4-1.4V3.5h8.7v1.3C72.9,5.5,72.3,6.2,71.6,6.2z"/>
<g>
	<path class="st2" d="M103.7,72.9c-1.4,0-3.4-0.8-3.6-1c-0.4-0.2-0.5-0.6-0.4-0.9c0.2-0.4,0.6-0.5,0.9-0.4c0.9,0.4,2.5,0.9,3.2,0.8
		c0.4-0.1,0.7,0.2,0.8,0.6c0.1,0.4-0.2,0.7-0.6,0.8C103.9,72.9,103.8,72.9,103.7,72.9z"/>
</g>
<g>
	<path class="st1" d="M97.3,55.2c16-5.6,15.5,13,11.5,19.2c-5.2-1.2-4.9-2.2-4.9-2.2c0.7-0.1,1-0.7,0-2.4c-0.7-1.1-1.8-2.1-2.9-3
		C101.1,66.9,99.9,60.4,97.3,55.2z"/>
	<path class="st2" d="M108.8,75.1c-0.1,0-0.1,0-0.2,0c-4.6-1.1-5.2-2-5.3-2.3c-0.2-0.3-0.2-0.6-0.1-0.7c0.1-0.3,0.3-0.5,0.6-0.5
		c0,0,0.1,0,0.1,0c0,0,0-0.4-0.6-1.3c-0.6-0.9-1.5-1.8-2.7-2.8c-0.2-0.2-0.3-0.4-0.3-0.7c-0.1-0.8-1.2-6.4-3.6-11.2
		c-0.1-0.2-0.1-0.4,0-0.6c0.1-0.2,0.2-0.3,0.4-0.4c7-2.4,10.5-0.3,12.3,2c3.9,4.9,2.6,14.3,0,18.3C109.3,75,109.1,75.1,108.8,75.1z
		 M105,72.4c0.5,0.3,1.5,0.7,3.5,1.2c2.2-3.9,3.1-12.1-0.2-16.2c-2.1-2.6-5.4-3.2-10-1.8c1.5,3.3,3.2,8.8,3.3,10.8
		c1.2,1,2.2,2,2.8,3c0.7,1.2,0.9,2.1,0.6,2.7C105.1,72.2,105,72.3,105,72.4z"/>
</g>
<g>
	<path class="st2" d="M90.6,48.9c2.7,0.1,5,2.9,6.7,6.4c2.6,5.1,3.9,11.6,3.6,11.6c-3.9-2.8-7.4-3.6-7.4-3.6
		C88.9,59.3,85.5,48.8,90.6,48.9z"/>
	<path class="st2" d="M100.9,67.5c0,0-0.1,0-0.1,0c-0.1,0-0.2-0.1-0.3-0.1c-3.8-2.7-7.1-3.5-7.2-3.5c-0.1,0-0.2-0.1-0.3-0.1
		c-3.8-3.1-6.6-10.2-5.4-13.5c0.5-1.3,1.6-2,3-2c0,0,0,0,0,0c3.3,0.1,5.8,3.7,7.3,6.7c2.2,4.3,4.2,11.5,3.6,12.3
		C101.3,67.4,101.1,67.5,100.9,67.5z M93.8,62.5c0.7,0.2,3.2,1,6.2,2.9c-0.4-2.1-1.5-6.2-3.4-9.8c-1.8-3.8-4-5.9-6-6
		c-0.9,0-1.4,0.3-1.7,1.1C88,53.3,90.6,59.7,93.8,62.5z"/>
</g>
<g>
	<path class="st2" d="M109,91.9c-0.1,0-0.2,0-0.3-0.1l-18.9-8.1l0.3-0.6l-0.3-0.6c0,0,2.7-1.2,3.1-3.1c0.1-0.7,0-1.7-0.7-2.4
		c-0.2-0.2-0.7-0.6-0.9-0.7c0,0-0.1-0.1-0.2-0.2c-0.9-0.6-1.6-1.3-2.1-2.2c-0.6-1-1-2.2-1-3.5c0,0,0-0.1,0-0.1c0,0,0.3-2.5,0-4.4
		c0-0.2,0-0.4,0.1-0.6c0.1-0.2,0.3-0.3,0.5-0.3c0,0,3.1-0.2,4.5-2.2c0.2-0.2,0.4-0.3,0.7-0.3c0.1,0,3.6,0.9,7.7,3.8
		c1.4,1,2.4,2.1,3.1,3.2c0.7,1.2,0.9,2,0.6,2.7c0,0.1-0.1,0.1-0.1,0.2c0.5,0.3,1.7,0.8,4,1.3c0.2,0,0.4,0.2,0.5,0.4
		c0.1,0.2,0.1,0.4,0,0.6c-0.1,0.1-5.8,12.9-0.2,15.8c0.3,0.2,0.5,0.6,0.3,0.9C109.5,91.7,109.2,91.9,109,91.9z M91.6,83l14.6,6.2
		c-2.1-4.4,0.7-11.9,1.7-14.3c-3.9-1-4.4-1.8-4.6-2.1c-0.2-0.3-0.2-0.6-0.1-0.7c0.1-0.3,0.3-0.5,0.6-0.5c0.1,0,0.1,0,0.1,0
		c0,0,0-0.4-0.6-1.3c-0.6-1-1.5-1.9-2.7-2.8c-3-2.2-5.8-3.1-6.8-3.4c-1.4,1.6-3.4,2.1-4.5,2.3c0.2,1.8,0,3.7-0.1,4.1
		c0,1,0.3,2,0.8,2.7c0.4,0.7,1,1.3,1.8,1.8c0,0,0.1,0.1,0.1,0.1c0.5,0.3,1.1,0.8,1.2,0.9c1,0.9,1.4,2.4,1.2,3.7c0,0,0,0,0,0
		C93.9,81.1,92.7,82.3,91.6,83z M93.5,79.4L93.5,79.4L93.5,79.4z M92,75.2C92,75.2,92,75.2,92,75.2C92,75.2,92,75.2,92,75.2z
		 M91.8,75C91.8,75,91.8,75,91.8,75C91.8,75,91.8,75,91.8,75z"/>
</g>
<g>
	<path class="st0" d="M115.1,165.3c-9.5,3.1-22,5.8-38.1,6.9c0,0-21.8-0.2-24.1,6.3c-2.3,6.5-2.1,14-5.6,16.5
		c-3.5,2.5-7.3,3.6-7,6.4c0.3,2.9,2.7,11.4-0.9,7.6c-3.6-3.8-5.9-11.2-5.7-17.8c0.2-6.6,3.1-22.1,7.5-30.5
		c3.5-6.5,10.7-11.1,14.5-13.1c1.1-0.6,1.9-0.9,2.3-1.1c1.8-0.7,30.7-10.9,44.4-13.7C102.5,132.9,116.2,143.5,115.1,165.3z"/>
	<path class="st2" d="M40.8,210.7c-0.7,0-1.3-0.6-1.9-1.2c-3.7-3.8-6.1-11.3-5.9-18.3c0.2-6.1,3-22.1,7.6-30.8
		c3.7-7,11.6-11.7,14.8-13.4c0.9-0.5,1.7-0.8,2.1-1l0.2-0.1c1.8-0.8,30.7-10.9,44.6-13.8c0.2,0,0.4,0,0.6,0.1c0,0,0,0,0,0
		c1.5,1.2,13.8,12.1,12.8,33c0,0.3-0.2,0.5-0.5,0.6c-11.1,3.6-23.9,5.9-38.3,6.9c-6,0-21.7,0.9-23.5,5.8c-0.8,2.4-1.3,4.8-1.8,7.2
		c-0.9,4.2-1.6,7.9-4,9.6c-1,0.7-2.1,1.4-3,1.9c-2.5,1.4-3.8,2.3-3.7,3.9c0.1,0.6,0.2,1.6,0.4,2.6c0.8,4.1,1,6.1-0.1,6.7
		C41.1,210.7,41,210.7,40.8,210.7z M102.3,133.6c-13.9,3-42.2,12.9-44,13.6l-0.1,0.1c-0.4,0.2-1.2,0.5-2.1,1
		c-3.1,1.6-10.7,6.2-14.3,12.8c-4.5,8.5-7.2,24.1-7.4,30.2c-0.2,6.5,2.1,13.7,5.5,17.2c0.3,0.4,0.6,0.5,0.7,0.6
		c0.2-0.9-0.3-3.5-0.6-5c-0.2-1-0.4-2-0.4-2.7c-0.2-2.5,1.9-3.8,4.4-5.2c0.9-0.6,1.9-1.1,2.9-1.8c2-1.4,2.7-4.8,3.5-8.8
		c0.5-2.4,1-5,1.9-7.4c2.4-6.8,22.5-6.8,24.8-6.7c14-1,26.6-3.2,37.4-6.7C115.2,145.7,104.4,135.4,102.3,133.6z M115.1,165.3
		L115.1,165.3L115.1,165.3z"/>
</g>
<g>
	<path class="st0" d="M65.3,67.4c-9.7,8.9-20.8,10-20.8,10c-1.6-5.7-2.8-13.1-3.3-24.4c-1.2-30.3,15-47.8,15-47.8s10.4-11.6,7,3.8
		c-3.5,15.5-11.4,31.3,1.3,56.7C64.7,66.3,65,66.8,65.3,67.4z"/>
	<path class="st2" d="M44.5,78.1c-0.3,0-0.6-0.2-0.7-0.5C42,71.1,40.9,63.3,40.5,53c-0.6-15.8,3.5-28.1,7.1-35.6
		c3.9-8.1,7.9-12.5,8.1-12.7c0.8-0.9,5.1-5.4,7.5-4.2c1.6,0.8,1.8,3.6,0.7,8.6c-0.5,2.4-1.2,4.8-1.9,7.4c-3.5,13-7.4,27.7,3.2,48.9
		c0.3,0.6,0.5,1.1,0.8,1.6c0.1,0.3,0.1,0.6-0.1,0.8C56,76.9,45,78,44.5,78.1C44.5,78.1,44.5,78.1,44.5,78.1z M62.1,1.7
		c-1.3,0-3.9,2.2-5.5,4c-0.2,0.2-16,17.6-14.8,47.3c0.4,9.9,1.4,17.5,3.1,23.7c2.3-0.4,11.4-2.2,19.4-9.4c-0.2-0.4-0.4-0.8-0.6-1.2
		C53,44.4,57,29.4,60.6,16.2c0.7-2.5,1.3-4.9,1.9-7.3c1.3-5.9,0.4-6.9,0.1-7.1C62.4,1.7,62.3,1.7,62.1,1.7z"/>
</g>
<g>
	<path class="st2" d="M141,151.4c0,0-7.1,7.7-26,13.9c1.1-21.8-12.5-32.4-12.5-32.4c-13.8,2.9-42.7,13-44.4,13.7
		c-0.4,0.2-1.2,0.5-2.3,1.1c0,0,5.6-24.7-0.7-43.7c-3.9-11.9-7.9-17-10.6-26.6c0,0,11.1-1.1,20.8-10C77.7,90.8,90,83.1,90,83.1
		l18.9,8.1c0,0,37.9,10.9,41.5,29.5C154.1,139.3,141,151.4,141,151.4z"/>
	<path class="st2" d="M115.1,166c-0.2,0-0.3,0-0.4-0.1c-0.2-0.1-0.3-0.4-0.3-0.6c0.6-11-2.8-19.1-5.7-23.9c-2.7-4.4-5.5-7-6.3-7.7
		c-13.9,2.9-42.4,12.9-44,13.6c-0.4,0.2-1.1,0.5-2.2,1.1c-0.2,0.1-0.5,0.1-0.8-0.1c-0.2-0.2-0.3-0.4-0.3-0.7
		c0.1-0.2,5.5-24.8-0.7-43.3c-1.9-5.8-3.8-9.9-5.6-13.8c-1.9-4.1-3.6-7.9-5-12.9c-0.1-0.2,0-0.4,0.1-0.6c0.1-0.2,0.3-0.3,0.5-0.3
		c0.1,0,11-1.2,20.4-9.8c0.2-0.1,0.4-0.2,0.6-0.2c0.2,0,0.4,0.2,0.5,0.4c4.8,9.1,10.3,14.7,16,16.2c4.6,1.2,7.7-0.7,7.8-0.7
		c0.2-0.1,0.4-0.1,0.6-0.1l18.9,8.1l0,0c0,0,9.6,2.8,19.5,7.8c13.4,6.8,21,14.3,22.5,22.2c3.6,18.4-9,30.7-9.6,31.3
		c-0.5,0.5-7.7,8-26.3,14.1C115.2,166,115.1,166,115.1,166z M102.5,132.2c0.2,0,0.3,0.1,0.4,0.1c0.1,0.1,13.5,10.8,12.8,32
		c17.8-5.9,24.7-13.3,24.7-13.4c0,0,0,0,0,0c0.1-0.1,12.7-12.1,9.2-30.1c-3.5-18-40.7-28.9-41-29l-18.7-8c-1,0.5-4.2,1.8-8.5,0.7
		c-5.9-1.6-11.4-7-16.4-16.1c-8.2,7.2-17,9.1-19.7,9.5c1.3,4.5,3,8.1,4.7,11.9c1.8,4,3.7,8.1,5.7,14c5.4,16.3,2.1,37.1,1,42.6
		c0.4-0.2,0.8-0.4,1-0.5c1.6-0.7,30.8-10.9,44.6-13.8C102.4,132.2,102.5,132.2,102.5,132.2z"/>
</g>
</svg>
