<?xml version="1.0" encoding="utf-8"?>
<!-- Generator: Adobe Illustrator 23.0.3, SVG Export Plug-In . SVG Version: 6.00 Build 0)  -->
<svg version="1.1" id="Слой_1" xmlns="http://www.w3.org/2000/svg" xmlns:xlink="http://www.w3.org/1999/xlink" x="0px" y="0px"
	 viewBox="0 0 232 182" style="enable-background:new 0 0 232 182;" xml:space="preserve">
<style type="text/css">
	.st0{fill:#F8CA06;}
	.st1{fill:#181C19;}
	.st2{fill:#FFFFFF;}
</style>
<g>
	<path class="st0" d="M232,90c0,30.7-15.3,57.8-38.8,74c-0.2,0.2-0.4,0.3-0.6,0.5c-0.2,0.2-0.5,0.3-0.7,0.5
		c-14.3,9.5-31.4,15.1-49.9,15.1c-8.1,0-16-1.1-23.4-3.1c-0.2,0-0.5-0.1-0.7-0.2c-0.2-0.1-0.5-0.1-0.7-0.2
		C93.9,169.9,74.5,154,63,133.2c-0.1-0.2-0.2-0.4-0.4-0.7c-0.1-0.2-0.2-0.5-0.4-0.7C55.7,119.3,52,105.1,52,90c0-14,3.2-27.2,8.8-39
		c0.1-0.3,0.3-0.6,0.4-0.8v0c0.1-0.3,0.3-0.6,0.4-0.8C76.5,20.1,106.9,0,142,0C191.7,0,232,40.3,232,90z"/>
</g>
<g>
	<path class="st1" d="M140.8,51.5c-0.1,0-0.1,0-0.2,0c-0.7-0.2-1.1-0.8-1-1.4c0-0.4,0.4-0.7,0.7-0.7c0.4,0,0.7,0.3,0.7,0.7
		c0,0,0,0,0.1,0c0.4,0.1,0.6,0.5,0.5,0.9C141.3,51.3,141.1,51.5,140.8,51.5z"/>
</g>
<g>
	<path class="st1" d="M141.8,51.6c-0.5,0-0.9,0-1.3-0.2c-0.4-0.1-0.6-0.5-0.4-0.9s0.5-0.6,0.9-0.4c0.7,0.2,2.4,0,3.5-0.2
		c0.4-0.1,0.8,0.1,0.8,0.5c0.1,0.4-0.2,0.8-0.5,0.8C144.5,51.3,143.1,51.6,141.8,51.6z"/>
</g>
<g>
	<path class="st2" d="M135.2,52.1c0.4,0,0.7,0,1-0.1c0.1,0,0.3,0,0.4,0c0,0,0,0,0,0c3.5-0.3,4-0.9,4.1-1.1c0,0,0-0.1,0-0.1
		c-0.3-0.1-0.6-0.3-0.6-0.6c0-0.4,0.3-1,1.1-1.8c1-1,2.2-1.8,3.6-2.5c-0.2,0,2.3-6.5,6-11.4C135.4,25.5,132.3,44.8,135.2,52.1z"/>
	<path class="st1" d="M140.8,47.8c-0.3,0.4-0.6,0.7-0.8,1C140.2,48.5,140.4,48.2,140.8,47.8c0.1-0.1,0.2-0.2,0.3-0.3
		C141,47.6,140.9,47.7,140.8,47.8z M140.8,47.8c-0.3,0.4-0.6,0.7-0.8,1C140.2,48.5,140.4,48.2,140.8,47.8c0.1-0.1,0.2-0.2,0.3-0.3
		C141,47.6,140.9,47.7,140.8,47.8z M151.3,33.9C151.3,33.9,151.2,33.8,151.3,33.9c-0.3-0.2-0.4-0.3-0.6-0.4
		c-6.4-3.5-10.4-2-12.6-0.1c-4.9,4.3-5.4,13.9-3.6,18.7c0,0.1,0.1,0.2,0.1,0.2c0.1,0.3,0.4,0.4,0.6,0.4h0l0.1,0l0.7-0.1l0.2,0
		c0.1,0,0.2,0,0.3,0c0.1,0,0.2,0,0.2,0c0.8-0.1,1.5-0.2,2.1-0.3c0.1,0,0.1,0,0.2,0c0.1,0,0.2-0.1,0.4-0.1c0.1,0,0.2,0,0.3-0.1
		c0.1,0,0.2,0,0.3-0.1c0.1,0,0.2,0,0.2-0.1c0.1,0,0.1,0,0.2-0.1c0.1,0,0.1-0.1,0.2-0.1c0.2-0.1,0.4-0.2,0.5-0.3h0
		c0,0,0.1-0.1,0.1-0.1c0.1-0.1,0.1-0.2,0.2-0.3c0,0,0,0,0-0.1c0,0,0-0.1,0-0.1s0-0.1,0-0.2c0-0.1,0-0.3-0.1-0.4l0,0c0,0,0,0,0,0
		c0,0,0,0,0,0c0,0-0.1-0.1-0.1-0.1l0,0c0,0-0.1,0-0.1,0c0,0,0,0,0,0c0,0,0,0,0,0c-0.1,0-0.1,0-0.1,0v0c0,0,0-0.1,0-0.1
		c0-0.1,0.1-0.3,0.3-0.5c0-0.1,0.1-0.1,0.1-0.1h0c0,0,0,0,0,0c0.1-0.1,0.2-0.3,0.4-0.5c0.1-0.1,0.2-0.2,0.3-0.3c0,0,0,0,0,0
		c0.6-0.5,1.3-1,2.1-1.5c0,0,0.1,0,0.1-0.1c0.3-0.2,0.6-0.3,0.9-0.5c0.1,0,0.1-0.1,0.2-0.1c0.1-0.1,0.2-0.3,0.2-0.5
		c0-0.1,0-0.2,0.1-0.3c0,0,0-0.1,0-0.1c0.1-0.2,0.2-0.5,0.3-0.8c0,0,0-0.1,0-0.1c0.7-1.8,2.3-5,4.2-7.9c0.1-0.2,0.2-0.3,0.3-0.5
		c0.3-0.4,0.6-0.8,0.9-1.2c0.1-0.2,0.2-0.4,0.1-0.6C151.5,34.1,151.4,34,151.3,33.9z M149.4,35.3c-2.1,3.2-4.6,8-5.1,10
		c-0.1,0.1-0.2,0.1-0.3,0.2c-0.1,0-0.1,0.1-0.2,0.1c-0.2,0.1-0.3,0.2-0.5,0.3c-0.8,0.5-1.5,1-2.1,1.6c0,0,0,0,0,0
		c-0.1,0.1-0.2,0.2-0.3,0.3c-0.3,0.4-0.6,0.7-0.8,1c-0.1,0.1-0.1,0.2-0.2,0.3c-0.1,0.2-0.2,0.5-0.2,0.7c0,0,0,0,0,0
		c0,0.1,0,0.2,0,0.4c0,0.2,0.1,0.4,0.2,0.6h0l0,0c0,0,0,0,0,0v0c-0.1,0-0.1,0-0.2,0c-0.1,0-0.2,0-0.2,0.1c-0.1,0-0.1,0-0.2,0
		c-0.1,0-0.3,0.1-0.5,0.1c0,0,0,0-0.1,0c0,0-0.1,0-0.1,0c-0.5,0.1-1,0.2-1.7,0.2c-0.1,0-0.2,0-0.3,0c0,0-0.1,0-0.2,0l-0.5,0
		c0,0,0,0,0,0c-1.5-4.5-0.9-13.1,3.3-16.8c1.3-1.2,2.9-1.7,4.6-1.7c1.8,0,3.9,0.6,6.2,1.9C149.7,34.9,149.6,35.1,149.4,35.3z
		 M140.8,47.8c-0.3,0.4-0.6,0.7-0.8,1C140.2,48.5,140.4,48.2,140.8,47.8c0.1-0.1,0.2-0.2,0.3-0.3C141,47.6,140.9,47.7,140.8,47.8z
		 M140.8,47.8c-0.3,0.4-0.6,0.7-0.8,1C140.2,48.5,140.4,48.2,140.8,47.8c0.1-0.1,0.2-0.2,0.3-0.3C141,47.6,140.9,47.7,140.8,47.8z"
		/>
</g>
<g>
	<path class="st1" d="M159,29.1c-2.8-0.4-5.7,2.1-8.1,5.3c-3.7,4.8-6.3,11.3-6,11.3c4.6-2.1,8.4-2.3,8.4-2.3
		C158.8,40.3,164.4,30,159,29.1z"/>
	<path class="st1" d="M161.8,31c-0.2-1.4-1.2-2.3-2.7-2.6c0,0,0,0,0,0c-2.6-0.4-5.5,1.4-8.4,5.1c-0.1,0.1-0.2,0.3-0.3,0.4
		c0,0-0.1,0.1-0.1,0.1c-0.1,0.2-0.3,0.4-0.4,0.6c-0.1,0.2-0.3,0.4-0.4,0.6c-2.4,3.5-4.8,8.2-5.1,10c0,0,0,0,0,0
		c-0.1,0.3-0.1,0.5,0,0.6c0,0,0,0.1,0.1,0.1c0,0,0,0,0,0c0.1,0.2,0.3,0.3,0.5,0.3h0.1c0.1,0,0.2,0,0.3-0.1c0.1,0,0.1,0,0.2-0.1
		c4.4-2,7.9-2.2,8-2.2c0.1,0,0.1,0,0.2,0h0c0,0,0.1,0,0.1-0.1c0.2-0.1,0.3-0.2,0.5-0.3C158.5,41,162.5,34.5,161.8,31z M153.1,42.7
		c-0.7,0.1-3.5,0.4-7,1.8c0,0,0,0-0.1,0c0.7-1.7,2.2-4.9,4.2-8c0.1-0.2,0.2-0.3,0.3-0.5c0.3-0.4,0.6-0.8,0.9-1.2
		c2.4-3.3,4.9-5,6.9-5c0.2,0,0.4,0,0.5,0c0.9,0.2,1.4,0.6,1.5,1.5C161,34.3,157,40.4,153.1,42.7z"/>
</g>
<g>
	<path class="st0" d="M96.8,111.5c0.1,0.3,0.1,0.6,0.2,1c2.2,9.9,8,15,15.3,17.3c2.8,0.9,5.8,1.3,8.9,1.5
		c12.4,0.7,26.5-3.5,34.6-5.5c-11.8-7-19.8-14.1-34.8-17.1C115.9,109.9,103.6,112.8,96.8,111.5z"/>
	<path class="st1" d="M156.2,125.2C156.2,125.2,156.2,125.2,156.2,125.2c0,0-0.1-0.1-0.1-0.1c0,0-0.1,0-0.1,0
		c-0.7-0.4-1.3-0.8-2-1.2c0,0,0,0,0,0c-0.7-0.4-1.3-0.8-2-1.2c-1.3-0.8-2.5-1.6-3.7-2.4c-3.1-2-6.1-3.9-9.2-5.7
		c-0.4-0.2-0.7-0.4-1.1-0.6c-0.3-0.2-0.6-0.3-0.9-0.5c-2-1-4-1.9-6.2-2.8c0,0,0,0,0,0c-1.1-0.4-2.2-0.8-3.4-1.2
		c-0.1,0-0.2,0-0.2-0.1c-0.5-0.1-1-0.3-1.6-0.4c-0.3-0.1-0.6-0.2-0.9-0.2c-0.3-0.1-0.6-0.2-0.9-0.2c0,0,0,0-0.1,0
		c-0.5-0.1-0.9-0.2-1.4-0.3h0c-0.4-0.1-0.9-0.2-1.4-0.3c-0.1,0-0.2,0-0.3,0c0,0,0,0,0,0c0,0,0,0,0,0c-0.3,0.1-0.7,0.2-1.2,0.3
		c-0.1,0-0.3,0.1-0.5,0.1c-1,0.2-2.1,0.5-3.4,0.8c-0.3,0.1-0.7,0.2-1.1,0.2c-0.5,0.1-1,0.2-1.5,0.3c-4.5,0.9-9.8,1.6-13.9,1.3
		c-0.3,0-0.5,0-0.8-0.1c-0.1,0-0.1,0-0.2,0c-0.2,0-0.4-0.1-0.7-0.1c0,0-0.1,0-0.1,0v0c0,0,0,0,0,0c0,0,0,0,0,0c-0.2,0-0.3,0-0.5-0.1
		c-0.1,0-0.2,0-0.2,0h0c-0.1,0-0.3,0.1-0.4,0.2c-0.1,0.1-0.2,0.2-0.2,0.4c0,0.1,0,0.2,0,0.3c0,0,0,0,0,0v0l0.2,1
		c0.7,3.3,1.9,6.2,3.5,8.7c0.3,0.4,0.5,0.8,0.8,1.2c0.3,0.4,0.6,0.7,0.9,1.1c0,0,0,0,0.1,0.1c0.3,0.4,0.6,0.7,0.9,1
		c0.3,0.3,0.6,0.6,0.9,0.9c0.1,0,0.1,0.1,0.2,0.2c0.3,0.3,0.7,0.6,1,0.8c0.4,0.3,0.7,0.6,1.1,0.8c0,0,0.1,0.1,0.2,0.1
		c0.3,0.2,0.5,0.3,0.8,0.5c0.2,0.1,0.5,0.3,0.7,0.4c0.2,0.1,0.5,0.3,0.7,0.4c0.2,0.1,0.3,0.2,0.5,0.2c0.3,0.1,0.6,0.3,0.8,0.4
		c0.3,0.1,0.6,0.2,0.9,0.4c0.1,0.1,0.3,0.1,0.4,0.2c0.1,0.1,0.3,0.1,0.4,0.2c0.2,0.1,0.5,0.2,0.7,0.2c0.1,0,0.2,0,0.2,0.1
		c0.2,0,0.3,0.1,0.5,0.1c2.3,0.7,4.9,1.2,7.9,1.4c0.2,0,0.5,0,0.7,0h0.1c0.2,0,0.5,0,0.8,0c0.6,0,1.3,0,1.9,0h0.1c0.6,0,1.2,0,1.9,0
		h0c0.6,0,1.3-0.1,1.9-0.1h0c1-0.1,1.9-0.1,2.9-0.2c0,0,0,0,0,0c1-0.1,1.9-0.2,2.9-0.4c0,0,0,0,0,0c0.6-0.1,1.3-0.2,1.9-0.3
		c0,0,0,0,0,0c0.6-0.1,1.3-0.2,1.9-0.3c0,0,0,0,0,0c1.4-0.3,2.8-0.5,4.2-0.8c0.5-0.1,0.9-0.2,1.3-0.3c0.6-0.1,1.2-0.3,1.8-0.4
		c0.9-0.2,1.7-0.4,2.6-0.6c1.1-0.3,2.1-0.5,3.1-0.8c0,0,0,0,0.1,0c0.4-0.1,0.7-0.2,1.1-0.3c0.4-0.1,0.7-0.2,1.1-0.3
		c0.1,0,0.2-0.1,0.3-0.1c0.4-0.1,0.8-0.2,1.2-0.3c0,0,0,0,0,0c0.5-0.1,1-0.3,1.5-0.4c0.1,0,0.2,0,0.3-0.1c0.2,0,0.3-0.2,0.4-0.3
		c0,0,0,0,0,0c0-0.1,0.1-0.1,0.1-0.2C156.4,125.6,156.3,125.4,156.2,125.2z M149.2,126.6c-1,0.2-2.1,0.5-3.2,0.8
		c-1.4,0.3-2.8,0.7-4.3,1c-1.5,0.3-3,0.6-4.6,0.9c-0.3,0-0.6,0.1-0.9,0.2c-0.6,0.1-1.2,0.2-1.9,0.3c-1.9,0.3-3.8,0.5-5.7,0.7
		c-0.6,0-1.2,0.1-1.9,0.1c-1.9,0.1-3.8,0.1-5.6,0c-3.4-0.2-6.2-0.7-8.7-1.5c-1-0.3-1.9-0.7-2.8-1.1c-1.3-0.6-2.6-1.4-3.7-2.2
		c-0.3-0.2-0.5-0.4-0.8-0.6c-0.5-0.4-1-0.8-1.4-1.3c-0.2-0.2-0.4-0.4-0.5-0.6c-0.3-0.4-0.7-0.7-1-1.1c-2.2-2.7-3.7-6-4.6-9.9h0v0h0
		c0.3,0,0.7,0.1,1,0.1c0.3,0,0.6,0,0.9,0.1c0.1,0,0.2,0,0.3,0c0.4,0,0.7,0,1.1,0c1.1,0,2.2-0.1,3.4-0.1c0.7-0.1,1.3-0.1,2-0.2
		c0.5,0,1-0.1,1.5-0.2c0.9-0.1,1.8-0.3,2.7-0.4c0.3,0,0.6-0.1,0.8-0.1c0.6-0.1,1.2-0.2,1.9-0.3c0.5-0.1,1-0.2,1.5-0.3
		c0.5-0.1,1.1-0.2,1.6-0.3c0.6-0.1,1.1-0.3,1.7-0.4c0.2,0,0.3-0.1,0.5-0.1c0.5-0.1,1-0.2,1.4-0.3c0.2,0,0.4-0.1,0.6-0.2
		c0.1,0,0.1,0,0.2-0.1c0,0,0,0,0,0h0c0.3,0.1,0.6,0.1,0.9,0.2c0.2,0,0.5,0.1,0.7,0.1c1.9,0.4,3.6,0.9,5.2,1.4c0.5,0.2,1,0.3,1.5,0.5
		c1,0.3,1.9,0.7,2.8,1.1c0.3,0.1,0.6,0.2,0.8,0.4c2.6,1.1,5,2.4,7.4,3.8c0.8,0.4,1.5,0.9,2.3,1.4c1.6,1,3.3,2.1,5,3.2
		c1,0.6,2,1.3,3,1.9c0.5,0.3,1.1,0.7,1.6,1c0.5,0.3,1.1,0.7,1.7,1c-0.5,0.2-1.1,0.3-1.7,0.4C151.3,126.1,150.3,126.4,149.2,126.6
		C149.2,126.6,149.2,126.6,149.2,126.6z"/>
</g>
<g>
	<path class="st0" d="M135.5,57.8c9.1,7.2,17.6,1.9,17.6,1.9c0-0.4,0-0.9,0.1-1.2c0.2-1.2,0.9-2.3,1.8-3.1c0.1-0.1,0.3-0.2,0.4-0.4
		c0.7-0.7,1.3-1.7,1.5-3.1c0,0,0.1-2.8,0.9-4.8c0,0-3.4-0.9-4.7-3.6c0,0-3.7,0.2-8.4,2.3c-1.3,0.6-2.6,1.5-3.6,2.5
		c-0.7,0.8-1,1.3-1.1,1.7c0,0.3,0.2,0.5,0.6,0.6c0,0,0,0,0,0.1c0,0,0.1,0.8-4.1,1.1c0,0,0,0,0,0c-0.1,0-0.3,0-0.4,0
		c-0.3,0-0.6,0-1,0.1C135.2,52.1,135.9,54.5,135.5,57.8z"/>
	<path class="st1" d="M141.8,48.8c-0.2,0.2-0.3,0.3-0.4,0.5C141.5,49.2,141.6,49,141.8,48.8c0.1-0.1,0.2-0.2,0.3-0.3
		C142,48.6,141.9,48.7,141.8,48.8z M141.1,50.2C141.1,50.2,141.1,50.2,141.1,50.2C141.1,50.2,141.2,50.2,141.1,50.2
		C141.2,50.2,141.1,50.2,141.1,50.2z M141,50.1C141,50.1,140.9,50.1,141,50.1L141,50.1C140.9,50.1,141,50.1,141,50.1
		C141,50.1,141,50.1,141,50.1z M141.8,48.8c-0.2,0.2-0.3,0.3-0.4,0.5C141.5,49.2,141.6,49,141.8,48.8c0.1-0.1,0.2-0.2,0.3-0.3
		C142,48.6,141.9,48.7,141.8,48.8z M141.1,50.2c0,0,0.1,0,0.1,0C141.2,50.2,141.1,50.2,141.1,50.2C141.1,50.2,141.1,50.2,141.1,50.2
		z M140.9,50.1L140.9,50.1c0,0,0,0,0.1,0C141,50.1,141,50.1,140.9,50.1C141,50.1,140.9,50.1,140.9,50.1z M158.6,46.8
		c-0.1-0.2-0.3-0.3-0.5-0.4c0,0-2.7-0.7-4-2.7c-0.1-0.1-0.2-0.3-0.3-0.5c0,0,0-0.1-0.1-0.1c-0.1-0.2-0.3-0.3-0.6-0.3
		c-0.1,0-3.1,0.1-7.2,1.8c-0.3,0.1-0.6,0.2-0.9,0.4c0,0,0,0,0,0c-0.2,0.1-0.4,0.2-0.5,0.2c-0.1,0-0.2,0.1-0.3,0.1
		c-0.1,0.1-0.2,0.1-0.3,0.2c-0.1,0-0.1,0.1-0.2,0.1c-0.2,0.1-0.3,0.2-0.5,0.3c-0.8,0.5-1.5,1-2.1,1.6c0,0,0,0,0,0
		c-0.1,0.1-0.2,0.2-0.4,0.4c-0.3,0.3-0.5,0.6-0.7,0.9c-0.1,0.1-0.1,0.2-0.2,0.3c-0.2,0.3-0.2,0.5-0.3,0.8c0,0,0,0,0,0
		c0,0.1,0,0.1,0,0.2c0,0,0,0.1,0,0.1c0,0,0,0.1,0,0.1c0,0,0,0,0,0.1c0,0,0,0.1,0,0.1c0,0.1,0,0.2,0.1,0.3c0,0,0,0,0,0v0
		c-0.1,0-0.1,0-0.2,0c-0.1,0-0.2,0-0.2,0.1c-0.1,0-0.1,0-0.2,0c-0.2,0-0.5,0.1-0.8,0.1c-0.4,0.1-1,0.1-1.6,0.2c-0.1,0-0.2,0-0.3,0
		c0,0-0.1,0-0.2,0l-0.4,0l-0.5,0c-0.1,0-0.1,0-0.2,0c-0.2,0.1-0.4,0.3-0.5,0.5c0,0.1,0,0.1,0,0.2c0,0.1,0,0.2,0.1,0.2
		c0.1,0.3,0.4,1.9,0.4,4c0,0.3,0,0.5,0,0.8c0,0.2,0,0.3,0,0.5c0,0,0,0.1,0,0.1c0,0.2,0.1,0.4,0.3,0.5c0.1,0.1,0.2,0.2,0.4,0.3
		c0,0,0,0,0,0c0.2,0.2,0.4,0.3,0.6,0.5c0,0,0,0,0,0c3.5,2.5,7,3.2,9.7,3.2c0.7,0,1.4,0,2-0.1c2.1-0.3,3.8-0.9,4.8-1.4
		c0.3-0.1,0.5-0.2,0.7-0.3c0.2-0.1,0.2-0.1,0.3-0.1c0.2-0.1,0.3-0.4,0.3-0.6c0,0,0-0.1,0-0.2c0-0.3,0-0.6,0.1-0.9
		c0.2-1,0.8-1.9,1.6-2.7c0.2-0.1,0.3-0.3,0.4-0.4c0.9-0.9,1.4-2.1,1.7-3.4c0,0,0-0.1,0-0.1c0,0,0.1-2.7,0.9-4.6
		C158.7,47.2,158.7,46.9,158.6,46.8z M154.7,54.8c-1.1,1-1.8,2.2-2,3.4c-0.1,0.3-0.1,0.6-0.1,0.9c0,0,0,0,0,0
		c-1.6,0.8-8.7,4-16.2-1.8v0c0.1-1.4,0-3.4-0.2-4.7c0,0,0,0,0,0l0.1,0c0.1,0,0.2,0,0.3,0c0.1,0,0.2,0,0.2,0c0.5,0,1-0.1,1.5-0.1
		c0.2,0,0.3,0,0.4-0.1c0.3-0.1,0.5-0.1,0.8-0.2c0.1,0,0.2,0,0.3-0.1c0.1,0,0.2,0,0.3-0.1c0.1,0,0.2,0,0.2-0.1c0.1,0,0.1,0,0.2-0.1
		c0.1,0,0.1-0.1,0.2-0.1c0.2-0.1,0.4-0.2,0.5-0.3h0c0,0,0.1-0.1,0.1-0.1c0.1-0.1,0.2-0.3,0.2-0.4c0,0,0-0.1,0-0.1c0,0,0,0,0,0
		c0-0.1,0-0.1,0-0.2c0-0.2,0-0.3-0.1-0.4c0,0,0,0,0,0c0,0-0.1-0.1-0.1-0.1l0,0c0,0-0.1,0-0.1,0c0,0,0,0,0,0c0,0,0,0,0,0c0,0,0,0,0,0
		c0,0,0,0,0,0c0,0,0,0-0.1,0h0v0c0,0,0-0.1,0.1-0.1c0-0.1,0.1-0.3,0.3-0.5c0-0.1,0.1-0.1,0.1-0.1h0c0,0,0,0,0,0
		c0.1-0.1,0.2-0.3,0.4-0.5c0.1-0.1,0.2-0.2,0.3-0.3c0,0,0,0,0,0c0.6-0.5,1.2-1.1,2.1-1.5c0,0,0.1,0,0.1-0.1c0.3-0.1,0.5-0.3,0.8-0.4
		c3.6-1.7,6.6-2.1,7.7-2.2c1.1,1.9,3.2,2.9,4.2,3.3c-0.6,1.8-0.7,3.9-0.7,4.3c-0.2,1.1-0.7,2-1.4,2.7
		C154.9,54.6,154.8,54.7,154.7,54.8z M141,50.1C141,50.1,140.9,50.1,141,50.1L141,50.1C140.9,50.1,141,50.1,141,50.1
		C141,50.1,141,50.1,141,50.1z M141.1,50.2C141.1,50.2,141.1,50.2,141.1,50.2C141.1,50.2,141.2,50.2,141.1,50.2
		C141.2,50.2,141.1,50.2,141.1,50.2z M141.8,48.8c-0.2,0.2-0.3,0.3-0.4,0.5C141.5,49.2,141.6,49,141.8,48.8c0.1-0.1,0.2-0.2,0.3-0.3
		C142,48.6,141.9,48.7,141.8,48.8z M141,50.1C141,50.1,140.9,50.1,141,50.1L141,50.1C140.9,50.1,141,50.1,141,50.1
		C141,50.1,141,50.1,141,50.1z M141.1,50.2C141.1,50.2,141.1,50.2,141.1,50.2C141.1,50.2,141.2,50.2,141.1,50.2
		C141.2,50.2,141.1,50.2,141.1,50.2z M141.8,48.8c-0.2,0.2-0.3,0.3-0.4,0.5C141.5,49.2,141.6,49,141.8,48.8c0.1-0.1,0.2-0.2,0.3-0.3
		C142,48.6,141.9,48.7,141.8,48.8z"/>
</g>
<g>
	<path class="st1" d="M96.8,111.5c6.9,1.4,19.2-1.5,24.1-2.8c1.4-0.4,2.2-0.6,2.2-0.6c13.1-3.6,26.2-3.4,37.7-1.7
		c10-5.7,17.9-2.3,20.5-0.5c3.6,2.5,2.6,6.3,2.6,6.3c10,3.5,16.3,7.1,16.6,7.2c0.5-6.5,0.9-18-1.7-27c-3.9-13.3-17.6-19-25.5-20.7
		c-7.9-1.7-15.2-5-18.5-8.3c-1.2-1.2-1.6-2.5-1.6-3.7c0,0-8.6,5.3-17.6-1.9c-0.4,4.1-2.3,9.5-9.1,13C114.6,76.9,91,83.4,96.8,111.5z
		"/>
	<path class="st1" d="M181.8,105.2c-0.5-0.3-3-1.9-6.9-2.5C178.8,103.3,181.3,105,181.8,105.2c1.1,0.8,1.8,1.7,2.3,2.6
		C183.6,107,182.9,106,181.8,105.2z M160.7,105.6C160.7,105.6,160.7,105.6,160.7,105.6c-13.5-2-26.2-1.4-37.8,1.7c0,0-0.1,0-0.2,0.1
		c0,0,0,0,0,0c-0.3,0.1-1.3,0.4-1.9,0.5c0,0,0,0,0,0c0,0,0,0,0,0c-0.3,0.1-0.7,0.2-1.2,0.3c-0.1,0-0.3,0.1-0.5,0.1
		c-1,0.2-2.1,0.5-3.4,0.8c-0.3,0.1-0.7,0.2-1.1,0.2c-0.5,0.1-1,0.2-1.5,0.3c-4.5,0.9-9.8,1.6-13.9,1.3c-0.3,0-0.5,0-0.8-0.1
		c-0.1,0-0.1,0-0.2,0c-0.2,0-0.4-0.1-0.7-0.1c0,0-0.1,0-0.1,0c0,0,0,0,0,0c0,0,0,0,0,0c-4.6-23.6,12.2-31.4,24.5-37.1
		c1.8-0.8,3.5-1.6,5-2.4c6.4-3.3,8.6-8.3,9.3-12.3c-0.2-0.1-0.4-0.3-0.6-0.5c0,0.2,0,0.4-0.1,0.6c0,0.1,0,0.3-0.1,0.4
		c0,0.1,0,0.1,0,0.2c-0.1,0.4-0.2,0.8-0.3,1.1c-0.1,0.3-0.2,0.5-0.3,0.8c0,0.1-0.1,0.3-0.1,0.4c-0.2,0.6-0.5,1.3-0.9,1.9
		c0,0,0,0.1-0.1,0.2c-0.1,0.3-0.3,0.5-0.5,0.8c-0.1,0.1-0.2,0.2-0.2,0.4c-0.1,0.1-0.2,0.2-0.3,0.4c-0.4,0.5-0.8,1.1-1.3,1.6
		c-0.1,0.1-0.1,0.1-0.2,0.2c-0.2,0.2-0.3,0.3-0.5,0.5c-0.2,0.2-0.3,0.3-0.5,0.4c-0.1,0.1-0.3,0.2-0.4,0.4c-0.2,0.1-0.3,0.2-0.5,0.3
		c-0.2,0.1-0.3,0.2-0.5,0.3c-0.2,0.1-0.3,0.2-0.5,0.3c-0.1,0.1-0.2,0.2-0.4,0.2c-0.1,0.1-0.3,0.2-0.4,0.2c0,0,0,0,0,0
		c-0.3,0.2-0.5,0.3-0.8,0.5c-3.5,1.8-8,3.6-12.5,6c-0.4,0.2-0.9,0.5-1.3,0.7c-1.9,1.1-3.8,2.3-5.6,3.6c-0.4,0.3-0.8,0.6-1.2,0.9
		c-0.6,0.5-1.1,1-1.7,1.5c-0.2,0.2-0.4,0.3-0.5,0.5c-0.2,0.2-0.4,0.3-0.5,0.5c-5.2,5.4-8.6,12.8-7,24c0,0.4,0.1,0.7,0.2,1.1
		c0.1,0.4,0.1,0.7,0.2,1.1c0,0.2,0.1,0.5,0.1,0.7c0.2,0,0.5,0.1,0.7,0.1c0,0,0,0,0,0c0.3,0,0.6,0.1,0.8,0.1c0.2,0,0.4,0,0.6,0.1
		c0,0,0.1,0,0.2,0c0.1,0,0.1,0,0.2,0c0.1,0,0.2,0,0.4,0c0.1,0,0.2,0,0.4,0c0.8,0,1.7,0,2.6,0c0.2,0,0.3,0,0.5,0
		c0.6,0,1.2-0.1,1.7-0.1c0,0,0.1,0,0.1,0c0,0,0.1,0,0.1,0c0,0,0.1,0,0.1,0c0,0,0.1,0,0.1,0c0.1,0,0.1,0,0.2,0c0.1,0,0.2,0,0.2,0
		c0.1,0,0.3,0,0.4,0c0.1,0,0.2,0,0.3,0h0c0,0,0.1,0,0.1,0c0.9-0.1,1.8-0.2,2.7-0.4c0,0,0,0,0,0c0,0,0.1,0,0.1,0c0,0,0.1,0,0.1,0
		c0.2,0,0.3,0,0.5-0.1c0.2,0,0.5-0.1,0.7-0.1c0,0,0,0,0,0c0,0,0,0,0.1,0c0,0,0,0,0,0s0,0,0,0c0.2,0,0.4-0.1,0.5-0.1c0,0,0.1,0,0.1,0
		c0.2,0,0.4-0.1,0.6-0.1c0.2,0,0.4-0.1,0.7-0.1c0,0,0,0,0,0h0l0,0c0.2,0,0.4-0.1,0.6-0.1h0c0.2,0,0.4-0.1,0.6-0.1c0,0,0,0,0,0
		c0.1,0,0.1,0,0.2,0c0.1,0,0.3-0.1,0.4-0.1c0,0,0,0,0.1,0c0,0,0,0,0,0c0.1,0,0.1,0,0.2,0c0.1,0,0.2,0,0.3-0.1c0,0,0.1,0,0.1,0
		c0.2,0,0.4-0.1,0.6-0.1c0.2,0,0.4-0.1,0.6-0.1c0.1,0,0.3-0.1,0.4-0.1c0.1,0,0.1,0,0.2,0c0.1,0,0.2-0.1,0.4-0.1
		c0.2-0.1,0.5-0.1,0.8-0.2c0.1,0,0.2,0,0.3-0.1c0.7-0.2,1.2-0.3,1.8-0.5c0.1,0,0.2-0.1,0.3-0.1c0,0,0.1,0,0.1,0c0.1,0,0.2,0,0.2-0.1
		c0,0,0,0,0,0c0.1,0,0.2,0,0.2-0.1c0.1,0,0.2,0,0.2-0.1c0,0,0.1,0,0.1,0c0.4-0.1,0.7-0.2,0.9-0.2h0c0,0,0.1,0,0.1,0
		c0.1,0,0.1,0,0.2,0l0,0c0,0,0,0,0,0c0,0,0.1,0,0.1,0c0,0,0,0,0,0c0,0,0,0,0,0c0,0,0,0,0,0c0,0,0.1,0,0.1,0c0.9-0.3,1.9-0.5,2.8-0.7
		c0.9-0.2,1.9-0.4,2.8-0.6c0.5-0.1,0.9-0.2,1.4-0.3c0.6-0.1,1.2-0.2,1.8-0.3c0.2,0,0.4-0.1,0.6-0.1c0.6-0.1,1.2-0.2,1.8-0.2
		c0.5-0.1,1-0.1,1.5-0.2c0.4,0,0.8-0.1,1.2-0.1c0.9-0.1,1.8-0.2,2.8-0.2c3.1-0.2,6.2-0.2,9.3-0.1c0.6,0,1.3,0,1.9,0.1
		c0.3,0,0.7,0,1,0.1h0.1c0.4,0,0.7,0,1.1,0.1c0.2,0,0.5,0,0.8,0.1c0.3,0,0.6,0,0.9,0.1c0.5,0.1,1.1,0.1,1.7,0.2c0.2,0,0.4,0,0.5,0.1
		c0.4,0,0.8,0.1,1.3,0.1c0.6,0.1,1.2,0.2,1.8,0.2c0-0.2,0.2-0.4,0.3-0.5C160.6,105.7,160.7,105.7,160.7,105.6
		c0.2-0.1,0.4-0.2,0.6-0.3C161.1,105.4,160.9,105.5,160.7,105.6z M161.3,105.3c0.4-0.2,0.8-0.4,1.1-0.6
		C162.1,104.9,161.7,105.1,161.3,105.3z M181.8,105.2c-0.5-0.3-3-1.9-6.9-2.5C178.8,103.3,181.3,105,181.8,105.2
		c1.1,0.8,1.8,1.7,2.3,2.6C183.6,107,182.9,106,181.8,105.2z M162.5,104.7c-0.4,0.2-0.8,0.4-1.1,0.6
		C161.7,105.1,162.1,104.9,162.5,104.7z M160.7,105.6c-13.5-2-26.2-1.4-37.8,1.7c0,0-0.1,0-0.2,0.1c0,0,0,0,0,0
		c-0.3,0.1-1.3,0.4-1.9,0.5c0,0,0,0,0,0c0,0,0,0,0,0c-0.3,0.1-0.7,0.2-1.2,0.3c-0.1,0-0.3,0.1-0.5,0.1c-1,0.2-2.1,0.5-3.4,0.8
		c-0.3,0.1-0.7,0.2-1.1,0.2c-0.5,0.1-1,0.2-1.5,0.3c-4.5,0.9-9.8,1.6-13.9,1.3c-0.3,0-0.5,0-0.8-0.1c-0.1,0-0.1,0-0.2,0
		c-0.2,0-0.4-0.1-0.7-0.1c0,0-0.1,0-0.1,0c0,0,0,0,0,0c0,0,0,0,0,0c-4.6-23.6,12.2-31.4,24.5-37.1c1.8-0.8,3.5-1.6,5-2.4
		c6.4-3.3,8.6-8.3,9.3-12.3c-0.2-0.1-0.4-0.3-0.6-0.5c0,0.2,0,0.4-0.1,0.6c0,0.1,0,0.3-0.1,0.4c0,0.1,0,0.1,0,0.2
		c-0.1,0.4-0.2,0.8-0.3,1.1c-0.1,0.3-0.2,0.5-0.3,0.8c0,0.1-0.1,0.3-0.1,0.4c-0.2,0.6-0.5,1.3-0.9,1.9c0,0,0,0.1-0.1,0.2
		c-0.1,0.3-0.3,0.5-0.5,0.8c-0.1,0.1-0.2,0.2-0.2,0.4c-0.1,0.1-0.2,0.2-0.3,0.4c-0.4,0.5-0.8,1.1-1.3,1.6c-0.1,0.1-0.1,0.1-0.2,0.2
		c-0.2,0.2-0.3,0.3-0.5,0.5c-0.2,0.2-0.3,0.3-0.5,0.4c-0.1,0.1-0.3,0.2-0.4,0.4c-0.2,0.1-0.3,0.2-0.5,0.3c-0.2,0.1-0.3,0.2-0.5,0.3
		c-0.2,0.1-0.3,0.2-0.5,0.3c-0.1,0.1-0.2,0.2-0.4,0.2c-0.1,0.1-0.3,0.2-0.4,0.2c0,0,0,0,0,0c-0.3,0.2-0.5,0.3-0.8,0.5
		c-3.5,1.8-8,3.6-12.5,6c-0.4,0.2-0.9,0.5-1.3,0.7c-1.9,1.1-3.8,2.3-5.6,3.6c-0.4,0.3-0.8,0.6-1.2,0.9c-0.6,0.5-1.1,1-1.7,1.5
		c-0.2,0.2-0.4,0.3-0.5,0.5c-0.2,0.2-0.4,0.3-0.5,0.5c-5.2,5.4-8.6,12.8-7,24c0,0.4,0.1,0.7,0.2,1.1c0.1,0.4,0.1,0.7,0.2,1.1
		c0,0.2,0.1,0.5,0.1,0.7c0.2,0,0.5,0.1,0.7,0.1c0,0,0,0,0,0c0.3,0,0.6,0.1,0.8,0.1c0.2,0,0.4,0,0.6,0.1c0,0,0.1,0,0.2,0
		c0.1,0,0.1,0,0.2,0c0.1,0,0.2,0,0.4,0c0.1,0,0.2,0,0.4,0c0.8,0,1.7,0,2.6,0c0.2,0,0.3,0,0.5,0c0.6,0,1.2-0.1,1.7-0.1
		c0,0,0.1,0,0.1,0c0,0,0.1,0,0.1,0c0,0,0.1,0,0.1,0c0,0,0.1,0,0.1,0c0.1,0,0.1,0,0.2,0c0.1,0,0.2,0,0.2,0c0.1,0,0.3,0,0.4,0
		c0.1,0,0.2,0,0.3,0h0c0,0,0.1,0,0.1,0c0.9-0.1,1.8-0.2,2.7-0.4c0,0,0,0,0,0c0,0,0.1,0,0.1,0c0,0,0.1,0,0.1,0c0.2,0,0.3,0,0.5-0.1
		c0.2,0,0.5-0.1,0.7-0.1c0,0,0,0,0,0c0,0,0,0,0.1,0c0,0,0,0,0,0s0,0,0,0c0.2,0,0.4-0.1,0.5-0.1c0,0,0.1,0,0.1,0
		c0.2,0,0.4-0.1,0.6-0.1c0.2,0,0.4-0.1,0.7-0.1c0,0,0,0,0,0h0l0,0c0.2,0,0.4-0.1,0.6-0.1h0c0.2,0,0.4-0.1,0.6-0.1c0,0,0,0,0,0
		c0.1,0,0.1,0,0.2,0c0.1,0,0.3-0.1,0.4-0.1c0,0,0,0,0.1,0c0,0,0,0,0,0c0.1,0,0.1,0,0.2,0c0.1,0,0.2,0,0.3-0.1c0,0,0.1,0,0.1,0
		c0.2,0,0.4-0.1,0.6-0.1c0.2,0,0.4-0.1,0.6-0.1c0.1,0,0.3-0.1,0.4-0.1c0.1,0,0.1,0,0.2,0c0.1,0,0.2-0.1,0.4-0.1
		c0.2-0.1,0.5-0.1,0.8-0.2c0.1,0,0.2,0,0.3-0.1c0.7-0.2,1.2-0.3,1.8-0.5c0.1,0,0.2-0.1,0.3-0.1c0,0,0.1,0,0.1,0c0.1,0,0.2,0,0.2-0.1
		c0,0,0,0,0,0c0.1,0,0.2,0,0.2-0.1c0.1,0,0.2,0,0.2-0.1c0,0,0.1,0,0.1,0c0.4-0.1,0.7-0.2,0.9-0.2h0c0,0,0.1,0,0.1,0
		c0.1,0,0.1,0,0.2,0l0,0c0,0,0,0,0,0c0,0,0.1,0,0.1,0c0,0,0,0,0,0c0,0,0,0,0,0c0,0,0,0,0,0c0,0,0.1,0,0.1,0c0.9-0.3,1.9-0.5,2.8-0.7
		c0.9-0.2,1.9-0.4,2.8-0.6c0.5-0.1,0.9-0.2,1.4-0.3c0.6-0.1,1.2-0.2,1.8-0.3c0.2,0,0.4-0.1,0.6-0.1c0.6-0.1,1.2-0.2,1.8-0.2
		c0.5-0.1,1-0.1,1.5-0.2c0.4,0,0.8-0.1,1.2-0.1c0.9-0.1,1.8-0.2,2.8-0.2c3.1-0.2,6.2-0.2,9.3-0.1c0.6,0,1.3,0,1.9,0.1
		c0.3,0,0.7,0,1,0.1h0.1c0.4,0,0.7,0,1.1,0.1c0.2,0,0.5,0,0.8,0.1c0.3,0,0.6,0,0.9,0.1c0.5,0.1,1.1,0.1,1.7,0.2c0.2,0,0.4,0,0.5,0.1
		c0.4,0,0.8,0.1,1.3,0.1c0.6,0.1,1.2,0.2,1.8,0.2c0-0.2,0.2-0.4,0.3-0.5C160.6,105.7,160.7,105.7,160.7,105.6
		c0.3-0.1,0.5-0.2,0.7-0.3C161.1,105.4,160.9,105.5,160.7,105.6C160.7,105.6,160.7,105.6,160.7,105.6z M199.5,92.2
		c-3.6-12.2-15.8-19-26-21.1c-7.8-1.6-14.9-4.8-18.2-8.2c-0.9-0.9-1.4-2-1.4-3.2c0,0,0-0.1,0-0.1c0-0.2-0.2-0.4-0.3-0.5
		c-0.1-0.1-0.2-0.1-0.3-0.1c-0.1,0-0.3,0-0.4,0.1c0,0-0.1,0.1-0.3,0.2c-1.6,0.8-8.7,3.9-16.2-1.8c-0.1-0.1-0.2-0.1-0.3-0.2
		c0,0-0.1,0-0.1,0c-0.1-0.1-0.2-0.1-0.3-0.1c-0.1,0-0.2,0-0.3,0c-0.1,0.1-0.2,0.1-0.3,0.2c-0.1,0.1-0.1,0.2-0.1,0.3
		c0,0.1,0,0.1,0,0.2c0,0.1,0,0.2,0,0.2c-0.5,3.8-2.4,8.8-8.6,12c-1.5,0.8-3.2,1.6-4.9,2.4c-12.1,5.6-30.3,14.1-25.2,39.1
		c0,0,0,0,0,0v0c0,0.1,0,0.2,0.1,0.2c0.1,0.2,0.3,0.3,0.5,0.3c0.1,0,0.2,0,0.3,0c0,0,0,0,0,0c0.2,0,0.5,0.1,0.7,0.1h0v0h0
		c0.3,0,0.7,0.1,1,0.1c0.3,0,0.6,0,0.9,0.1c0.1,0,0.2,0,0.3,0c0.4,0,0.7,0,1.1,0c1.1,0,2.2-0.1,3.4-0.1c0.7-0.1,1.3-0.1,2-0.2
		c0.5,0,1-0.1,1.5-0.2c0.9-0.1,1.8-0.3,2.7-0.4c0.3,0,0.6-0.1,0.8-0.1c0.6-0.1,1.2-0.2,1.9-0.3c0.5-0.1,1-0.2,1.5-0.3
		c0.5-0.1,1.1-0.2,1.6-0.3c0.6-0.1,1.1-0.3,1.7-0.4c0.2,0,0.3-0.1,0.5-0.1c0.5-0.1,1-0.2,1.4-0.3c0.2,0,0.4-0.1,0.6-0.2
		c0.1,0,0.1,0,0.2-0.1c0,0,0,0,0,0h0c0.1,0,0.1,0,0.2,0c0.5-0.1,1-0.2,1.3-0.3c0,0,0,0,0,0c0.6-0.2,0.9-0.2,0.9-0.2
		c0.2,0,0.4-0.1,0.5-0.1c0,0,0,0,0,0c11.3-3,23.7-3.5,36.8-1.5c0,0,0.1,0,0.1,0c0.1,0,0.1,0,0.1,0c0.1,0,0.2,0,0.3-0.1
		c0.2-0.1,0.5-0.3,0.7-0.4h0c0,0,0,0,0.1,0c0.4-0.2,0.7-0.4,1.1-0.5c10-4.7,17.1-0.1,17.9,0.4c0.9,0.6,1.5,1.4,1.8,2.1v0
		c0.2,0.3,0.3,0.6,0.3,0.8c0,0.1,0.1,0.3,0.1,0.4c0,0.2,0,0.3,0.1,0.4c0,0.3,0.1,0.7,0,0.9c0,0,0,0.1,0,0.1c0,0,0,0,0,0
		c0,0.4-0.1,0.6-0.1,0.7v0c0,0,0,0,0,0c0,0,0,0,0,0c-0.1,0.3,0.1,0.7,0.4,0.8c0.1,0,0.2,0,0.2,0.1c0.9,0.3,1.7,0.6,2.6,1
		c0.5,0.2,0.9,0.4,1.4,0.5c0.5,0.2,0.9,0.3,1.3,0.5c0.4,0.2,0.8,0.3,1.2,0.5c2,0.8,3.8,1.6,5.3,2.3c0.3,0.1,0.6,0.3,0.9,0.4
		c1.4,0.7,2.4,1.2,3.2,1.6c0.1,0,0.1,0.1,0.2,0.1c0.2,0.1,0.3,0.1,0.3,0.2c0.1,0,0.1,0,0.2,0.1c0,0,0.1,0,0.1,0c0.1,0,0.2,0,0.4-0.1
		c0.1-0.1,0.2-0.2,0.3-0.3c0-0.1,0.1-0.2,0.1-0.2C201.8,111.8,202,100.8,199.5,92.2z M199.9,118.2c-0.2-0.1-0.4-0.2-0.5-0.3
		c-1.2-0.6-2.7-1.4-4.7-2.2c-0.4-0.2-0.7-0.3-1.1-0.5c-0.8-0.3-1.5-0.7-2.4-1c-0.4-0.2-0.8-0.3-1.2-0.5c0,0-0.1,0-0.2-0.1
		c-0.9-0.4-1.8-0.7-2.8-1.1c-0.4-0.1-0.7-0.3-1.1-0.4c0,0-0.1,0-0.2-0.1c-0.4-0.1-0.7-0.3-1.1-0.4h0c0-0.1,0-0.2,0-0.3
		c0-0.4,0-0.9-0.1-1.4c0-0.2-0.1-0.4-0.1-0.6c-0.1-0.4-0.2-0.7-0.3-1.1c-0.1-0.1-0.1-0.3-0.2-0.4c-0.5-0.9-1.2-1.8-2.3-2.6
		c-0.5-0.3-3-1.9-6.9-2.5c-1.4-0.2-3.1-0.3-4.8-0.1c-0.2,0-0.4,0.1-0.7,0.1c-0.4,0.1-0.9,0.1-1.4,0.2c-0.4,0.1-0.7,0.1-1.1,0.2h0
		c-0.4,0.1-0.7,0.2-1.1,0.3c-0.2,0.1-0.4,0.1-0.6,0.2c-0.6,0.2-1.2,0.4-1.8,0.7c-0.3,0.1-0.6,0.3-1,0.4c-0.4,0.2-0.8,0.4-1.1,0.6
		c-0.2,0.1-0.4,0.2-0.6,0.3c0,0,0,0,0,0c-13.5-2-26.2-1.4-37.8,1.7c0,0-0.1,0-0.2,0.1c0,0,0,0,0,0c-0.3,0.1-1.3,0.4-1.9,0.5
		c0,0,0,0,0,0c0,0,0,0,0,0c-0.3,0.1-0.7,0.2-1.2,0.3c-0.1,0-0.3,0.1-0.5,0.1c-1,0.2-2.1,0.5-3.4,0.8c-0.3,0.1-0.7,0.2-1.1,0.2
		c-0.5,0.1-1,0.2-1.5,0.3c-4.5,0.9-9.8,1.6-13.9,1.3c-0.3,0-0.5,0-0.8-0.1c-0.1,0-0.1,0-0.2,0c-0.2,0-0.4-0.1-0.7-0.1
		c0,0-0.1,0-0.1,0c0,0,0,0,0,0c0,0,0,0,0,0c-4.6-23.6,12.2-31.4,24.5-37.1c1.8-0.8,3.5-1.6,5-2.4c6.4-3.3,8.6-8.3,9.3-12.3
		c0,0,0,0,0,0c0,0,0,0,0,0c4.5,3.2,8.8,3.4,11.7,3.1c2.1-0.3,3.8-0.9,4.7-1.4v0c0.2,1.2,0.8,2.2,1.7,3.1c3.4,3.5,10.8,6.9,18.8,8.5
		c9.9,2.1,21.6,8.5,25,20.2C200.6,101,200.4,111.9,199.9,118.2z M160.7,105.6C160.7,105.6,160.7,105.6,160.7,105.6
		c-13.5-2-26.2-1.4-37.8,1.7c0,0-0.1,0-0.2,0.1c0,0,0,0,0,0c-0.3,0.1-1.3,0.4-1.9,0.5c0,0,0,0,0,0c0,0,0,0,0,0
		c-0.3,0.1-0.7,0.2-1.2,0.3c-0.1,0-0.3,0.1-0.5,0.1c-1,0.2-2.1,0.5-3.4,0.8c-0.3,0.1-0.7,0.2-1.1,0.2c-0.5,0.1-1,0.2-1.5,0.3
		c-4.5,0.9-9.8,1.6-13.9,1.3c-0.3,0-0.5,0-0.8-0.1c-0.1,0-0.1,0-0.2,0c-0.2,0-0.4-0.1-0.7-0.1c0,0-0.1,0-0.1,0c0,0,0,0,0,0
		c0,0,0,0,0,0c-4.6-23.6,12.2-31.4,24.5-37.1c1.8-0.8,3.5-1.6,5-2.4c6.4-3.3,8.6-8.3,9.3-12.3c-0.2-0.1-0.4-0.3-0.6-0.5
		c0,0.2,0,0.4-0.1,0.6c0,0.1,0,0.3-0.1,0.4c0,0.1,0,0.1,0,0.2c-0.1,0.4-0.2,0.8-0.3,1.1c-0.1,0.3-0.2,0.5-0.3,0.8
		c0,0.1-0.1,0.3-0.1,0.4c-0.2,0.6-0.5,1.3-0.9,1.9c0,0,0,0.1-0.1,0.2c-0.1,0.3-0.3,0.5-0.5,0.8c-0.1,0.1-0.2,0.2-0.2,0.4
		c-0.1,0.1-0.2,0.2-0.3,0.4c-0.4,0.5-0.8,1.1-1.3,1.6c-0.1,0.1-0.1,0.1-0.2,0.2c-0.2,0.2-0.3,0.3-0.5,0.5c-0.2,0.2-0.3,0.3-0.5,0.4
		c-0.1,0.1-0.3,0.2-0.4,0.4c-0.2,0.1-0.3,0.2-0.5,0.3c-0.2,0.1-0.3,0.2-0.5,0.3c-0.2,0.1-0.3,0.2-0.5,0.3c-0.1,0.1-0.2,0.2-0.4,0.2
		c-0.1,0.1-0.3,0.2-0.4,0.2c0,0,0,0,0,0c-0.3,0.2-0.5,0.3-0.8,0.5c-3.5,1.8-8,3.6-12.5,6c-0.4,0.2-0.9,0.5-1.3,0.7
		c-1.9,1.1-3.8,2.3-5.6,3.6c-0.4,0.3-0.8,0.6-1.2,0.9c-0.6,0.5-1.1,1-1.7,1.5c-0.2,0.2-0.4,0.3-0.5,0.5c-0.2,0.2-0.4,0.3-0.5,0.5
		c-5.2,5.4-8.6,12.8-7,24c0,0.4,0.1,0.7,0.2,1.1c0.1,0.4,0.1,0.7,0.2,1.1c0,0.2,0.1,0.5,0.1,0.7c0.2,0,0.5,0.1,0.7,0.1c0,0,0,0,0,0
		c0.3,0,0.6,0.1,0.8,0.1c0.2,0,0.4,0,0.6,0.1c0,0,0.1,0,0.2,0c0.1,0,0.1,0,0.2,0c0.1,0,0.2,0,0.4,0c0.1,0,0.2,0,0.4,0
		c0.8,0,1.7,0,2.6,0c0.2,0,0.3,0,0.5,0c0.6,0,1.2-0.1,1.7-0.1c0,0,0.1,0,0.1,0c0,0,0.1,0,0.1,0c0,0,0.1,0,0.1,0c0,0,0.1,0,0.1,0
		c0.1,0,0.1,0,0.2,0c0.1,0,0.2,0,0.2,0c0.1,0,0.3,0,0.4,0c0.1,0,0.2,0,0.3,0h0c0,0,0.1,0,0.1,0c0.9-0.1,1.8-0.2,2.7-0.4c0,0,0,0,0,0
		c0,0,0.1,0,0.1,0c0,0,0.1,0,0.1,0c0.2,0,0.3,0,0.5-0.1c0.2,0,0.5-0.1,0.7-0.1c0,0,0,0,0,0c0,0,0,0,0.1,0c0,0,0,0,0,0s0,0,0,0
		c0.2,0,0.4-0.1,0.5-0.1c0,0,0.1,0,0.1,0c0.2,0,0.4-0.1,0.6-0.1c0.2,0,0.4-0.1,0.7-0.1c0,0,0,0,0,0h0l0,0c0.2,0,0.4-0.1,0.6-0.1h0
		c0.2,0,0.4-0.1,0.6-0.1c0,0,0,0,0,0c0.1,0,0.1,0,0.2,0c0.1,0,0.3-0.1,0.4-0.1c0,0,0,0,0.1,0c0,0,0,0,0,0c0.1,0,0.1,0,0.2,0
		c0.1,0,0.2,0,0.3-0.1c0,0,0.1,0,0.1,0c0.2,0,0.4-0.1,0.6-0.1c0.2,0,0.4-0.1,0.6-0.1c0.1,0,0.3-0.1,0.4-0.1c0.1,0,0.1,0,0.2,0
		c0.1,0,0.2-0.1,0.4-0.1c0.2-0.1,0.5-0.1,0.8-0.2c0.1,0,0.2,0,0.3-0.1c0.7-0.2,1.2-0.3,1.8-0.5c0.1,0,0.2-0.1,0.3-0.1
		c0,0,0.1,0,0.1,0c0.1,0,0.2,0,0.2-0.1c0,0,0,0,0,0c0.1,0,0.2,0,0.2-0.1c0.1,0,0.2,0,0.2-0.1c0,0,0.1,0,0.1,0
		c0.4-0.1,0.7-0.2,0.9-0.2h0c0,0,0.1,0,0.1,0c0.1,0,0.1,0,0.2,0l0,0c0,0,0,0,0,0c0,0,0.1,0,0.1,0c0,0,0,0,0,0c0,0,0,0,0,0
		c0,0,0,0,0,0c0,0,0.1,0,0.1,0c0.9-0.3,1.9-0.5,2.8-0.7c0.9-0.2,1.9-0.4,2.8-0.6c0.5-0.1,0.9-0.2,1.4-0.3c0.6-0.1,1.2-0.2,1.8-0.3
		c0.2,0,0.4-0.1,0.6-0.1c0.6-0.1,1.2-0.2,1.8-0.2c0.5-0.1,1-0.1,1.5-0.2c0.4,0,0.8-0.1,1.2-0.1c0.9-0.1,1.8-0.2,2.8-0.2
		c3.1-0.2,6.2-0.2,9.3-0.1c0.6,0,1.3,0,1.9,0.1c0.3,0,0.7,0,1,0.1h0.1c0.4,0,0.7,0,1.1,0.1c0.2,0,0.5,0,0.8,0.1c0.3,0,0.6,0,0.9,0.1
		c0.5,0.1,1.1,0.1,1.7,0.2c0.2,0,0.4,0,0.5,0.1c0.4,0,0.8,0.1,1.3,0.1c0.6,0.1,1.2,0.2,1.8,0.2c0-0.2,0.2-0.4,0.3-0.5
		C160.6,105.7,160.7,105.7,160.7,105.6c0.2-0.1,0.4-0.2,0.6-0.3C161.1,105.4,160.9,105.5,160.7,105.6z M161.3,105.3
		c0.4-0.2,0.8-0.4,1.1-0.6C162.1,104.9,161.7,105.1,161.3,105.3z M181.8,105.2c-0.5-0.3-3-1.9-6.9-2.5
		C178.8,103.3,181.3,105,181.8,105.2c1.1,0.8,1.8,1.7,2.3,2.6C183.6,107,182.9,106,181.8,105.2z M160.7,105.6
		C160.7,105.6,160.7,105.6,160.7,105.6c-13.5-2-26.2-1.4-37.8,1.7c0,0-0.1,0-0.2,0.1c0,0,0,0,0,0c-0.3,0.1-1.3,0.4-1.9,0.5
		c0,0,0,0,0,0c0,0,0,0,0,0c-0.3,0.1-0.7,0.2-1.2,0.3c-0.1,0-0.3,0.1-0.5,0.1c-1,0.2-2.1,0.5-3.4,0.8c-0.3,0.1-0.7,0.2-1.1,0.2
		c-0.5,0.1-1,0.2-1.5,0.3c-4.5,0.9-9.8,1.6-13.9,1.3c-0.3,0-0.5,0-0.8-0.1c-0.1,0-0.1,0-0.2,0c-0.2,0-0.4-0.1-0.7-0.1
		c0,0-0.1,0-0.1,0c0,0,0,0,0,0c0,0,0,0,0,0c-4.6-23.6,12.2-31.4,24.5-37.1c1.8-0.8,3.5-1.6,5-2.4c6.4-3.3,8.6-8.3,9.3-12.3
		c-0.2-0.1-0.4-0.3-0.6-0.5c0,0.2,0,0.4-0.1,0.6c0,0.1,0,0.3-0.1,0.4c0,0.1,0,0.1,0,0.2c-0.1,0.4-0.2,0.8-0.3,1.1
		c-0.1,0.3-0.2,0.5-0.3,0.8c0,0.1-0.1,0.3-0.1,0.4c-0.2,0.6-0.5,1.3-0.9,1.9c0,0,0,0.1-0.1,0.2c-0.1,0.3-0.3,0.5-0.5,0.8
		c-0.1,0.1-0.2,0.2-0.2,0.4c-0.1,0.1-0.2,0.2-0.3,0.4c-0.4,0.5-0.8,1.1-1.3,1.6c-0.1,0.1-0.1,0.1-0.2,0.2c-0.2,0.2-0.3,0.3-0.5,0.5
		c-0.2,0.2-0.3,0.3-0.5,0.4c-0.1,0.1-0.3,0.2-0.4,0.4c-0.2,0.1-0.3,0.2-0.5,0.3c-0.2,0.1-0.3,0.2-0.5,0.3c-0.2,0.1-0.3,0.2-0.5,0.3
		c-0.1,0.1-0.2,0.2-0.4,0.2c-0.1,0.1-0.3,0.2-0.4,0.2c0,0,0,0,0,0c-0.3,0.2-0.5,0.3-0.8,0.5c-3.5,1.8-8,3.6-12.5,6
		c-0.4,0.2-0.9,0.5-1.3,0.7c-1.9,1.1-3.8,2.3-5.6,3.6c-0.4,0.3-0.8,0.6-1.2,0.9c-0.6,0.5-1.1,1-1.7,1.5c-0.2,0.2-0.4,0.3-0.5,0.5
		c-0.2,0.2-0.4,0.3-0.5,0.5c-5.2,5.4-8.6,12.8-7,24c0,0.4,0.1,0.7,0.2,1.1c0.1,0.4,0.1,0.7,0.2,1.1c0,0.2,0.1,0.5,0.1,0.7
		c0.2,0,0.5,0.1,0.7,0.1c0,0,0,0,0,0c0.3,0,0.6,0.1,0.8,0.1c0.2,0,0.4,0,0.6,0.1c0,0,0.1,0,0.2,0c0.1,0,0.1,0,0.2,0
		c0.1,0,0.2,0,0.4,0c0.1,0,0.2,0,0.4,0c0.8,0,1.7,0,2.6,0c0.2,0,0.3,0,0.5,0c0.6,0,1.2-0.1,1.7-0.1c0,0,0.1,0,0.1,0c0,0,0.1,0,0.1,0
		c0,0,0.1,0,0.1,0c0,0,0.1,0,0.1,0c0.1,0,0.1,0,0.2,0c0.1,0,0.2,0,0.2,0c0.1,0,0.3,0,0.4,0c0.1,0,0.2,0,0.3,0h0c0,0,0.1,0,0.1,0
		c0.9-0.1,1.8-0.2,2.7-0.4c0,0,0,0,0,0c0,0,0.1,0,0.1,0c0,0,0.1,0,0.1,0c0.2,0,0.3,0,0.5-0.1c0.2,0,0.5-0.1,0.7-0.1c0,0,0,0,0,0
		c0,0,0,0,0.1,0c0,0,0,0,0,0s0,0,0,0c0.2,0,0.4-0.1,0.5-0.1c0,0,0.1,0,0.1,0c0.2,0,0.4-0.1,0.6-0.1c0.2,0,0.4-0.1,0.7-0.1
		c0,0,0,0,0,0h0l0,0c0.2,0,0.4-0.1,0.6-0.1h0c0.2,0,0.4-0.1,0.6-0.1c0,0,0,0,0,0c0.1,0,0.1,0,0.2,0c0.1,0,0.3-0.1,0.4-0.1
		c0,0,0,0,0.1,0c0,0,0,0,0,0c0.1,0,0.1,0,0.2,0c0.1,0,0.2,0,0.3-0.1c0,0,0.1,0,0.1,0c0.2,0,0.4-0.1,0.6-0.1c0.2,0,0.4-0.1,0.6-0.1
		c0.1,0,0.3-0.1,0.4-0.1c0.1,0,0.1,0,0.2,0c0.1,0,0.2-0.1,0.4-0.1c0.2-0.1,0.5-0.1,0.8-0.2c0.1,0,0.2,0,0.3-0.1
		c0.7-0.2,1.2-0.3,1.8-0.5c0.1,0,0.2-0.1,0.3-0.1c0,0,0.1,0,0.1,0c0.1,0,0.2,0,0.2-0.1c0,0,0,0,0,0c0.1,0,0.2,0,0.2-0.1
		c0.1,0,0.2,0,0.2-0.1c0,0,0.1,0,0.1,0c0.4-0.1,0.7-0.2,0.9-0.2h0c0,0,0.1,0,0.1,0c0.1,0,0.1,0,0.2,0c0,0,0,0,0.1,0c0,0,0.1,0,0.1,0
		c0,0,0,0,0,0c0,0,0,0,0,0c0,0,0,0,0,0c0,0,0.1,0,0.1,0c0.9-0.3,1.9-0.5,2.8-0.7c0.9-0.2,1.9-0.4,2.8-0.6c0.5-0.1,0.9-0.2,1.4-0.3
		c0.6-0.1,1.2-0.2,1.8-0.3c0.2,0,0.4-0.1,0.6-0.1c0.6-0.1,1.2-0.2,1.8-0.2c0.5-0.1,1-0.1,1.5-0.2c0.4,0,0.8-0.1,1.2-0.1
		c0.9-0.1,1.8-0.2,2.8-0.2c3.1-0.2,6.2-0.2,9.3-0.1c0.6,0,1.3,0,1.9,0.1c0.3,0,0.7,0,1,0.1h0.1c0.4,0,0.7,0,1.1,0.1
		c0.2,0,0.5,0,0.8,0.1c0.3,0,0.6,0,0.9,0.1c0.5,0.1,1.1,0.1,1.7,0.2c0.2,0,0.4,0,0.5,0.1c0.4,0,0.8,0.1,1.3,0.1
		c0.6,0.1,1.2,0.2,1.8,0.2c0-0.2,0.2-0.4,0.3-0.5C160.6,105.7,160.7,105.7,160.7,105.6c0.2-0.1,0.4-0.2,0.6-0.3
		C161.1,105.4,160.9,105.5,160.7,105.6z M161.3,105.3c0.4-0.2,0.8-0.4,1.1-0.6C162.1,104.9,161.7,105.1,161.3,105.3z M181.8,105.2
		c-0.5-0.3-3-1.9-6.9-2.5C178.8,103.3,181.3,105,181.8,105.2c1.1,0.8,1.8,1.7,2.3,2.6C183.6,107,182.9,106,181.8,105.2z"/>
</g>
<g>
	<path class="st0" d="M120.9,108.6c15,2.9,23,10.1,34.8,17.1c5,3,10.8,5.9,18,8.4c5,1.8,9.1,2.4,12.4,2.3
		c12.7-0.4,13.9-11.9,13.9-11.9s0.3-2,0.5-5.1c-0.3-0.2-6.7-3.7-16.6-7.2c-6.4-2.3-14.3-4.5-23.1-5.8c-11.6-1.7-24.6-1.9-37.7,1.7
		C123.1,108,122.2,108.3,120.9,108.6z"/>
	<path class="st1" d="M160.1,106.5c0-0.1,0-0.2,0-0.2c0,0,0,0,0,0c-0.6-0.1-1.2-0.2-1.8-0.2c-0.4-0.1-0.8-0.1-1.3-0.1
		c-0.2,0-0.4-0.1-0.5-0.1c-0.5-0.1-1.1-0.1-1.7-0.2c-0.3,0-0.6-0.1-0.9-0.1c-0.2,0-0.5-0.1-0.8-0.1c-0.4,0-0.7-0.1-1.1-0.1H152
		c-0.3,0-0.7,0-1-0.1c-0.6,0-1.2-0.1-1.9-0.1c-3-0.1-6.1-0.1-9.3,0.1c-0.9,0.1-1.8,0.1-2.8,0.2c-0.4,0-0.8,0.1-1.2,0.1
		c-0.5,0-1,0.1-1.5,0.2c-0.6,0.1-1.2,0.2-1.8,0.2c-0.2,0-0.4,0.1-0.6,0.1c-0.6,0.1-1.2,0.2-1.8,0.3c-0.5,0.1-0.9,0.2-1.4,0.3
		c-0.9,0.2-1.9,0.4-2.8,0.6c-1,0.2-1.9,0.5-2.8,0.7c0,0,0,0-0.1,0c0,0,0,0,0,0c0,0,0,0,0,0c0,0,0,0,0,0c0,0-0.1,0-0.1,0c0,0,0,0,0,0
		l0,0c0,0-0.1,0-0.2,0c0,0-0.1,0-0.1,0c0.5,0.1,0.9,0.2,1.4,0.3c11.3-3,23.6-3.5,36.7-1.5C160.3,106.9,160.2,106.7,160.1,106.5z
		 M160.1,106.5c0-0.1,0-0.2,0-0.2c0,0,0,0,0,0c-0.6-0.1-1.2-0.2-1.8-0.2c-0.4-0.1-0.8-0.1-1.3-0.1c-0.2,0-0.4-0.1-0.5-0.1
		c-0.5-0.1-1.1-0.1-1.7-0.2c-0.3,0-0.6-0.1-0.9-0.1c-0.2,0-0.5-0.1-0.8-0.1c-0.4,0-0.7-0.1-1.1-0.1H152c-0.3,0-0.7,0-1-0.1
		c-0.6,0-1.2-0.1-1.9-0.1c-3-0.1-6.1-0.1-9.3,0.1c-0.9,0.1-1.8,0.1-2.8,0.2c-0.4,0-0.8,0.1-1.2,0.1c-0.5,0-1,0.1-1.5,0.2
		c-0.6,0.1-1.2,0.2-1.8,0.2c-0.2,0-0.4,0.1-0.6,0.1c-0.6,0.1-1.2,0.2-1.8,0.3c-0.5,0.1-0.9,0.2-1.4,0.3c-0.9,0.2-1.9,0.4-2.8,0.6
		c-1,0.2-1.9,0.5-2.8,0.7c0,0,0,0-0.1,0c0,0,0,0,0,0c0,0,0,0,0,0c0,0,0,0,0,0c0,0-0.1,0-0.1,0c0,0,0,0,0,0l0,0c0,0-0.1,0-0.2,0
		c0,0-0.1,0-0.1,0c0.5,0.1,0.9,0.2,1.4,0.3c11.3-3,23.6-3.5,36.7-1.5C160.3,106.9,160.2,106.7,160.1,106.5z M200.8,118.7l-0.1-0.1
		c0,0,0,0-0.1,0c-0.2-0.1-0.4-0.2-0.7-0.3c-0.2-0.1-0.4-0.2-0.5-0.3c-1.2-0.6-2.7-1.4-4.7-2.2c-0.4-0.2-0.7-0.3-1.1-0.5
		c-0.8-0.3-1.5-0.7-2.4-1c-0.4-0.2-0.8-0.3-1.2-0.5c0,0-0.1,0-0.2-0.1c-0.9-0.4-1.8-0.7-2.8-1.1c-0.4-0.1-0.7-0.3-1.1-0.4
		c0,0-0.1,0-0.2-0.1c-0.4-0.1-0.7-0.3-1.1-0.4c-0.2-0.1-0.4-0.2-0.6-0.2c0,0,0,0-0.1,0c0,0,0,0,0,0c-0.2-0.1-0.5-0.2-0.7-0.2h0
		c-6.8-2.3-13.6-4.1-20.3-5.2c0,0,0,0,0,0c-0.4-0.1-0.8-0.1-1.1-0.2c0,0,0,0,0,0h0c-0.3-0.1-0.6-0.1-1-0.2c0,0-0.1,0-0.1,0h0
		c-13.5-2-26.2-1.4-37.9,1.7c-0.1,0-0.1,0.1-0.2,0.1c0,0,0,0,0,0c-0.3,0.1-1.3,0.4-1.9,0.5c0,0,0,0,0,0c0,0,0,0,0,0
		c-0.3,0.1-0.5,0.4-0.5,0.7c0,0,0,0.1,0,0.2c0.1,0.2,0.3,0.5,0.5,0.5c0,0,0.1,0,0.2,0c0,0,0,0,0,0h0c0.3,0.1,0.6,0.1,0.9,0.2
		c0.2,0,0.5,0.1,0.7,0.1c1.9,0.4,3.6,0.9,5.2,1.4c0.5,0.2,1,0.3,1.5,0.5c1,0.3,1.9,0.7,2.8,1.1c0.3,0.1,0.6,0.2,0.8,0.4
		c2.6,1.1,5,2.4,7.4,3.8c0.8,0.5,1.5,0.9,2.3,1.4c1.6,1,3.3,2.1,5,3.2c1,0.6,2,1.3,3,1.9c0.5,0.3,1.1,0.7,1.6,1
		c0.5,0.3,1.1,0.7,1.7,1c0,0,0,0,0,0c0.3,0.2,0.5,0.3,0.8,0.5v0c0.2,0.1,0.4,0.2,0.6,0.3c0.1,0,0.2,0.1,0.3,0.2l0,0
		c6,3.5,11.7,6.2,17.9,8.3c4.4,1.5,8.3,2.3,11.7,2.3c0.2,0,0.3,0,0.5,0c0,0,0,0,0,0c0.1,0,0.3,0,0.4,0c0.1,0,0.2,0,0.3,0
		c0.2,0,0.5,0,0.7,0c12.2-1,13.5-12.3,13.5-12.4c0-0.1,0.3-1.9,0.5-4.9c0-0.1,0-0.2,0-0.3C201.2,119.1,201.1,118.8,200.8,118.7z
		 M186.2,135.7c-0.1,0-0.1,0-0.1,0c-0.1,0-0.3,0-0.4,0h-0.3c-3.3,0-7.1-0.7-11.4-2.2c-8-2.8-13.9-6-17.7-8.3c0,0,0,0,0,0
		c-0.1,0-0.1-0.1-0.2-0.1c0,0-0.1,0-0.1-0.1h0c-0.6-0.4-1.3-0.8-1.9-1.1c0,0,0,0,0,0c-0.7-0.4-1.3-0.8-2-1.2
		c-1.3-0.8-2.5-1.6-3.7-2.4c-3.1-2-6.1-3.9-9.2-5.7c-0.4-0.2-0.7-0.4-1.1-0.6c-0.3-0.2-0.6-0.3-0.9-0.5c-2-1-4-1.9-6.2-2.8
		c0,0,0,0,0,0c-1.1-0.4-2.2-0.8-3.4-1.2c-0.1,0-0.2,0-0.2-0.1c-0.5-0.1-1-0.3-1.6-0.4c-0.3-0.1-0.6-0.2-0.9-0.2
		c-0.3-0.1-0.6-0.2-0.9-0.2c0,0,0,0,0,0c11.3-3,23.6-3.5,36.7-1.5c0,0,0,0,0,0c0,0,0.1,0,0.2,0c0.1,0,0.1,0,0.2,0
		c7.5,1.1,15.2,3.1,22.8,5.8c0.1,0,0.1,0,0.2,0.1c0.4,0.2,0.8,0.3,1.3,0.5c0.5,0.2,0.9,0.3,1.4,0.5c0.5,0.2,0.9,0.4,1.4,0.5
		c0.5,0.2,0.9,0.3,1.3,0.5c0.4,0.2,0.8,0.3,1.2,0.5c2,0.8,3.8,1.6,5.3,2.3c0.3,0.1,0.6,0.3,0.9,0.4c1.4,0.7,2.4,1.2,3.2,1.6
		c-0.2,2.8-0.5,4.6-0.5,4.7c0,0-0.3,2.7-2.1,5.5C194.8,133.5,191.1,135.5,186.2,135.7z M160.1,106.5c0-0.1,0-0.2,0-0.2c0,0,0,0,0,0
		c-0.6-0.1-1.2-0.2-1.8-0.2c-0.4-0.1-0.8-0.1-1.3-0.1c-0.2,0-0.4-0.1-0.5-0.1c-0.5-0.1-1.1-0.1-1.7-0.2c-0.3,0-0.6-0.1-0.9-0.1
		c-0.2,0-0.5-0.1-0.8-0.1c-0.4,0-0.7-0.1-1.1-0.1H152c-0.3,0-0.7,0-1-0.1c-0.6,0-1.2-0.1-1.9-0.1c-3-0.1-6.1-0.1-9.3,0.1
		c-0.9,0.1-1.8,0.1-2.8,0.2c-0.4,0-0.8,0.1-1.2,0.1c-0.5,0-1,0.1-1.5,0.2c-0.6,0.1-1.2,0.2-1.8,0.2c-0.2,0-0.4,0.1-0.6,0.1
		c-0.6,0.1-1.2,0.2-1.8,0.3c-0.5,0.1-0.9,0.2-1.4,0.3c-0.9,0.2-1.9,0.4-2.8,0.6c-1,0.2-1.9,0.5-2.8,0.7c0,0,0,0-0.1,0c0,0,0,0,0,0
		c0,0,0,0,0,0c0,0,0,0,0,0c0,0-0.1,0-0.1,0c0,0,0,0,0,0l0,0c0,0-0.1,0-0.2,0c0,0-0.1,0-0.1,0c0.5,0.1,0.9,0.2,1.4,0.3
		c11.3-3,23.6-3.5,36.7-1.5C160.3,106.9,160.2,106.7,160.1,106.5z M160.1,106.5c0-0.1,0-0.2,0-0.2c0,0,0,0,0,0
		c-0.6-0.1-1.2-0.2-1.8-0.2c-0.4-0.1-0.8-0.1-1.3-0.1c-0.2,0-0.4-0.1-0.5-0.1c-0.5-0.1-1.1-0.1-1.7-0.2c-0.3,0-0.6-0.1-0.9-0.1
		c-0.2,0-0.5-0.1-0.8-0.1c-0.4,0-0.7-0.1-1.1-0.1H152c-0.3,0-0.7,0-1-0.1c-0.6,0-1.2-0.1-1.9-0.1c-3-0.1-6.1-0.1-9.3,0.1
		c-0.9,0.1-1.8,0.1-2.8,0.2c-0.4,0-0.8,0.1-1.2,0.1c-0.5,0-1,0.1-1.5,0.2c-0.6,0.1-1.2,0.2-1.8,0.2c-0.2,0-0.4,0.1-0.6,0.1
		c-0.6,0.1-1.2,0.2-1.8,0.3c-0.5,0.1-0.9,0.2-1.4,0.3c-0.9,0.2-1.9,0.4-2.8,0.6c-1,0.2-1.9,0.5-2.8,0.7c0,0,0,0-0.1,0c0,0,0,0,0,0
		c0,0,0,0,0,0c0,0,0,0,0,0c0,0-0.1,0-0.1,0c0,0,0,0,0,0l0,0c0,0-0.1,0-0.2,0c0,0-0.1,0-0.1,0c0.5,0.1,0.9,0.2,1.4,0.3
		c11.3-3,23.6-3.5,36.7-1.5C160.3,106.9,160.2,106.7,160.1,106.5z"/>
</g>
<g>
	<path class="st0" d="M160.8,106.4c8.8,1.3,16.7,3.6,23.1,5.8c0,0,1-3.8-2.6-6.3C178.8,104.1,170.9,100.7,160.8,106.4z"/>
	<path class="st1" d="M184.7,109.9c0-0.2-0.1-0.4-0.1-0.6c-0.1-0.4-0.2-0.7-0.3-1.1c-0.1-0.1-0.1-0.3-0.2-0.4
		c-0.5-0.9-1.2-1.8-2.3-2.6c-0.5-0.3-3-2-6.9-2.6c-1.4-0.2-3.1-0.3-4.8-0.1c-0.2,0-0.4,0.1-0.7,0.1c-0.4,0.1-0.9,0.1-1.4,0.2
		c-0.4,0.1-0.7,0.1-1.1,0.2h0c-0.4,0.1-0.7,0.2-1.1,0.3c-0.2,0.1-0.4,0.1-0.6,0.2c-0.6,0.2-1.2,0.4-1.8,0.7c-0.3,0.1-0.6,0.3-1,0.4
		c-0.4,0.2-0.8,0.4-1.1,0.6c-0.2,0.1-0.4,0.2-0.6,0.3c-0.1,0-0.2,0.1-0.3,0.2c-0.2,0.1-0.3,0.3-0.3,0.5c0,0,0,0,0,0
		c0,0.1,0,0.2,0,0.2c0,0.2,0.2,0.4,0.4,0.5c0,0,0,0,0,0c0,0,0.1,0,0.1,0c0,0,0.1,0,0.1,0c7.6,1.1,15.3,3.1,23,5.8c0,0,0.1,0,0.2,0
		c0,0,0,0,0.1,0c0,0,0,0,0,0c0.1,0,0.2,0,0.3-0.1c0.2-0.1,0.3-0.2,0.3-0.4l0,0v0c0-0.2,0.1-0.4,0.1-0.7c0,0,0,0,0,0h0
		c0-0.1,0-0.2,0-0.3C184.8,110.9,184.8,110.4,184.7,109.9z M183.3,111.1c0,0,0,0.1,0,0.1c0,0,0,0,0,0h0c-6.8-2.3-13.6-4.1-20.3-5.2
		c0,0,0,0,0,0c10-4.7,17.1-0.1,17.9,0.5c0.9,0.6,1.5,1.3,1.8,2v0c0.1,0.3,0.2,0.6,0.3,0.8c0,0.1,0.1,0.3,0.1,0.4
		c0,0.2,0,0.3,0.1,0.4C183.4,110.5,183.4,110.8,183.3,111.1z"/>
</g>
<g>
	<path class="st2" d="M1.2,53.1c2,3.2,7.4,14.3,7.6,20s-1,17.3,1.4,21.2c2.4,3.9,5.8,4.3,8.7,4.8s5.5,0.6,10.6,0
		c5.1-0.6,12.1-2.4,14.2,6.7c0.5,2.2,0.4,4.5-0.2,6.6c-1.6,5.4-1.9,13.6,4.9,17.6c6.1,3.6,13,2.8,17.7,2c1.3-0.2,2.5-0.5,3.7-0.9
		c3.2-0.9,14.7-3.2,17.5,9.8c3,13.4,8.3,17.2,13.5,21.2c0.8,0.6,1.9,0,1.8-1c-0.4-6.1-0.8-19.9,9.7-31.5c-7.3-2.3-13-7.4-15.3-17.3
		c-0.1-0.3-0.1-0.6-0.2-1c-5.7-28,17.8-34.6,29.7-40.7c6.7-3.5,8.7-8.9,9.1-13c-9.1-7.2-19.4-10.6-33.9-12.6
		c-14.4-1.9-35.7,3.1-50.1,7.9c-14.4,4.8-35.3,6.2-49.1-1.6C1.6,50.9,0.6,52.2,1.2,53.1z"/>
	<path class="st1" d="M136,57.2c0,0-0.1-0.1-0.1-0.1c-0.1-0.1-0.2-0.2-0.3-0.2c-0.2-0.2-0.4-0.4-0.7-0.5
		c-8.4-6.3-18.4-9.9-33.1-11.9c-11.1-1.5-26.6,1.1-40.1,4.8c-3.6,1-7.1,2-10.3,3.1c-19.9,6.7-38.7,4-48.5-1.5
		c-0.7-0.4-1.5-0.3-2.1,0.3c-0.6,0.6-0.7,1.6-0.3,2.3c0,0,0,0,0,0c2,3.2,7.3,14.2,7.5,19.7c0.1,1.6,0,3.6,0,5.8
		C8,85,7.8,91.8,9.7,94.7c2.5,4,6.1,4.6,9,5.1l0.2,0c2.8,0.5,5.4,0.6,10.8,0c0.4-0.1,0.9-0.1,1.4-0.2C35.8,99,41.3,98.3,43,106
		c0.4,2,0.4,4.2-0.2,6.3c-0.9,3.1-3.2,13.5,5.2,18.4c4.9,2.9,10.3,3,15,2.5c1.1-0.1,2.1-0.3,3.1-0.5c1.2-0.2,2.5-0.5,3.8-0.9
		c2-0.6,7.1-1.6,11.3,0.9c2.7,1.6,4.5,4.4,5.4,8.4c3,13.3,8.2,17.4,13.3,21.3l0.4,0.3c0.3,0.2,0.7,0.4,1.1,0.4
		c0.3,0,0.6-0.1,0.9-0.2c0.6-0.3,1-1,1-1.7c-0.3-4.7-1.3-18.8,9.3-30.6c0.1-0.1,0.2-0.2,0.3-0.3c0.1-0.1,0.1-0.2,0.2-0.3
		c0-0.1,0-0.2,0-0.4c-0.1-0.2-0.2-0.4-0.5-0.5c0,0,0,0,0,0c-1-0.3-1.9-0.7-2.8-1.1c-1.3-0.6-2.6-1.4-3.7-2.2
		c-0.3-0.2-0.5-0.4-0.8-0.6c-0.5-0.4-1-0.8-1.4-1.3c-0.2-0.2-0.4-0.4-0.5-0.6c-0.3-0.4-0.7-0.7-1-1.1c-2.1-2.7-3.7-6-4.5-9.9v0
		c0-0.2-0.1-0.5-0.2-0.7c0-0.1,0-0.2,0-0.2c0-0.2-0.1-0.3-0.1-0.5v0c-4.6-23.6,12.2-31.4,24.5-37.1c1.8-0.8,3.5-1.6,5-2.4
		c6.4-3.3,8.6-8.3,9.3-12.3c0,0,0,0,0,0c0-0.2,0.1-0.5,0.1-0.8c0,0,0,0,0,0c0-0.1,0-0.3,0-0.4C136.3,57.6,136.2,57.4,136,57.2z
		 M107.3,128.4c0.2,0.1,0.5,0.3,0.7,0.4c0.2,0.1,0.3,0.2,0.5,0.2c0.3,0.1,0.6,0.3,0.8,0.4c0.3,0.1,0.6,0.2,0.9,0.4
		c0.1,0.1,0.3,0.1,0.4,0.2c0.1,0.1,0.3,0.1,0.4,0.2c-10.5,12.2-9.5,26.5-9.2,31.2c0,0.2-0.1,0.3-0.2,0.4c-0.1,0-0.3,0.1-0.5,0
		l-0.4-0.3c-5.1-3.9-10-7.6-12.8-20.5c-1-4.4-3-7.5-6-9.3c-2.3-1.4-4.8-1.8-7-1.8c-2.3,0-4.3,0.5-5.4,0.8c-1.2,0.3-2.5,0.6-3.7,0.8
		c-1.1,0.2-2.3,0.4-3.6,0.5c-4.3,0.4-9.2,0.2-13.6-2.4c-7.5-4.4-5.4-14-4.6-16.8c0.7-2.3,0.8-4.7,0.2-7c-2-8.9-8.7-8-13.6-7.4
		c-0.5,0.1-0.9,0.1-1.3,0.2c-5.2,0.6-7.7,0.5-10.4,0l-0.2,0c-2.9-0.5-5.8-1-8-4.5C9.2,91.4,9.4,84.5,9.5,79c0-2.2,0.1-4.3,0-5.9
		c-0.3-5.9-5.7-17-7.8-20.4c-0.1-0.2,0-0.5,0.1-0.6c0.2-0.2,0.3-0.1,0.4,0c14,7.9,35,6.6,49.7,1.7c2.8-0.9,5.8-1.9,9-2.8
		c13.6-3.8,29.5-6.6,40.8-5.1c15.1,2,24.8,5.5,33.2,12.2c0,0,0,0,0,0c-0.5,3.8-2.4,8.8-8.6,12.1c-1.5,0.8-3.1,1.5-4.9,2.3
		c-12,5.6-30.1,14-25.2,38.8c0,0.1,0,0.2,0.1,0.3c0,0.1,0,0.1,0,0.2c0,0.2,0.1,0.5,0.2,0.8c0.7,3.3,1.9,6.2,3.5,8.6
		c0.3,0.4,0.5,0.8,0.8,1.2c0.3,0.4,0.6,0.7,0.9,1.1c0,0,0,0,0.1,0.1c0.3,0.4,0.6,0.7,0.9,1c0.3,0.3,0.6,0.6,0.9,0.9
		c0.1,0,0.1,0.1,0.2,0.2c0.3,0.3,0.7,0.6,1,0.8c0.4,0.3,0.7,0.6,1.1,0.8c0,0,0.1,0.1,0.2,0.1c0.3,0.2,0.5,0.3,0.8,0.5
		C106.8,128.1,107.1,128.2,107.3,128.4z"/>
</g>
<g>
	<path class="st2" d="M186.4,137.1c-0.2-0.4-0.3-0.7-0.3-0.7l0,0H186c-3.3,0.1-7.3-0.5-12.2-2.3c-7-2.5-12.5-5.3-17.4-8.1
		c-0.2-0.1-0.4-0.2-0.6-0.3c0,0,0,0,0,0c0,0,0,0,0,0h0c-0.2,0-0.5,0.1-0.7,0.2c-0.1,0-0.2,0-0.2,0.1c-0.4,0.1-0.8,0.2-1.3,0.3
		c-0.3,0.1-0.6,0.1-0.9,0.2c-0.8,0.2-1.5,0.4-2.3,0.6c-0.9,0.2-1.9,0.5-2.9,0.7c-2.2,0.5-4.6,1.1-7,1.6c-0.6,0.1-1.2,0.3-1.8,0.4
		c-0.5,0.1-0.9,0.2-1.3,0.2c-0.7,0.1-1.5,0.2-2.2,0.4c-1,0.2-2,0.3-3,0.4c-0.5,0.1-1.1,0.1-1.6,0.2c-0.6,0.1-1.2,0.1-1.8,0.2
		c-0.1,0-0.1,0-0.2,0c-0.3,0-0.5,0-0.8,0.1c-0.3,0-0.7,0-1.1,0c-0.3,0-0.6,0-0.9,0c-0.3,0-0.6,0-1,0c-1.2,0-2.3,0-3.4-0.1l-0.2,0.1
		c0.1,0.2,0.2,0.4,0.2,0.6c6.7,18.3,0.4,36.7-3.2,44.8c0.2,0.1,0.4,0.1,0.7,0.2c7.5,2,15.3,3.1,23.4,3.1c18.5,0,35.6-5.5,49.9-15.1
		c0.2-0.1,0.5-0.3,0.7-0.5C191.7,150.7,187.5,139.8,186.4,137.1z"/>
	<path class="st1" d="M155.6,126.5c-0.5,0.1-1,0.2-1.5,0.4C154.6,126.7,155.1,126.6,155.6,126.5L155.6,126.5z M151.5,127.5
		c0.3-0.1,0.7-0.2,1-0.3c0,0,0,0,0.1,0C152.2,127.3,151.8,127.4,151.5,127.5z M155.6,126.5c-0.5,0.1-1,0.2-1.5,0.4
		C154.6,126.7,155.1,126.6,155.6,126.5L155.6,126.5z M152.5,127.2C152.5,127.2,152.5,127.2,152.5,127.2c-0.3,0.1-0.6,0.2-1,0.3
		C151.8,127.4,152.2,127.3,152.5,127.2z M187.1,137c-0.1-0.3-0.2-0.5-0.3-0.7c-0.1-0.1-0.1-0.2-0.1-0.2c0-0.1-0.1-0.2-0.2-0.2
		c-0.1-0.1-0.3-0.2-0.4-0.2c-0.1,0-0.1,0-0.1,0c-0.1,0-0.3,0-0.4,0h-0.3c-3.3,0-7.1-0.8-11.4-2.2c-8.1-2.8-14.1-6.1-17.9-8.4
		c0,0-0.1,0-0.1,0c0,0-0.1,0-0.1,0h0c-0.1,0-0.2,0-0.3,0c-0.2,0.1-0.5,0.1-0.7,0.2c0,0,0,0,0,0c-0.3,0.1-0.6,0.2-0.9,0.2
		c-0.6,0.1-1.2,0.3-1.8,0.4c-0.9,0.2-1.9,0.5-2.9,0.7c0,0,0,0,0,0c-1,0.2-2.1,0.5-3.2,0.8c-1.4,0.3-2.8,0.7-4.3,1
		c-1.5,0.3-3,0.6-4.6,0.9c-0.3,0-0.6,0.1-0.9,0.2c-0.6,0.1-1.2,0.2-1.9,0.3c-1.9,0.3-3.8,0.5-5.7,0.7c-0.6,0-1.2,0.1-1.9,0.1
		c-1.9,0.1-3.8,0.1-5.6,0c-0.1,0-0.2,0-0.2,0l-0.2,0.1c-0.2,0.1-0.3,0.2-0.4,0.4c0,0,0,0.1-0.1,0.2c0,0.1,0,0.2,0,0.4
		c0,0.1,0.1,0.2,0.1,0.3c6.8,18.1,0.4,36.6-3.2,44.6c0.2,0.1,0.5,0.1,0.7,0.2c0.2,0.1,0.4,0.1,0.7,0.2c3.6-8.2,9.9-26.7,3.3-44.9
		c0.6,0,1.3,0,1.9,0h0.1c0.6,0,1.2,0,1.9,0h0c0.6,0,1.3-0.1,1.9-0.1h0c1-0.1,1.9-0.1,2.9-0.2c0,0,0,0,0,0c1-0.1,1.9-0.2,2.9-0.4
		c0,0,0,0,0,0c0.6-0.1,1.3-0.2,1.9-0.3c0,0,0,0,0,0c0.6-0.1,1.3-0.2,1.9-0.3c0,0,0,0,0,0c1.4-0.3,2.8-0.5,4.2-0.8
		c0.5-0.1,0.9-0.2,1.3-0.3c0.6-0.1,1.2-0.3,1.8-0.4c0.9-0.2,1.7-0.4,2.6-0.6c1.1-0.3,2.1-0.5,3.1-0.8c0,0,0,0,0.1,0
		c0.4-0.1,0.7-0.2,1.1-0.3c0.3-0.1,0.7-0.2,1-0.3c0,0,0,0,0.1,0c0.1,0,0.2-0.1,0.3-0.1c0.4-0.1,0.8-0.2,1.2-0.3c0,0,0,0,0,0
		c0.5-0.1,1-0.2,1.5-0.4c0,0,0,0,0,0c6,3.5,11.7,6.2,17.9,8.3c4.5,1.6,8.6,2.4,12.1,2.3c0,0,0,0,0,0c0.9,2.2,5.4,13.6,6.2,27.8
		c0.2-0.1,0.5-0.3,0.7-0.5c0.2-0.1,0.4-0.3,0.6-0.5C192.3,150.7,188.3,140.1,187.1,137z M151.5,127.5c0.3-0.1,0.7-0.2,1-0.3
		c0,0,0,0,0.1,0C152.2,127.3,151.8,127.4,151.5,127.5z M155.6,126.5c-0.5,0.1-1,0.2-1.5,0.4C154.6,126.7,155.1,126.6,155.6,126.5
		L155.6,126.5z M155.6,126.5c-0.5,0.1-1,0.2-1.5,0.4C154.6,126.7,155.1,126.6,155.6,126.5L155.6,126.5z M151.5,127.5
		c0.3-0.1,0.7-0.2,1-0.3c0,0,0,0,0.1,0C152.2,127.3,151.8,127.4,151.5,127.5z"/>
</g>
<g>
	<path class="st1" d="M140.8,51.5c-0.1,0-0.1,0-0.2,0c-0.7-0.2-1.1-0.8-1-1.4c0-0.4,0.4-0.7,0.7-0.7c0.4,0,0.7,0.3,0.7,0.7
		c0,0,0,0,0.1,0c0.4,0.1,0.6,0.5,0.5,0.9C141.3,51.3,141.1,51.5,140.8,51.5z"/>
</g>
<g>
	<path class="st1" d="M141.8,51.6c-0.5,0-0.9,0-1.3-0.2c-0.4-0.1-0.6-0.5-0.4-0.9s0.5-0.6,0.9-0.4c0.7,0.2,2.4,0,3.5-0.2
		c0.4-0.1,0.8,0.1,0.8,0.5c0.1,0.4-0.2,0.8-0.5,0.8C144.5,51.3,143.1,51.6,141.8,51.6z"/>
</g>
<g>
	<path class="st2" d="M135.2,52.1c0.4,0,0.7,0,1-0.1c0.1,0,0.3,0,0.4,0c0,0,0,0,0,0c3.5-0.3,4-0.9,4.1-1.1c0,0,0-0.1,0-0.1
		c-0.3-0.1-0.6-0.3-0.6-0.6c0-0.4,0.3-1,1.1-1.8c1-1,2.2-1.8,3.6-2.5c-0.2,0,2.3-6.5,6-11.4C135.4,25.5,132.3,44.8,135.2,52.1z"/>
	<path class="st1" d="M140.8,47.8c-0.3,0.4-0.6,0.7-0.8,1C140.2,48.5,140.4,48.2,140.8,47.8c0.1-0.1,0.2-0.2,0.3-0.3
		C141,47.6,140.9,47.7,140.8,47.8z M140.8,47.8c-0.3,0.4-0.6,0.7-0.8,1C140.2,48.5,140.4,48.2,140.8,47.8c0.1-0.1,0.2-0.2,0.3-0.3
		C141,47.6,140.9,47.7,140.8,47.8z M151.3,33.9C151.3,33.9,151.2,33.8,151.3,33.9c-0.3-0.2-0.4-0.3-0.6-0.4
		c-6.4-3.5-10.4-2-12.6-0.1c-4.9,4.3-5.4,13.9-3.6,18.7c0,0.1,0.1,0.2,0.1,0.2c0.1,0.3,0.4,0.4,0.6,0.4h0l0.1,0l0.7-0.1l0.2,0
		c0.1,0,0.2,0,0.3,0c0.1,0,0.2,0,0.2,0c0.8-0.1,1.5-0.2,2.1-0.3c0.1,0,0.1,0,0.2,0c0.1,0,0.2-0.1,0.4-0.1c0.1,0,0.2,0,0.3-0.1
		c0.1,0,0.2,0,0.3-0.1c0.1,0,0.2,0,0.2-0.1c0.1,0,0.1,0,0.2-0.1c0.1,0,0.1-0.1,0.2-0.1c0.2-0.1,0.4-0.2,0.5-0.3h0
		c0,0,0.1-0.1,0.1-0.1c0.1-0.1,0.1-0.2,0.2-0.3c0,0,0,0,0-0.1c0,0,0-0.1,0-0.1s0-0.1,0-0.2c0-0.1,0-0.3-0.1-0.4l0,0c0,0,0,0,0,0
		c0,0,0,0,0,0c0,0-0.1-0.1-0.1-0.1l0,0c0,0-0.1,0-0.1,0c0,0,0,0,0,0c0,0,0,0,0,0c-0.1,0-0.1,0-0.1,0v0c0,0,0-0.1,0-0.1
		c0-0.1,0.1-0.3,0.3-0.5c0-0.1,0.1-0.1,0.1-0.1h0c0,0,0,0,0,0c0.1-0.1,0.2-0.3,0.4-0.5c0.1-0.1,0.2-0.2,0.3-0.3c0,0,0,0,0,0
		c0.6-0.5,1.3-1,2.1-1.5c0,0,0.1,0,0.1-0.1c0.3-0.2,0.6-0.3,0.9-0.5c0.1,0,0.1-0.1,0.2-0.1c0.1-0.1,0.2-0.3,0.2-0.5
		c0-0.1,0-0.2,0.1-0.3c0,0,0-0.1,0-0.1c0.1-0.2,0.2-0.5,0.3-0.8c0,0,0-0.1,0-0.1c0.7-1.8,2.3-5,4.2-7.9c0.1-0.2,0.2-0.3,0.3-0.5
		c0.3-0.4,0.6-0.8,0.9-1.2c0.1-0.2,0.2-0.4,0.1-0.6C151.5,34.1,151.4,34,151.3,33.9z M149.4,35.3c-2.1,3.2-4.6,8-5.1,10
		c-0.1,0.1-0.2,0.1-0.3,0.2c-0.1,0-0.1,0.1-0.2,0.1c-0.2,0.1-0.3,0.2-0.5,0.3c-0.8,0.5-1.5,1-2.1,1.6c0,0,0,0,0,0
		c-0.1,0.1-0.2,0.2-0.3,0.3c-0.3,0.4-0.6,0.7-0.8,1c-0.1,0.1-0.1,0.2-0.2,0.3c-0.1,0.2-0.2,0.5-0.2,0.7c0,0,0,0,0,0
		c0,0.1,0,0.2,0,0.4c0,0.2,0.1,0.4,0.2,0.6h0l0,0c0,0,0,0,0,0v0c-0.1,0-0.1,0-0.2,0c-0.1,0-0.2,0-0.2,0.1c-0.1,0-0.1,0-0.2,0
		c-0.1,0-0.3,0.1-0.5,0.1c0,0,0,0-0.1,0c0,0-0.1,0-0.1,0c-0.5,0.1-1,0.2-1.7,0.2c-0.1,0-0.2,0-0.3,0c0,0-0.1,0-0.2,0l-0.5,0
		c0,0,0,0,0,0c-1.5-4.5-0.9-13.1,3.3-16.8c1.3-1.2,2.9-1.7,4.6-1.7c1.8,0,3.9,0.6,6.2,1.9C149.7,34.9,149.6,35.1,149.4,35.3z
		 M140.8,47.8c-0.3,0.4-0.6,0.7-0.8,1C140.2,48.5,140.4,48.2,140.8,47.8c0.1-0.1,0.2-0.2,0.3-0.3C141,47.6,140.9,47.7,140.8,47.8z
		 M140.8,47.8c-0.3,0.4-0.6,0.7-0.8,1C140.2,48.5,140.4,48.2,140.8,47.8c0.1-0.1,0.2-0.2,0.3-0.3C141,47.6,140.9,47.7,140.8,47.8z"
		/>
</g>
<g>
	<path class="st1" d="M159,29.1c-2.8-0.4-5.7,2.1-8.1,5.3c-3.7,4.8-6.3,11.3-6,11.3c4.6-2.1,8.4-2.3,8.4-2.3
		C158.8,40.3,164.4,30,159,29.1z"/>
	<path class="st1" d="M161.8,31c-0.2-1.4-1.2-2.3-2.7-2.6c0,0,0,0,0,0c-2.6-0.4-5.5,1.4-8.4,5.1c-0.1,0.1-0.2,0.3-0.3,0.4
		c0,0-0.1,0.1-0.1,0.1c-0.1,0.2-0.3,0.4-0.4,0.6c-0.1,0.2-0.3,0.4-0.4,0.6c-2.4,3.5-4.8,8.2-5.1,10c0,0,0,0,0,0
		c-0.1,0.3-0.1,0.5,0,0.6c0,0,0,0.1,0.1,0.1c0,0,0,0,0,0c0.1,0.2,0.3,0.3,0.5,0.3h0.1c0.1,0,0.2,0,0.3-0.1c0.1,0,0.1,0,0.2-0.1
		c4.4-2,7.9-2.2,8-2.2c0.1,0,0.1,0,0.2,0h0c0,0,0.1,0,0.1-0.1c0.2-0.1,0.3-0.2,0.5-0.3C158.5,41,162.5,34.5,161.8,31z M153.1,42.7
		c-0.7,0.1-3.5,0.4-7,1.8c0,0,0,0-0.1,0c0.7-1.7,2.2-4.9,4.2-8c0.1-0.2,0.2-0.3,0.3-0.5c0.3-0.4,0.6-0.8,0.9-1.2
		c2.4-3.3,4.9-5,6.9-5c0.2,0,0.4,0,0.5,0c0.9,0.2,1.4,0.6,1.5,1.5C161,34.3,157,40.4,153.1,42.7z"/>
</g>
<g>
	<path class="st0" d="M96.8,111.5c0.1,0.3,0.1,0.6,0.2,1c2.2,9.9,8,15,15.3,17.3c2.8,0.9,5.8,1.3,8.9,1.5
		c12.4,0.7,26.5-3.5,34.6-5.5c-11.8-7-19.8-14.1-34.8-17.1C115.9,109.9,103.6,112.8,96.8,111.5z"/>
	<path class="st1" d="M156.2,125.2C156.2,125.2,156.2,125.2,156.2,125.2c0,0-0.1-0.1-0.1-0.1c0,0-0.1,0-0.1,0
		c-0.7-0.4-1.3-0.8-2-1.2c0,0,0,0,0,0c-0.7-0.4-1.3-0.8-2-1.2c-1.3-0.8-2.5-1.6-3.7-2.4c-3.1-2-6.1-3.9-9.2-5.7
		c-0.4-0.2-0.7-0.4-1.1-0.6c-0.3-0.2-0.6-0.3-0.9-0.5c-2-1-4-1.9-6.2-2.8c0,0,0,0,0,0c-1.1-0.4-2.2-0.8-3.4-1.2
		c-0.1,0-0.2,0-0.2-0.1c-0.5-0.1-1-0.3-1.6-0.4c-0.3-0.1-0.6-0.2-0.9-0.2c-0.3-0.1-0.6-0.2-0.9-0.2c0,0,0,0-0.1,0
		c-0.5-0.1-0.9-0.2-1.4-0.3h0c-0.4-0.1-0.9-0.2-1.4-0.3c-0.1,0-0.2,0-0.3,0c0,0,0,0,0,0c0,0,0,0,0,0c-0.3,0.1-0.7,0.2-1.2,0.3
		c-0.1,0-0.3,0.1-0.5,0.1c-1,0.2-2.1,0.5-3.4,0.8c-0.3,0.1-0.7,0.2-1.1,0.2c-0.5,0.1-1,0.2-1.5,0.3c-4.5,0.9-9.8,1.6-13.9,1.3
		c-0.3,0-0.5,0-0.8-0.1c-0.1,0-0.1,0-0.2,0c-0.2,0-0.4-0.1-0.7-0.1c0,0-0.1,0-0.1,0v0c0,0,0,0,0,0c0,0,0,0,0,0c-0.2,0-0.3,0-0.5-0.1
		c-0.1,0-0.2,0-0.2,0h0c-0.1,0-0.3,0.1-0.4,0.2c-0.1,0.1-0.2,0.2-0.2,0.4c0,0.1,0,0.2,0,0.3c0,0,0,0,0,0v0l0.2,1
		c0.7,3.3,1.9,6.2,3.5,8.7c0.3,0.4,0.5,0.8,0.8,1.2c0.3,0.4,0.6,0.7,0.9,1.1c0,0,0,0,0.1,0.1c0.3,0.4,0.6,0.7,0.9,1
		c0.3,0.3,0.6,0.6,0.9,0.9c0.1,0,0.1,0.1,0.2,0.2c0.3,0.3,0.7,0.6,1,0.8c0.4,0.3,0.7,0.6,1.1,0.8c0,0,0.1,0.1,0.2,0.1
		c0.3,0.2,0.5,0.3,0.8,0.5c0.2,0.1,0.5,0.3,0.7,0.4c0.2,0.1,0.5,0.3,0.7,0.4c0.2,0.1,0.3,0.2,0.5,0.2c0.3,0.1,0.6,0.3,0.8,0.4
		c0.3,0.1,0.6,0.2,0.9,0.4c0.1,0.1,0.3,0.1,0.4,0.2c0.1,0.1,0.3,0.1,0.4,0.2c0.2,0.1,0.5,0.2,0.7,0.2c0.1,0,0.2,0,0.2,0.1
		c0.2,0,0.3,0.1,0.5,0.1c2.3,0.7,4.9,1.2,7.9,1.4c0.2,0,0.5,0,0.7,0h0.1c0.2,0,0.5,0,0.8,0c0.6,0,1.3,0,1.9,0h0.1c0.6,0,1.2,0,1.9,0
		h0c0.6,0,1.3-0.1,1.9-0.1h0c1-0.1,1.9-0.1,2.9-0.2c0,0,0,0,0,0c1-0.1,1.9-0.2,2.9-0.4c0,0,0,0,0,0c0.6-0.1,1.3-0.2,1.9-0.3
		c0,0,0,0,0,0c0.6-0.1,1.3-0.2,1.9-0.3c0,0,0,0,0,0c1.4-0.3,2.8-0.5,4.2-0.8c0.5-0.1,0.9-0.2,1.3-0.3c0.6-0.1,1.2-0.3,1.8-0.4
		c0.9-0.2,1.7-0.4,2.6-0.6c1.1-0.3,2.1-0.5,3.1-0.8c0,0,0,0,0.1,0c0.4-0.1,0.7-0.2,1.1-0.3c0.4-0.1,0.7-0.2,1.1-0.3
		c0.1,0,0.2-0.1,0.3-0.1c0.4-0.1,0.8-0.2,1.2-0.3c0,0,0,0,0,0c0.5-0.1,1-0.3,1.5-0.4c0.1,0,0.2,0,0.3-0.1c0.2,0,0.3-0.2,0.4-0.3
		c0,0,0,0,0,0c0-0.1,0.1-0.1,0.1-0.2C156.4,125.6,156.3,125.4,156.2,125.2z M149.2,126.6c-1,0.2-2.1,0.5-3.2,0.8
		c-1.4,0.3-2.8,0.7-4.3,1c-1.5,0.3-3,0.6-4.6,0.9c-0.3,0-0.6,0.1-0.9,0.2c-0.6,0.1-1.2,0.2-1.9,0.3c-1.9,0.3-3.8,0.5-5.7,0.7
		c-0.6,0-1.2,0.1-1.9,0.1c-1.9,0.1-3.8,0.1-5.6,0c-3.4-0.2-6.2-0.7-8.7-1.5c-1-0.3-1.9-0.7-2.8-1.1c-1.3-0.6-2.6-1.4-3.7-2.2
		c-0.3-0.2-0.5-0.4-0.8-0.6c-0.5-0.4-1-0.8-1.4-1.3c-0.2-0.2-0.4-0.4-0.5-0.6c-0.3-0.4-0.7-0.7-1-1.1c-2.2-2.7-3.7-6-4.6-9.9h0v0h0
		c0.3,0,0.7,0.1,1,0.1c0.3,0,0.6,0,0.9,0.1c0.1,0,0.2,0,0.3,0c0.4,0,0.7,0,1.1,0c1.1,0,2.2-0.1,3.4-0.1c0.7-0.1,1.3-0.1,2-0.2
		c0.5,0,1-0.1,1.5-0.2c0.9-0.1,1.8-0.3,2.7-0.4c0.3,0,0.6-0.1,0.8-0.1c0.6-0.1,1.2-0.2,1.9-0.3c0.5-0.1,1-0.2,1.5-0.3
		c0.5-0.1,1.1-0.2,1.6-0.3c0.6-0.1,1.1-0.3,1.7-0.4c0.2,0,0.3-0.1,0.5-0.1c0.5-0.1,1-0.2,1.4-0.3c0.2,0,0.4-0.1,0.6-0.2
		c0.1,0,0.1,0,0.2-0.1c0,0,0,0,0,0h0c0.3,0.1,0.6,0.1,0.9,0.2c0.2,0,0.5,0.1,0.7,0.1c1.9,0.4,3.6,0.9,5.2,1.4c0.5,0.2,1,0.3,1.5,0.5
		c1,0.3,1.9,0.7,2.8,1.1c0.3,0.1,0.6,0.2,0.8,0.4c2.6,1.1,5,2.4,7.4,3.8c0.8,0.4,1.5,0.9,2.3,1.4c1.6,1,3.3,2.1,5,3.2
		c1,0.6,2,1.3,3,1.9c0.5,0.3,1.1,0.7,1.6,1c0.5,0.3,1.1,0.7,1.7,1c-0.5,0.2-1.1,0.3-1.7,0.4C151.3,126.1,150.3,126.4,149.2,126.6
		C149.2,126.6,149.2,126.6,149.2,126.6z"/>
</g>
<g>
	<path class="st0" d="M135.5,57.8c9.1,7.2,17.6,1.9,17.6,1.9c0-0.4,0-0.9,0.1-1.2c0.2-1.2,0.9-2.3,1.8-3.1c0.1-0.1,0.3-0.2,0.4-0.4
		c0.7-0.7,1.3-1.7,1.5-3.1c0,0,0.1-2.8,0.9-4.8c0,0-3.4-0.9-4.7-3.6c0,0-3.7,0.2-8.4,2.3c-1.3,0.6-2.6,1.5-3.6,2.5
		c-0.7,0.8-1,1.3-1.1,1.7c0,0.3,0.4,0.8,0.8,0.9c0,0-0.2,0.6-4.4,1c0,0,0,0,0,0c-0.1,0-0.3,0-0.4,0c-0.3,0-0.6,0-1,0.1
		C135.2,52.1,135.9,54.5,135.5,57.8z"/>
</g>
<g>
	<path class="st0" d="M141,51c0.9,0.3,3-0.4,3-0.4L141,51z"/>
</g>
<g>
	<path class="st1" d="M144.7,50.4c-0.1-0.3-0.3-0.5-0.6-0.5h0c-0.1,0-0.2,0-0.3,0c-0.1,0-0.1,0-0.2,0c0,0,0,0,0,0h0
		c-0.8,0.2-1.8,0.4-2.2,0.4l0,0c0,0,0,0,0,0c0,0,0,0-0.1,0c0,0,0,0.1,0.1,0.1c0,0,0,0,0,0.1c0,0,0,0.1,0,0.1c0,0.1,0,0.1,0,0.2
		c0,0,0,0.1,0,0.2l0,0h0c0,0,0,0.1,0,0.1c0,0,0,0.1,0,0.1c0,0.1-0.1,0.2-0.2,0.3c0,0-0.1,0.1-0.1,0.1h0c-0.1,0.1-0.3,0.2-0.5,0.3
		c-0.1,0-0.1,0.1-0.2,0.1c-0.1,0-0.1,0.1-0.2,0.1c-0.1,0-0.2,0.1-0.2,0.1c-0.1,0-0.2,0.1-0.3,0.1c-0.1,0-0.2,0.1-0.3,0.1
		c-0.1,0-0.2,0.1-0.4,0.1c1.2-0.2,1.8-0.4,2.2-0.6c0.9,0.1,2-0.2,2.7-0.4c0,0,0,0,0,0c0.2-0.1,0.3-0.1,0.3-0.1
		C144.6,51.2,144.8,50.8,144.7,50.4z M141.8,48.8c-0.2,0.2-0.3,0.3-0.4,0.5C141.5,49.2,141.6,49,141.8,48.8c0.1-0.1,0.2-0.2,0.3-0.3
		C142,48.6,141.9,48.7,141.8,48.8z M141.3,49.3c0,0-0.1,0.1-0.1,0.1C141.3,49.4,141.3,49.4,141.3,49.3L141.3,49.3z M144.7,50.4
		c-0.1-0.3-0.3-0.5-0.6-0.5h0c-0.1,0-0.2,0-0.3,0c-0.1,0-0.1,0-0.2,0c0,0,0,0,0,0h0c-0.8,0.2-1.8,0.4-2.2,0.4l0,0c0,0,0,0,0,0
		c0,0,0,0-0.1,0c0,0,0,0.1,0.1,0.1c0,0,0,0,0,0.1c0,0,0,0.1,0,0.1c0,0.1,0,0.1,0,0.2c0,0,0,0.1,0,0.2l0,0h0c0,0,0,0.1,0,0.1
		c0,0,0,0.1,0,0.1c0,0.1-0.1,0.2-0.2,0.3c0,0-0.1,0.1-0.1,0.1h0c-0.1,0.1-0.3,0.2-0.5,0.3c-0.1,0-0.1,0.1-0.2,0.1
		c-0.1,0-0.1,0.1-0.2,0.1c-0.1,0-0.2,0.1-0.2,0.1c-0.1,0-0.2,0.1-0.3,0.1c-0.1,0-0.2,0.1-0.3,0.1c-0.1,0-0.2,0.1-0.4,0.1
		c1.2-0.2,1.8-0.4,2.2-0.6c0.9,0.1,2-0.2,2.7-0.4c0,0,0,0,0,0c0.2-0.1,0.3-0.1,0.3-0.1C144.6,51.2,144.8,50.8,144.7,50.4z
		 M142.1,48.5c-0.1,0.1-0.2,0.2-0.3,0.3c-0.2,0.2-0.3,0.3-0.4,0.5c0.1-0.1,0.2-0.3,0.4-0.5C141.9,48.7,142,48.6,142.1,48.5z
		 M141.3,49.3c0,0-0.1,0.1-0.1,0.1C141.3,49.4,141.3,49.4,141.3,49.3L141.3,49.3z M158.6,46.8c-0.1-0.2-0.3-0.3-0.5-0.4
		c0,0-2.7-0.7-4-2.7c-0.1-0.1-0.2-0.3-0.3-0.5c0,0,0-0.1-0.1-0.1c-0.1-0.2-0.3-0.3-0.6-0.3c-0.1,0-3.1,0.1-7.2,1.8
		c-0.3,0.1-0.6,0.2-0.9,0.4c0,0,0,0,0,0c-0.2,0.1-0.4,0.2-0.5,0.2c-0.1,0-0.2,0.1-0.3,0.1c-0.1,0.1-0.2,0.1-0.3,0.2
		c-0.1,0-0.1,0.1-0.2,0.1c-0.2,0.1-0.3,0.2-0.5,0.3c-0.8,0.5-1.5,1-2.1,1.6c0,0,0,0,0,0c-0.1,0.1-0.2,0.2-0.4,0.4
		c-0.3,0.3-0.5,0.6-0.7,0.9c-0.1,0.1-0.1,0.2-0.2,0.3c-0.2,0.3-0.2,0.5-0.3,0.8c0,0,0,0,0,0c0,0.1,0,0.1,0,0.2c0,0,0,0.1,0,0.1
		c0,0,0,0.1,0,0.1c0,0,0,0,0,0.1c0,0,0,0.1,0,0.1c0,0.1,0.1,0.2,0.1,0.3c0,0,0,0,0,0.1c0,0,0,0,0,0c-0.3,0.1-0.7,0.1-1.2,0.2
		c0,0,0,0-0.1,0c0,0-0.1,0-0.1,0c0,0-0.1,0-0.1,0c-0.4,0.1-1,0.1-1.6,0.2c-0.1,0-0.2,0-0.3,0c0,0-0.1,0-0.2,0l-0.4,0l-0.5,0
		c-0.1,0-0.1,0-0.2,0c-0.2,0.1-0.4,0.3-0.5,0.5c0,0.1,0,0.1,0,0.2c0,0.1,0,0.2,0.1,0.2c0.1,0.3,0.4,1.9,0.4,4c0,0.3,0,0.5,0,0.8
		c0,0.2,0,0.3,0,0.5c0,0,0,0.1,0,0.1c0,0.2,0.1,0.4,0.3,0.5c0.1,0.1,0.2,0.2,0.4,0.3c0,0,0,0,0,0c0.2,0.2,0.4,0.3,0.6,0.5
		c0,0,0,0,0,0c3.5,2.5,7,3.2,9.7,3.2c0.7,0,1.4,0,2-0.1c2.1-0.3,3.8-0.9,4.8-1.4c0.3-0.1,0.5-0.2,0.7-0.3c0.2-0.1,0.2-0.1,0.3-0.1
		c0.2-0.1,0.3-0.4,0.3-0.6c0,0,0-0.1,0-0.2c0-0.3,0-0.6,0.1-0.9c0.2-1,0.8-1.9,1.6-2.7c0.2-0.1,0.3-0.3,0.4-0.4
		c0.9-0.9,1.4-2.1,1.7-3.4c0,0,0-0.1,0-0.1c0,0,0.1-2.7,0.9-4.6C158.7,47.2,158.7,46.9,158.6,46.8z M154.7,54.8
		c-1.1,1-1.8,2.2-2,3.4c-0.1,0.3-0.1,0.6-0.1,0.9c0,0,0,0,0,0c-1.6,0.8-8.7,4-16.2-1.8v0c0.1-1.4,0-3.4-0.2-4.7c0,0,0,0,0,0l0.1,0
		c0.1,0,0.2,0,0.3,0c0.1,0,0.2,0,0.2,0c0.5,0,1-0.1,1.5-0.1c0.2,0,0.3,0,0.4-0.1c0.1,0,0.1,0,0.2,0c0.1,0,0.1,0,0.2,0
		c1.2-0.2,1.8-0.4,2.2-0.6c0.9,0.1,2-0.2,2.7-0.4c0,0,0,0,0,0c0.2-0.1,0.3-0.1,0.3-0.1c0.4-0.1,0.6-0.5,0.5-0.9
		c-0.1-0.3-0.3-0.5-0.6-0.5h0c-0.1,0-0.2,0-0.3,0c-0.1,0-0.1,0-0.2,0c0,0,0,0,0,0h0c-0.8,0.2-1.8,0.4-2.2,0.4l0,0c0,0,0,0,0,0
		c0,0,0,0-0.1,0c0,0,0,0,0,0c0,0,0,0,0,0c0,0,0,0,0,0c-0.1,0-0.2-0.1-0.2-0.2c0,0,0,0,0,0c0,0,0,0,0,0h0c0,0,0,0,0,0c0,0,0,0,0,0v0
		c0,0,0-0.1,0.1-0.1c0-0.1,0.1-0.3,0.3-0.5c0,0,0.1-0.1,0.1-0.1c0,0,0,0,0,0c0.1-0.1,0.2-0.3,0.4-0.5c0.1-0.1,0.2-0.2,0.3-0.3
		c0,0,0,0,0,0c0.6-0.5,1.2-1.1,2.1-1.5c0,0,0.1,0,0.1-0.1c0.3-0.1,0.5-0.3,0.8-0.4c3.6-1.7,6.6-2.1,7.7-2.2c1.1,1.9,3.2,2.9,4.2,3.3
		c-0.6,1.8-0.7,3.9-0.7,4.3c-0.2,1.1-0.7,2-1.4,2.7C154.9,54.6,154.8,54.7,154.7,54.8z M141.3,49.3c0,0-0.1,0.1-0.1,0.1
		C141.3,49.4,141.3,49.4,141.3,49.3L141.3,49.3z M141.8,48.8c-0.2,0.2-0.3,0.3-0.4,0.5C141.5,49.2,141.6,49,141.8,48.8
		c0.1-0.1,0.2-0.2,0.3-0.3C142,48.6,141.9,48.7,141.8,48.8z M144.7,50.4c-0.1-0.3-0.3-0.5-0.6-0.5h0c-0.1,0-0.2,0-0.3,0
		c-0.1,0-0.1,0-0.2,0c0,0,0,0,0,0h0c-0.8,0.2-1.8,0.4-2.2,0.4l0,0c0,0,0,0,0,0c0,0,0,0-0.1,0c0,0,0,0.1,0.1,0.1c0,0,0,0,0,0.1
		c0,0,0,0.1,0,0.1c0,0.1,0,0.1,0,0.2c0,0,0,0.1,0,0.2l0,0h0c0,0,0,0.1,0,0.1c0,0,0,0.1,0,0.1c0,0.1-0.1,0.2-0.2,0.3
		c0,0-0.1,0.1-0.1,0.1h0c-0.1,0.1-0.3,0.2-0.5,0.3c-0.1,0-0.1,0.1-0.2,0.1c-0.1,0-0.1,0.1-0.2,0.1c-0.1,0-0.2,0.1-0.2,0.1
		c-0.1,0-0.2,0.1-0.3,0.1c-0.1,0-0.2,0.1-0.3,0.1c-0.1,0-0.2,0.1-0.4,0.1c1.2-0.2,1.8-0.4,2.2-0.6c0.9,0.1,2-0.2,2.7-0.4
		c0,0,0,0,0,0c0.2-0.1,0.3-0.1,0.3-0.1C144.6,51.2,144.8,50.8,144.7,50.4z M141.3,49.3c0,0-0.1,0.1-0.1,0.1
		C141.3,49.4,141.3,49.4,141.3,49.3L141.3,49.3z M141.8,48.8c-0.2,0.2-0.3,0.3-0.4,0.5C141.5,49.2,141.6,49,141.8,48.8
		c0.1-0.1,0.2-0.2,0.3-0.3C142,48.6,141.9,48.7,141.8,48.8z M144.7,50.4c-0.1-0.3-0.3-0.5-0.6-0.5h0c-0.1,0-0.2,0-0.3,0
		c-0.1,0-0.1,0-0.2,0c0,0,0,0,0,0h0c-0.8,0.2-1.8,0.4-2.2,0.4l0,0c0,0,0,0,0,0c0,0,0,0-0.1,0c0,0,0,0.1,0.1,0.1c0,0,0,0,0,0.1
		c0,0,0,0.1,0,0.1c0,0.1,0,0.1,0,0.2c0,0,0,0.1,0,0.2l0,0h0c0,0,0,0.1,0,0.1c0,0,0,0.1,0,0.1c0,0.1-0.1,0.2-0.2,0.3
		c0,0-0.1,0.1-0.1,0.1h0c-0.1,0.1-0.3,0.2-0.5,0.3c-0.1,0-0.1,0.1-0.2,0.1c-0.1,0-0.1,0.1-0.2,0.1c-0.1,0-0.2,0.1-0.2,0.1
		c-0.1,0-0.2,0.1-0.3,0.1c-0.1,0-0.2,0.1-0.3,0.1c-0.1,0-0.2,0.1-0.4,0.1c1.2-0.2,1.8-0.4,2.2-0.6c0.9,0.1,2-0.2,2.7-0.4
		c0,0,0,0,0,0c0.2-0.1,0.3-0.1,0.3-0.1C144.6,51.2,144.8,50.8,144.7,50.4z"/>
</g>
<g>
	<path class="st1" d="M96.8,111.5c6.9,1.4,19.2-1.5,24.1-2.8c1.4-0.4,2.2-0.6,2.2-0.6c13.1-3.6,26.2-3.4,37.7-1.7
		c10-5.7,17.9-2.3,20.5-0.5c3.6,2.5,2.6,6.3,2.6,6.3c10,3.5,16.3,7.1,16.6,7.2c0.5-6.5,0.9-18-1.7-27c-3.9-13.3-17.6-19-25.5-20.7
		c-7.9-1.7-15.2-5-18.5-8.3c-1.2-1.2-1.6-2.5-1.6-3.7c0,0-8.6,5.3-17.6-1.9c-0.4,4.1-2.3,9.5-9.1,13C114.6,76.9,91,83.4,96.8,111.5z
		"/>
	<path class="st1" d="M181.8,105.2c-0.5-0.3-3-1.9-6.9-2.5C178.8,103.3,181.3,105,181.8,105.2c1.1,0.8,1.8,1.7,2.3,2.6
		C183.6,107,182.9,106,181.8,105.2z M160.7,105.6C160.7,105.6,160.7,105.6,160.7,105.6c-13.5-2-26.2-1.4-37.8,1.7c0,0-0.1,0-0.2,0.1
		c0,0,0,0,0,0c-0.3,0.1-1.3,0.4-1.9,0.5c0,0,0,0,0,0c0,0,0,0,0,0c-0.3,0.1-0.7,0.2-1.2,0.3c-0.1,0-0.3,0.1-0.5,0.1
		c-1,0.2-2.1,0.5-3.4,0.8c-0.3,0.1-0.7,0.2-1.1,0.2c-0.5,0.1-1,0.2-1.5,0.3c-4.5,0.9-9.8,1.6-13.9,1.3c-0.3,0-0.5,0-0.8-0.1
		c-0.1,0-0.1,0-0.2,0c-0.2,0-0.4-0.1-0.7-0.1c0,0-0.1,0-0.1,0c0,0,0,0,0,0c0,0,0,0,0,0c-4.6-23.6,12.2-31.4,24.5-37.1
		c1.8-0.8,3.5-1.6,5-2.4c6.4-3.3,8.6-8.3,9.3-12.3c-0.2-0.1-0.4-0.3-0.6-0.5c0,0.2,0,0.4-0.1,0.6c0,0.1,0,0.3-0.1,0.4
		c0,0.1,0,0.1,0,0.2c-0.1,0.4-0.2,0.8-0.3,1.1c-0.1,0.3-0.2,0.5-0.3,0.8c0,0.1-0.1,0.3-0.1,0.4c-0.2,0.6-0.5,1.3-0.9,1.9
		c0,0,0,0.1-0.1,0.2c-0.1,0.3-0.3,0.5-0.5,0.8c-0.1,0.1-0.2,0.2-0.2,0.4c-0.1,0.1-0.2,0.2-0.3,0.4c-0.4,0.5-0.8,1.1-1.3,1.6
		c-0.1,0.1-0.1,0.1-0.2,0.2c-0.2,0.2-0.3,0.3-0.5,0.5c-0.2,0.2-0.3,0.3-0.5,0.4c-0.1,0.1-0.3,0.2-0.4,0.4c-0.2,0.1-0.3,0.2-0.5,0.3
		c-0.2,0.1-0.3,0.2-0.5,0.3c-0.2,0.1-0.3,0.2-0.5,0.3c-0.1,0.1-0.2,0.2-0.4,0.2c-0.1,0.1-0.3,0.2-0.4,0.2c0,0,0,0,0,0
		c-0.3,0.2-0.5,0.3-0.8,0.5c-3.5,1.8-8,3.6-12.5,6c-0.4,0.2-0.9,0.5-1.3,0.7c-1.9,1.1-3.8,2.3-5.6,3.6c-0.4,0.3-0.8,0.6-1.2,0.9
		c-0.6,0.5-1.1,1-1.7,1.5c-0.2,0.2-0.4,0.3-0.5,0.5c-0.2,0.2-0.4,0.3-0.5,0.5c-5.2,5.4-8.6,12.8-7,24c0,0.4,0.1,0.7,0.2,1.1
		c0.1,0.4,0.1,0.7,0.2,1.1c0,0.2,0.1,0.5,0.1,0.7c0.2,0,0.5,0.1,0.7,0.1c0,0,0,0,0,0c0.3,0,0.6,0.1,0.8,0.1c0.2,0,0.4,0,0.6,0.1
		c0,0,0.1,0,0.2,0c0.1,0,0.1,0,0.2,0c0.1,0,0.2,0,0.4,0c0.1,0,0.2,0,0.4,0c0.8,0,1.7,0,2.6,0c0.2,0,0.3,0,0.5,0
		c0.6,0,1.2-0.1,1.7-0.1c0,0,0.1,0,0.1,0c0,0,0.1,0,0.1,0c0,0,0.1,0,0.1,0c0,0,0.1,0,0.1,0c0.1,0,0.1,0,0.2,0c0.1,0,0.2,0,0.2,0
		c0.1,0,0.3,0,0.4,0c0.1,0,0.2,0,0.3,0h0c0,0,0.1,0,0.1,0c0.9-0.1,1.8-0.2,2.7-0.4c0,0,0,0,0,0c0,0,0.1,0,0.1,0c0,0,0.1,0,0.1,0
		c0.2,0,0.3,0,0.5-0.1c0.2,0,0.5-0.1,0.7-0.1c0,0,0,0,0,0c0,0,0,0,0.1,0c0,0,0,0,0,0s0,0,0,0c0.2,0,0.4-0.1,0.5-0.1c0,0,0.1,0,0.1,0
		c0.2,0,0.4-0.1,0.6-0.1c0.2,0,0.4-0.1,0.7-0.1c0,0,0,0,0,0h0l0,0c0.2,0,0.4-0.1,0.6-0.1h0c0.2,0,0.4-0.1,0.6-0.1c0,0,0,0,0,0
		c0.1,0,0.1,0,0.2,0c0.1,0,0.3-0.1,0.4-0.1c0,0,0,0,0.1,0c0,0,0,0,0,0c0.1,0,0.1,0,0.2,0c0.1,0,0.2,0,0.3-0.1c0,0,0.1,0,0.1,0
		c0.2,0,0.4-0.1,0.6-0.1c0.2,0,0.4-0.1,0.6-0.1c0.1,0,0.3-0.1,0.4-0.1c0.1,0,0.1,0,0.2,0c0.1,0,0.2-0.1,0.4-0.1
		c0.2-0.1,0.5-0.1,0.8-0.2c0.1,0,0.2,0,0.3-0.1c0.7-0.2,1.2-0.3,1.8-0.5c0.1,0,0.2-0.1,0.3-0.1c0,0,0.1,0,0.1,0c0.1,0,0.2,0,0.2-0.1
		c0,0,0,0,0,0c0.1,0,0.2,0,0.2-0.1c0.1,0,0.2,0,0.2-0.1c0,0,0.1,0,0.1,0c0.4-0.1,0.7-0.2,0.9-0.2h0c0,0,0.1,0,0.1,0
		c0.1,0,0.1,0,0.2,0l0,0c0,0,0,0,0,0c0,0,0.1,0,0.1,0c0,0,0,0,0,0c0,0,0,0,0,0c0,0,0,0,0,0c0,0,0.1,0,0.1,0c0.9-0.3,1.9-0.5,2.8-0.7
		c0.9-0.2,1.9-0.4,2.8-0.6c0.5-0.1,0.9-0.2,1.4-0.3c0.6-0.1,1.2-0.2,1.8-0.3c0.2,0,0.4-0.1,0.6-0.1c0.6-0.1,1.2-0.2,1.8-0.2
		c0.5-0.1,1-0.1,1.5-0.2c0.4,0,0.8-0.1,1.2-0.1c0.9-0.1,1.8-0.2,2.8-0.2c3.1-0.2,6.2-0.2,9.3-0.1c0.6,0,1.3,0,1.9,0.1
		c0.3,0,0.7,0,1,0.1h0.1c0.4,0,0.7,0,1.1,0.1c0.2,0,0.5,0,0.8,0.1c0.3,0,0.6,0,0.9,0.1c0.5,0.1,1.1,0.1,1.7,0.2c0.2,0,0.4,0,0.5,0.1
		c0.4,0,0.8,0.1,1.3,0.1c0.6,0.1,1.2,0.2,1.8,0.2c0-0.2,0.2-0.4,0.3-0.5C160.6,105.7,160.7,105.7,160.7,105.6
		c0.2-0.1,0.4-0.2,0.6-0.3C161.1,105.4,160.9,105.5,160.7,105.6z M161.3,105.3c0.4-0.2,0.8-0.4,1.1-0.6
		C162.1,104.9,161.7,105.1,161.3,105.3z M181.8,105.2c-0.5-0.3-3-1.9-6.9-2.5C178.8,103.3,181.3,105,181.8,105.2
		c1.1,0.8,1.8,1.7,2.3,2.6C183.6,107,182.9,106,181.8,105.2z M162.5,104.7c-0.4,0.2-0.8,0.4-1.1,0.6
		C161.7,105.1,162.1,104.9,162.5,104.7z M160.7,105.6c-13.5-2-26.2-1.4-37.8,1.7c0,0-0.1,0-0.2,0.1c0,0,0,0,0,0
		c-0.3,0.1-1.3,0.4-1.9,0.5c0,0,0,0,0,0c0,0,0,0,0,0c-0.3,0.1-0.7,0.2-1.2,0.3c-0.1,0-0.3,0.1-0.5,0.1c-1,0.2-2.1,0.5-3.4,0.8
		c-0.3,0.1-0.7,0.2-1.1,0.2c-0.5,0.1-1,0.2-1.5,0.3c-4.5,0.9-9.8,1.6-13.9,1.3c-0.3,0-0.5,0-0.8-0.1c-0.1,0-0.1,0-0.2,0
		c-0.2,0-0.4-0.1-0.7-0.1c0,0-0.1,0-0.1,0c0,0,0,0,0,0c0,0,0,0,0,0c-4.6-23.6,12.2-31.4,24.5-37.1c1.8-0.8,3.5-1.6,5-2.4
		c6.4-3.3,8.6-8.3,9.3-12.3c-0.2-0.1-0.4-0.3-0.6-0.5c0,0.2,0,0.4-0.1,0.6c0,0.1,0,0.3-0.1,0.4c0,0.1,0,0.1,0,0.2
		c-0.1,0.4-0.2,0.8-0.3,1.1c-0.1,0.3-0.2,0.5-0.3,0.8c0,0.1-0.1,0.3-0.1,0.4c-0.2,0.6-0.5,1.3-0.9,1.9c0,0,0,0.1-0.1,0.2
		c-0.1,0.3-0.3,0.5-0.5,0.8c-0.1,0.1-0.2,0.2-0.2,0.4c-0.1,0.1-0.2,0.2-0.3,0.4c-0.4,0.5-0.8,1.1-1.3,1.6c-0.1,0.1-0.1,0.1-0.2,0.2
		c-0.2,0.2-0.3,0.3-0.5,0.5c-0.2,0.2-0.3,0.3-0.5,0.4c-0.1,0.1-0.3,0.2-0.4,0.4c-0.2,0.1-0.3,0.2-0.5,0.3c-0.2,0.1-0.3,0.2-0.5,0.3
		c-0.2,0.1-0.3,0.2-0.5,0.3c-0.1,0.1-0.2,0.2-0.4,0.2c-0.1,0.1-0.3,0.2-0.4,0.2c0,0,0,0,0,0c-0.3,0.2-0.5,0.3-0.8,0.5
		c-3.5,1.8-8,3.6-12.5,6c-0.4,0.2-0.9,0.5-1.3,0.7c-1.9,1.1-3.8,2.3-5.6,3.6c-0.4,0.3-0.8,0.6-1.2,0.9c-0.6,0.5-1.1,1-1.7,1.5
		c-0.2,0.2-0.4,0.3-0.5,0.5c-0.2,0.2-0.4,0.3-0.5,0.5c-5.2,5.4-8.6,12.8-7,24c0,0.4,0.1,0.7,0.2,1.1c0.1,0.4,0.1,0.7,0.2,1.1
		c0,0.2,0.1,0.5,0.1,0.7c0.2,0,0.5,0.1,0.7,0.1c0,0,0,0,0,0c0.3,0,0.6,0.1,0.8,0.1c0.2,0,0.4,0,0.6,0.1c0,0,0.1,0,0.2,0
		c0.1,0,0.1,0,0.2,0c0.1,0,0.2,0,0.4,0c0.1,0,0.2,0,0.4,0c0.8,0,1.7,0,2.6,0c0.2,0,0.3,0,0.5,0c0.6,0,1.2-0.1,1.7-0.1
		c0,0,0.1,0,0.1,0c0,0,0.1,0,0.1,0c0,0,0.1,0,0.1,0c0,0,0.1,0,0.1,0c0.1,0,0.1,0,0.2,0c0.1,0,0.2,0,0.2,0c0.1,0,0.3,0,0.4,0
		c0.1,0,0.2,0,0.3,0h0c0,0,0.1,0,0.1,0c0.9-0.1,1.8-0.2,2.7-0.4c0,0,0,0,0,0c0,0,0.1,0,0.1,0c0,0,0.1,0,0.1,0c0.2,0,0.3,0,0.5-0.1
		c0.2,0,0.5-0.1,0.7-0.1c0,0,0,0,0,0c0,0,0,0,0.1,0c0,0,0,0,0,0s0,0,0,0c0.2,0,0.4-0.1,0.5-0.1c0,0,0.1,0,0.1,0
		c0.2,0,0.4-0.1,0.6-0.1c0.2,0,0.4-0.1,0.7-0.1c0,0,0,0,0,0h0l0,0c0.2,0,0.4-0.1,0.6-0.1h0c0.2,0,0.4-0.1,0.6-0.1c0,0,0,0,0,0
		c0.1,0,0.1,0,0.2,0c0.1,0,0.3-0.1,0.4-0.1c0,0,0,0,0.1,0c0,0,0,0,0,0c0.1,0,0.1,0,0.2,0c0.1,0,0.2,0,0.3-0.1c0,0,0.1,0,0.1,0
		c0.2,0,0.4-0.1,0.6-0.1c0.2,0,0.4-0.1,0.6-0.1c0.1,0,0.3-0.1,0.4-0.1c0.1,0,0.1,0,0.2,0c0.1,0,0.2-0.1,0.4-0.1
		c0.2-0.1,0.5-0.1,0.8-0.2c0.1,0,0.2,0,0.3-0.1c0.7-0.2,1.2-0.3,1.8-0.5c0.1,0,0.2-0.1,0.3-0.1c0,0,0.1,0,0.1,0c0.1,0,0.2,0,0.2-0.1
		c0,0,0,0,0,0c0.1,0,0.2,0,0.2-0.1c0.1,0,0.2,0,0.2-0.1c0,0,0.1,0,0.1,0c0.4-0.1,0.7-0.2,0.9-0.2h0c0,0,0.1,0,0.1,0
		c0.1,0,0.1,0,0.2,0l0,0c0,0,0,0,0,0c0,0,0.1,0,0.1,0c0,0,0,0,0,0c0,0,0,0,0,0c0,0,0,0,0,0c0,0,0.1,0,0.1,0c0.9-0.3,1.9-0.5,2.8-0.7
		c0.9-0.2,1.9-0.4,2.8-0.6c0.5-0.1,0.9-0.2,1.4-0.3c0.6-0.1,1.2-0.2,1.8-0.3c0.2,0,0.4-0.1,0.6-0.1c0.6-0.1,1.2-0.2,1.8-0.2
		c0.5-0.1,1-0.1,1.5-0.2c0.4,0,0.8-0.1,1.2-0.1c0.9-0.1,1.8-0.2,2.8-0.2c3.1-0.2,6.2-0.2,9.3-0.1c0.6,0,1.3,0,1.9,0.1
		c0.3,0,0.7,0,1,0.1h0.1c0.4,0,0.7,0,1.1,0.1c0.2,0,0.5,0,0.8,0.1c0.3,0,0.6,0,0.9,0.1c0.5,0.1,1.1,0.1,1.7,0.2c0.2,0,0.4,0,0.5,0.1
		c0.4,0,0.8,0.1,1.3,0.1c0.6,0.1,1.2,0.2,1.8,0.2c0-0.2,0.2-0.4,0.3-0.5C160.6,105.7,160.7,105.7,160.7,105.6
		c0.3-0.1,0.5-0.2,0.7-0.3C161.1,105.4,160.9,105.5,160.7,105.6C160.7,105.6,160.7,105.6,160.7,105.6z M199.5,92.2
		c-3.6-12.2-15.8-19-26-21.1c-7.8-1.6-14.9-4.8-18.2-8.2c-0.9-0.9-1.4-2-1.4-3.2c0,0,0-0.1,0-0.1c0-0.2-0.2-0.4-0.3-0.5
		c-0.1-0.1-0.2-0.1-0.3-0.1c-0.1,0-0.3,0-0.4,0.1c0,0-0.1,0.1-0.3,0.2c-1.6,0.8-8.7,3.9-16.2-1.8c-0.1-0.1-0.2-0.1-0.3-0.2
		c0,0-0.1,0-0.1,0c-0.1-0.1-0.2-0.1-0.3-0.1c-0.1,0-0.2,0-0.3,0c-0.1,0.1-0.2,0.1-0.3,0.2c-0.1,0.1-0.1,0.2-0.1,0.3
		c0,0.1,0,0.1,0,0.2c0,0.1,0,0.2,0,0.2c-0.5,3.8-2.4,8.8-8.6,12c-1.5,0.8-3.2,1.6-4.9,2.4c-12.1,5.6-30.3,14.1-25.2,39.1
		c0,0,0,0,0,0v0c0,0.1,0,0.2,0.1,0.2c0.1,0.2,0.3,0.3,0.5,0.3c0.1,0,0.2,0,0.3,0c0,0,0,0,0,0c0.2,0,0.5,0.1,0.7,0.1h0v0h0
		c0.3,0,0.7,0.1,1,0.1c0.3,0,0.6,0,0.9,0.1c0.1,0,0.2,0,0.3,0c0.4,0,0.7,0,1.1,0c1.1,0,2.2-0.1,3.4-0.1c0.7-0.1,1.3-0.1,2-0.2
		c0.5,0,1-0.1,1.5-0.2c0.9-0.1,1.8-0.3,2.7-0.4c0.3,0,0.6-0.1,0.8-0.1c0.6-0.1,1.2-0.2,1.9-0.3c0.5-0.1,1-0.2,1.5-0.3
		c0.5-0.1,1.1-0.2,1.6-0.3c0.6-0.1,1.1-0.3,1.7-0.4c0.2,0,0.3-0.1,0.5-0.1c0.5-0.1,1-0.2,1.4-0.3c0.2,0,0.4-0.1,0.6-0.2
		c0.1,0,0.1,0,0.2-0.1c0,0,0,0,0,0h0c0.1,0,0.1,0,0.2,0c0.5-0.1,1-0.2,1.3-0.3c0,0,0,0,0,0c0.6-0.2,0.9-0.2,0.9-0.2
		c0.2,0,0.4-0.1,0.5-0.1c0,0,0,0,0,0c11.3-3,23.7-3.5,36.8-1.5c0,0,0.1,0,0.1,0c0.1,0,0.1,0,0.1,0c0.1,0,0.2,0,0.3-0.1
		c0.2-0.1,0.5-0.3,0.7-0.4h0c0,0,0,0,0.1,0c0.4-0.2,0.7-0.4,1.1-0.5c10-4.7,17.1-0.1,17.9,0.4c0.9,0.6,1.5,1.4,1.8,2.1v0
		c0.2,0.3,0.3,0.6,0.3,0.8c0,0.1,0.1,0.3,0.1,0.4c0,0.2,0,0.3,0.1,0.4c0,0.3,0.1,0.7,0,0.9c0,0,0,0.1,0,0.1c0,0,0,0,0,0
		c0,0.4-0.1,0.6-0.1,0.7v0c0,0,0,0,0,0c0,0,0,0,0,0c-0.1,0.3,0.1,0.7,0.4,0.8c0.1,0,0.2,0,0.2,0.1c0.9,0.3,1.7,0.6,2.6,1
		c0.5,0.2,0.9,0.4,1.4,0.5c0.5,0.2,0.9,0.3,1.3,0.5c0.4,0.2,0.8,0.3,1.2,0.5c2,0.8,3.8,1.6,5.3,2.3c0.3,0.1,0.6,0.3,0.9,0.4
		c1.4,0.7,2.4,1.2,3.2,1.6c0.1,0,0.1,0.1,0.2,0.1c0.2,0.1,0.3,0.1,0.3,0.2c0.1,0,0.1,0,0.2,0.1c0,0,0.1,0,0.1,0c0.1,0,0.2,0,0.4-0.1
		c0.1-0.1,0.2-0.2,0.3-0.3c0-0.1,0.1-0.2,0.1-0.2C201.8,111.8,202,100.8,199.5,92.2z M199.9,118.2c-0.2-0.1-0.4-0.2-0.5-0.3
		c-1.2-0.6-2.7-1.4-4.7-2.2c-0.4-0.2-0.7-0.3-1.1-0.5c-0.8-0.3-1.5-0.7-2.4-1c-0.4-0.2-0.8-0.3-1.2-0.5c0,0-0.1,0-0.2-0.1
		c-0.9-0.4-1.8-0.7-2.8-1.1c-0.4-0.1-0.7-0.3-1.1-0.4c0,0-0.1,0-0.2-0.1c-0.4-0.1-0.7-0.3-1.1-0.4h0c0-0.1,0-0.2,0-0.3
		c0-0.4,0-0.9-0.1-1.4c0-0.2-0.1-0.4-0.1-0.6c-0.1-0.4-0.2-0.7-0.3-1.1c-0.1-0.1-0.1-0.3-0.2-0.4c-0.5-0.9-1.2-1.8-2.3-2.6
		c-0.5-0.3-3-1.9-6.9-2.5c-1.4-0.2-3.1-0.3-4.8-0.1c-0.2,0-0.4,0.1-0.7,0.1c-0.4,0.1-0.9,0.1-1.4,0.2c-0.4,0.1-0.7,0.1-1.1,0.2h0
		c-0.4,0.1-0.7,0.2-1.1,0.3c-0.2,0.1-0.4,0.1-0.6,0.2c-0.6,0.2-1.2,0.4-1.8,0.7c-0.3,0.1-0.6,0.3-1,0.4c-0.4,0.2-0.8,0.4-1.1,0.6
		c-0.2,0.1-0.4,0.2-0.6,0.3c0,0,0,0,0,0c-13.5-2-26.2-1.4-37.8,1.7c0,0-0.1,0-0.2,0.1c0,0,0,0,0,0c-0.3,0.1-1.3,0.4-1.9,0.5
		c0,0,0,0,0,0c0,0,0,0,0,0c-0.3,0.1-0.7,0.2-1.2,0.3c-0.1,0-0.3,0.1-0.5,0.1c-1,0.2-2.1,0.5-3.4,0.8c-0.3,0.1-0.7,0.2-1.1,0.2
		c-0.5,0.1-1,0.2-1.5,0.3c-4.5,0.9-9.8,1.6-13.9,1.3c-0.3,0-0.5,0-0.8-0.1c-0.1,0-0.1,0-0.2,0c-0.2,0-0.4-0.1-0.7-0.1
		c0,0-0.1,0-0.1,0c0,0,0,0,0,0c0,0,0,0,0,0c-4.6-23.6,12.2-31.4,24.5-37.1c1.8-0.8,3.5-1.6,5-2.4c6.4-3.3,8.6-8.3,9.3-12.3
		c0,0,0,0,0,0c0,0,0,0,0,0c4.5,3.2,8.8,3.4,11.7,3.1c2.1-0.3,3.8-0.9,4.7-1.4v0c0.2,1.2,0.8,2.2,1.7,3.1c3.4,3.5,10.8,6.9,18.8,8.5
		c9.9,2.1,21.6,8.5,25,20.2C200.6,101,200.4,111.9,199.9,118.2z M160.7,105.6C160.7,105.6,160.7,105.6,160.7,105.6
		c-13.5-2-26.2-1.4-37.8,1.7c0,0-0.1,0-0.2,0.1c0,0,0,0,0,0c-0.3,0.1-1.3,0.4-1.9,0.5c0,0,0,0,0,0c0,0,0,0,0,0
		c-0.3,0.1-0.7,0.2-1.2,0.3c-0.1,0-0.3,0.1-0.5,0.1c-1,0.2-2.1,0.5-3.4,0.8c-0.3,0.1-0.7,0.2-1.1,0.2c-0.5,0.1-1,0.2-1.5,0.3
		c-4.5,0.9-9.8,1.6-13.9,1.3c-0.3,0-0.5,0-0.8-0.1c-0.1,0-0.1,0-0.2,0c-0.2,0-0.4-0.1-0.7-0.1c0,0-0.1,0-0.1,0c0,0,0,0,0,0
		c0,0,0,0,0,0c-4.6-23.6,12.2-31.4,24.5-37.1c1.8-0.8,3.5-1.6,5-2.4c6.4-3.3,8.6-8.3,9.3-12.3c-0.2-0.1-0.4-0.3-0.6-0.5
		c0,0.2,0,0.4-0.1,0.6c0,0.1,0,0.3-0.1,0.4c0,0.1,0,0.1,0,0.2c-0.1,0.4-0.2,0.8-0.3,1.1c-0.1,0.3-0.2,0.5-0.3,0.8
		c0,0.1-0.1,0.3-0.1,0.4c-0.2,0.6-0.5,1.3-0.9,1.9c0,0,0,0.1-0.1,0.2c-0.1,0.3-0.3,0.5-0.5,0.8c-0.1,0.1-0.2,0.2-0.2,0.4
		c-0.1,0.1-0.2,0.2-0.3,0.4c-0.4,0.5-0.8,1.1-1.3,1.6c-0.1,0.1-0.1,0.1-0.2,0.2c-0.2,0.2-0.3,0.3-0.5,0.5c-0.2,0.2-0.3,0.3-0.5,0.4
		c-0.1,0.1-0.3,0.2-0.4,0.4c-0.2,0.1-0.3,0.2-0.5,0.3c-0.2,0.1-0.3,0.2-0.5,0.3c-0.2,0.1-0.3,0.2-0.5,0.3c-0.1,0.1-0.2,0.2-0.4,0.2
		c-0.1,0.1-0.3,0.2-0.4,0.2c0,0,0,0,0,0c-0.3,0.2-0.5,0.3-0.8,0.5c-3.5,1.8-8,3.6-12.5,6c-0.4,0.2-0.9,0.5-1.3,0.7
		c-1.9,1.1-3.8,2.3-5.6,3.6c-0.4,0.3-0.8,0.6-1.2,0.9c-0.6,0.5-1.1,1-1.7,1.5c-0.2,0.2-0.4,0.3-0.5,0.5c-0.2,0.2-0.4,0.3-0.5,0.5
		c-5.2,5.4-8.6,12.8-7,24c0,0.4,0.1,0.7,0.2,1.1c0.1,0.4,0.1,0.7,0.2,1.1c0,0.2,0.1,0.5,0.1,0.7c0.2,0,0.5,0.1,0.7,0.1c0,0,0,0,0,0
		c0.3,0,0.6,0.1,0.8,0.1c0.2,0,0.4,0,0.6,0.1c0,0,0.1,0,0.2,0c0.1,0,0.1,0,0.2,0c0.1,0,0.2,0,0.4,0c0.1,0,0.2,0,0.4,0
		c0.8,0,1.7,0,2.6,0c0.2,0,0.3,0,0.5,0c0.6,0,1.2-0.1,1.7-0.1c0,0,0.1,0,0.1,0c0,0,0.1,0,0.1,0c0,0,0.1,0,0.1,0c0,0,0.1,0,0.1,0
		c0.1,0,0.1,0,0.2,0c0.1,0,0.2,0,0.2,0c0.1,0,0.3,0,0.4,0c0.1,0,0.2,0,0.3,0h0c0,0,0.1,0,0.1,0c0.9-0.1,1.8-0.2,2.7-0.4c0,0,0,0,0,0
		c0,0,0.1,0,0.1,0c0,0,0.1,0,0.1,0c0.2,0,0.3,0,0.5-0.1c0.2,0,0.5-0.1,0.7-0.1c0,0,0,0,0,0c0,0,0,0,0.1,0c0,0,0,0,0,0s0,0,0,0
		c0.2,0,0.4-0.1,0.5-0.1c0,0,0.1,0,0.1,0c0.2,0,0.4-0.1,0.6-0.1c0.2,0,0.4-0.1,0.7-0.1c0,0,0,0,0,0h0l0,0c0.2,0,0.4-0.1,0.6-0.1h0
		c0.2,0,0.4-0.1,0.6-0.1c0,0,0,0,0,0c0.1,0,0.1,0,0.2,0c0.1,0,0.3-0.1,0.4-0.1c0,0,0,0,0.1,0c0,0,0,0,0,0c0.1,0,0.1,0,0.2,0
		c0.1,0,0.2,0,0.3-0.1c0,0,0.1,0,0.1,0c0.2,0,0.4-0.1,0.6-0.1c0.2,0,0.4-0.1,0.6-0.1c0.1,0,0.3-0.1,0.4-0.1c0.1,0,0.1,0,0.2,0
		c0.1,0,0.2-0.1,0.4-0.1c0.2-0.1,0.5-0.1,0.8-0.2c0.1,0,0.2,0,0.3-0.1c0.7-0.2,1.2-0.3,1.8-0.5c0.1,0,0.2-0.1,0.3-0.1
		c0,0,0.1,0,0.1,0c0.1,0,0.2,0,0.2-0.1c0,0,0,0,0,0c0.1,0,0.2,0,0.2-0.1c0.1,0,0.2,0,0.2-0.1c0,0,0.1,0,0.1,0
		c0.4-0.1,0.7-0.2,0.9-0.2h0c0,0,0.1,0,0.1,0c0.1,0,0.1,0,0.2,0l0,0c0,0,0,0,0,0c0,0,0.1,0,0.1,0c0,0,0,0,0,0c0,0,0,0,0,0
		c0,0,0,0,0,0c0,0,0.1,0,0.1,0c0.9-0.3,1.9-0.5,2.8-0.7c0.9-0.2,1.9-0.4,2.8-0.6c0.5-0.1,0.9-0.2,1.4-0.3c0.6-0.1,1.2-0.2,1.8-0.3
		c0.2,0,0.4-0.1,0.6-0.1c0.6-0.1,1.2-0.2,1.8-0.2c0.5-0.1,1-0.1,1.5-0.2c0.4,0,0.8-0.1,1.2-0.1c0.9-0.1,1.8-0.2,2.8-0.2
		c3.1-0.2,6.2-0.2,9.3-0.1c0.6,0,1.3,0,1.9,0.1c0.3,0,0.7,0,1,0.1h0.1c0.4,0,0.7,0,1.1,0.1c0.2,0,0.5,0,0.8,0.1c0.3,0,0.6,0,0.9,0.1
		c0.5,0.1,1.1,0.1,1.7,0.2c0.2,0,0.4,0,0.5,0.1c0.4,0,0.8,0.1,1.3,0.1c0.6,0.1,1.2,0.2,1.8,0.2c0-0.2,0.2-0.4,0.3-0.5
		C160.6,105.7,160.7,105.7,160.7,105.6c0.2-0.1,0.4-0.2,0.6-0.3C161.1,105.4,160.9,105.5,160.7,105.6z M161.3,105.3
		c0.4-0.2,0.8-0.4,1.1-0.6C162.1,104.9,161.7,105.1,161.3,105.3z M181.8,105.2c-0.5-0.3-3-1.9-6.9-2.5
		C178.8,103.3,181.3,105,181.8,105.2c1.1,0.8,1.8,1.7,2.3,2.6C183.6,107,182.9,106,181.8,105.2z M160.7,105.6
		C160.7,105.6,160.7,105.6,160.7,105.6c-13.5-2-26.2-1.4-37.8,1.7c0,0-0.1,0-0.2,0.1c0,0,0,0,0,0c-0.3,0.1-1.3,0.4-1.9,0.5
		c0,0,0,0,0,0c0,0,0,0,0,0c-0.3,0.1-0.7,0.2-1.2,0.3c-0.1,0-0.3,0.1-0.5,0.1c-1,0.2-2.1,0.5-3.4,0.8c-0.3,0.1-0.7,0.2-1.1,0.2
		c-0.5,0.1-1,0.2-1.5,0.3c-4.5,0.9-9.8,1.6-13.9,1.3c-0.3,0-0.5,0-0.8-0.1c-0.1,0-0.1,0-0.2,0c-0.2,0-0.4-0.1-0.7-0.1
		c0,0-0.1,0-0.1,0c0,0,0,0,0,0c0,0,0,0,0,0c-4.6-23.6,12.2-31.4,24.5-37.1c1.8-0.8,3.5-1.6,5-2.4c6.4-3.3,8.6-8.3,9.3-12.3
		c-0.2-0.1-0.4-0.3-0.6-0.5c0,0.2,0,0.4-0.1,0.6c0,0.1,0,0.3-0.1,0.4c0,0.1,0,0.1,0,0.2c-0.1,0.4-0.2,0.8-0.3,1.1
		c-0.1,0.3-0.2,0.5-0.3,0.8c0,0.1-0.1,0.3-0.1,0.4c-0.2,0.6-0.5,1.3-0.9,1.9c0,0,0,0.1-0.1,0.2c-0.1,0.3-0.3,0.5-0.5,0.8
		c-0.1,0.1-0.2,0.2-0.2,0.4c-0.1,0.1-0.2,0.2-0.3,0.4c-0.4,0.5-0.8,1.1-1.3,1.6c-0.1,0.1-0.1,0.1-0.2,0.2c-0.2,0.2-0.3,0.3-0.5,0.5
		c-0.2,0.2-0.3,0.3-0.5,0.4c-0.1,0.1-0.3,0.2-0.4,0.4c-0.2,0.1-0.3,0.2-0.5,0.3c-0.2,0.1-0.3,0.2-0.5,0.3c-0.2,0.1-0.3,0.2-0.5,0.3
		c-0.1,0.1-0.2,0.2-0.4,0.2c-0.1,0.1-0.3,0.2-0.4,0.2c0,0,0,0,0,0c-0.3,0.2-0.5,0.3-0.8,0.5c-3.5,1.8-8,3.6-12.5,6
		c-0.4,0.2-0.9,0.5-1.3,0.7c-1.9,1.1-3.8,2.3-5.6,3.6c-0.4,0.3-0.8,0.6-1.2,0.9c-0.6,0.5-1.1,1-1.7,1.5c-0.2,0.2-0.4,0.3-0.5,0.5
		c-0.2,0.2-0.4,0.3-0.5,0.5c-5.2,5.4-8.6,12.8-7,24c0,0.4,0.1,0.7,0.2,1.1c0.1,0.4,0.1,0.7,0.2,1.1c0,0.2,0.1,0.5,0.1,0.7
		c0.2,0,0.5,0.1,0.7,0.1c0,0,0,0,0,0c0.3,0,0.6,0.1,0.8,0.1c0.2,0,0.4,0,0.6,0.1c0,0,0.1,0,0.2,0c0.1,0,0.1,0,0.2,0
		c0.1,0,0.2,0,0.4,0c0.1,0,0.2,0,0.4,0c0.8,0,1.7,0,2.6,0c0.2,0,0.3,0,0.5,0c0.6,0,1.2-0.1,1.7-0.1c0,0,0.1,0,0.1,0c0,0,0.1,0,0.1,0
		c0,0,0.1,0,0.1,0c0,0,0.1,0,0.1,0c0.1,0,0.1,0,0.2,0c0.1,0,0.2,0,0.2,0c0.1,0,0.3,0,0.4,0c0.1,0,0.2,0,0.3,0h0c0,0,0.1,0,0.1,0
		c0.9-0.1,1.8-0.2,2.7-0.4c0,0,0,0,0,0c0,0,0.1,0,0.1,0c0,0,0.1,0,0.1,0c0.2,0,0.3,0,0.5-0.1c0.2,0,0.5-0.1,0.7-0.1c0,0,0,0,0,0
		c0,0,0,0,0.1,0c0,0,0,0,0,0s0,0,0,0c0.2,0,0.4-0.1,0.5-0.1c0,0,0.1,0,0.1,0c0.2,0,0.4-0.1,0.6-0.1c0.2,0,0.4-0.1,0.7-0.1
		c0,0,0,0,0,0h0l0,0c0.2,0,0.4-0.1,0.6-0.1h0c0.2,0,0.4-0.1,0.6-0.1c0,0,0,0,0,0c0.1,0,0.1,0,0.2,0c0.1,0,0.3-0.1,0.4-0.1
		c0,0,0,0,0.1,0c0,0,0,0,0,0c0.1,0,0.1,0,0.2,0c0.1,0,0.2,0,0.3-0.1c0,0,0.1,0,0.1,0c0.2,0,0.4-0.1,0.6-0.1c0.2,0,0.4-0.1,0.6-0.1
		c0.1,0,0.3-0.1,0.4-0.1c0.1,0,0.1,0,0.2,0c0.1,0,0.2-0.1,0.4-0.1c0.2-0.1,0.5-0.1,0.8-0.2c0.1,0,0.2,0,0.3-0.1
		c0.7-0.2,1.2-0.3,1.8-0.5c0.1,0,0.2-0.1,0.3-0.1c0,0,0.1,0,0.1,0c0.1,0,0.2,0,0.2-0.1c0,0,0,0,0,0c0.1,0,0.2,0,0.2-0.1
		c0.1,0,0.2,0,0.2-0.1c0,0,0.1,0,0.1,0c0.4-0.1,0.7-0.2,0.9-0.2h0c0,0,0.1,0,0.1,0c0.1,0,0.1,0,0.2,0c0,0,0,0,0.1,0c0,0,0.1,0,0.1,0
		c0,0,0,0,0,0c0,0,0,0,0,0c0,0,0,0,0,0c0,0,0.1,0,0.1,0c0.9-0.3,1.9-0.5,2.8-0.7c0.9-0.2,1.9-0.4,2.8-0.6c0.5-0.1,0.9-0.2,1.4-0.3
		c0.6-0.1,1.2-0.2,1.8-0.3c0.2,0,0.4-0.1,0.6-0.1c0.6-0.1,1.2-0.2,1.8-0.2c0.5-0.1,1-0.1,1.5-0.2c0.4,0,0.8-0.1,1.2-0.1
		c0.9-0.1,1.8-0.2,2.8-0.2c3.1-0.2,6.2-0.2,9.3-0.1c0.6,0,1.3,0,1.9,0.1c0.3,0,0.7,0,1,0.1h0.1c0.4,0,0.7,0,1.1,0.1
		c0.2,0,0.5,0,0.8,0.1c0.3,0,0.6,0,0.9,0.1c0.5,0.1,1.1,0.1,1.7,0.2c0.2,0,0.4,0,0.5,0.1c0.4,0,0.8,0.1,1.3,0.1
		c0.6,0.1,1.2,0.2,1.8,0.2c0-0.2,0.2-0.4,0.3-0.5C160.6,105.7,160.7,105.7,160.7,105.6c0.2-0.1,0.4-0.2,0.6-0.3
		C161.1,105.4,160.9,105.5,160.7,105.6z M161.3,105.3c0.4-0.2,0.8-0.4,1.1-0.6C162.1,104.9,161.7,105.1,161.3,105.3z M181.8,105.2
		c-0.5-0.3-3-1.9-6.9-2.5C178.8,103.3,181.3,105,181.8,105.2c1.1,0.8,1.8,1.7,2.3,2.6C183.6,107,182.9,106,181.8,105.2z"/>
</g>
<g>
	<path class="st0" d="M120.9,108.6c15,2.9,23,10.1,34.8,17.1c5,3,10.8,5.9,18,8.4c5,1.8,9.1,2.4,12.4,2.3
		c12.7-0.4,13.9-11.9,13.9-11.9s0.3-2,0.5-5.1c-0.3-0.2-6.7-3.7-16.6-7.2c-6.4-2.3-14.3-4.5-23.1-5.8c-11.6-1.7-24.6-1.9-37.7,1.7
		C123.1,108,122.2,108.3,120.9,108.6z"/>
	<path class="st1" d="M160.1,106.5c0-0.1,0-0.2,0-0.2c0,0,0,0,0,0c-0.6-0.1-1.2-0.2-1.8-0.2c-0.4-0.1-0.8-0.1-1.3-0.1
		c-0.2,0-0.4-0.1-0.5-0.1c-0.5-0.1-1.1-0.1-1.7-0.2c-0.3,0-0.6-0.1-0.9-0.1c-0.2,0-0.5-0.1-0.8-0.1c-0.4,0-0.7-0.1-1.1-0.1H152
		c-0.3,0-0.7,0-1-0.1c-0.6,0-1.2-0.1-1.9-0.1c-3-0.1-6.1-0.1-9.3,0.1c-0.9,0.1-1.8,0.1-2.8,0.2c-0.4,0-0.8,0.1-1.2,0.1
		c-0.5,0-1,0.1-1.5,0.2c-0.6,0.1-1.2,0.2-1.8,0.2c-0.2,0-0.4,0.1-0.6,0.1c-0.6,0.1-1.2,0.2-1.8,0.3c-0.5,0.1-0.9,0.2-1.4,0.3
		c-0.9,0.2-1.9,0.4-2.8,0.6c-1,0.2-1.9,0.5-2.8,0.7c0,0,0,0-0.1,0c0,0,0,0,0,0c0,0,0,0,0,0c0,0,0,0,0,0c0,0-0.1,0-0.1,0c0,0,0,0,0,0
		l0,0c0,0-0.1,0-0.2,0c0,0-0.1,0-0.1,0c0.5,0.1,0.9,0.2,1.4,0.3c11.3-3,23.6-3.5,36.7-1.5C160.3,106.9,160.2,106.7,160.1,106.5z
		 M160.1,106.5c0-0.1,0-0.2,0-0.2c0,0,0,0,0,0c-0.6-0.1-1.2-0.2-1.8-0.2c-0.4-0.1-0.8-0.1-1.3-0.1c-0.2,0-0.4-0.1-0.5-0.1
		c-0.5-0.1-1.1-0.1-1.7-0.2c-0.3,0-0.6-0.1-0.9-0.1c-0.2,0-0.5-0.1-0.8-0.1c-0.4,0-0.7-0.1-1.1-0.1H152c-0.3,0-0.7,0-1-0.1
		c-0.6,0-1.2-0.1-1.9-0.1c-3-0.1-6.1-0.1-9.3,0.1c-0.9,0.1-1.8,0.1-2.8,0.2c-0.4,0-0.8,0.1-1.2,0.1c-0.5,0-1,0.1-1.5,0.2
		c-0.6,0.1-1.2,0.2-1.8,0.2c-0.2,0-0.4,0.1-0.6,0.1c-0.6,0.1-1.2,0.2-1.8,0.3c-0.5,0.1-0.9,0.2-1.4,0.3c-0.9,0.2-1.9,0.4-2.8,0.6
		c-1,0.2-1.9,0.5-2.8,0.7c0,0,0,0-0.1,0c0,0,0,0,0,0c0,0,0,0,0,0c0,0,0,0,0,0c0,0-0.1,0-0.1,0c0,0,0,0,0,0l0,0c0,0-0.1,0-0.2,0
		c0,0-0.1,0-0.1,0c0.5,0.1,0.9,0.2,1.4,0.3c11.3-3,23.6-3.5,36.7-1.5C160.3,106.9,160.2,106.7,160.1,106.5z M200.8,118.7l-0.1-0.1
		c0,0,0,0-0.1,0c-0.2-0.1-0.4-0.2-0.7-0.3c-0.2-0.1-0.4-0.2-0.5-0.3c-1.2-0.6-2.7-1.4-4.7-2.2c-0.4-0.2-0.7-0.3-1.1-0.5
		c-0.8-0.3-1.5-0.7-2.4-1c-0.4-0.2-0.8-0.3-1.2-0.5c0,0-0.1,0-0.2-0.1c-0.9-0.4-1.8-0.7-2.8-1.1c-0.4-0.1-0.7-0.3-1.1-0.4
		c0,0-0.1,0-0.2-0.1c-0.4-0.1-0.7-0.3-1.1-0.4c-0.2-0.1-0.4-0.2-0.6-0.2c0,0,0,0-0.1,0c0,0,0,0,0,0c-0.2-0.1-0.5-0.2-0.7-0.2h0
		c-6.8-2.3-13.6-4.1-20.3-5.2c0,0,0,0,0,0c-0.4-0.1-0.8-0.1-1.1-0.2c0,0,0,0,0,0h0c-0.3-0.1-0.6-0.1-1-0.2c0,0-0.1,0-0.1,0h0
		c-13.5-2-26.2-1.4-37.9,1.7c-0.1,0-0.1,0.1-0.2,0.1c0,0,0,0,0,0c-0.3,0.1-1.3,0.4-1.9,0.5c0,0,0,0,0,0c0,0,0,0,0,0
		c-0.3,0.1-0.5,0.4-0.5,0.7c0,0,0,0.1,0,0.2c0.1,0.2,0.3,0.5,0.5,0.5c0,0,0.1,0,0.2,0c0,0,0,0,0,0h0c0.3,0.1,0.6,0.1,0.9,0.2
		c0.2,0,0.5,0.1,0.7,0.1c1.9,0.4,3.6,0.9,5.2,1.4c0.5,0.2,1,0.3,1.5,0.5c1,0.3,1.9,0.7,2.8,1.1c0.3,0.1,0.6,0.2,0.8,0.4
		c2.6,1.1,5,2.4,7.4,3.8c0.8,0.5,1.5,0.9,2.3,1.4c1.6,1,3.3,2.1,5,3.2c1,0.6,2,1.3,3,1.9c0.5,0.3,1.1,0.7,1.6,1
		c0.5,0.3,1.1,0.7,1.7,1c0,0,0,0,0,0c0.3,0.2,0.5,0.3,0.8,0.5v0c0.2,0.1,0.4,0.2,0.6,0.3c0.1,0,0.2,0.1,0.3,0.2l0,0
		c6,3.5,11.7,6.2,17.9,8.3c4.4,1.5,8.3,2.3,11.7,2.3c0.2,0,0.3,0,0.5,0c0,0,0,0,0,0c0.1,0,0.3,0,0.4,0c0.1,0,0.2,0,0.3,0
		c0.2,0,0.5,0,0.7,0c12.2-1,13.5-12.3,13.5-12.4c0-0.1,0.3-1.9,0.5-4.9c0-0.1,0-0.2,0-0.3C201.2,119.1,201.1,118.8,200.8,118.7z
		 M186.2,135.7c-0.1,0-0.1,0-0.1,0c-0.1,0-0.3,0-0.4,0h-0.3c-3.3,0-7.1-0.7-11.4-2.2c-8-2.8-13.9-6-17.7-8.3c0,0,0,0,0,0
		c-0.1,0-0.1-0.1-0.2-0.1c0,0-0.1,0-0.1-0.1h0c-0.6-0.4-1.3-0.8-1.9-1.1c0,0,0,0,0,0c-0.7-0.4-1.3-0.8-2-1.2
		c-1.3-0.8-2.5-1.6-3.7-2.4c-3.1-2-6.1-3.9-9.2-5.7c-0.4-0.2-0.7-0.4-1.1-0.6c-0.3-0.2-0.6-0.3-0.9-0.5c-2-1-4-1.9-6.2-2.8
		c0,0,0,0,0,0c-1.1-0.4-2.2-0.8-3.4-1.2c-0.1,0-0.2,0-0.2-0.1c-0.5-0.1-1-0.3-1.6-0.4c-0.3-0.1-0.6-0.2-0.9-0.2
		c-0.3-0.1-0.6-0.2-0.9-0.2c0,0,0,0,0,0c11.3-3,23.6-3.5,36.7-1.5c0,0,0,0,0,0c0,0,0.1,0,0.2,0c0.1,0,0.1,0,0.2,0
		c7.5,1.1,15.2,3.1,22.8,5.8c0.1,0,0.1,0,0.2,0.1c0.4,0.2,0.8,0.3,1.3,0.5c0.5,0.2,0.9,0.3,1.4,0.5c0.5,0.2,0.9,0.4,1.4,0.5
		c0.5,0.2,0.9,0.3,1.3,0.5c0.4,0.2,0.8,0.3,1.2,0.5c2,0.8,3.8,1.6,5.3,2.3c0.3,0.1,0.6,0.3,0.9,0.4c1.4,0.7,2.4,1.2,3.2,1.6
		c-0.2,2.8-0.5,4.6-0.5,4.7c0,0-0.3,2.7-2.1,5.5C194.8,133.5,191.1,135.5,186.2,135.7z M160.1,106.5c0-0.1,0-0.2,0-0.2c0,0,0,0,0,0
		c-0.6-0.1-1.2-0.2-1.8-0.2c-0.4-0.1-0.8-0.1-1.3-0.1c-0.2,0-0.4-0.1-0.5-0.1c-0.5-0.1-1.1-0.1-1.7-0.2c-0.3,0-0.6-0.1-0.9-0.1
		c-0.2,0-0.5-0.1-0.8-0.1c-0.4,0-0.7-0.1-1.1-0.1H152c-0.3,0-0.7,0-1-0.1c-0.6,0-1.2-0.1-1.9-0.1c-3-0.1-6.1-0.1-9.3,0.1
		c-0.9,0.1-1.8,0.1-2.8,0.2c-0.4,0-0.8,0.1-1.2,0.1c-0.5,0-1,0.1-1.5,0.2c-0.6,0.1-1.2,0.2-1.8,0.2c-0.2,0-0.4,0.1-0.6,0.1
		c-0.6,0.1-1.2,0.2-1.8,0.3c-0.5,0.1-0.9,0.2-1.4,0.3c-0.9,0.2-1.9,0.4-2.8,0.6c-1,0.2-1.9,0.5-2.8,0.7c0,0,0,0-0.1,0c0,0,0,0,0,0
		c0,0,0,0,0,0c0,0,0,0,0,0c0,0-0.1,0-0.1,0c0,0,0,0,0,0l0,0c0,0-0.1,0-0.2,0c0,0-0.1,0-0.1,0c0.5,0.1,0.9,0.2,1.4,0.3
		c11.3-3,23.6-3.5,36.7-1.5C160.3,106.9,160.2,106.7,160.1,106.5z M160.1,106.5c0-0.1,0-0.2,0-0.2c0,0,0,0,0,0
		c-0.6-0.1-1.2-0.2-1.8-0.2c-0.4-0.1-0.8-0.1-1.3-0.1c-0.2,0-0.4-0.1-0.5-0.1c-0.5-0.1-1.1-0.1-1.7-0.2c-0.3,0-0.6-0.1-0.9-0.1
		c-0.2,0-0.5-0.1-0.8-0.1c-0.4,0-0.7-0.1-1.1-0.1H152c-0.3,0-0.7,0-1-0.1c-0.6,0-1.2-0.1-1.9-0.1c-3-0.1-6.1-0.1-9.3,0.1
		c-0.9,0.1-1.8,0.1-2.8,0.2c-0.4,0-0.8,0.1-1.2,0.1c-0.5,0-1,0.1-1.5,0.2c-0.6,0.1-1.2,0.2-1.8,0.2c-0.2,0-0.4,0.1-0.6,0.1
		c-0.6,0.1-1.2,0.2-1.8,0.3c-0.5,0.1-0.9,0.2-1.4,0.3c-0.9,0.2-1.9,0.4-2.8,0.6c-1,0.2-1.9,0.5-2.8,0.7c0,0,0,0-0.1,0c0,0,0,0,0,0
		c0,0,0,0,0,0c0,0,0,0,0,0c0,0-0.1,0-0.1,0c0,0,0,0,0,0l0,0c0,0-0.1,0-0.2,0c0,0-0.1,0-0.1,0c0.5,0.1,0.9,0.2,1.4,0.3
		c11.3-3,23.6-3.5,36.7-1.5C160.3,106.9,160.2,106.7,160.1,106.5z"/>
</g>
<g>
	<path class="st0" d="M160.8,106.4c8.8,1.3,16.7,3.6,23.1,5.8c0,0,1-3.8-2.6-6.3C178.8,104.1,170.9,100.7,160.8,106.4z"/>
	<path class="st1" d="M184.7,109.9c0-0.2-0.1-0.4-0.1-0.6c-0.1-0.4-0.2-0.7-0.3-1.1c-0.1-0.1-0.1-0.3-0.2-0.4
		c-0.5-0.9-1.2-1.8-2.3-2.6c-0.5-0.3-3-2-6.9-2.6c-1.4-0.2-3.1-0.3-4.8-0.1c-0.2,0-0.4,0.1-0.7,0.1c-0.4,0.1-0.9,0.1-1.4,0.2
		c-0.4,0.1-0.7,0.1-1.1,0.2h0c-0.4,0.1-0.7,0.2-1.1,0.3c-0.2,0.1-0.4,0.1-0.6,0.2c-0.6,0.2-1.2,0.4-1.8,0.7c-0.3,0.1-0.6,0.3-1,0.4
		c-0.4,0.2-0.8,0.4-1.1,0.6c-0.2,0.1-0.4,0.2-0.6,0.3c-0.1,0-0.2,0.1-0.3,0.2c-0.2,0.1-0.3,0.3-0.3,0.5c0,0,0,0,0,0
		c0,0.1,0,0.2,0,0.2c0,0.2,0.2,0.4,0.4,0.5c0,0,0,0,0,0c0,0,0.1,0,0.1,0c0,0,0.1,0,0.1,0c7.6,1.1,15.3,3.1,23,5.8c0,0,0.1,0,0.2,0
		c0,0,0,0,0.1,0c0,0,0,0,0,0c0.1,0,0.2,0,0.3-0.1c0.2-0.1,0.3-0.2,0.3-0.4l0,0v0c0-0.2,0.1-0.4,0.1-0.7c0,0,0,0,0,0h0
		c0-0.1,0-0.2,0-0.3C184.8,110.9,184.8,110.4,184.7,109.9z M183.3,111.1c0,0,0,0.1,0,0.1c0,0,0,0,0,0h0c-6.8-2.3-13.6-4.1-20.3-5.2
		c0,0,0,0,0,0c10-4.7,17.1-0.1,17.9,0.5c0.9,0.6,1.5,1.3,1.8,2v0c0.1,0.3,0.2,0.6,0.3,0.8c0,0.1,0.1,0.3,0.1,0.4
		c0,0.2,0,0.3,0.1,0.4C183.4,110.5,183.4,110.8,183.3,111.1z"/>
</g>
<g>
	<path class="st2" d="M1.2,53.1c2,3.2,7.4,14.3,7.6,20s-1,17.3,1.4,21.2c2.4,3.9,5.8,4.3,8.7,4.8s5.5,0.6,10.6,0
		c5.1-0.6,12.1-2.4,14.2,6.7c0.5,2.2,0.4,4.5-0.2,6.6c-1.6,5.4-1.9,13.6,4.9,17.6c6.1,3.6,13,2.8,17.7,2c1.3-0.2,2.5-0.5,3.7-0.9
		c3.2-0.9,14.7-3.2,17.5,9.8c3,13.4,8.3,17.2,13.5,21.2c0.8,0.6,1.9,0,1.8-1c-0.4-6.1-0.8-19.9,9.7-31.5c-7.3-2.3-13-7.4-15.3-17.3
		c-0.1-0.3-0.1-0.6-0.2-1c-5.7-28,17.8-34.6,29.7-40.7c6.7-3.5,8.7-8.9,9.1-13c-9.1-7.2-19.4-10.6-33.9-12.6
		c-14.4-1.9-35.7,3.1-50.1,7.9c-14.4,4.8-35.3,6.2-49.1-1.6C1.6,50.9,0.6,52.2,1.2,53.1z"/>
	<path class="st1" d="M136,57.2c0,0-0.1-0.1-0.1-0.1c-0.1-0.1-0.2-0.2-0.3-0.2c-0.2-0.2-0.4-0.4-0.7-0.5
		c-8.4-6.3-18.4-9.9-33.1-11.9c-11.1-1.5-26.6,1.1-40.1,4.8c-3.6,1-7.1,2-10.3,3.1c-19.9,6.7-38.7,4-48.5-1.5
		c-0.7-0.4-1.5-0.3-2.1,0.3c-0.6,0.6-0.7,1.6-0.3,2.3c0,0,0,0,0,0c2,3.2,7.3,14.2,7.5,19.7c0.1,1.6,0,3.6,0,5.8
		C8,85,7.8,91.8,9.7,94.7c2.5,4,6.1,4.6,9,5.1l0.2,0c2.8,0.5,5.4,0.6,10.8,0c0.4-0.1,0.9-0.1,1.4-0.2C35.8,99,41.3,98.3,43,106
		c0.4,2,0.4,4.2-0.2,6.3c-0.9,3.1-3.2,13.5,5.2,18.4c4.9,2.9,10.3,3,15,2.5c1.1-0.1,2.1-0.3,3.1-0.5c1.2-0.2,2.5-0.5,3.8-0.9
		c2-0.6,7.1-1.6,11.3,0.9c2.7,1.6,4.5,4.4,5.4,8.4c3,13.3,8.2,17.4,13.3,21.3l0.4,0.3c0.3,0.2,0.7,0.4,1.1,0.4
		c0.3,0,0.6-0.1,0.9-0.2c0.6-0.3,1-1,1-1.7c-0.3-4.7-1.3-18.8,9.3-30.6c0.1-0.1,0.2-0.2,0.3-0.3c0.1-0.1,0.1-0.2,0.2-0.3
		c0-0.1,0-0.2,0-0.4c-0.1-0.2-0.2-0.4-0.5-0.5c0,0,0,0,0,0c-1-0.3-1.9-0.7-2.8-1.1c-1.3-0.6-2.6-1.4-3.7-2.2
		c-0.3-0.2-0.5-0.4-0.8-0.6c-0.5-0.4-1-0.8-1.4-1.3c-0.2-0.2-0.4-0.4-0.5-0.6c-0.3-0.4-0.7-0.7-1-1.1c-2.1-2.7-3.7-6-4.5-9.9v0
		c0-0.2-0.1-0.5-0.2-0.7c0-0.1,0-0.2,0-0.2c0-0.2-0.1-0.3-0.1-0.5v0c-4.6-23.6,12.2-31.4,24.5-37.1c1.8-0.8,3.5-1.6,5-2.4
		c6.4-3.3,8.6-8.3,9.3-12.3c0,0,0,0,0,0c0-0.2,0.1-0.5,0.1-0.8c0,0,0,0,0,0c0-0.1,0-0.3,0-0.4C136.3,57.6,136.2,57.4,136,57.2z
		 M107.3,128.4c0.2,0.1,0.5,0.3,0.7,0.4c0.2,0.1,0.3,0.2,0.5,0.2c0.3,0.1,0.6,0.3,0.8,0.4c0.3,0.1,0.6,0.2,0.9,0.4
		c0.1,0.1,0.3,0.1,0.4,0.2c0.1,0.1,0.3,0.1,0.4,0.2c-10.5,12.2-9.5,26.5-9.2,31.2c0,0.2-0.1,0.3-0.2,0.4c-0.1,0-0.3,0.1-0.5,0
		l-0.4-0.3c-5.1-3.9-10-7.6-12.8-20.5c-1-4.4-3-7.5-6-9.3c-2.3-1.4-4.8-1.8-7-1.8c-2.3,0-4.3,0.5-5.4,0.8c-1.2,0.3-2.5,0.6-3.7,0.8
		c-1.1,0.2-2.3,0.4-3.6,0.5c-4.3,0.4-9.2,0.2-13.6-2.4c-7.5-4.4-5.4-14-4.6-16.8c0.7-2.3,0.8-4.7,0.2-7c-2-8.9-8.7-8-13.6-7.4
		c-0.5,0.1-0.9,0.1-1.3,0.2c-5.2,0.6-7.7,0.5-10.4,0l-0.2,0c-2.9-0.5-5.8-1-8-4.5C9.2,91.4,9.4,84.5,9.5,79c0-2.2,0.1-4.3,0-5.9
		c-0.3-5.9-5.7-17-7.8-20.4c-0.1-0.2,0-0.5,0.1-0.6c0.2-0.2,0.3-0.1,0.4,0c14,7.9,35,6.6,49.7,1.7c2.8-0.9,5.8-1.9,9-2.8
		c13.6-3.8,29.5-6.6,40.8-5.1c15.1,2,24.8,5.5,33.2,12.2c0,0,0,0,0,0c-0.5,3.8-2.4,8.8-8.6,12.1c-1.5,0.8-3.1,1.5-4.9,2.3
		c-12,5.6-30.1,14-25.2,38.8c0,0.1,0,0.2,0.1,0.3c0,0.1,0,0.1,0,0.2c0,0.2,0.1,0.5,0.2,0.8c0.7,3.3,1.9,6.2,3.5,8.6
		c0.3,0.4,0.5,0.8,0.8,1.2c0.3,0.4,0.6,0.7,0.9,1.1c0,0,0,0,0.1,0.1c0.3,0.4,0.6,0.7,0.9,1c0.3,0.3,0.6,0.6,0.9,0.9
		c0.1,0,0.1,0.1,0.2,0.2c0.3,0.3,0.7,0.6,1,0.8c0.4,0.3,0.7,0.6,1.1,0.8c0,0,0.1,0.1,0.2,0.1c0.3,0.2,0.5,0.3,0.8,0.5
		C106.8,128.1,107.1,128.2,107.3,128.4z"/>
</g>
</svg>
